<?xml version="1.0"?>
 <!-- Created with matplotlib (https://matplotlib.org/) -->
<svg height="288" version="1.1" viewBox="0 0 216 288" width="216" xmlns="http://www.w3.org/2000/svg" xmlns:xlink="http://www.w3.org/1999/xlink"> <metadata> <rdf:rdf xmlns:cc="http://creativecommons.org/ns#" xmlns:dc="http://purl.org/dc/elements/1.1/" xmlns:rdf="http://www.w3.org/1999/02/22-rdf-syntax-ns#"> <cc:work> <dc:type rdf:resource="http://purl.org/dc/dcmitype/StillImage"></dc:type> <dc:date>2021-02-21T21:33:13.435548</dc:date> <dc:format>image/svg+xml</dc:format> <dc:creator> <cc:agent> <dc:title>Matplotlib v3.3.2, https://matplotlib.org/</dc:title> </cc:agent> </dc:creator> </cc:work> </rdf:rdf> </metadata> <defs> <style type="text/css">*{stroke-linecap:butt;stroke-linejoin:round;}</style> </defs> <g id="figure_1"> <g id="patch_1"> <path d="M 0 288 L 216 288 L 216 0 L 0 0 z
"></path> </g> <g id="axes_1"> <g id="patch_2"> <path d="M 43.2 252 L 205.2 252 L 205.2 34.56 L 43.2 34.56 z
"></path> </g> <g id="matplotlib.axis_1"> <g id="xtick_1"> <g id="line2d_1"> <defs> <path d="M 0 0 L 0 3.5 " id="m29da9587ad" style="stroke:#ffffff;stroke-width:0.8;"></path> </defs> <g> <use style="fill:#ffffff;stroke:#ffffff;stroke-width:0.8;" x="43.2" xlink:href="#m29da9587ad" y="252"></use> </g> </g> <g id="text_1">  <g style="fill:#ffffff;" transform="translate(38.16 272.677188)scale(0.18 -0.18)"> <defs> <path d="M 12.203125 0 L 12.203125 72.90625 L 55.171875 72.90625 L 55.171875 68.84375 L 17.09375 68.84375 L 17.09375 0 z
" id="DejaVuSans-ExtraLight-915"></path> </defs> <use transform="translate(0 0.09375)" xlink:href="#DejaVuSans-ExtraLight-915"></use> </g> </g> </g> <g id="xtick_2"> <g id="line2d_2"> <g> <use style="fill:#ffffff;stroke:#ffffff;stroke-width:0.8;" x="102.496502" xlink:href="#m29da9587ad" y="252"></use> </g> </g> <g id="text_2">  <g style="fill:#ffffff;" transform="translate(94.666502 272.677188)scale(0.18 -0.18)"> <defs> <path d="M 16.0625 72.90625 L 22.859375 72.90625 L 43.109375 18.84375 L 63.484375 72.90625 L 70.21875 72.90625 L 70.21875 0 L 65.234375 0 L 65.234375 64.015625 L 46.484375 14.015625 L 39.75 14.015625 L 21.046875 64.015625 L 21.046875 0 L 16.0625 0 z
" id="DejaVuSans-ExtraLight-77"></path> </defs> <use transform="translate(0 0.09375)" xlink:href="#DejaVuSans-ExtraLight-77"></use> </g> </g> </g> <g id="xtick_3"> <g id="line2d_3"> <g> <use style="fill:#ffffff;stroke:#ffffff;stroke-width:0.8;" x="136.730973" xlink:href="#m29da9587ad" y="252"></use> </g> </g> <g id="text_3">  <g style="fill:#ffffff;" transform="translate(130.790973 272.677188)scale(0.18 -0.18)"> <defs> <path d="M 17.28125 72.90625 L 22.125 72.90625 L 22.125 41.5 L 55.515625 72.90625 L 62.015625 72.90625 L 25.78125 38.765625 L 64.40625 0 L 58.015625 0 L 22.125 35.984375 L 22.125 0 L 17.28125 0 z
" id="DejaVuSans-ExtraLight-75"></path> </defs> <use transform="translate(0 0.09375)" xlink:href="#DejaVuSans-ExtraLight-75"></use> </g> </g> </g> <g id="xtick_4"> <g id="line2d_4"> <g> <use style="fill:#ffffff;stroke:#ffffff;stroke-width:0.8;" x="205.2" xlink:href="#m29da9587ad" y="252"></use> </g> </g> <g id="text_4">  <g style="fill:#ffffff;" transform="translate(200.16 272.677188)scale(0.18 -0.18)"> <use transform="translate(0 0.09375)" xlink:href="#DejaVuSans-ExtraLight-915"></use> </g> </g> </g> </g> <g id="matplotlib.axis_2"> <g id="ytick_1"> <g id="line2d_5"> <defs> <path d="M 0 0 L -3.5 0 " id="m4380042e3f" style="stroke:#ffffff;stroke-width:0.8;"></path> </defs> <g> <use style="fill:#ffffff;stroke:#ffffff;stroke-width:0.8;" x="43.2" xlink:href="#m4380042e3f" y="240.942649"></use> </g> </g> <g id="text_5">  <g style="fill:#ffffff;" transform="translate(24.7475 247.781243)scale(0.18 -0.18)"> <defs> <path d="M 31.5 70.21875 Q 22.5625 70.21875 18.21875 61.53125 Q 13.875 52.78125 13.875 36.375 Q 13.875 19.96875 18.21875 11.234375 Q 22.5625 2.546875 31.5 2.546875 Q 40.71875 2.546875 45.0625 11.234375 Q 49.421875 19.96875 49.421875 36.375 Q 49.421875 52.78125 45.0625 61.53125 Q 40.71875 70.21875 31.5 70.21875 z
M 31.5 74.21875 Q 42.046875 74.21875 48.1875 65.625 Q 54.34375 56.984375 54.34375 36.375 Q 54.34375 15.765625 48.1875 7.125 Q 42.046875 -1.46875 31.5 -1.46875 Q 21.234375 -1.46875 15.09375 7.125 Q 8.9375 15.765625 8.9375 36.375 Q 8.9375 56.984375 15.09375 65.625 Q 21.234375 74.21875 31.5 74.21875 z
" id="DejaVuSans-ExtraLight-48"></path> </defs> <use xlink:href="#DejaVuSans-ExtraLight-48"></use> </g> </g> </g> <g id="ytick_2"> <g id="line2d_6"> <g> <use style="fill:#ffffff;stroke:#ffffff;stroke-width:0.8;" x="43.2" xlink:href="#m4380042e3f" y="202.81647"></use> </g> </g> <g id="text_6">  <g style="fill:#ffffff;" transform="translate(24.7475 209.655063)scale(0.18 -0.18)"> <defs> <path d="M 14.84375 4 L 30.953125 4 L 30.953125 68.40625 L 10.984375 60.40625 L 10.984375 64.890625 L 30.859375 72.90625 L 35.84375 72.90625 L 35.84375 4 L 51.953125 4 L 51.953125 0 L 14.84375 0 z
" id="DejaVuSans-ExtraLight-49"></path> </defs> <use xlink:href="#DejaVuSans-ExtraLight-49"></use> </g> </g> </g> <g id="ytick_3"> <g id="line2d_7"> <g> <use style="fill:#ffffff;stroke:#ffffff;stroke-width:0.8;" x="43.2" xlink:href="#m4380042e3f" y="164.69029"></use> </g> </g> <g id="text_7">  <g style="fill:#ffffff;" transform="translate(24.7475 171.528884)scale(0.18 -0.18)"> <defs> <path d="M 12.015625 3.953125 L 53.609375 3.953125 L 53.609375 0 L 6.9375 0 L 6.9375 5.125 L 25.09375 24.03125 Q 31.84375 30.859375 37.3125 36.671875 Q 42.390625 42.09375 44.09375 45.0625 Q 45.796875 48.046875 45.796875 52.9375 Q 45.796875 61.375 40.625 66.5 Q 36.859375 70.21875 28.515625 70.21875 Q 23.640625 70.21875 17.28125 67.390625 Q 14.5 66.109375 7.8125 61.765625 L 7.8125 66.9375 Q 10.640625 68.953125 16.109375 71.390625 Q 22.3125 74.171875 28.421875 74.21875 Q 37.84375 74.21875 44.1875 69.390625 Q 50.390625 64.546875 50.390625 53.421875 Q 50.390625 48.921875 48.734375 44.921875 Q 46.78125 40.234375 42.578125 35.40625 Q 41.359375 33.984375 34.8125 27.25 z
" id="DejaVuSans-ExtraLight-50"></path> </defs> <use xlink:href="#DejaVuSans-ExtraLight-50"></use> </g> </g> </g> <g id="ytick_4"> <g id="line2d_8"> <g> <use style="fill:#ffffff;stroke:#ffffff;stroke-width:0.8;" x="43.2" xlink:href="#m4380042e3f" y="126.56411"></use> </g> </g> <g id="text_8">  <g style="fill:#ffffff;" transform="translate(24.7475 133.402704)scale(0.18 -0.18)"> <defs> <path d="M 40.578125 39.3125 Q 46.4375 37.890625 49.8125 33.015625 Q 53.125 28.21875 53.125 21.1875 Q 53.125 10.40625 46.921875 4.484375 Q 40.71875 -1.421875 27.09375 -1.421875 Q 22.515625 -1.421875 17.671875 0 Q 12.796875 1.46875 7.625 4.5 L 7.625 9.8125 Q 11.71875 6.25 16.609375 4.390625 Q 21.484375 2.59375 26.5625 2.59375 Q 37.109375 2.59375 42.671875 7.375 Q 48.1875 12.109375 48.1875 21.1875 Q 48.1875 28.609375 43.0625 32.765625 Q 37.890625 36.96875 28.71875 36.96875 L 20.21875 36.96875 L 20.21875 41.0625 L 29.109375 41.0625 Q 37.546875 41.0625 42 44.4375 Q 46.484375 47.859375 46.484375 54.296875 Q 46.484375 61.921875 41.890625 66.015625 Q 37.25 70.125 28.65625 70.125 Q 24.65625 70.125 20.015625 68.703125 Q 15.375 67.28125 9.8125 64.3125 L 9.8125 69.390625 Q 15.4375 71.78125 20.3125 72.90625 Q 25.25 74.125 29.59375 74.21875 Q 40.765625 74.21875 46.09375 69.140625 Q 51.46875 64.015625 51.46875 55.328125 Q 51.46875 49.515625 48.640625 45.125 Q 45.90625 40.875 40.578125 39.3125 z
" id="DejaVuSans-ExtraLight-51"></path> </defs> <use xlink:href="#DejaVuSans-ExtraLight-51"></use> </g> </g> </g> <g id="ytick_5"> <g id="line2d_9"> <g> <use style="fill:#ffffff;stroke:#ffffff;stroke-width:0.8;" x="43.2" xlink:href="#m4380042e3f" y="88.437931"></use> </g> </g> <g id="text_9">  <g style="fill:#ffffff;" transform="translate(24.7475 95.276524)scale(0.18 -0.18)"> <defs> <path d="M 40.234375 70.21875 L 9.96875 23.25 L 40.234375 23.25 z
M 36.421875 72.90625 L 45.21875 72.90625 L 45.21875 23.25 L 55.609375 23.25 L 55.609375 19.34375 L 45.21875 19.34375 L 45.21875 0 L 40.234375 0 L 40.234375 19.34375 L 4.890625 19.34375 L 4.890625 24.421875 z
" id="DejaVuSans-ExtraLight-52"></path> </defs> <use xlink:href="#DejaVuSans-ExtraLight-52"></use> </g> </g> </g> <g id="ytick_6"> <g id="line2d_10"> <g> <use style="fill:#ffffff;stroke:#ffffff;stroke-width:0.8;" x="43.2" xlink:href="#m4380042e3f" y="50.311751"></use> </g> </g> <g id="text_10">  <g style="fill:#ffffff;" transform="translate(24.7475 57.150345)scale(0.18 -0.18)"> <defs> <path d="M 12.75 72.90625 L 47.359375 72.90625 L 47.359375 68.953125 L 17.671875 68.953125 L 17.671875 44.484375 Q 19.828125 45.265625 21.96875 45.703125 Q 24.125 46.09375 28.265625 46.09375 Q 39.453125 46.09375 46 39.9375 Q 52.484375 33.84375 52.484375 23.390625 Q 52.484375 11.625 45.796875 5.078125 Q 39.109375 -1.421875 26.90625 -1.421875 Q 22.859375 -1.421875 18.609375 -0.734375 Q 14.40625 -0.046875 9.859375 1.3125 L 9.859375 6.296875 Q 13.671875 4.5 17.78125 3.5625 Q 21.828125 2.6875 26.375 2.6875 Q 36.140625 2.6875 41.890625 8.25 Q 47.65625 13.8125 47.65625 23.390625 Q 47.65625 32.03125 42.046875 37.0625 Q 36.375 42.140625 26.703125 42.140625 Q 24.703125 42.140625 20.796875 41.0625 Q 16.84375 40.046875 12.75 37.84375 z
" id="DejaVuSans-ExtraLight-53"></path> </defs> <use xlink:href="#DejaVuSans-ExtraLight-53"></use> </g> </g> </g> <g id="text_11">  <g style="fill:#ffffff;" transform="translate(17.004062 216.645469)rotate(-90)scale(0.18 -0.18)"> <defs> <path d="M 12.203125 72.90625 L 49.171875 72.90625 L 49.171875 68.84375 L 17.140625 68.84375 L 17.140625 40.875 L 46.046875 40.875 L 46.046875 36.921875 L 17.140625 36.921875 L 17.140625 0 L 12.203125 0 z
" id="DejaVuSans-ExtraLight-70"></path> <path d="M 41.015625 50.828125 Q 39.9375 51.375 38.09375 51.765625 Q 36.421875 52.046875 33.890625 52.046875 Q 25.59375 52.046875 20.125 45.90625 Q 15.828125 40.921875 15.828125 28.8125 L 15.828125 0 L 11.421875 0 L 11.421875 54.6875 L 15.828125 54.6875 L 15.828125 44.4375 Q 18.015625 48.828125 21.96875 51.859375 Q 27.4375 56 34.859375 56 Q 36.765625 56 38.1875 55.859375 Q 39.65625 55.859375 41.015625 55.515625 z
" id="DejaVuSans-ExtraLight-114"></path> <path d="M 53.953125 29.59375 L 53.953125 26.765625 L 12.453125 26.765625 Q 12.453125 13.578125 17.578125 8.296875 Q 23.25 2.4375 34.421875 2.4375 Q 37.359375 2.4375 42.1875 3.71875 Q 47.078125 4.984375 51.859375 7.515625 L 51.859375 2.78125 Q 47.015625 0.734375 41.9375 -0.34375 Q 36.859375 -1.421875 33.890625 -1.421875 Q 21.234375 -1.421875 14.84375 5.421875 Q 7.90625 12.703125 7.90625 26.765625 Q 7.90625 41.359375 14.265625 48.53125 Q 20.75 56 32.328125 56 Q 43.0625 56 48.53125 48.921875 Q 53.953125 41.5 53.953125 29.59375 z
M 49.421875 30.5625 Q 49.421875 42.09375 44.234375 47.359375 Q 39.890625 52.046875 32.421875 52.046875 Q 24.265625 52.046875 18.75 47.171875 Q 13.671875 42.625 12.640625 30.5625 z
" id="DejaVuSans-ExtraLight-101"></path> <path d="M 18.359375 46.34375 Q 12.703125 40.625 12.703125 27.296875 Q 12.703125 13.96875 18.359375 8.25 Q 23.96875 2.546875 30.21875 2.546875 Q 36.328125 2.546875 42 8.25 Q 47.609375 13.96875 47.609375 27.296875 Q 47.609375 40.625 42 46.34375 Q 36.328125 52.046875 30.21875 52.046875 Q 23.96875 52.046875 18.359375 46.34375 z
M 47.65625 12.40625 Q 44.578125 5.28125 40.96875 2.640625 Q 35.453125 -1.421875 30.5625 -1.421875 Q 20.84375 -1.421875 14.390625 6.484375 Q 7.953125 14.40625 7.953125 27.296875 Q 7.953125 40.1875 14.390625 48.09375 Q 20.84375 56 30.5625 56 Q 35.453125 56 40.96875 51.953125 Q 44.578125 49.3125 47.65625 42.1875 L 47.65625 54.6875 L 52.046875 54.6875 L 52.046875 -20.796875 L 47.65625 -20.796875 z
" id="DejaVuSans-ExtraLight-113"></path> <path d="M 10.75 21.6875 L 10.75 54.6875 L 15.234375 54.6875 L 15.234375 21.96875 Q 15.234375 11.328125 18.65625 6.984375 Q 22.078125 2.640625 28.71875 2.640625 Q 36.46875 2.640625 42 7.328125 Q 47.5625 12.0625 47.5625 23.78125 L 47.5625 54.6875 L 52.046875 54.6875 L 52.046875 0 L 47.5625 0 L 47.5625 10.25 Q 45.171875 5.28125 41.265625 2.640625 Q 35.5 -1.3125 28.515625 -1.3125 Q 20.40625 -1.3125 15.578125 4.203125 Q 10.75 9.671875 10.75 21.6875 z
" id="DejaVuSans-ExtraLight-117"></path> <path d="M 52.640625 33.015625 L 52.640625 0 L 48.140625 0 L 48.140625 32.71875 Q 48.140625 43.359375 44.71875 47.703125 Q 41.3125 52.046875 34.671875 52.046875 Q 26.90625 52.046875 21.390625 47.359375 Q 15.828125 42.625 15.828125 30.90625 L 15.828125 0 L 11.328125 0 L 11.328125 54.6875 L 15.828125 54.6875 L 15.828125 44.4375 Q 18.21875 49.421875 22.125 52.046875 Q 27.875 56 34.859375 56 Q 42.96875 56 47.796875 50.484375 Q 52.640625 45.015625 52.640625 33.015625 z
" id="DejaVuSans-ExtraLight-110"></path> <path d="M 48.78125 52.046875 L 48.78125 47.265625 Q 44.734375 49.75 42.09375 50.640625 Q 37.546875 52.046875 33.40625 52.046875 Q 21.578125 52.046875 16.453125 45.984375 Q 11.328125 39.9375 11.328125 27.296875 Q 11.328125 14.546875 16.453125 8.484375 Q 21.578125 2.4375 33.40625 2.4375 Q 37.3125 2.4375 41.109375 3.515625 Q 44.96875 4.546875 48.78125 6.640625 L 48.78125 2.09375 Q 45.015625 0.34375 41.015625 -0.53125 Q 36.96875 -1.421875 33.015625 -1.421875 Q 21 -1.421875 13.921875 5.078125 Q 6.84375 11.625 6.84375 27.296875 Q 6.84375 42.96875 13.921875 49.515625 Q 21 56 33.015625 56 Q 36.921875 56 41.3125 54.890625 Q 45.703125 53.8125 48.78125 52.046875 z
" id="DejaVuSans-ExtraLight-99"></path> <path d="M 29.78125 -5.078125 Q 26.859375 -12.359375 23.484375 -15.140625 Q 18.953125 -18.890625 14.59375 -18.890625 L 7.90625 -18.890625 L 7.90625 -15.09375 L 13.625 -15.09375 Q 17.1875 -15.09375 19.875 -12.796875 Q 23.34375 -9.8125 25.59375 -4.046875 L 27.203125 0 L 5.375 54.6875 L 10.15625 54.6875 L 29.59375 5.953125 L 49.078125 54.6875 L 53.8125 54.6875 z
" id="DejaVuSans-ExtraLight-121"></path> <path id="DejaVuSans-ExtraLight-32"></path> <path d="M 11.328125 75.984375 L 27.984375 75.984375 L 27.984375 70.90625 L 16.21875 70.90625 L 16.21875 -9.078125 L 27.984375 -9.078125 L 27.984375 -13.1875 L 11.328125 -13.1875 z
" id="DejaVuSans-ExtraLight-91"></path> <path d="M 2.203125 72.90625 L 58.890625 72.90625 L 58.890625 68.890625 L 33.015625 68.890625 L 33.015625 0 L 28.078125 0 L 28.078125 68.890625 L 2.203125 68.890625 z
" id="DejaVuSans-ExtraLight-84"></path> <path d="M 12.15625 72.90625 L 17.09375 72.90625 L 17.09375 40.875 L 57.859375 40.875 L 57.859375 72.90625 L 62.796875 72.90625 L 62.796875 0 L 57.859375 0 L 57.859375 36.921875 L 17.09375 36.921875 L 17.09375 0 L 12.15625 0 z
" id="DejaVuSans-ExtraLight-72"></path> <path d="M 5.515625 54.6875 L 48.1875 54.6875 L 48.1875 49.515625 L 8.640625 3.8125 L 48.1875 3.8125 L 48.1875 0 L 4.296875 0 L 4.296875 4.984375 L 43.796875 50.828125 L 5.515625 50.828125 z
" id="DejaVuSans-ExtraLight-122"></path> <path d="M 27.984375 75.984375 L 27.984375 -13.1875 L 11.328125 -13.1875 L 11.328125 -9.078125 L 23.09375 -9.078125 L 23.09375 70.90625 L 11.328125 70.90625 L 11.328125 75.984375 z
" id="DejaVuSans-ExtraLight-93"></path> </defs> <use xlink:href="#DejaVuSans-ExtraLight-70"></use> <use x="50.269531" xlink:href="#DejaVuSans-ExtraLight-114"></use> <use x="89.132812" xlink:href="#DejaVuSans-ExtraLight-101"></use> <use x="150.65625" xlink:href="#DejaVuSans-ExtraLight-113"></use> <use x="214.132812" xlink:href="#DejaVuSans-ExtraLight-117"></use> <use x="277.511719" xlink:href="#DejaVuSans-ExtraLight-101"></use> <use x="339.035156" xlink:href="#DejaVuSans-ExtraLight-110"></use> <use x="402.414062" xlink:href="#DejaVuSans-ExtraLight-99"></use> <use x="457.394531" xlink:href="#DejaVuSans-ExtraLight-121"></use> <use x="516.574219" xlink:href="#DejaVuSans-ExtraLight-32"></use> <use x="548.361328" xlink:href="#DejaVuSans-ExtraLight-91"></use> <use x="587.375" xlink:href="#DejaVuSans-ExtraLight-84"></use> <use x="648.458984" xlink:href="#DejaVuSans-ExtraLight-72"></use> <use x="723.654297" xlink:href="#DejaVuSans-ExtraLight-122"></use> <use x="776.144531" xlink:href="#DejaVuSans-ExtraLight-93"></use> </g> </g> </g> <g id="LineCollection_1"> <path clip-path="url(#p81115075d2)" d="M 43.2 240.942649 L 205.199872 240.942649 " style="fill:none;stroke:#ffffff;stroke-dasharray:3.7,1.6;stroke-dashoffset:0;"></path> </g> <g id="line2d_11"> <path clip-path="url(#p81115075d2)" d="M 43.2 242.116364 L 44.385829 241.301493 L 45.572083 239.021013 L 51.501653 232.455723 L 55.059138 228.071251 L 60.989134 220.289698 L 68.104532 210.949584 L 72.848272 205.062978 L 76.406184 200.938183 L 79.96367 197.129645 L 83.521582 193.700576 L 85.893239 191.658157 L 88.265323 189.8342 L 90.63698 188.248761 L 93.009064 186.920827 L 95.380721 185.867781 L 97.752804 185.104228 L 100.124461 184.641415 L 102.496545 184.486356 L 102.496545 184.486356 L 106.604746 184.587657 L 115.505707 184.930907 L 118.928924 184.789535 L 121.667582 184.481018 L 124.406668 183.978934 L 127.145326 183.280005 L 130.568543 182.145675 L 133.992186 180.76463 L 136.730845 179.527779 L 136.730845 179.527779 L 140.839046 181.564136 L 144.947248 183.830433 L 149.055449 186.328384 L 153.16365 189.062374 L 157.271852 192.037703 L 161.380053 195.260166 L 165.487828 198.735405 L 169.596029 202.467539 L 173.704231 206.457367 L 177.812432 210.699667 L 183.289749 216.722079 L 190.136609 224.705014 L 196.983896 232.723674 L 201.091671 237.182988 L 202.461213 238.632775 L 205.199872 242.116364 L 205.199872 242.116364 " style="fill:none;stroke:#ff0000;stroke-linecap:square;stroke-width:1.5;"></path> </g> <g id="line2d_12"> <path clip-path="url(#p81115075d2)" d="M 43.2 241.301607 L 44.385829 239.071874 L 55.059138 221.980594 L 60.989134 212.775409 L 65.732448 205.791875 L 69.29036 200.897426 L 72.848272 196.379474 L 76.406184 192.2986 L 78.777842 189.843313 L 81.149925 187.611139 L 83.521582 185.608257 L 85.893239 183.838592 L 88.265323 182.304356 L 90.63698 181.006579 L 93.009064 179.945413 L 95.380721 179.120744 L 97.752804 178.532114 L 100.124461 178.179142 L 103.181103 178.050504 L 105.235204 177.887515 L 107.289304 177.542091 L 110.027963 176.853266 L 116.874823 174.94608 L 118.928924 174.673935 L 120.983024 174.644502 L 123.037125 174.846494 L 125.775784 175.406873 L 128.514869 176.210649 L 131.938086 177.455087 L 136.046287 179.210569 L 136.730845 179.527131 L 136.730845 179.527131 L 147.685907 174.398473 L 150.424565 173.355646 L 153.16365 172.543254 L 155.902309 172.050968 L 157.271852 171.959732 L 158.640968 171.993436 L 160.01051 172.168664 L 161.380053 172.498989 L 162.749169 172.991579 L 164.118712 174.31818 L 168.226913 179.779602 L 172.334688 185.760418 L 176.442889 192.200387 L 180.551091 199.015213 L 187.397951 210.894263 L 195.614353 225.186395 L 201.091671 234.307626 L 203.830756 238.766292 L 205.199872 241.301607 L 205.199872 241.301607 " style="fill:none;stroke:#ff0000;stroke-linecap:square;stroke-width:1.5;"></path> </g> <g id="line2d_13"> <path clip-path="url(#p81115075d2)" d="M 43.2 241.293677 L 45.572083 234.583546 L 52.687481 215.771479 L 57.431222 203.781253 L 60.989134 195.242628 L 64.54662 187.216914 L 65.732448 184.904943 L 71.662444 180.031883 L 77.592013 175.172931 L 81.149925 172.48431 L 84.707411 170.089605 L 87.079494 168.695864 L 89.451151 167.484596 L 91.823235 166.467199 L 94.194892 165.650536 L 96.566976 165.03781 L 98.938633 164.629669 L 101.310716 164.425847 L 104.550645 164.259769 L 106.604746 164.002951 L 112.767048 164.281692 L 114.820722 164.182945 L 116.874823 163.857881 L 118.928924 163.243096 L 120.983024 162.323226 L 123.037125 161.136167 L 125.775784 159.259101 L 136.046287 151.817557 L 136.730845 151.548043 L 136.730845 151.548043 L 138.100388 152.04254 L 142.208589 154.375405 L 146.31679 157.060746 L 149.055449 159.07804 L 151.794108 161.305028 L 154.532767 163.761498 L 157.271852 166.46167 L 160.01051 169.413819 L 162.749169 172.620307 L 164.118712 173.644299 L 165.487828 174.445941 L 168.226913 176.421639 L 170.965572 178.760452 L 175.073773 182.680395 L 179.181548 186.929443 L 181.920633 190.008551 L 184.659292 193.513529 L 186.028834 195.533988 L 187.397951 197.78858 L 188.767493 200.293851 L 191.506152 205.992457 L 194.244811 212.383624 L 198.353012 222.748112 L 203.830756 237.282498 L 205.199872 241.293677 L 205.199872 241.293677 " style="fill:none;stroke:#ff0000;stroke-linecap:square;stroke-width:1.5;"></path> </g> <g id="line2d_14"> <path clip-path="url(#p81115075d2)" d="M 43.2 195.228292 L 45.572083 195.097634 L 47.943741 194.708061 L 50.315398 194.066511 L 52.687481 193.184272 L 55.059138 192.076973 L 57.431222 190.76406 L 60.989134 188.459942 L 64.54662 185.834383 L 65.732448 184.681028 L 68.104532 179.868398 L 70.476615 175.499252 L 72.848272 171.78561 L 74.034101 170.275394 L 75.21993 169.04125 L 76.406184 168.077534 L 77.592013 167.341508 L 79.96367 166.330936 L 82.335754 165.668417 L 85.893239 164.991754 L 90.63698 164.407927 L 95.380721 164.062352 L 101.310716 163.8872 L 106.604746 163.846367 L 108.658847 163.184153 L 110.712947 162.308471 L 113.451606 160.882018 L 117.559807 158.408735 L 123.037125 155.078909 L 125.775784 153.656078 L 127.829884 152.783027 L 129.883985 152.116047 L 131.938086 151.677139 L 133.992186 151.472363 L 136.046287 151.493561 L 138.100388 151.723347 L 140.839046 152.317201 L 143.577705 153.195437 L 146.31679 154.315508 L 149.055449 155.637419 L 153.16365 157.893917 L 158.640968 160.992737 L 161.380053 162.299473 L 164.118712 163.293461 L 166.85737 163.993038 L 172.334688 165.095076 L 173.704231 165.569594 L 175.073773 166.472841 L 176.442889 168.04669 L 177.812432 170.0946 L 180.551091 174.739893 L 184.659292 181.814969 L 186.028834 183.950111 L 187.397951 185.878075 L 188.767493 187.570153 L 190.136609 189.026574 L 191.506152 190.267771 L 192.875694 191.32135 L 194.244811 192.213312 L 196.983896 193.592069 L 199.722555 194.517963 L 202.461213 195.053064 L 205.199872 195.228292 L 205.199872 195.228292 " style="fill:none;stroke:#ff0000;stroke-linecap:square;stroke-width:1.5;"></path> </g> <g id="line2d_15"> <path clip-path="url(#p81115075d2)" d="M 43.2 195.228254 L 44.385829 195.105984 L 45.572083 194.74245 L 46.757912 194.147072 L 47.943741 193.334374 L 49.129569 192.322582 L 51.501653 189.784674 L 53.87331 186.702325 L 56.245393 183.234902 L 60.989134 175.702313 L 64.54662 170.108973 L 65.732448 168.44202 L 66.918703 167.034821 L 68.104532 165.994739 L 69.29036 165.257036 L 72.848272 163.362317 L 74.034101 162.530175 L 75.21993 161.513922 L 77.592013 158.980628 L 84.707411 150.632024 L 87.079494 148.256725 L 89.451151 146.179915 L 91.823235 144.408611 L 94.194892 142.939304 L 96.566976 141.765743 L 98.938633 140.891014 L 101.310716 140.367694 L 103.181103 140.298418 L 105.919762 140.46217 L 108.658847 140.829745 L 112.082064 141.533745 L 115.505707 142.457275 L 119.613908 143.793445 L 124.406668 145.60116 L 129.883985 147.935588 L 136.730845 151.033874 L 136.730845 151.033874 L 138.100388 150.452488 L 140.839046 149.055506 L 143.577705 147.943175 L 146.31679 147.151485 L 149.055449 146.685621 L 151.794108 146.541618 L 154.532767 146.714978 L 157.271852 147.207187 L 160.01051 148.029302 L 162.749169 149.20111 L 165.487828 151.774742 L 168.226913 154.807794 L 170.965572 158.246356 L 173.704231 161.802117 L 175.073773 163.215684 L 176.442889 164.046148 L 177.812432 164.476631 L 179.181548 164.738405 L 180.551091 166.328724 L 184.659292 172.273549 L 192.875694 184.58312 L 195.614353 188.288756 L 198.353012 191.451894 L 199.722555 192.746049 L 201.091671 193.801115 L 202.461213 194.58354 L 203.830756 195.065455 L 205.199872 195.228254 L 205.199872 195.228254 " style="fill:none;stroke:#ff0000;stroke-linecap:square;stroke-width:1.5;"></path> </g> <g id="line2d_16"> <path clip-path="url(#p81115075d2)" d="M 43.2 165.06793 L 47.943741 165.167782 L 56.245393 165.430395 L 59.802879 165.319868 L 62.174963 165.080626 L 64.54662 164.588798 L 65.732448 164.144056 L 66.918703 163.429533 L 68.104532 162.338477 L 70.476615 159.369172 L 75.21993 153.0904 L 77.592013 150.274972 L 79.96367 147.76707 L 82.335754 145.593458 L 84.707411 143.764317 L 87.079494 142.27629 L 89.451151 141.115234 L 91.823235 140.259758 L 94.194892 139.684473 L 96.566976 139.362306 L 98.938633 139.259442 L 111.397505 139.481717 L 128.514869 140.023338 L 139.46993 139.899771 L 142.208589 140.130473 L 144.947248 140.556418 L 147.685907 141.190418 L 150.424565 142.039679 L 153.16365 143.117049 L 155.902309 144.448758 L 158.640968 146.07606 L 161.380053 148.050881 L 162.749169 149.185173 L 165.487828 150.747279 L 168.226913 152.690494 L 170.965572 155.044366 L 173.704231 157.807447 L 176.442889 160.960025 L 179.181548 164.46302 L 180.551091 164.925528 L 184.659292 165.287041 L 188.767493 165.456131 L 194.244811 165.417852 L 205.199872 165.06793 L 205.199872 165.06793 " style="fill:none;stroke:#ff0000;stroke-linecap:square;stroke-width:1.5;"></path> </g> <g id="line2d_17"> <path clip-path="url(#p81115075d2)" d="M 43.2 130.692375 L 46.757912 130.584783 L 50.315398 130.274398 L 55.059138 129.605969 L 62.174963 128.29706 L 71.662444 126.541692 L 78.777842 125.46661 L 85.893239 124.625508 L 93.009064 124.01366 L 98.938633 123.72737 L 104.550645 123.560263 L 106.604746 123.214497 L 108.658847 122.663078 L 111.397505 121.666269 L 114.820722 120.140917 L 120.983024 117.321638 L 123.037125 116.575051 L 129.199427 116.507682 L 133.992186 116.136981 L 136.730845 115.850158 L 136.730845 115.850158 L 158.640968 118.368202 L 162.749169 119.199696 L 166.85737 120.368072 L 170.965572 121.816448 L 186.028834 127.488899 L 190.136609 128.700854 L 194.244811 129.642685 L 198.353012 130.286026 L 202.461213 130.627865 L 205.199872 130.692375 L 205.199872 130.692375 " style="fill:none;stroke:#ff0000;stroke-linecap:square;stroke-width:1.5;"></path> </g> <g id="line2d_18"> <path clip-path="url(#p81115075d2)" d="M 43.2 130.692337 L 45.572083 130.486799 L 47.943741 129.883414 L 50.315398 128.919431 L 52.687481 127.649906 L 55.059138 126.141024 L 58.61705 123.588324 L 64.54662 119.277816 L 65.732448 118.528789 L 69.29036 117.959146 L 79.96367 116.477601 L 87.079494 115.693841 L 93.009064 115.225689 L 98.938633 114.965936 L 104.550645 114.957891 L 108.658847 115.221953 L 115.505707 115.963584 L 120.983024 116.454039 L 123.037125 116.554959 L 125.775784 115.865447 L 127.829884 115.566271 L 130.568543 115.440187 L 133.307628 115.541184 L 136.730845 115.850044 L 136.730845 115.850044 L 142.208589 115.342279 L 146.31679 115.223707 L 149.055449 115.327753 L 153.16365 115.750649 L 157.271852 116.417171 L 183.289749 121.388786 L 186.028834 122.311211 L 188.767493 123.605595 L 192.875694 126.042163 L 195.614353 127.668244 L 198.353012 129.064616 L 201.091671 130.08491 L 202.461213 130.419315 L 203.830756 130.623633 L 205.199872 130.692337 L 205.199872 130.692337 " style="fill:none;stroke:#ff0000;stroke-linecap:square;stroke-width:1.5;"></path> </g> <g id="line2d_19"> <path clip-path="url(#p81115075d2)" d="M 43.2 120.595457 L 47.943741 120.479744 L 52.687481 120.146979 L 58.61705 119.487929 L 65.732448 118.48788 L 69.29036 116.689773 L 72.848272 115.32741 L 77.592013 113.846208 L 94.194892 109.124433 L 97.752804 108.290156 L 100.124461 107.910648 L 102.496545 107.769009 L 102.496545 107.769009 L 108.658847 107.886667 L 120.298466 108.216725 L 123.037125 108.053888 L 125.775784 107.703928 L 134.676744 106.307099 L 136.730845 106.26009 L 136.730845 106.26009 L 139.46993 106.455601 L 142.208589 106.917919 L 144.947248 107.584021 L 149.055449 108.814734 L 160.01051 112.267327 L 164.118712 113.283389 L 168.226913 114.083505 L 180.551091 116.27252 L 186.028834 117.492062 L 188.767493 118.595777 L 191.506152 119.386399 L 194.244811 119.892258 L 198.353012 120.341994 L 202.461213 120.556263 L 205.199872 120.595457 L 205.199872 120.595457 " style="fill:none;stroke:#ff0000;stroke-linecap:square;stroke-width:1.5;"></path> </g> <g id="line2d_20"> <path clip-path="url(#p81115075d2)" d="M 43.2 120.595457 L 46.757912 120.450501 L 50.315398 120.024098 L 53.87331 119.33878 L 57.431222 118.420625 L 60.989134 117.272341 L 63.360791 116.344159 L 65.732448 115.222906 L 68.104532 113.868054 L 72.848272 110.743576 L 76.406184 108.45875 L 78.777842 107.100696 L 81.149925 105.931175 L 83.521582 104.986828 L 85.893239 104.291673 L 88.265323 103.852345 L 90.63698 103.653898 L 93.009064 103.659274 L 96.566976 103.92162 L 101.310716 104.310393 L 111.397505 104.607472 L 118.244366 105.126827 L 130.568543 106.133358 L 135.361729 106.271337 L 140.839046 106.062901 L 144.947248 105.621514 L 154.532767 104.366133 L 157.271852 104.264184 L 160.01051 104.406624 L 162.749169 104.837221 L 165.487828 105.573056 L 168.226913 106.606618 L 170.965572 107.912059 L 173.704231 109.451327 L 177.812432 112.087524 L 184.659292 116.630944 L 186.028834 117.392477 L 188.767493 118.13628 L 195.614353 119.623697 L 199.722555 120.259756 L 202.461213 120.509749 L 205.199872 120.595457 L 205.199872 120.595457 " style="fill:none;stroke:#ff0000;stroke-linecap:square;stroke-width:1.5;"></path> </g> <g id="line2d_21"> <path clip-path="url(#p81115075d2)" d="M 43.2 57.439745 L 45.572083 57.558356 L 47.943741 57.910566 L 50.315398 58.485661 L 52.687481 59.266409 L 55.059138 60.229819 L 58.61705 61.957049 L 62.174963 63.933358 L 66.918703 66.807157 L 71.662444 69.916957 L 75.21993 72.512168 L 82.335754 77.886663 L 84.707411 79.40256 L 87.079494 80.680588 L 89.451151 81.706067 L 91.823235 82.489141 L 94.194892 83.05703 L 96.566976 83.443935 L 100.124461 83.752833 L 103.865661 83.784325 L 106.604746 83.595753 L 110.027963 83.129737 L 114.820722 82.193625 L 123.721683 80.378552 L 127.145326 79.868805 L 130.568543 81.058952 L 132.622644 81.56847 L 134.676744 81.880685 L 136.730845 81.984236 L 136.730845 81.984236 L 139.46993 81.811982 L 142.208589 81.342115 L 146.31679 80.268749 L 147.685907 79.855041 L 149.055449 79.602646 L 151.794108 79.535582 L 154.532767 79.288372 L 157.271852 78.787661 L 160.01051 77.966652 L 162.749169 76.777992 L 165.487828 75.203037 L 168.226913 73.254065 L 170.965572 72.019387 L 175.073773 70.096455 L 179.181548 67.914951 L 191.506152 61.077174 L 194.244811 59.841123 L 196.983896 58.823421 L 199.722555 58.06532 L 202.461213 57.597778 L 205.199872 57.439745 L 205.199872 57.439745 " style="fill:none;stroke:#ff0000;stroke-linecap:square;stroke-width:1.5;"></path> </g> <g id="line2d_22"> <path clip-path="url(#p81115075d2)" d="M 43.2 44.443636 L 45.572083 44.635983 L 47.943741 45.208524 L 50.315398 46.147915 L 52.687481 47.432195 L 55.059138 49.030978 L 57.431222 50.905986 L 60.989134 54.133252 L 65.732448 58.901312 L 70.476615 63.624917 L 72.848272 65.706073 L 75.21993 67.457361 L 77.592013 68.841608 L 79.96367 69.891527 L 82.335754 70.662286 L 84.707411 71.202076 L 87.079494 71.550397 L 90.63698 71.794481 L 95.380721 71.800657 L 103.865661 71.727569 L 106.604746 72.00223 L 109.343405 72.540686 L 112.082064 73.321167 L 114.820722 74.310542 L 118.244366 75.771575 L 127.145326 79.848369 L 133.307628 79.359096 L 136.730845 79.292985 L 136.730845 79.292985 L 142.208589 79.412396 L 147.685907 79.590674 L 149.055449 79.427761 L 166.85737 73.666057 L 168.226913 73.145634 L 169.596029 72.150503 L 172.334688 69.719197 L 176.442889 65.640382 L 188.767493 52.86712 L 191.506152 50.463608 L 194.244811 48.387713 L 196.983896 46.702879 L 199.722555 45.460843 L 201.091671 45.018389 L 202.461213 44.699921 L 203.830756 44.507803 L 205.199872 44.443636 L 205.199872 44.443636 " style="fill:none;stroke:#ff0000;stroke-linecap:square;stroke-width:1.5;"></path> </g> <g id="line2d_23"> <path clip-path="url(#p81115075d2)" d="M 43.2 252 L 43.2 34.56 " style="fill:none;stroke:#ffffff;stroke-linecap:square;stroke-width:0.5;"></path> </g> <g id="line2d_24"> <path clip-path="url(#p81115075d2)" d="M 102.496502 252 L 102.496502 34.56 " style="fill:none;stroke:#ffffff;stroke-linecap:square;stroke-width:0.5;"></path> </g> <g id="line2d_25"> <path clip-path="url(#p81115075d2)" d="M 136.730973 252 L 136.730973 34.56 " style="fill:none;stroke:#ffffff;stroke-linecap:square;stroke-width:0.5;"></path> </g> <g id="line2d_26"> <path clip-path="url(#p81115075d2)" d="M 205.2 252 L 205.2 34.56 " style="fill:none;stroke:#ffffff;stroke-linecap:square;stroke-width:0.5;"></path> </g> <g id="patch_3"> <path d="M 43.2 252 L 43.2 34.56 " style="fill:none;stroke:#ffffff;stroke-linecap:square;stroke-linejoin:miter;stroke-width:0.8;"></path> </g> <g id="patch_4"> <path d="M 205.2 252 L 205.2 34.56 " style="fill:none;stroke:#ffffff;stroke-linecap:square;stroke-linejoin:miter;stroke-width:0.8;"></path> </g> <g id="patch_5"> <path d="M 43.2 252 L 205.2 252 " style="fill:none;stroke:#ffffff;stroke-linecap:square;stroke-linejoin:miter;stroke-width:0.8;"></path> </g> <g id="patch_6"> <path d="M 43.2 34.56 L 205.2 34.56 " style="fill:none;stroke:#ffffff;stroke-linecap:square;stroke-linejoin:miter;stroke-width:0.8;"></path> </g> </g> </g> <defs> <clipPath id="p81115075d2"> <rect height="217.44" width="162" x="43.2" y="34.56"></rect> </clipPath> </defs>
</svg>
