<?xml version="1.0" encoding="utf-8" standalone="no"?>
<!DOCTYPE svg PUBLIC "-//W3C//DTD SVG 1.1//EN"
  "http://www.w3.org/Graphics/SVG/1.1/DTD/svg11.dtd">
<!-- Created with matplotlib (http://matplotlib.org/) -->
<svg height="288pt" version="1.1" viewBox="0 0 216 288" width="216pt" xmlns="http://www.w3.org/2000/svg" xmlns:xlink="http://www.w3.org/1999/xlink">
 <defs>
  <style type="text/css">
*{stroke-linecap:butt;stroke-linejoin:round;}
  </style>
 </defs>
 <g id="figure_1">
  <g id="patch_1">
   <path d="M 0 288 
L 216 288 
L 216 0 
L 0 0 
z
"/>
  </g>
  <g id="axes_1">
   <g id="patch_2">
    <path d="M 43.2 252 
L 205.2 252 
L 205.2 34.56 
L 43.2 34.56 
z
"/>
   </g>
   <g id="matplotlib.axis_1">
    <g id="xtick_1">
     <g id="line2d_1">
      <defs>
       <path d="M 0 0 
L 0 3.5 
" id="m05263e31a3" style="stroke:#ffffff;stroke-width:0.8;"/>
      </defs>
      <g>
       <use style="fill:#ffffff;stroke:#ffffff;stroke-width:0.8;" x="43.2" xlink:href="#m05263e31a3" y="252"/>
      </g>
     </g>
     <g id="text_1">
      <!-- $\Gamma$ -->
      <defs>
       <path d="M 12.203125 0 
L 12.203125 72.90625 
L 55.171875 72.90625 
L 55.171875 68.84375 
L 17.09375 68.84375 
L 17.09375 0 
z
" id="DejaVuSans-ExtraLight-393"/>
      </defs>
      <g style="fill:#ffffff;" transform="translate(38.16 272.677188)scale(0.18 -0.18)">
       <use transform="translate(0 0.09375)" xlink:href="#DejaVuSans-ExtraLight-393"/>
      </g>
     </g>
    </g>
    <g id="xtick_2">
     <g id="line2d_2">
      <g>
       <use style="fill:#ffffff;stroke:#ffffff;stroke-width:0.8;" x="102.496425" xlink:href="#m05263e31a3" y="252"/>
      </g>
     </g>
     <g id="text_2">
      <!-- $\mathrm{M}$ -->
      <defs>
       <path d="M 16.0625 72.90625 
L 22.859375 72.90625 
L 43.109375 18.84375 
L 63.484375 72.90625 
L 70.21875 72.90625 
L 70.21875 0 
L 65.234375 0 
L 65.234375 64.015625 
L 46.484375 14.015625 
L 39.75 14.015625 
L 21.046875 64.015625 
L 21.046875 0 
L 16.0625 0 
z
" id="DejaVuSans-ExtraLight-4d"/>
      </defs>
      <g style="fill:#ffffff;" transform="translate(94.666425 272.677188)scale(0.18 -0.18)">
       <use transform="translate(0 0.09375)" xlink:href="#DejaVuSans-ExtraLight-4d"/>
      </g>
     </g>
    </g>
    <g id="xtick_3">
     <g id="line2d_3">
      <g>
       <use style="fill:#ffffff;stroke:#ffffff;stroke-width:0.8;" x="136.730879" xlink:href="#m05263e31a3" y="252"/>
      </g>
     </g>
     <g id="text_3">
      <!-- $\mathrm{K}$ -->
      <defs>
       <path d="M 17.28125 72.90625 
L 22.125 72.90625 
L 22.125 41.5 
L 55.515625 72.90625 
L 62.015625 72.90625 
L 25.78125 38.765625 
L 64.40625 0 
L 58.015625 0 
L 22.125 35.984375 
L 22.125 0 
L 17.28125 0 
z
" id="DejaVuSans-ExtraLight-4b"/>
      </defs>
      <g style="fill:#ffffff;" transform="translate(130.790879 272.677188)scale(0.18 -0.18)">
       <use transform="translate(0 0.09375)" xlink:href="#DejaVuSans-ExtraLight-4b"/>
      </g>
     </g>
    </g>
    <g id="xtick_4">
     <g id="line2d_4">
      <g>
       <use style="fill:#ffffff;stroke:#ffffff;stroke-width:0.8;" x="205.199786" xlink:href="#m05263e31a3" y="252"/>
      </g>
     </g>
     <g id="text_4">
      <!-- $\Gamma$ -->
      <g style="fill:#ffffff;" transform="translate(200.159786 272.677188)scale(0.18 -0.18)">
       <use transform="translate(0 0.09375)" xlink:href="#DejaVuSans-ExtraLight-393"/>
      </g>
     </g>
    </g>
   </g>
   <g id="matplotlib.axis_2">
    <g id="ytick_1">
     <g id="line2d_5">
      <defs>
       <path d="M 0 0 
L -3.5 0 
" id="m5bd52dc54b" style="stroke:#ffffff;stroke-width:0.8;"/>
      </defs>
      <g>
       <use style="fill:#ffffff;stroke:#ffffff;stroke-width:0.8;" x="43.2" xlink:href="#m5bd52dc54b" y="241.05864"/>
      </g>
     </g>
     <g id="text_5">
      <!-- 0 -->
      <defs>
       <path d="M 31.5 70.21875 
Q 22.5625 70.21875 18.21875 61.53125 
Q 13.875 52.78125 13.875 36.375 
Q 13.875 19.96875 18.21875 11.234375 
Q 22.5625 2.546875 31.5 2.546875 
Q 40.71875 2.546875 45.0625 11.234375 
Q 49.421875 19.96875 49.421875 36.375 
Q 49.421875 52.78125 45.0625 61.53125 
Q 40.71875 70.21875 31.5 70.21875 
z
M 31.5 74.21875 
Q 42.046875 74.21875 48.1875 65.625 
Q 54.34375 56.984375 54.34375 36.375 
Q 54.34375 15.765625 48.1875 7.125 
Q 42.046875 -1.46875 31.5 -1.46875 
Q 21.234375 -1.46875 15.09375 7.125 
Q 8.9375 15.765625 8.9375 36.375 
Q 8.9375 56.984375 15.09375 65.625 
Q 21.234375 74.21875 31.5 74.21875 
z
" id="DejaVuSans-ExtraLight-30"/>
      </defs>
      <g style="fill:#ffffff;" transform="translate(24.7475 247.897233)scale(0.18 -0.18)">
       <use xlink:href="#DejaVuSans-ExtraLight-30"/>
      </g>
     </g>
    </g>
    <g id="ytick_2">
     <g id="line2d_6">
      <g>
       <use style="fill:#ffffff;stroke:#ffffff;stroke-width:0.8;" x="43.2" xlink:href="#m5bd52dc54b" y="203.017857"/>
      </g>
     </g>
     <g id="text_6">
      <!-- 1 -->
      <defs>
       <path d="M 14.84375 4 
L 30.953125 4 
L 30.953125 68.40625 
L 10.984375 60.40625 
L 10.984375 64.890625 
L 30.859375 72.90625 
L 35.84375 72.90625 
L 35.84375 4 
L 51.953125 4 
L 51.953125 0 
L 14.84375 0 
z
" id="DejaVuSans-ExtraLight-31"/>
      </defs>
      <g style="fill:#ffffff;" transform="translate(24.7475 209.856451)scale(0.18 -0.18)">
       <use xlink:href="#DejaVuSans-ExtraLight-31"/>
      </g>
     </g>
    </g>
    <g id="ytick_3">
     <g id="line2d_7">
      <g>
       <use style="fill:#ffffff;stroke:#ffffff;stroke-width:0.8;" x="43.2" xlink:href="#m5bd52dc54b" y="164.977074"/>
      </g>
     </g>
     <g id="text_7">
      <!-- 2 -->
      <defs>
       <path d="M 12.015625 3.953125 
L 53.609375 3.953125 
L 53.609375 0 
L 6.9375 0 
L 6.9375 5.125 
L 25.09375 24.03125 
Q 31.84375 30.859375 37.3125 36.671875 
Q 42.390625 42.09375 44.09375 45.0625 
Q 45.796875 48.046875 45.796875 52.9375 
Q 45.796875 61.375 40.625 66.5 
Q 36.859375 70.21875 28.515625 70.21875 
Q 23.640625 70.21875 17.28125 67.390625 
Q 14.5 66.109375 7.8125 61.765625 
L 7.8125 66.9375 
Q 10.640625 68.953125 16.109375 71.390625 
Q 22.3125 74.171875 28.421875 74.21875 
Q 37.84375 74.21875 44.1875 69.390625 
Q 50.390625 64.546875 50.390625 53.421875 
Q 50.390625 48.921875 48.734375 44.921875 
Q 46.78125 40.234375 42.578125 35.40625 
Q 41.359375 33.984375 34.8125 27.25 
z
" id="DejaVuSans-ExtraLight-32"/>
      </defs>
      <g style="fill:#ffffff;" transform="translate(24.7475 171.815668)scale(0.18 -0.18)">
       <use xlink:href="#DejaVuSans-ExtraLight-32"/>
      </g>
     </g>
    </g>
    <g id="ytick_4">
     <g id="line2d_8">
      <g>
       <use style="fill:#ffffff;stroke:#ffffff;stroke-width:0.8;" x="43.2" xlink:href="#m5bd52dc54b" y="126.936291"/>
      </g>
     </g>
     <g id="text_8">
      <!-- 3 -->
      <defs>
       <path d="M 40.578125 39.3125 
Q 46.4375 37.890625 49.8125 33.015625 
Q 53.125 28.21875 53.125 21.1875 
Q 53.125 10.40625 46.921875 4.484375 
Q 40.71875 -1.421875 27.09375 -1.421875 
Q 22.515625 -1.421875 17.671875 0 
Q 12.796875 1.46875 7.625 4.5 
L 7.625 9.8125 
Q 11.71875 6.25 16.609375 4.390625 
Q 21.484375 2.59375 26.5625 2.59375 
Q 37.109375 2.59375 42.671875 7.375 
Q 48.1875 12.109375 48.1875 21.1875 
Q 48.1875 28.609375 43.0625 32.765625 
Q 37.890625 36.96875 28.71875 36.96875 
L 20.21875 36.96875 
L 20.21875 41.0625 
L 29.109375 41.0625 
Q 37.546875 41.0625 42 44.4375 
Q 46.484375 47.859375 46.484375 54.296875 
Q 46.484375 61.921875 41.890625 66.015625 
Q 37.25 70.125 28.65625 70.125 
Q 24.65625 70.125 20.015625 68.703125 
Q 15.375 67.28125 9.8125 64.3125 
L 9.8125 69.390625 
Q 15.4375 71.78125 20.3125 72.90625 
Q 25.25 74.125 29.59375 74.21875 
Q 40.765625 74.21875 46.09375 69.140625 
Q 51.46875 64.015625 51.46875 55.328125 
Q 51.46875 49.515625 48.640625 45.125 
Q 45.90625 40.875 40.578125 39.3125 
z
" id="DejaVuSans-ExtraLight-33"/>
      </defs>
      <g style="fill:#ffffff;" transform="translate(24.7475 133.774885)scale(0.18 -0.18)">
       <use xlink:href="#DejaVuSans-ExtraLight-33"/>
      </g>
     </g>
    </g>
    <g id="ytick_5">
     <g id="line2d_9">
      <g>
       <use style="fill:#ffffff;stroke:#ffffff;stroke-width:0.8;" x="43.2" xlink:href="#m5bd52dc54b" y="88.895508"/>
      </g>
     </g>
     <g id="text_9">
      <!-- 4 -->
      <defs>
       <path d="M 40.234375 70.21875 
L 9.96875 23.25 
L 40.234375 23.25 
z
M 36.421875 72.90625 
L 45.21875 72.90625 
L 45.21875 23.25 
L 55.609375 23.25 
L 55.609375 19.34375 
L 45.21875 19.34375 
L 45.21875 0 
L 40.234375 0 
L 40.234375 19.34375 
L 4.890625 19.34375 
L 4.890625 24.421875 
z
" id="DejaVuSans-ExtraLight-34"/>
      </defs>
      <g style="fill:#ffffff;" transform="translate(24.7475 95.734102)scale(0.18 -0.18)">
       <use xlink:href="#DejaVuSans-ExtraLight-34"/>
      </g>
     </g>
    </g>
    <g id="ytick_6">
     <g id="line2d_10">
      <g>
       <use style="fill:#ffffff;stroke:#ffffff;stroke-width:0.8;" x="43.2" xlink:href="#m5bd52dc54b" y="50.854726"/>
      </g>
     </g>
     <g id="text_10">
      <!-- 5 -->
      <defs>
       <path d="M 12.75 72.90625 
L 47.359375 72.90625 
L 47.359375 68.953125 
L 17.671875 68.953125 
L 17.671875 44.484375 
Q 19.828125 45.265625 21.96875 45.703125 
Q 24.125 46.09375 28.265625 46.09375 
Q 39.453125 46.09375 46 39.9375 
Q 52.484375 33.84375 52.484375 23.390625 
Q 52.484375 11.625 45.796875 5.078125 
Q 39.109375 -1.421875 26.90625 -1.421875 
Q 22.859375 -1.421875 18.609375 -0.734375 
Q 14.40625 -0.046875 9.859375 1.3125 
L 9.859375 6.296875 
Q 13.671875 4.5 17.78125 3.5625 
Q 21.828125 2.6875 26.375 2.6875 
Q 36.140625 2.6875 41.890625 8.25 
Q 47.65625 13.8125 47.65625 23.390625 
Q 47.65625 32.03125 42.046875 37.0625 
Q 36.375 42.140625 26.703125 42.140625 
Q 24.703125 42.140625 20.796875 41.0625 
Q 16.84375 40.046875 12.75 37.84375 
z
" id="DejaVuSans-ExtraLight-35"/>
      </defs>
      <g style="fill:#ffffff;" transform="translate(24.7475 57.693319)scale(0.18 -0.18)">
       <use xlink:href="#DejaVuSans-ExtraLight-35"/>
      </g>
     </g>
    </g>
    <g id="text_11">
     <!-- Frequency [THz] -->
     <defs>
      <path d="M 12.203125 72.90625 
L 49.171875 72.90625 
L 49.171875 68.84375 
L 17.140625 68.84375 
L 17.140625 40.875 
L 46.046875 40.875 
L 46.046875 36.921875 
L 17.140625 36.921875 
L 17.140625 0 
L 12.203125 0 
z
" id="DejaVuSans-ExtraLight-46"/>
      <path d="M 41.015625 50.828125 
Q 39.9375 51.375 38.09375 51.765625 
Q 36.421875 52.046875 33.890625 52.046875 
Q 25.59375 52.046875 20.125 45.90625 
Q 15.828125 40.921875 15.828125 28.8125 
L 15.828125 0 
L 11.421875 0 
L 11.421875 54.6875 
L 15.828125 54.6875 
L 15.828125 44.4375 
Q 18.015625 48.828125 21.96875 51.859375 
Q 27.4375 56 34.859375 56 
Q 36.765625 56 38.1875 55.859375 
Q 39.65625 55.859375 41.015625 55.515625 
z
" id="DejaVuSans-ExtraLight-72"/>
      <path d="M 53.953125 29.59375 
L 53.953125 26.765625 
L 12.453125 26.765625 
Q 12.453125 13.578125 17.578125 8.296875 
Q 23.25 2.4375 34.421875 2.4375 
Q 37.359375 2.4375 42.1875 3.71875 
Q 47.078125 4.984375 51.859375 7.515625 
L 51.859375 2.78125 
Q 47.015625 0.734375 41.9375 -0.34375 
Q 36.859375 -1.421875 33.890625 -1.421875 
Q 21.234375 -1.421875 14.84375 5.421875 
Q 7.90625 12.703125 7.90625 26.765625 
Q 7.90625 41.359375 14.265625 48.53125 
Q 20.75 56 32.328125 56 
Q 43.0625 56 48.53125 48.921875 
Q 53.953125 41.5 53.953125 29.59375 
z
M 49.421875 30.5625 
Q 49.421875 42.09375 44.234375 47.359375 
Q 39.890625 52.046875 32.421875 52.046875 
Q 24.265625 52.046875 18.75 47.171875 
Q 13.671875 42.625 12.640625 30.5625 
z
" id="DejaVuSans-ExtraLight-65"/>
      <path d="M 18.359375 46.34375 
Q 12.703125 40.625 12.703125 27.296875 
Q 12.703125 13.96875 18.359375 8.25 
Q 23.96875 2.546875 30.21875 2.546875 
Q 36.328125 2.546875 42 8.25 
Q 47.609375 13.96875 47.609375 27.296875 
Q 47.609375 40.625 42 46.34375 
Q 36.328125 52.046875 30.21875 52.046875 
Q 23.96875 52.046875 18.359375 46.34375 
z
M 47.65625 12.40625 
Q 44.578125 5.28125 40.96875 2.640625 
Q 35.453125 -1.421875 30.5625 -1.421875 
Q 20.84375 -1.421875 14.390625 6.484375 
Q 7.953125 14.40625 7.953125 27.296875 
Q 7.953125 40.1875 14.390625 48.09375 
Q 20.84375 56 30.5625 56 
Q 35.453125 56 40.96875 51.953125 
Q 44.578125 49.3125 47.65625 42.1875 
L 47.65625 54.6875 
L 52.046875 54.6875 
L 52.046875 -20.796875 
L 47.65625 -20.796875 
z
" id="DejaVuSans-ExtraLight-71"/>
      <path d="M 10.75 21.6875 
L 10.75 54.6875 
L 15.234375 54.6875 
L 15.234375 21.96875 
Q 15.234375 11.328125 18.65625 6.984375 
Q 22.078125 2.640625 28.71875 2.640625 
Q 36.46875 2.640625 42 7.328125 
Q 47.5625 12.0625 47.5625 23.78125 
L 47.5625 54.6875 
L 52.046875 54.6875 
L 52.046875 0 
L 47.5625 0 
L 47.5625 10.25 
Q 45.171875 5.28125 41.265625 2.640625 
Q 35.5 -1.3125 28.515625 -1.3125 
Q 20.40625 -1.3125 15.578125 4.203125 
Q 10.75 9.671875 10.75 21.6875 
z
" id="DejaVuSans-ExtraLight-75"/>
      <path d="M 52.640625 33.015625 
L 52.640625 0 
L 48.140625 0 
L 48.140625 32.71875 
Q 48.140625 43.359375 44.71875 47.703125 
Q 41.3125 52.046875 34.671875 52.046875 
Q 26.90625 52.046875 21.390625 47.359375 
Q 15.828125 42.625 15.828125 30.90625 
L 15.828125 0 
L 11.328125 0 
L 11.328125 54.6875 
L 15.828125 54.6875 
L 15.828125 44.4375 
Q 18.21875 49.421875 22.125 52.046875 
Q 27.875 56 34.859375 56 
Q 42.96875 56 47.796875 50.484375 
Q 52.640625 45.015625 52.640625 33.015625 
z
" id="DejaVuSans-ExtraLight-6e"/>
      <path d="M 48.78125 52.046875 
L 48.78125 47.265625 
Q 44.734375 49.75 42.09375 50.640625 
Q 37.546875 52.046875 33.40625 52.046875 
Q 21.578125 52.046875 16.453125 45.984375 
Q 11.328125 39.9375 11.328125 27.296875 
Q 11.328125 14.546875 16.453125 8.484375 
Q 21.578125 2.4375 33.40625 2.4375 
Q 37.3125 2.4375 41.109375 3.515625 
Q 44.96875 4.546875 48.78125 6.640625 
L 48.78125 2.09375 
Q 45.015625 0.34375 41.015625 -0.53125 
Q 36.96875 -1.421875 33.015625 -1.421875 
Q 21 -1.421875 13.921875 5.078125 
Q 6.84375 11.625 6.84375 27.296875 
Q 6.84375 42.96875 13.921875 49.515625 
Q 21 56 33.015625 56 
Q 36.921875 56 41.3125 54.890625 
Q 45.703125 53.8125 48.78125 52.046875 
z
" id="DejaVuSans-ExtraLight-63"/>
      <path d="M 29.78125 -5.078125 
Q 26.859375 -12.359375 23.484375 -15.140625 
Q 18.953125 -18.890625 14.59375 -18.890625 
L 7.90625 -18.890625 
L 7.90625 -15.09375 
L 13.625 -15.09375 
Q 17.1875 -15.09375 19.875 -12.796875 
Q 23.34375 -9.8125 25.59375 -4.046875 
L 27.203125 0 
L 5.375 54.6875 
L 10.15625 54.6875 
L 29.59375 5.953125 
L 49.078125 54.6875 
L 53.8125 54.6875 
z
" id="DejaVuSans-ExtraLight-79"/>
      <path id="DejaVuSans-ExtraLight-20"/>
      <path d="M 11.328125 75.984375 
L 27.984375 75.984375 
L 27.984375 70.90625 
L 16.21875 70.90625 
L 16.21875 -9.078125 
L 27.984375 -9.078125 
L 27.984375 -13.1875 
L 11.328125 -13.1875 
z
" id="DejaVuSans-ExtraLight-5b"/>
      <path d="M 2.203125 72.90625 
L 58.890625 72.90625 
L 58.890625 68.890625 
L 33.015625 68.890625 
L 33.015625 0 
L 28.078125 0 
L 28.078125 68.890625 
L 2.203125 68.890625 
z
" id="DejaVuSans-ExtraLight-54"/>
      <path d="M 12.15625 72.90625 
L 17.09375 72.90625 
L 17.09375 40.875 
L 57.859375 40.875 
L 57.859375 72.90625 
L 62.796875 72.90625 
L 62.796875 0 
L 57.859375 0 
L 57.859375 36.921875 
L 17.09375 36.921875 
L 17.09375 0 
L 12.15625 0 
z
" id="DejaVuSans-ExtraLight-48"/>
      <path d="M 5.515625 54.6875 
L 48.1875 54.6875 
L 48.1875 49.515625 
L 8.640625 3.8125 
L 48.1875 3.8125 
L 48.1875 0 
L 4.296875 0 
L 4.296875 4.984375 
L 43.796875 50.828125 
L 5.515625 50.828125 
z
" id="DejaVuSans-ExtraLight-7a"/>
      <path d="M 27.984375 75.984375 
L 27.984375 -13.1875 
L 11.328125 -13.1875 
L 11.328125 -9.078125 
L 23.09375 -9.078125 
L 23.09375 70.90625 
L 11.328125 70.90625 
L 11.328125 75.984375 
z
" id="DejaVuSans-ExtraLight-5d"/>
     </defs>
     <g style="fill:#ffffff;" transform="translate(17.004062 217.487813)rotate(-90)scale(0.18 -0.18)">
      <use xlink:href="#DejaVuSans-ExtraLight-46"/>
      <use x="57.410156" xlink:href="#DejaVuSans-ExtraLight-72"/>
      <use x="98.492188" xlink:href="#DejaVuSans-ExtraLight-65"/>
      <use x="160.015625" xlink:href="#DejaVuSans-ExtraLight-71"/>
      <use x="223.492188" xlink:href="#DejaVuSans-ExtraLight-75"/>
      <use x="286.871094" xlink:href="#DejaVuSans-ExtraLight-65"/>
      <use x="348.394531" xlink:href="#DejaVuSans-ExtraLight-6e"/>
      <use x="411.773438" xlink:href="#DejaVuSans-ExtraLight-63"/>
      <use x="466.753906" xlink:href="#DejaVuSans-ExtraLight-79"/>
      <use x="525.933594" xlink:href="#DejaVuSans-ExtraLight-20"/>
      <use x="557.720703" xlink:href="#DejaVuSans-ExtraLight-5b"/>
      <use x="596.734375" xlink:href="#DejaVuSans-ExtraLight-54"/>
      <use x="657.818359" xlink:href="#DejaVuSans-ExtraLight-48"/>
      <use x="733.013672" xlink:href="#DejaVuSans-ExtraLight-7a"/>
      <use x="785.503906" xlink:href="#DejaVuSans-ExtraLight-5d"/>
     </g>
    </g>
   </g>
   <g id="LineCollection_1">
    <path clip-path="url(#pb074f2e5e6)" d="M 43.2 241.05864 
L 205.2 241.05864 
" style="fill:none;stroke:#ffffff;stroke-dasharray:3.7,1.6;stroke-dashoffset:0;"/>
   </g>
   <g id="line2d_11">
    <path clip-path="url(#pb074f2e5e6)" d="M 43.2 242.116364 
L 45.571795 238.969098 
L 52.687609 231.176443 
L 56.245089 226.914392 
L 60.989107 220.873363 
L 77.592103 199.16638 
L 81.149582 195.02857 
L 83.521378 192.514835 
L 85.893601 190.244637 
L 88.265396 188.252213 
L 90.637192 186.561072 
L 93.008987 185.182512 
L 95.380783 184.117826 
L 97.752578 183.362793 
L 100.124373 182.9122 
L 102.496597 182.762433 
L 102.496597 182.762433 
L 106.604373 182.886142 
L 116.190327 183.372798 
L 118.928987 183.26092 
L 121.667648 182.941491 
L 124.406308 182.396557 
L 127.145396 181.634106 
L 130.568615 180.42555 
L 135.361378 178.448228 
L 136.730922 177.864911 
L 136.730922 177.864911 
L 140.839126 179.737697 
L 144.947331 181.903549 
L 149.055108 184.39678 
L 153.163312 187.214574 
L 157.271517 190.329506 
L 161.379722 193.713272 
L 165.487926 197.352405 
L 169.596131 201.25189 
L 173.703908 205.427018 
L 177.812112 209.887566 
L 183.289861 216.243686 
L 196.983591 232.641089 
L 203.830456 240.223606 
L 205.2 242.116364 
L 205.2 242.116364 
" style="fill:none;stroke:#ff0000;stroke-linecap:square;stroke-width:1.5;"/>
   </g>
   <g id="line2d_12">
    <path clip-path="url(#pb074f2e5e6)" d="M 43.2 241.65257 
L 44.386112 239.191065 
L 49.129702 231.368169 
L 53.873293 223.884291 
L 57.4312 218.581254 
L 60.989107 213.621497 
L 64.546587 209.044924 
L 68.104494 204.852716 
L 71.662401 201.012993 
L 75.21988 197.482695 
L 78.777787 194.233784 
L 82.335694 191.269075 
L 85.893601 188.623757 
L 88.265396 187.066482 
L 90.637192 185.698611 
L 93.008987 184.541943 
L 95.380783 183.617172 
L 97.752578 182.942366 
L 100.124373 182.531564 
L 102.496597 182.39359 
L 102.496597 182.39359 
L 104.550699 182.300808 
L 106.604373 182.021932 
L 108.658476 181.55597 
L 110.712578 180.902848 
L 112.76668 180.066255 
L 115.505341 178.687961 
L 122.352206 174.875514 
L 123.72175 174.481373 
L 125.091294 174.358958 
L 126.46041 174.466652 
L 128.514513 174.903512 
L 131.253173 175.751517 
L 135.361378 177.296315 
L 136.730922 177.86434 
L 136.730922 177.86434 
L 142.208243 175.674941 
L 144.947331 174.759794 
L 147.685991 174.019254 
L 150.424652 173.496117 
L 153.163312 173.300169 
L 154.532856 173.421215 
L 155.901973 173.780662 
L 157.271517 174.418644 
L 158.641061 175.299022 
L 161.379722 177.521365 
L 164.118382 180.083335 
L 169.596131 185.658744 
L 172.334791 188.522455 
L 176.442996 194.681029 
L 183.289861 205.420855 
L 194.24493 223.081403 
L 203.830456 238.878408 
L 205.2 241.65257 
L 205.2 241.65257 
" style="fill:none;stroke:#ff0000;stroke-linecap:square;stroke-width:1.5;"/>
   </g>
   <g id="line2d_13">
    <path clip-path="url(#pb074f2e5e6)" d="M 43.2 241.63336 
L 44.386112 238.588842 
L 50.315386 225.948308 
L 56.245089 213.788382 
L 62.174791 202.176395 
L 74.034196 179.524364 
L 75.21988 178.48003 
L 79.963898 175.168923 
L 83.521378 172.951639 
L 87.079285 171.046899 
L 89.45108 169.975367 
L 91.822876 169.07361 
L 94.195099 168.347678 
L 96.566894 167.801184 
L 98.93869 167.436106 
L 101.310485 167.253434 
L 104.550699 167.116259 
L 106.604373 166.779332 
L 107.973918 166.439057 
L 109.343462 166.623327 
L 112.76668 167.384028 
L 119.613545 169.065279 
L 120.983089 169.223643 
L 122.352206 169.186819 
L 123.72175 168.869635 
L 125.091294 168.242875 
L 126.46041 167.361356 
L 128.514513 165.754361 
L 133.307275 161.823874 
L 135.361378 160.498761 
L 136.730922 159.889804 
L 136.730922 159.889804 
L 139.469582 160.960462 
L 142.208243 162.246316 
L 146.316447 164.493994 
L 154.532856 169.370518 
L 155.901973 169.894758 
L 157.271517 170.190145 
L 158.641061 171.145387 
L 161.379722 174.07194 
L 164.118382 177.30457 
L 166.857043 180.812843 
L 170.965247 186.506445 
L 172.334791 188.498032 
L 180.550773 197.303599 
L 183.289861 200.594507 
L 186.028521 204.311129 
L 188.767182 208.533276 
L 191.505842 213.242192 
L 194.24493 218.357764 
L 198.352707 226.586518 
L 203.830456 238.185419 
L 205.2 241.63336 
L 205.2 241.63336 
" style="fill:none;stroke:#ff0000;stroke-linecap:square;stroke-width:1.5;"/>
   </g>
   <g id="line2d_14">
    <path clip-path="url(#pb074f2e5e6)" d="M 43.2 192.861082 
L 45.571795 192.780778 
L 47.943591 192.539219 
L 50.315386 192.132905 
L 52.687609 191.556892 
L 55.059405 190.806119 
L 57.4312 189.876897 
L 59.802996 188.769339 
L 63.360903 186.790077 
L 66.918382 184.484996 
L 71.662401 181.090237 
L 74.034196 179.345762 
L 76.405991 174.995419 
L 78.777787 170.580139 
L 79.963898 168.673991 
L 81.149582 168.166832 
L 85.893601 168.077246 
L 89.45108 167.681279 
L 100.124373 166.032478 
L 103.181155 165.954113 
L 105.919815 166.121721 
L 107.973918 166.386751 
L 109.343462 166.014636 
L 112.082122 164.950331 
L 115.505341 163.334473 
L 121.667648 160.339788 
L 123.72175 159.550632 
L 125.775852 158.966592 
L 127.829954 158.626013 
L 129.884057 158.542095 
L 131.938159 158.704605 
L 133.992261 159.088057 
L 136.046364 159.661407 
L 136.730922 159.889348 
L 136.730922 159.889348 
L 138.100038 159.563262 
L 139.469582 159.5237 
L 140.839126 159.723604 
L 142.208243 160.099675 
L 144.947331 161.196809 
L 147.685991 162.610138 
L 150.424652 164.294851 
L 153.163312 166.26407 
L 155.901973 168.542446 
L 157.271517 169.803004 
L 158.641061 170.285741 
L 161.379722 170.115851 
L 165.487926 169.458583 
L 168.226587 169.018527 
L 169.596131 168.979649 
L 170.965247 169.35146 
L 172.334791 170.370192 
L 173.703908 171.851728 
L 177.812112 177.032769 
L 180.550773 180.439739 
L 183.289861 183.532303 
L 186.028521 186.155633 
L 188.767182 188.247153 
L 191.505842 189.840606 
L 194.24493 191.01793 
L 196.983591 191.860153 
L 199.722251 192.42658 
L 202.460912 192.753845 
L 205.2 192.861082 
L 205.2 192.861082 
" style="fill:none;stroke:#ff0000;stroke-linecap:square;stroke-width:1.5;"/>
   </g>
   <g id="line2d_15">
    <path clip-path="url(#pb074f2e5e6)" d="M 43.2 192.860854 
L 44.386112 192.769099 
L 45.571795 192.495016 
L 46.757907 192.043586 
L 47.943591 191.422532 
L 49.129702 190.641821 
L 51.501498 188.649359 
L 53.873293 186.170089 
L 56.245089 183.312237 
L 59.802996 178.550101 
L 65.732698 170.441062 
L 66.918382 169.09282 
L 68.104494 168.027983 
L 69.290605 167.340776 
L 70.476289 167.010316 
L 71.662401 166.923659 
L 74.034196 167.098647 
L 78.777787 167.676943 
L 79.963898 167.517856 
L 81.149582 165.972221 
L 84.707489 159.977945 
L 87.079285 156.318992 
L 89.45108 153.05262 
L 91.822876 150.228396 
L 94.195099 147.872074 
L 96.566894 145.991794 
L 98.93869 144.597105 
L 100.124373 144.099417 
L 101.310485 143.767131 
L 103.181155 143.653275 
L 105.919815 143.807721 
L 108.658476 144.160967 
L 112.082122 144.858103 
L 115.505341 145.801895 
L 119.613545 147.198296 
L 124.406308 149.083635 
L 131.938159 152.10453 
L 133.992261 152.728969 
L 135.361378 153.003015 
L 136.730922 153.10466 
L 136.730922 153.10466 
L 138.100038 152.996434 
L 139.469582 152.687847 
L 142.208243 151.721155 
L 144.947331 150.707976 
L 147.685991 149.919163 
L 150.424652 149.448941 
L 153.163312 149.317966 
L 154.532856 149.378946 
L 155.901973 149.690081 
L 158.641061 152.28743 
L 161.379722 155.166699 
L 165.487926 159.901521 
L 168.226587 163.132286 
L 169.596131 164.58514 
L 170.965247 165.636511 
L 172.334791 166.046971 
L 173.703908 165.996149 
L 176.442996 165.40956 
L 177.812112 165.038624 
L 179.181656 166.009881 
L 183.289861 171.458957 
L 191.505842 182.597298 
L 194.24493 185.903613 
L 196.983591 188.749368 
L 198.352707 189.94556 
L 199.722251 190.96163 
L 201.091795 191.777148 
L 202.460912 192.374122 
L 203.830456 192.738438 
L 205.2 192.860854 
L 205.2 192.860854 
" style="fill:none;stroke:#ff0000;stroke-linecap:square;stroke-width:1.5;"/>
   </g>
   <g id="line2d_16">
    <path clip-path="url(#pb074f2e5e6)" d="M 43.2 159.220476 
L 46.757907 159.374846 
L 50.315386 159.819543 
L 53.873293 160.498799 
L 64.546587 162.774741 
L 65.732698 162.834389 
L 66.918382 162.726315 
L 68.104494 162.345261 
L 69.290605 161.60453 
L 70.476289 160.531971 
L 72.848084 157.858997 
L 77.592103 152.330568 
L 79.963898 149.880361 
L 82.335694 147.738361 
L 84.707489 145.93344 
L 87.079285 144.473244 
L 89.45108 143.349824 
L 91.822876 142.545109 
L 94.195099 142.036466 
L 96.566894 141.800156 
L 98.93869 141.802819 
L 103.865713 141.984616 
L 110.02802 142.170445 
L 120.298104 142.574134 
L 123.72175 142.425623 
L 127.145396 142.009038 
L 134.67682 140.844952 
L 136.730922 140.75491 
L 136.730922 140.75491 
L 139.469582 140.935261 
L 142.208243 141.498075 
L 144.947331 142.446203 
L 147.685991 143.760132 
L 150.424652 145.415933 
L 153.163312 147.396108 
L 155.901973 149.523272 
L 158.641061 150.062158 
L 161.379722 150.942612 
L 164.118382 152.183464 
L 166.857043 153.808757 
L 169.596131 155.838423 
L 172.334791 158.278435 
L 175.073452 161.113272 
L 177.812112 164.302231 
L 179.181656 164.651901 
L 191.505842 161.224921 
L 195.614047 160.275195 
L 199.722251 159.58156 
L 202.460912 159.312345 
L 205.2 159.220476 
L 205.2 159.220476 
" style="fill:none;stroke:#ff0000;stroke-linecap:square;stroke-width:1.5;"/>
   </g>
   <g id="line2d_17">
    <path clip-path="url(#pb074f2e5e6)" d="M 43.2 131.260577 
L 56.245089 131.227672 
L 59.802996 130.989461 
L 63.360903 130.492724 
L 65.732698 129.965403 
L 68.104494 129.245215 
L 69.290605 128.804778 
L 72.848084 128.281375 
L 81.149582 127.277023 
L 88.265396 126.630748 
L 95.380783 126.226488 
L 101.310485 126.092699 
L 105.919815 125.984777 
L 109.343462 125.673718 
L 112.76668 125.158189 
L 116.190327 124.442376 
L 120.298104 123.336644 
L 125.091294 121.791466 
L 131.253173 119.799802 
L 133.992261 119.117008 
L 136.730922 118.654851 
L 136.730922 118.654851 
L 139.469582 119.077522 
L 143.577787 119.999136 
L 147.685991 121.182851 
L 175.073452 129.693069 
L 179.181656 130.546247 
L 183.289861 131.074215 
L 187.397638 131.32072 
L 192.875386 131.377933 
L 205.2 131.260577 
L 205.2 131.260577 
" style="fill:none;stroke:#ff0000;stroke-linecap:square;stroke-width:1.5;"/>
   </g>
   <g id="line2d_18">
    <path clip-path="url(#pb074f2e5e6)" d="M 43.2 131.260539 
L 47.943591 131.15277 
L 52.687609 130.84114 
L 58.616884 130.218488 
L 68.104494 128.934535 
L 69.290605 128.768411 
L 71.662401 127.752646 
L 74.034196 126.467781 
L 76.405991 124.958171 
L 79.963898 122.326167 
L 85.893601 117.669785 
L 91.822876 117.130861 
L 97.752578 116.833801 
L 103.865713 116.773582 
L 108.658476 116.973829 
L 127.145396 118.086217 
L 133.992261 118.383164 
L 136.730922 118.654699 
L 136.730922 118.654699 
L 139.469582 118.424628 
L 142.208243 118.388451 
L 146.316447 118.572721 
L 151.794196 119.066452 
L 155.901973 119.602218 
L 160.010177 120.355502 
L 164.118382 121.408851 
L 168.226587 122.77501 
L 175.073452 125.426795 
L 180.550773 127.441092 
L 184.658977 128.707204 
L 188.767182 129.708247 
L 192.875386 130.437146 
L 196.983591 130.914748 
L 201.091795 131.177686 
L 205.2 131.260539 
L 205.2 131.260539 
" style="fill:none;stroke:#ff0000;stroke-linecap:square;stroke-width:1.5;"/>
   </g>
   <g id="line2d_19">
    <path clip-path="url(#pb074f2e5e6)" d="M 43.2 122.623646 
L 47.943591 122.529076 
L 53.873293 122.154375 
L 59.802996 121.525751 
L 66.918382 120.512915 
L 84.707489 117.806123 
L 85.893601 117.355302 
L 89.45108 114.466142 
L 91.822876 112.831948 
L 94.195099 111.557924 
L 96.566894 110.656738 
L 98.93869 110.085023 
L 101.310485 109.806565 
L 105.235257 109.780773 
L 113.451239 109.937197 
L 120.983089 110.305736 
L 129.884057 110.769453 
L 133.992261 110.741151 
L 138.100038 110.667656 
L 147.685991 111.009262 
L 150.424652 111.369889 
L 153.163312 111.937381 
L 155.901973 112.699072 
L 160.010177 114.10369 
L 168.226587 117.049606 
L 172.334791 118.269878 
L 176.442996 119.286062 
L 181.920317 120.403281 
L 187.397638 121.304201 
L 192.875386 121.985093 
L 198.352707 122.425796 
L 203.830456 122.615695 
L 205.2 122.623646 
L 205.2 122.623646 
" style="fill:none;stroke:#ff0000;stroke-linecap:square;stroke-width:1.5;"/>
   </g>
   <g id="line2d_20">
    <path clip-path="url(#pb074f2e5e6)" d="M 43.2 122.623608 
L 46.757907 122.531359 
L 50.315386 122.259595 
L 55.059405 121.638389 
L 59.802996 120.74698 
L 64.546587 119.609104 
L 69.290605 118.251352 
L 75.21988 116.287649 
L 81.149582 114.059981 
L 87.079285 111.576526 
L 91.822876 109.347298 
L 96.566894 107.079269 
L 98.93869 106.251197 
L 101.310485 105.806919 
L 103.865713 105.757123 
L 108.658476 105.908488 
L 112.76668 106.245301 
L 116.874885 106.821276 
L 120.983089 107.620741 
L 133.307275 110.224557 
L 136.730922 110.589102 
L 136.730922 110.589102 
L 143.577787 110.172593 
L 146.316447 110.22566 
L 149.055108 110.485441 
L 151.794196 110.952467 
L 154.532856 111.599351 
L 158.641061 112.808401 
L 169.596131 116.265699 
L 176.442996 118.09957 
L 184.658977 120.0309 
L 190.136726 121.126018 
L 195.614047 121.980642 
L 199.722251 122.407232 
L 203.830456 122.609913 
L 205.2 122.623608 
L 205.2 122.623608 
" style="fill:none;stroke:#ff0000;stroke-linecap:square;stroke-width:1.5;"/>
   </g>
   <g id="line2d_21">
    <path clip-path="url(#pb074f2e5e6)" d="M 43.2 62.1625 
L 45.571795 62.265477 
L 47.943591 62.570982 
L 50.315386 63.069202 
L 52.687609 63.74416 
L 56.245089 65.040818 
L 59.802996 66.601251 
L 64.546587 68.944449 
L 68.104494 70.873649 
L 70.476289 72.395357 
L 72.848084 74.292337 
L 76.405991 77.311443 
L 78.777787 79.096051 
L 81.149582 80.617454 
L 83.521378 81.865001 
L 85.893601 82.842155 
L 88.265396 83.555001 
L 90.637192 84.007306 
L 93.008987 84.200553 
L 95.380783 84.139916 
L 97.752578 83.849284 
L 101.310485 83.210199 
L 103.865713 83.107223 
L 107.289359 82.922763 
L 111.397564 82.455432 
L 114.820783 82.011953 
L 120.983089 82.539997 
L 134.67682 83.91015 
L 138.100038 83.933088 
L 140.839126 83.74452 
L 143.577787 83.352053 
L 146.316447 82.767557 
L 150.424652 81.619334 
L 154.532856 80.303465 
L 157.271517 80.209809 
L 160.010177 80.064873 
L 162.748838 79.678303 
L 165.487926 78.977325 
L 168.226587 77.892098 
L 170.965247 76.365369 
L 173.703908 74.363701 
L 175.073452 73.183296 
L 177.812112 71.811507 
L 184.658977 68.483509 
L 190.136726 65.893921 
L 194.24493 64.240554 
L 196.983591 63.361508 
L 199.722251 62.705152 
L 202.460912 62.299637 
L 205.2 62.1625 
L 205.2 62.1625 
" style="fill:none;stroke:#ff0000;stroke-linecap:square;stroke-width:1.5;"/>
   </g>
   <g id="line2d_22">
    <path clip-path="url(#pb074f2e5e6)" d="M 43.2 44.443636 
L 44.386112 44.519338 
L 45.571795 44.745756 
L 46.757907 45.120686 
L 47.943591 45.640514 
L 49.129702 46.300331 
L 51.501498 48.013231 
L 53.873293 50.194033 
L 56.245089 52.759694 
L 59.802996 57.114717 
L 66.918382 66.253901 
L 69.290605 68.916946 
L 70.476289 70.045464 
L 71.662401 70.993858 
L 74.034196 72.42986 
L 76.405991 73.51969 
L 79.963898 74.851156 
L 84.707489 76.333757 
L 93.008987 78.845856 
L 101.310485 81.5097 
L 103.181155 81.623861 
L 110.02802 81.761949 
L 114.820783 81.907493 
L 127.829954 79.694622 
L 131.938159 79.308851 
L 136.046364 79.157448 
L 139.469582 79.200016 
L 144.947331 79.510277 
L 154.532856 80.181544 
L 155.901973 79.853861 
L 169.596131 75.25804 
L 173.703908 73.633927 
L 175.073452 73.047794 
L 176.442996 71.887322 
L 179.181656 68.97686 
L 181.920317 65.715205 
L 187.397638 58.651564 
L 191.505842 53.512331 
L 194.24493 50.479377 
L 196.983591 47.94297 
L 198.352707 46.902631 
L 199.722251 46.032638 
L 201.091795 45.344176 
L 202.460912 44.845994 
L 203.830456 44.544559 
L 205.2 44.443636 
L 205.2 44.443636 
" style="fill:none;stroke:#ff0000;stroke-linecap:square;stroke-width:1.5;"/>
   </g>
   <g id="line2d_23">
    <path clip-path="url(#pb074f2e5e6)" d="M 43.2 252 
L 43.2 34.56 
" style="fill:none;stroke:#ffffff;stroke-linecap:square;stroke-width:0.5;"/>
   </g>
   <g id="line2d_24">
    <path clip-path="url(#pb074f2e5e6)" d="M 102.496425 252 
L 102.496425 34.56 
" style="fill:none;stroke:#ffffff;stroke-linecap:square;stroke-width:0.5;"/>
   </g>
   <g id="line2d_25">
    <path clip-path="url(#pb074f2e5e6)" d="M 136.730879 252 
L 136.730879 34.56 
" style="fill:none;stroke:#ffffff;stroke-linecap:square;stroke-width:0.5;"/>
   </g>
   <g id="line2d_26">
    <path clip-path="url(#pb074f2e5e6)" d="M 205.199786 252 
L 205.199786 34.56 
" style="fill:none;stroke:#ffffff;stroke-linecap:square;stroke-width:0.5;"/>
   </g>
   <g id="patch_3">
    <path d="M 43.2 252 
L 43.2 34.56 
" style="fill:none;stroke:#ffffff;stroke-linecap:square;stroke-linejoin:miter;stroke-width:0.8;"/>
   </g>
   <g id="patch_4">
    <path d="M 205.2 252 
L 205.2 34.56 
" style="fill:none;stroke:#ffffff;stroke-linecap:square;stroke-linejoin:miter;stroke-width:0.8;"/>
   </g>
   <g id="patch_5">
    <path d="M 43.2 252 
L 205.2 252 
" style="fill:none;stroke:#ffffff;stroke-linecap:square;stroke-linejoin:miter;stroke-width:0.8;"/>
   </g>
   <g id="patch_6">
    <path d="M 43.2 34.56 
L 205.2 34.56 
" style="fill:none;stroke:#ffffff;stroke-linecap:square;stroke-linejoin:miter;stroke-width:0.8;"/>
   </g>
  </g>
 </g>
 <defs>
  <clipPath id="pb074f2e5e6">
   <rect height="217.44" width="162" x="43.2" y="34.56"/>
  </clipPath>
 </defs>
</svg>
