<?xml version="1.0" encoding="utf-8" standalone="no"?>
<!DOCTYPE svg PUBLIC "-//W3C//DTD SVG 1.1//EN"
  "http://www.w3.org/Graphics/SVG/1.1/DTD/svg11.dtd">
<!-- Created with matplotlib (http://matplotlib.org/) -->
<svg height="316.8pt" version="1.1" viewBox="0 0 259.2 316.8" width="259.2pt" xmlns="http://www.w3.org/2000/svg" xmlns:xlink="http://www.w3.org/1999/xlink">
 <defs>
  <style type="text/css">
*{stroke-linecap:butt;stroke-linejoin:round;}
  </style>
 </defs>
 <g id="figure_1">
  <g id="patch_1">
   <path d="M 0 316.8 
L 259.2 316.8 
L 259.2 0 
L 0 0 
z
"/>
  </g>
  <g id="axes_1">
   <g id="patch_2">
    <path d="M 91.46 273.08 
L 234.118125 273.08 
L 234.118125 21.96 
L 91.46 21.96 
z
"/>
   </g>
   <g id="matplotlib.axis_1">
    <g id="xtick_1">
     <g id="line2d_1">
      <defs>
       <path d="M 0 0 
L 0 3.5 
" id="m6aec68e61c" style="stroke:#ffffff;stroke-width:0.8;"/>
      </defs>
      <g>
       <use style="fill:#ffffff;stroke:#ffffff;stroke-width:0.8;" x="91.46" xlink:href="#m6aec68e61c" y="273.08"/>
      </g>
     </g>
     <g id="text_1">
      <!-- $\Gamma $ -->
      <defs>
       <path d="M 12.203125 0 
L 12.203125 72.90625 
L 55.171875 72.90625 
L 55.171875 68.84375 
L 17.09375 68.84375 
L 17.09375 0 
z
" id="DejaVuSans-ExtraLight-393"/>
      </defs>
      <g style="fill:#ffffff;" transform="translate(86.42 293.757187)scale(0.18 -0.18)">
       <use transform="translate(0 0.09375)" xlink:href="#DejaVuSans-ExtraLight-393"/>
      </g>
     </g>
    </g>
    <g id="xtick_2">
     <g id="line2d_2">
      <g>
       <use style="fill:#ffffff;stroke:#ffffff;stroke-width:0.8;" x="143.676498" xlink:href="#m6aec68e61c" y="273.08"/>
      </g>
     </g>
     <g id="text_2">
      <!-- $\mathrm{X}$ -->
      <defs>
       <path d="M 8.796875 72.90625 
L 14.359375 72.90625 
L 34.765625 42.28125 
L 55.28125 72.90625 
L 60.9375 72.90625 
L 37.546875 38.140625 
L 62.890625 0 
L 57.28125 0 
L 34.421875 34.28125 
L 11.46875 0 
L 5.859375 0 
L 31.640625 38.53125 
z
" id="DejaVuSans-ExtraLight-58"/>
      </defs>
      <g style="fill:#ffffff;" transform="translate(137.466498 293.757187)scale(0.18 -0.18)">
       <use transform="translate(0 0.09375)" xlink:href="#DejaVuSans-ExtraLight-58"/>
      </g>
     </g>
    </g>
    <g id="xtick_3">
     <g id="line2d_3">
      <g>
       <use style="fill:#ffffff;stroke:#ffffff;stroke-width:0.8;" x="173.823707" xlink:href="#m6aec68e61c" y="273.08"/>
      </g>
     </g>
     <g id="text_3">
      <!-- $\mathrm{M}$ -->
      <defs>
       <path d="M 16.0625 72.90625 
L 22.859375 72.90625 
L 43.109375 18.84375 
L 63.484375 72.90625 
L 70.21875 72.90625 
L 70.21875 0 
L 65.234375 0 
L 65.234375 64.015625 
L 46.484375 14.015625 
L 39.75 14.015625 
L 21.046875 64.015625 
L 21.046875 0 
L 16.0625 0 
z
" id="DejaVuSans-ExtraLight-4d"/>
      </defs>
      <g style="fill:#ffffff;" transform="translate(165.993707 293.757187)scale(0.18 -0.18)">
       <use transform="translate(0 0.09375)" xlink:href="#DejaVuSans-ExtraLight-4d"/>
      </g>
     </g>
    </g>
    <g id="xtick_4">
     <g id="line2d_4">
      <g>
       <use style="fill:#ffffff;stroke:#ffffff;stroke-width:0.8;" x="234.118125" xlink:href="#m6aec68e61c" y="273.08"/>
      </g>
     </g>
     <g id="text_4">
      <!-- $\Gamma $ -->
      <g style="fill:#ffffff;" transform="translate(229.078125 293.757187)scale(0.18 -0.18)">
       <use transform="translate(0 0.09375)" xlink:href="#DejaVuSans-ExtraLight-393"/>
      </g>
     </g>
    </g>
   </g>
   <g id="matplotlib.axis_2">
    <g id="ytick_1">
     <g id="line2d_5">
      <defs>
       <path d="M 0 0 
L -3.5 0 
" id="ma4870f3989" style="stroke:#ffffff;stroke-width:0.8;"/>
      </defs>
      <g>
       <use style="fill:#ffffff;stroke:#ffffff;stroke-width:0.8;" x="91.46" xlink:href="#ma4870f3989" y="237.201139"/>
      </g>
     </g>
     <g id="text_5">
      <!-- −1.0 -->
      <defs>
       <path d="M 73.1875 33.40625 
L 73.1875 29.390625 
L 10.59375 29.390625 
L 10.59375 33.40625 
z
" id="DejaVuSans-ExtraLight-2212"/>
       <path d="M 14.84375 4 
L 30.953125 4 
L 30.953125 68.40625 
L 10.984375 60.40625 
L 10.984375 64.890625 
L 30.859375 72.90625 
L 35.84375 72.90625 
L 35.84375 4 
L 51.953125 4 
L 51.953125 0 
L 14.84375 0 
z
" id="DejaVuSans-ExtraLight-31"/>
       <path d="M 13.375 6.15625 
L 18.359375 6.15625 
L 18.359375 0 
L 13.375 0 
z
" id="DejaVuSans-ExtraLight-2e"/>
       <path d="M 31.5 70.21875 
Q 22.5625 70.21875 18.21875 61.53125 
Q 13.875 52.78125 13.875 36.375 
Q 13.875 19.96875 18.21875 11.234375 
Q 22.5625 2.546875 31.5 2.546875 
Q 40.71875 2.546875 45.0625 11.234375 
Q 49.421875 19.96875 49.421875 36.375 
Q 49.421875 52.78125 45.0625 61.53125 
Q 40.71875 70.21875 31.5 70.21875 
z
M 31.5 74.21875 
Q 42.046875 74.21875 48.1875 65.625 
Q 54.34375 56.984375 54.34375 36.375 
Q 54.34375 15.765625 48.1875 7.125 
Q 42.046875 -1.46875 31.5 -1.46875 
Q 21.234375 -1.46875 15.09375 7.125 
Q 8.9375 15.765625 8.9375 36.375 
Q 8.9375 56.984375 15.09375 65.625 
Q 21.234375 74.21875 31.5 74.21875 
z
" id="DejaVuSans-ExtraLight-30"/>
      </defs>
      <g style="fill:#ffffff;" transform="translate(40.750938 244.039733)scale(0.18 -0.18)">
       <use xlink:href="#DejaVuSans-ExtraLight-2212"/>
       <use x="83.789062" xlink:href="#DejaVuSans-ExtraLight-31"/>
       <use x="147.412109" xlink:href="#DejaVuSans-ExtraLight-2e"/>
       <use x="179.199219" xlink:href="#DejaVuSans-ExtraLight-30"/>
      </g>
     </g>
    </g>
    <g id="ytick_2">
     <g id="line2d_6">
      <g>
       <use style="fill:#ffffff;stroke:#ffffff;stroke-width:0.8;" x="91.46" xlink:href="#ma4870f3989" y="192.360569"/>
      </g>
     </g>
     <g id="text_6">
      <!-- −0.5 -->
      <defs>
       <path d="M 12.75 72.90625 
L 47.359375 72.90625 
L 47.359375 68.953125 
L 17.671875 68.953125 
L 17.671875 44.484375 
Q 19.828125 45.265625 21.96875 45.703125 
Q 24.125 46.09375 28.265625 46.09375 
Q 39.453125 46.09375 46 39.9375 
Q 52.484375 33.84375 52.484375 23.390625 
Q 52.484375 11.625 45.796875 5.078125 
Q 39.109375 -1.421875 26.90625 -1.421875 
Q 22.859375 -1.421875 18.609375 -0.734375 
Q 14.40625 -0.046875 9.859375 1.3125 
L 9.859375 6.296875 
Q 13.671875 4.5 17.78125 3.5625 
Q 21.828125 2.6875 26.375 2.6875 
Q 36.140625 2.6875 41.890625 8.25 
Q 47.65625 13.8125 47.65625 23.390625 
Q 47.65625 32.03125 42.046875 37.0625 
Q 36.375 42.140625 26.703125 42.140625 
Q 24.703125 42.140625 20.796875 41.0625 
Q 16.84375 40.046875 12.75 37.84375 
z
" id="DejaVuSans-ExtraLight-35"/>
      </defs>
      <g style="fill:#ffffff;" transform="translate(40.750938 199.199163)scale(0.18 -0.18)">
       <use xlink:href="#DejaVuSans-ExtraLight-2212"/>
       <use x="83.789062" xlink:href="#DejaVuSans-ExtraLight-30"/>
       <use x="147.412109" xlink:href="#DejaVuSans-ExtraLight-2e"/>
       <use x="179.199219" xlink:href="#DejaVuSans-ExtraLight-35"/>
      </g>
     </g>
    </g>
    <g id="ytick_3">
     <g id="line2d_7">
      <g>
       <use style="fill:#ffffff;stroke:#ffffff;stroke-width:0.8;" x="91.46" xlink:href="#ma4870f3989" y="147.52"/>
      </g>
     </g>
     <g id="text_7">
      <!-- 0.0 -->
      <g style="fill:#ffffff;" transform="translate(55.834375 154.358594)scale(0.18 -0.18)">
       <use xlink:href="#DejaVuSans-ExtraLight-30"/>
       <use x="63.623047" xlink:href="#DejaVuSans-ExtraLight-2e"/>
       <use x="95.410156" xlink:href="#DejaVuSans-ExtraLight-30"/>
      </g>
     </g>
    </g>
    <g id="ytick_4">
     <g id="line2d_8">
      <g>
       <use style="fill:#ffffff;stroke:#ffffff;stroke-width:0.8;" x="91.46" xlink:href="#ma4870f3989" y="102.679431"/>
      </g>
     </g>
     <g id="text_8">
      <!-- 0.5 -->
      <g style="fill:#ffffff;" transform="translate(55.834375 109.518024)scale(0.18 -0.18)">
       <use xlink:href="#DejaVuSans-ExtraLight-30"/>
       <use x="63.623047" xlink:href="#DejaVuSans-ExtraLight-2e"/>
       <use x="95.410156" xlink:href="#DejaVuSans-ExtraLight-35"/>
      </g>
     </g>
    </g>
    <g id="ytick_5">
     <g id="line2d_9">
      <g>
       <use style="fill:#ffffff;stroke:#ffffff;stroke-width:0.8;" x="91.46" xlink:href="#ma4870f3989" y="57.838861"/>
      </g>
     </g>
     <g id="text_9">
      <!-- 1.0 -->
      <g style="fill:#ffffff;" transform="translate(55.834375 64.677455)scale(0.18 -0.18)">
       <use xlink:href="#DejaVuSans-ExtraLight-31"/>
       <use x="63.623047" xlink:href="#DejaVuSans-ExtraLight-2e"/>
       <use x="95.410156" xlink:href="#DejaVuSans-ExtraLight-30"/>
      </g>
     </g>
    </g>
    <g id="text_10">
     <!-- Energy [eV] -->
     <defs>
      <path d="M 12.15625 72.90625 
L 53.375 72.90625 
L 53.375 68.84375 
L 17.140625 68.84375 
L 17.140625 40.875 
L 51.859375 40.875 
L 51.859375 36.921875 
L 17.140625 36.921875 
L 17.140625 3.953125 
L 54.25 3.953125 
L 54.25 0 
L 12.15625 0 
z
" id="DejaVuSans-ExtraLight-45"/>
      <path d="M 52.640625 33.015625 
L 52.640625 0 
L 48.140625 0 
L 48.140625 32.71875 
Q 48.140625 43.359375 44.71875 47.703125 
Q 41.3125 52.046875 34.671875 52.046875 
Q 26.90625 52.046875 21.390625 47.359375 
Q 15.828125 42.625 15.828125 30.90625 
L 15.828125 0 
L 11.328125 0 
L 11.328125 54.6875 
L 15.828125 54.6875 
L 15.828125 44.4375 
Q 18.21875 49.421875 22.125 52.046875 
Q 27.875 56 34.859375 56 
Q 42.96875 56 47.796875 50.484375 
Q 52.640625 45.015625 52.640625 33.015625 
z
" id="DejaVuSans-ExtraLight-6e"/>
      <path d="M 53.953125 29.59375 
L 53.953125 26.765625 
L 12.453125 26.765625 
Q 12.453125 13.578125 17.578125 8.296875 
Q 23.25 2.4375 34.421875 2.4375 
Q 37.359375 2.4375 42.1875 3.71875 
Q 47.078125 4.984375 51.859375 7.515625 
L 51.859375 2.78125 
Q 47.015625 0.734375 41.9375 -0.34375 
Q 36.859375 -1.421875 33.890625 -1.421875 
Q 21.234375 -1.421875 14.84375 5.421875 
Q 7.90625 12.703125 7.90625 26.765625 
Q 7.90625 41.359375 14.265625 48.53125 
Q 20.75 56 32.328125 56 
Q 43.0625 56 48.53125 48.921875 
Q 53.953125 41.5 53.953125 29.59375 
z
M 49.421875 30.5625 
Q 49.421875 42.09375 44.234375 47.359375 
Q 39.890625 52.046875 32.421875 52.046875 
Q 24.265625 52.046875 18.75 47.171875 
Q 13.671875 42.625 12.640625 30.5625 
z
" id="DejaVuSans-ExtraLight-65"/>
      <path d="M 41.015625 50.828125 
Q 39.9375 51.375 38.09375 51.765625 
Q 36.421875 52.046875 33.890625 52.046875 
Q 25.59375 52.046875 20.125 45.90625 
Q 15.828125 40.921875 15.828125 28.8125 
L 15.828125 0 
L 11.421875 0 
L 11.421875 54.6875 
L 15.828125 54.6875 
L 15.828125 44.4375 
Q 18.015625 48.828125 21.96875 51.859375 
Q 27.4375 56 34.859375 56 
Q 36.765625 56 38.1875 55.859375 
Q 39.65625 55.859375 41.015625 55.515625 
z
" id="DejaVuSans-ExtraLight-72"/>
      <path d="M 47.65625 27.984375 
Q 47.65625 39.359375 43.03125 45.625 
Q 38.421875 51.90625 30.078125 51.90625 
Q 21.828125 51.90625 17.203125 45.625 
Q 12.59375 39.359375 12.59375 27.984375 
Q 12.59375 16.65625 17.203125 10.375 
Q 21.828125 4.109375 30.078125 4.109375 
Q 38.421875 4.109375 43.03125 10.375 
Q 47.65625 16.65625 47.65625 27.984375 
z
M 52.15625 6.78125 
Q 52.15625 -10.25 45.65625 -15.515625 
Q 39.15625 -20.796875 29.203125 -20.796875 
Q 24.46875 -20.796875 20.265625 -20.125 
Q 16.0625 -19.390625 12.109375 -17.921875 
L 12.109375 -12.796875 
Q 16.0625 -14.9375 19.921875 -15.96875 
Q 23.78125 -17 27.78125 -17 
Q 35.9375 -17 41.796875 -13.53125 
Q 47.65625 -10.0625 47.65625 5.171875 
L 47.65625 13.71875 
Q 45.65625 8.109375 42.140625 4.890625 
Q 36.765625 -0.046875 30.078125 0 
Q 19.671875 0 13.859375 7.34375 
Q 8.0625 14.703125 8.0625 28.03125 
Q 8.0625 41.3125 13.859375 48.65625 
Q 19.671875 56 30.078125 56 
Q 36.71875 56 41.5 51.8125 
Q 45.21875 48.53125 47.65625 43.0625 
L 47.65625 54.6875 
L 52.15625 54.6875 
z
" id="DejaVuSans-ExtraLight-67"/>
      <path d="M 29.78125 -5.078125 
Q 26.859375 -12.359375 23.484375 -15.140625 
Q 18.953125 -18.890625 14.59375 -18.890625 
L 7.90625 -18.890625 
L 7.90625 -15.09375 
L 13.625 -15.09375 
Q 17.1875 -15.09375 19.875 -12.796875 
Q 23.34375 -9.8125 25.59375 -4.046875 
L 27.203125 0 
L 5.375 54.6875 
L 10.15625 54.6875 
L 29.59375 5.953125 
L 49.078125 54.6875 
L 53.8125 54.6875 
z
" id="DejaVuSans-ExtraLight-79"/>
      <path id="DejaVuSans-ExtraLight-20"/>
      <path d="M 11.328125 75.984375 
L 27.984375 75.984375 
L 27.984375 70.90625 
L 16.21875 70.90625 
L 16.21875 -9.078125 
L 27.984375 -9.078125 
L 27.984375 -13.1875 
L 11.328125 -13.1875 
z
" id="DejaVuSans-ExtraLight-5b"/>
      <path d="M 30.859375 0 
L 3.03125 72.90625 
L 8.59375 72.90625 
L 34.1875 4.890625 
L 59.96875 72.90625 
L 65.09375 72.90625 
L 37.3125 0 
z
" id="DejaVuSans-ExtraLight-56"/>
      <path d="M 27.984375 75.984375 
L 27.984375 -13.1875 
L 11.328125 -13.1875 
L 11.328125 -9.078125 
L 23.09375 -9.078125 
L 23.09375 70.90625 
L 11.328125 70.90625 
L 11.328125 75.984375 
z
" id="DejaVuSans-ExtraLight-5d"/>
     </defs>
     <g style="fill:#ffffff;" transform="translate(33.0075 200.442813)rotate(-90)scale(0.18 -0.18)">
      <use xlink:href="#DejaVuSans-ExtraLight-45"/>
      <use x="63.183594" xlink:href="#DejaVuSans-ExtraLight-6e"/>
      <use x="126.5625" xlink:href="#DejaVuSans-ExtraLight-65"/>
      <use x="188.085938" xlink:href="#DejaVuSans-ExtraLight-72"/>
      <use x="229.183594" xlink:href="#DejaVuSans-ExtraLight-67"/>
      <use x="289.193359" xlink:href="#DejaVuSans-ExtraLight-79"/>
      <use x="348.373047" xlink:href="#DejaVuSans-ExtraLight-20"/>
      <use x="380.160156" xlink:href="#DejaVuSans-ExtraLight-5b"/>
      <use x="419.173828" xlink:href="#DejaVuSans-ExtraLight-65"/>
      <use x="480.587891" xlink:href="#DejaVuSans-ExtraLight-56"/>
      <use x="548.996094" xlink:href="#DejaVuSans-ExtraLight-5d"/>
     </g>
    </g>
   </g>
   <g id="line2d_10">
    <path clip-path="url(#p2e5c293455)" d="M 91.46 261.665455 
L 92.884086 261.572369 
L 94.308173 261.293338 
L 95.732259 260.829049 
L 97.156345 260.180641 
L 99.055127 259.032532 
L 100.953909 257.565099 
L 102.85269 255.784932 
L 104.751472 253.70016 
L 106.650254 251.320503 
L 109.023731 247.94877 
L 111.397208 244.160386 
L 113.770685 239.986328 
L 116.618858 234.520132 
L 119.941726 227.609491 
L 124.213985 218.119367 
L 132.283807 200.013584 
L 134.657285 195.264464 
L 136.556066 191.915784 
L 137.980153 189.762773 
L 139.404239 187.991367 
L 140.828325 186.667151 
L 141.777716 186.061313 
L 142.727107 185.692389 
L 143.676498 185.568485 
L 145.112079 185.47389 
L 146.547661 185.190342 
L 147.983242 184.718545 
L 149.418823 184.059671 
L 151.332932 182.893064 
L 153.24704 181.401998 
L 155.161149 179.593063 
L 157.075257 177.474251 
L 158.989366 175.054927 
L 161.382002 171.624587 
L 163.774637 167.765176 
L 166.167273 163.503338 
L 169.038436 157.899537 
L 171.909598 151.814436 
L 173.823707 147.52 
L 177.62178 156.519914 
L 181.894613 167.24015 
L 188.541242 184.627305 
L 197.086908 206.925367 
L 201.35974 217.491315 
L 205.157814 226.300888 
L 208.481128 233.433474 
L 211.329684 239.043376 
L 214.178239 244.13015 
L 216.552035 247.93345 
L 218.925831 251.312967 
L 221.299627 254.245735 
L 223.198663 256.256793 
L 225.0977 257.960369 
L 226.996737 259.349052 
L 228.895774 260.416803 
L 230.320051 261.004157 
L 231.744329 261.406907 
L 233.168607 261.624067 
L 234.118125 261.665455 
L 234.118125 261.665455 
" style="fill:none;stroke:#1f77b4;stroke-linecap:square;stroke-width:1.5;"/>
   </g>
   <g id="line2d_11">
    <path clip-path="url(#p2e5c293455)" d="M 91.46 147.52 
L 234.118125 147.52 
L 234.118125 147.52 
" style="fill:none;stroke:#1f77b4;stroke-linecap:square;stroke-width:1.5;"/>
   </g>
   <g id="line2d_12">
    <path clip-path="url(#p2e5c293455)" d="M 91.46 33.374545 
L 92.884086 33.467631 
L 94.308173 33.746662 
L 95.732259 34.210951 
L 97.156345 34.859359 
L 99.055127 36.007468 
L 100.953909 37.474901 
L 102.85269 39.255068 
L 104.751472 41.33984 
L 106.650254 43.719497 
L 109.023731 47.09123 
L 111.397208 50.879614 
L 113.770685 55.053672 
L 116.618858 60.519868 
L 119.941726 67.430509 
L 124.213985 76.920633 
L 132.283807 95.026416 
L 134.657285 99.775536 
L 136.556066 103.124216 
L 137.980153 105.277227 
L 139.404239 107.048633 
L 140.828325 108.372849 
L 141.777716 108.978687 
L 142.727107 109.347611 
L 143.676498 109.471515 
L 145.112079 109.56611 
L 146.547661 109.849658 
L 147.983242 110.321455 
L 149.418823 110.980329 
L 151.332932 112.146936 
L 153.24704 113.638002 
L 155.161149 115.446937 
L 157.075257 117.565749 
L 158.989366 119.985073 
L 161.382002 123.415413 
L 163.774637 127.274824 
L 166.167273 131.536662 
L 169.038436 137.140463 
L 171.909598 143.225564 
L 173.823707 147.52 
L 177.62178 138.520086 
L 181.894613 127.79985 
L 188.541242 110.412695 
L 197.086908 88.114633 
L 201.35974 77.548685 
L 205.157814 68.739112 
L 208.481128 61.606526 
L 211.329684 55.996624 
L 214.178239 50.90985 
L 216.552035 47.10655 
L 218.925831 43.727033 
L 221.299627 40.794265 
L 223.198663 38.783207 
L 225.0977 37.079631 
L 226.996737 35.690948 
L 228.895774 34.623197 
L 230.320051 34.035843 
L 231.744329 33.633093 
L 233.168607 33.415933 
L 234.118125 33.374545 
L 234.118125 33.374545 
" style="fill:none;stroke:#1f77b4;stroke-linecap:square;stroke-width:1.5;"/>
   </g>
   <g id="line2d_13">
    <path clip-path="url(#p2e5c293455)" d="M 91.46 273.08 
L 91.46 21.96 
" style="fill:none;stroke:#ffffff;stroke-linecap:square;stroke-width:0.5;"/>
   </g>
   <g id="line2d_14">
    <path clip-path="url(#p2e5c293455)" d="M 143.676498 273.08 
L 143.676498 21.96 
" style="fill:none;stroke:#ffffff;stroke-linecap:square;stroke-width:0.5;"/>
   </g>
   <g id="line2d_15">
    <path clip-path="url(#p2e5c293455)" d="M 173.823707 273.08 
L 173.823707 21.96 
" style="fill:none;stroke:#ffffff;stroke-linecap:square;stroke-width:0.5;"/>
   </g>
   <g id="line2d_16">
    <path clip-path="url(#p2e5c293455)" d="M 234.118125 273.08 
L 234.118125 21.96 
" style="fill:none;stroke:#ffffff;stroke-linecap:square;stroke-width:0.5;"/>
   </g>
   <g id="patch_3">
    <path d="M 91.46 273.08 
L 91.46 21.96 
" style="fill:none;stroke:#ffffff;stroke-linecap:square;stroke-linejoin:miter;stroke-width:0.8;"/>
   </g>
   <g id="patch_4">
    <path d="M 234.118125 273.08 
L 234.118125 21.96 
" style="fill:none;stroke:#ffffff;stroke-linecap:square;stroke-linejoin:miter;stroke-width:0.8;"/>
   </g>
   <g id="patch_5">
    <path d="M 91.46 273.08 
L 234.118125 273.08 
" style="fill:none;stroke:#ffffff;stroke-linecap:square;stroke-linejoin:miter;stroke-width:0.8;"/>
   </g>
   <g id="patch_6">
    <path d="M 91.46 21.96 
L 234.118125 21.96 
" style="fill:none;stroke:#ffffff;stroke-linecap:square;stroke-linejoin:miter;stroke-width:0.8;"/>
   </g>
  </g>
 </g>
 <defs>
  <clipPath id="p2e5c293455">
   <rect height="251.12" width="142.658125" x="91.46" y="21.96"/>
  </clipPath>
 </defs>
</svg>
