<?xml version="1.0"?>
 <svg width="580" height="580" version="1.1" xmlns="http://www.w3.org/2000/svg" viewBox="0 0 580 580"> <desc>Zint Generated Symbol </desc> <g id="barcode" fill="#000000"> <rect x="0" y="0" width="580" height="580" fill="#FFFFFF"></rect> <rect x="0.00" y="0.00" width="140.00" height="20.00"></rect> <rect x="180.00" y="0.00" width="20.00" height="20.00"></rect> <rect x="240.00" y="0.00" width="20.00" height="20.00"></rect> <rect x="300.00" y="0.00" width="20.00" height="40.00"></rect> <rect x="340.00" y="0.00" width="60.00" height="20.00"></rect> <rect x="440.00" y="0.00" width="140.00" height="20.00"></rect> <rect x="0.00" y="20.00" width="20.00" height="100.00"></rect> <rect x="120.00" y="20.00" width="20.00" height="100.00"></rect> <rect x="200.00" y="20.00" width="60.00" height="20.00"></rect> <rect x="360.00" y="20.00" width="60.00" height="20.00"></rect> <rect x="440.00" y="20.00" width="20.00" height="100.00"></rect> <rect x="560.00" y="20.00" width="20.00" height="100.00"></rect> <rect x="40.00" y="40.00" width="60.00" height="60.00"></rect> <rect x="160.00" y="40.00" width="60.00" height="20.00"></rect> <rect x="240.00" y="40.00" width="20.00" height="20.00"></rect> <rect x="320.00" y="40.00" width="20.00" height="20.00"></rect> <rect x="360.00" y="40.00" width="20.00" height="20.00"></rect> <rect x="480.00" y="40.00" width="60.00" height="60.00"></rect> <rect x="180.00" y="60.00" width="60.00" height="20.00"></rect> <rect x="260.00" y="60.00" width="80.00" height="20.00"></rect> <rect x="360.00" y="60.00" width="40.00" height="60.00"></rect> <rect x="200.00" y="80.00" width="20.00" height="20.00"></rect> <rect x="260.00" y="80.00" width="20.00" height="20.00"></rect> <rect x="300.00" y="80.00" width="20.00" height="20.00"></rect> <rect x="180.00" y="100.00" width="20.00" height="20.00"></rect> <rect x="280.00" y="100.00" width="60.00" height="20.00"></rect> <rect x="0.00" y="120.00" width="140.00" height="20.00"></rect> <rect x="160.00" y="120.00" width="20.00" height="20.00"></rect> <rect x="200.00" y="120.00" width="20.00" height="20.00"></rect> <rect x="240.00" y="120.00" width="20.00" height="20.00"></rect> <rect x="280.00" y="120.00" width="20.00" height="20.00"></rect> <rect x="320.00" y="120.00" width="20.00" height="20.00"></rect> <rect x="360.00" y="120.00" width="20.00" height="20.00"></rect> <rect x="400.00" y="120.00" width="20.00" height="20.00"></rect> <rect x="440.00" y="120.00" width="140.00" height="20.00"></rect> <rect x="160.00" y="140.00" width="60.00" height="20.00"></rect> <rect x="240.00" y="140.00" width="80.00" height="20.00"></rect> <rect x="340.00" y="140.00" width="60.00" height="20.00"></rect> <rect x="0.00" y="160.00" width="60.00" height="20.00"></rect> <rect x="80.00" y="160.00" width="100.00" height="20.00"></rect> <rect x="200.00" y="160.00" width="80.00" height="20.00"></rect> <rect x="320.00" y="160.00" width="40.00" height="40.00"></rect> <rect x="380.00" y="160.00" width="80.00" height="20.00"></rect> <rect x="520.00" y="160.00" width="20.00" height="20.00"></rect> <rect x="0.00" y="180.00" width="40.00" height="40.00"></rect> <rect x="60.00" y="180.00" width="40.00" height="40.00"></rect> <rect x="160.00" y="180.00" width="20.00" height="20.00"></rect> <rect x="200.00" y="180.00" width="40.00" height="20.00"></rect> <rect x="400.00" y="180.00" width="60.00" height="20.00"></rect> <rect x="500.00" y="180.00" width="20.00" height="20.00"></rect> <rect x="560.00" y="180.00" width="20.00" height="20.00"></rect> <rect x="120.00" y="200.00" width="20.00" height="20.00"></rect> <rect x="180.00" y="200.00" width="20.00" height="20.00"></rect> <rect x="240.00" y="200.00" width="20.00" height="20.00"></rect> <rect x="340.00" y="200.00" width="40.00" height="20.00"></rect> <rect x="420.00" y="200.00" width="40.00" height="20.00"></rect> <rect x="480.00" y="200.00" width="20.00" height="20.00"></rect> <rect x="520.00" y="200.00" width="60.00" height="20.00"></rect> <rect x="0.00" y="220.00" width="20.00" height="80.00"></rect> <rect x="40.00" y="220.00" width="60.00" height="20.00"></rect> <rect x="160.00" y="220.00" width="20.00" height="40.00"></rect> <rect x="220.00" y="220.00" width="20.00" height="20.00"></rect> <rect x="260.00" y="220.00" width="40.00" height="20.00"></rect> <rect x="320.00" y="220.00" width="60.00" height="20.00"></rect> <rect x="540.00" y="220.00" width="20.00" height="20.00"></rect> <rect x="60.00" y="240.00" width="40.00" height="20.00"></rect> <rect x="120.00" y="240.00" width="20.00" height="20.00"></rect> <rect x="260.00" y="240.00" width="20.00" height="40.00"></rect> <rect x="300.00" y="240.00" width="60.00" height="20.00"></rect> <rect x="400.00" y="240.00" width="60.00" height="20.00"></rect> <rect x="500.00" y="240.00" width="20.00" height="40.00"></rect> <rect x="540.00" y="240.00" width="40.00" height="20.00"></rect> <rect x="80.00" y="260.00" width="40.00" height="20.00"></rect> <rect x="180.00" y="260.00" width="20.00" height="20.00"></rect> <rect x="220.00" y="260.00" width="20.00" height="20.00"></rect> <rect x="400.00" y="260.00" width="20.00" height="20.00"></rect> <rect x="440.00" y="260.00" width="20.00" height="20.00"></rect> <rect x="560.00" y="260.00" width="20.00" height="20.00"></rect> <rect x="60.00" y="280.00" width="40.00" height="20.00"></rect> <rect x="120.00" y="280.00" width="20.00" height="20.00"></rect> <rect x="200.00" y="280.00" width="20.00" height="20.00"></rect> <rect x="240.00" y="280.00" width="20.00" height="20.00"></rect> <rect x="280.00" y="280.00" width="20.00" height="20.00"></rect> <rect x="360.00" y="280.00" width="20.00" height="20.00"></rect> <rect x="440.00" y="280.00" width="80.00" height="40.00"></rect> <rect x="540.00" y="280.00" width="40.00" height="20.00"></rect> <rect x="20.00" y="300.00" width="40.00" height="20.00"></rect> <rect x="80.00" y="300.00" width="40.00" height="20.00"></rect> <rect x="140.00" y="300.00" width="20.00" height="20.00"></rect> <rect x="260.00" y="300.00" width="40.00" height="20.00"></rect> <rect x="320.00" y="300.00" width="40.00" height="20.00"></rect> <rect x="400.00" y="300.00" width="20.00" height="20.00"></rect> <rect x="540.00" y="300.00" width="20.00" height="20.00"></rect> <rect x="0.00" y="320.00" width="60.00" height="20.00"></rect> <rect x="120.00" y="320.00" width="40.00" height="20.00"></rect> <rect x="200.00" y="320.00" width="80.00" height="20.00"></rect> <rect x="300.00" y="320.00" width="60.00" height="20.00"></rect> <rect x="380.00" y="320.00" width="40.00" height="20.00"></rect> <rect x="440.00" y="320.00" width="20.00" height="20.00"></rect> <rect x="500.00" y="320.00" width="20.00" height="20.00"></rect> <rect x="540.00" y="320.00" width="40.00" height="20.00"></rect> <rect x="40.00" y="340.00" width="20.00" height="20.00"></rect> <rect x="140.00" y="340.00" width="40.00" height="20.00"></rect> <rect x="200.00" y="340.00" width="100.00" height="20.00"></rect> <rect x="320.00" y="340.00" width="40.00" height="20.00"></rect> <rect x="420.00" y="340.00" width="40.00" height="20.00"></rect> <rect x="500.00" y="340.00" width="40.00" height="20.00"></rect> <rect x="560.00" y="340.00" width="20.00" height="20.00"></rect> <rect x="0.00" y="360.00" width="20.00" height="20.00"></rect> <rect x="60.00" y="360.00" width="100.00" height="20.00"></rect> <rect x="180.00" y="360.00" width="20.00" height="20.00"></rect> <rect x="220.00" y="360.00" width="80.00" height="20.00"></rect> <rect x="420.00" y="360.00" width="20.00" height="20.00"></rect> <rect x="480.00" y="360.00" width="20.00" height="20.00"></rect> <rect x="540.00" y="360.00" width="40.00" height="20.00"></rect> <rect x="20.00" y="380.00" width="80.00" height="20.00"></rect> <rect x="160.00" y="380.00" width="20.00" height="20.00"></rect> <rect x="200.00" y="380.00" width="40.00" height="20.00"></rect> <rect x="260.00" y="380.00" width="20.00" height="60.00"></rect> <rect x="300.00" y="380.00" width="20.00" height="20.00"></rect> <rect x="340.00" y="380.00" width="120.00" height="20.00"></rect> <rect x="480.00" y="380.00" width="40.00" height="20.00"></rect> <rect x="540.00" y="380.00" width="20.00" height="20.00"></rect> <rect x="0.00" y="400.00" width="20.00" height="20.00"></rect> <rect x="60.00" y="400.00" width="40.00" height="20.00"></rect> <rect x="120.00" y="400.00" width="60.00" height="20.00"></rect> <rect x="320.00" y="400.00" width="40.00" height="20.00"></rect> <rect x="380.00" y="400.00" width="120.00" height="20.00"></rect> <rect x="160.00" y="420.00" width="20.00" height="20.00"></rect> <rect x="220.00" y="420.00" width="20.00" height="20.00"></rect> <rect x="320.00" y="420.00" width="20.00" height="20.00"></rect> <rect x="380.00" y="420.00" width="40.00" height="40.00"></rect> <rect x="480.00" y="420.00" width="20.00" height="20.00"></rect> <rect x="520.00" y="420.00" width="60.00" height="20.00"></rect> <rect x="0.00" y="440.00" width="140.00" height="20.00"></rect> <rect x="160.00" y="440.00" width="40.00" height="40.00"></rect> <rect x="240.00" y="440.00" width="60.00" height="20.00"></rect> <rect x="340.00" y="440.00" width="20.00" height="40.00"></rect> <rect x="440.00" y="440.00" width="20.00" height="20.00"></rect> <rect x="480.00" y="440.00" width="40.00" height="40.00"></rect> <rect x="540.00" y="440.00" width="40.00" height="20.00"></rect> <rect x="0.00" y="460.00" width="20.00" height="100.00"></rect> <rect x="120.00" y="460.00" width="20.00" height="100.00"></rect> <rect x="220.00" y="460.00" width="20.00" height="20.00"></rect> <rect x="260.00" y="460.00" width="60.00" height="20.00"></rect> <rect x="400.00" y="460.00" width="20.00" height="20.00"></rect> <rect x="540.00" y="460.00" width="20.00" height="40.00"></rect> <rect x="40.00" y="480.00" width="60.00" height="60.00"></rect> <rect x="160.00" y="480.00" width="20.00" height="20.00"></rect> <rect x="200.00" y="480.00" width="20.00" height="20.00"></rect> <rect x="260.00" y="480.00" width="20.00" height="20.00"></rect> <rect x="300.00" y="480.00" width="60.00" height="20.00"></rect> <rect x="400.00" y="480.00" width="100.00" height="20.00"></rect> <rect x="220.00" y="500.00" width="20.00" height="20.00"></rect> <rect x="320.00" y="500.00" width="40.00" height="40.00"></rect> <rect x="400.00" y="500.00" width="20.00" height="20.00"></rect> <rect x="460.00" y="500.00" width="40.00" height="20.00"></rect> <rect x="520.00" y="500.00" width="60.00" height="20.00"></rect> <rect x="160.00" y="520.00" width="20.00" height="20.00"></rect> <rect x="200.00" y="520.00" width="20.00" height="20.00"></rect> <rect x="280.00" y="520.00" width="20.00" height="20.00"></rect> <rect x="380.00" y="520.00" width="20.00" height="20.00"></rect> <rect x="460.00" y="520.00" width="60.00" height="20.00"></rect> <rect x="560.00" y="520.00" width="20.00" height="20.00"></rect> <rect x="160.00" y="540.00" width="40.00" height="20.00"></rect> <rect x="240.00" y="540.00" width="40.00" height="20.00"></rect> <rect x="300.00" y="540.00" width="20.00" height="40.00"></rect> <rect x="340.00" y="540.00" width="100.00" height="20.00"></rect> <rect x="480.00" y="540.00" width="20.00" height="20.00"></rect> <rect x="540.00" y="540.00" width="20.00" height="20.00"></rect> <rect x="0.00" y="560.00" width="140.00" height="20.00"></rect> <rect x="160.00" y="560.00" width="80.00" height="20.00"></rect> <rect x="340.00" y="560.00" width="20.00" height="20.00"></rect> <rect x="380.00" y="560.00" width="60.00" height="20.00"></rect> <rect x="480.00" y="560.00" width="40.00" height="20.00"></rect> <rect x="540.00" y="560.00" width="40.00" height="20.00"></rect> </g>
</svg>
