<?xml version="1.0" encoding="utf-8" standalone="no"?>
<!DOCTYPE svg PUBLIC "-//W3C//DTD SVG 1.1//EN"
  "http://www.w3.org/Graphics/SVG/1.1/DTD/svg11.dtd">
<!-- Created with matplotlib (http://matplotlib.org/) -->
<svg height="288pt" version="1.1" viewBox="0 0 216 288" width="216pt" xmlns="http://www.w3.org/2000/svg" xmlns:xlink="http://www.w3.org/1999/xlink">
 <defs>
  <style type="text/css">
*{stroke-linecap:butt;stroke-linejoin:round;}
  </style>
 </defs>
 <g id="figure_1">
  <g id="patch_1">
   <path d="M 0 288 
L 216 288 
L 216 0 
L 0 0 
z
"/>
  </g>
  <g id="axes_1">
   <g id="patch_2">
    <path d="M 49.88 260.12 
L 206.758125 260.12 
L 206.758125 10.44 
L 49.88 10.44 
z
"/>
   </g>
   <g id="line2d_1">
    <path clip-path="url(#p6fd4666979)" style="fill:none;stroke:#1f77b4;stroke-linecap:square;stroke-opacity:0.9;"/>
   </g>
   <g id="line2d_2">
    <path clip-path="url(#p6fd4666979)" style="fill:none;stroke:#1f77b4;stroke-linecap:square;stroke-opacity:0.9;"/>
   </g>
   <g id="line2d_3">
    <path clip-path="url(#p6fd4666979)" style="fill:none;stroke:#1f77b4;stroke-linecap:square;stroke-opacity:0.9;"/>
   </g>
   <g id="line2d_4">
    <path clip-path="url(#p6fd4666979)" style="fill:none;stroke:#1f77b4;stroke-linecap:square;stroke-opacity:0.9;"/>
   </g>
   <g id="line2d_5">
    <path clip-path="url(#p6fd4666979)" style="fill:none;stroke:#1f77b4;stroke-linecap:square;stroke-opacity:0.9;"/>
   </g>
   <g id="line2d_6">
    <path clip-path="url(#p6fd4666979)" style="fill:none;stroke:#1f77b4;stroke-linecap:square;stroke-opacity:0.9;"/>
   </g>
   <g id="line2d_7">
    <path clip-path="url(#p6fd4666979)" style="fill:none;stroke:#1f77b4;stroke-linecap:square;stroke-opacity:0.9;"/>
   </g>
   <g id="line2d_8">
    <path clip-path="url(#p6fd4666979)" style="fill:none;stroke:#1f77b4;stroke-linecap:square;stroke-opacity:0.9;"/>
   </g>
   <g id="line2d_9">
    <path clip-path="url(#p6fd4666979)" style="fill:none;stroke:#1f77b4;stroke-linecap:square;stroke-opacity:0.9;"/>
   </g>
   <g id="line2d_10">
    <path clip-path="url(#p6fd4666979)" style="fill:none;stroke:#1f77b4;stroke-linecap:square;stroke-opacity:0.9;"/>
   </g>
   <g id="line2d_11">
    <path clip-path="url(#p6fd4666979)" style="fill:none;stroke:#1f77b4;stroke-linecap:square;stroke-opacity:0.9;"/>
   </g>
   <g id="line2d_12">
    <path clip-path="url(#p6fd4666979)" style="fill:none;stroke:#1f77b4;stroke-linecap:square;stroke-opacity:0.9;"/>
   </g>
   <g id="line2d_13">
    <path clip-path="url(#p6fd4666979)" style="fill:none;stroke:#1f77b4;stroke-linecap:square;stroke-opacity:0.9;"/>
   </g>
   <g id="line2d_14">
    <path clip-path="url(#p6fd4666979)" style="fill:none;stroke:#1f77b4;stroke-linecap:square;stroke-opacity:0.9;"/>
   </g>
   <g id="line2d_15">
    <path clip-path="url(#p6fd4666979)" style="fill:none;stroke:#1f77b4;stroke-linecap:square;stroke-opacity:0.9;"/>
   </g>
   <g id="line2d_16">
    <path clip-path="url(#p6fd4666979)" style="fill:none;stroke:#1f77b4;stroke-linecap:square;stroke-opacity:0.9;"/>
   </g>
   <g id="line2d_17">
    <path clip-path="url(#p6fd4666979)" d="M 49.88 206.738416 
L 51.86006 206.513704 
L 53.84012 205.858294 
L 55.820181 204.809638 
L 57.800241 203.455124 
L 59.780301 201.857172 
L 61.760361 200.10317 
L 63.740421 198.268022 
L 65.72048 196.407906 
L 67.700541 194.554032 
L 69.680601 192.731368 
L 71.660661 190.939914 
L 73.640721 189.185912 
L 75.620781 187.450636 
L 77.600841 185.734086 
L 79.580902 184.03002 
L 81.560962 182.369648 
L 83.541022 180.78418 
L 85.521082 179.323552 
L 87.501142 178.075152 
L 89.481203 177.107642 
L 91.461263 176.483442 
L 93.441322 176.208794 
L 95.421382 176.22752 
L 97.401442 176.452232 
L 99.381502 176.783058 
L 101.361563 177.13261 
L 103.341623 177.425984 
L 105.321683 177.619486 
L 107.301743 177.688148 
L 107.301743 177.688148 
L 108.44492 177.63197 
L 109.588097 177.482162 
L 110.731273 177.232482 
L 111.87445 176.876688 
L 113.017627 176.427264 
L 114.160804 175.88421 
L 115.303981 175.241284 
L 116.447157 174.51097 
L 117.590334 173.69951 
L 118.733511 172.800662 
L 119.876688 171.82691 
L 121.019865 170.784496 
L 122.163041 169.685904 
L 123.306218 168.537376 
L 124.449395 167.345154 
L 125.592572 166.134206 
L 126.735748 164.904532 
L 127.878925 163.6811 
L 129.022102 162.476394 
L 130.165279 161.302898 
L 131.308456 160.18558 
L 132.451632 159.130682 
L 133.594809 158.163172 
L 134.737986 157.295534 
L 135.881163 156.558978 
L 137.02434 155.965988 
L 138.167516 155.541532 
L 139.310693 155.304336 
L 140.45387 155.235674 
L 140.45387 155.235674 
L 142.740224 155.41045 
L 145.026578 155.728792 
L 147.31293 156.03465 
L 149.599285 156.309298 
L 151.885639 156.833626 
L 154.171993 158.106994 
L 156.458347 159.979594 
L 158.744699 162.189262 
L 161.031053 164.611158 
L 163.317407 167.17662 
L 165.603761 169.823228 
L 167.890115 172.488562 
L 170.176467 175.13517 
L 172.462821 177.719358 
L 174.749175 180.228642 
L 177.035529 182.650538 
L 179.321881 184.991288 
L 181.608235 187.269618 
L 183.894589 189.498012 
L 186.180943 191.720164 
L 188.467297 193.936074 
L 190.753649 196.151984 
L 193.040003 198.35541 
L 195.326357 200.496416 
L 197.612711 202.481372 
L 199.899065 204.216648 
L 202.185417 205.571162 
L 204.471771 206.4388 
L 206.758125 206.738416 
" style="fill:none;stroke:#1f77b4;stroke-linecap:square;stroke-opacity:0.9;"/>
   </g>
   <g id="line2d_18">
    <path clip-path="url(#p6fd4666979)" d="M 49.88 142.127474 
L 51.86006 142.027602 
L 53.84012 141.746712 
L 55.820181 141.30353 
L 57.800241 140.747992 
L 59.780301 140.123792 
L 61.760361 139.499592 
L 63.740421 138.93157 
L 65.72048 138.488388 
L 67.700541 138.219982 
L 69.680601 138.201256 
L 71.660661 138.469662 
L 73.640721 139.068894 
L 75.620781 140.011436 
L 77.600841 141.27232 
L 79.580902 142.789126 
L 81.560962 144.449498 
L 83.541022 146.122354 
L 85.521082 147.67037 
L 87.501142 148.94998 
L 89.481203 149.842586 
L 91.461263 150.29201 
L 93.441322 150.29201 
L 95.421382 149.91749 
L 97.401442 149.299532 
L 99.381502 148.57546 
L 101.361563 147.870114 
L 103.341623 147.289608 
L 105.321683 146.915088 
L 107.301743 146.784006 
L 107.301743 146.784006 
L 108.44492 146.790248 
L 109.588097 146.802732 
L 110.731273 146.8277 
L 111.87445 146.865152 
L 113.017627 146.915088 
L 114.160804 146.98375 
L 115.303981 147.064896 
L 116.447157 147.17101 
L 117.590334 147.29585 
L 118.733511 147.4519 
L 119.876688 147.626676 
L 121.019865 147.82642 
L 122.163041 148.057374 
L 123.306218 148.307054 
L 124.449395 148.587944 
L 125.592572 148.88756 
L 126.735748 149.212144 
L 127.878925 149.549212 
L 129.022102 149.898764 
L 130.165279 150.2608 
L 131.308456 150.629078 
L 132.451632 150.991114 
L 133.594809 151.346908 
L 134.737986 151.677734 
L 135.881163 151.97735 
L 137.02434 152.22703 
L 138.167516 152.401806 
L 139.310693 152.489194 
L 140.45387 152.514162 
L 140.45387 152.514162 
L 142.740224 152.526646 
L 145.026578 152.751358 
L 147.31293 153.300654 
L 149.599285 154.124598 
L 151.885639 154.904848 
L 154.171993 155.054656 
L 156.458347 154.673894 
L 158.744699 153.968548 
L 161.031053 152.97607 
L 163.317407 151.740154 
L 165.603761 150.273284 
L 167.890115 148.619154 
L 170.176467 146.8277 
L 172.462821 144.973826 
L 174.749175 143.157404 
L 177.035529 141.484548 
L 179.321881 140.067614 
L 181.608235 138.99399 
L 183.894589 138.30737 
L 186.180943 138.001512 
L 188.467297 138.051448 
L 190.753649 138.382274 
L 193.040003 138.937812 
L 195.326357 139.624432 
L 197.612711 140.360988 
L 199.899065 141.05385 
L 202.185417 141.621872 
L 204.471771 141.996392 
L 206.758125 142.127474 
" style="fill:none;stroke:#1f77b4;stroke-linecap:square;stroke-opacity:0.9;"/>
   </g>
   <g id="line2d_19">
    <path clip-path="url(#p6fd4666979)" d="M 49.88 59.146326 
L 51.86006 59.608234 
L 53.84012 60.975232 
L 55.820181 63.172416 
L 57.800241 66.074946 
L 59.780301 69.526772 
L 61.760361 73.371844 
L 63.740421 77.422902 
L 65.72048 81.517654 
L 67.700541 85.506292 
L 69.680601 89.232766 
L 71.660661 92.578478 
L 73.640721 95.42483 
L 75.620781 97.70316 
L 77.600841 99.382258 
L 79.580902 100.474608 
L 81.560962 101.048872 
L 83.541022 101.204922 
L 85.521082 101.04263 
L 87.501142 100.661868 
L 89.481203 100.150024 
L 91.461263 99.588244 
L 93.441322 99.032706 
L 95.421382 98.527104 
L 97.401442 98.090164 
L 99.381502 97.73437 
L 101.361563 97.465964 
L 103.341623 97.278704 
L 105.321683 97.17259 
L 107.301743 97.135138 
L 107.301743 97.135138 
L 108.44492 97.097686 
L 109.588097 96.991572 
L 110.731273 96.810554 
L 111.87445 96.5796 
L 113.017627 96.286226 
L 114.160804 95.9554 
L 115.303981 95.593364 
L 116.447157 95.200118 
L 117.590334 94.794388 
L 118.733511 94.382416 
L 119.876688 93.970444 
L 121.019865 93.564714 
L 122.163041 93.165226 
L 123.306218 92.784464 
L 124.449395 92.416186 
L 125.592572 92.066634 
L 126.735748 91.74205 
L 127.878925 91.436192 
L 129.022102 91.142818 
L 130.165279 90.880654 
L 131.308456 90.630974 
L 132.451632 90.406262 
L 133.594809 90.206518 
L 134.737986 90.0255 
L 135.881163 89.86945 
L 137.02434 89.74461 
L 138.167516 89.65098 
L 139.310693 89.58856 
L 140.45387 89.569834 
L 140.45387 89.569834 
L 142.740224 89.657222 
L 145.026578 89.950596 
L 147.31293 90.46244 
L 149.599285 91.198996 
L 151.885639 92.160264 
L 154.171993 93.315034 
L 156.458347 94.61337 
L 158.744699 96.005336 
L 161.031053 97.416028 
L 163.317407 98.776784 
L 165.603761 99.987732 
L 167.890115 100.973968 
L 170.176467 101.641862 
L 172.462821 101.891542 
L 174.749175 101.623136 
L 177.035529 100.73053 
L 179.321881 99.145062 
L 181.608235 96.816796 
L 183.894589 93.7707 
L 186.180943 90.081678 
L 188.467297 85.899538 
L 190.753649 81.386572 
L 193.040003 76.748766 
L 195.326357 72.210832 
L 197.612711 68.003724 
L 199.899065 64.37088 
L 202.185417 61.555738 
L 204.471771 59.764284 
L 206.758125 59.146326 
" style="fill:none;stroke:#1f77b4;stroke-linecap:square;stroke-opacity:0.9;"/>
   </g>
   <g id="line2d_20">
    <path clip-path="url(#p6fd4666979)" style="fill:none;stroke:#ff7f0e;stroke-linecap:square;stroke-opacity:0.9;"/>
   </g>
   <g id="line2d_21">
    <path clip-path="url(#p6fd4666979)" style="fill:none;stroke:#ff7f0e;stroke-linecap:square;stroke-opacity:0.9;"/>
   </g>
   <g id="line2d_22">
    <path clip-path="url(#p6fd4666979)" style="fill:none;stroke:#ff7f0e;stroke-linecap:square;stroke-opacity:0.9;"/>
   </g>
   <g id="line2d_23">
    <path clip-path="url(#p6fd4666979)" style="fill:none;stroke:#ff7f0e;stroke-linecap:square;stroke-opacity:0.9;"/>
   </g>
   <g id="line2d_24">
    <path clip-path="url(#p6fd4666979)" style="fill:none;stroke:#ff7f0e;stroke-linecap:square;stroke-opacity:0.9;"/>
   </g>
   <g id="line2d_25">
    <path clip-path="url(#p6fd4666979)" style="fill:none;stroke:#ff7f0e;stroke-linecap:square;stroke-opacity:0.9;"/>
   </g>
   <g id="line2d_26">
    <path clip-path="url(#p6fd4666979)" style="fill:none;stroke:#ff7f0e;stroke-linecap:square;stroke-opacity:0.9;"/>
   </g>
   <g id="line2d_27">
    <path clip-path="url(#p6fd4666979)" style="fill:none;stroke:#ff7f0e;stroke-linecap:square;stroke-opacity:0.9;"/>
   </g>
   <g id="line2d_28">
    <path clip-path="url(#p6fd4666979)" style="fill:none;stroke:#ff7f0e;stroke-linecap:square;stroke-opacity:0.9;"/>
   </g>
   <g id="line2d_29">
    <path clip-path="url(#p6fd4666979)" style="fill:none;stroke:#ff7f0e;stroke-linecap:square;stroke-opacity:0.9;"/>
   </g>
   <g id="line2d_30">
    <path clip-path="url(#p6fd4666979)" style="fill:none;stroke:#ff7f0e;stroke-linecap:square;stroke-opacity:0.9;"/>
   </g>
   <g id="line2d_31">
    <path clip-path="url(#p6fd4666979)" style="fill:none;stroke:#ff7f0e;stroke-linecap:square;stroke-opacity:0.9;"/>
   </g>
   <g id="line2d_32">
    <path clip-path="url(#p6fd4666979)" style="fill:none;stroke:#ff7f0e;stroke-linecap:square;stroke-opacity:0.9;"/>
   </g>
   <g id="line2d_33">
    <path clip-path="url(#p6fd4666979)" style="fill:none;stroke:#ff7f0e;stroke-linecap:square;stroke-opacity:0.9;"/>
   </g>
   <g id="line2d_34">
    <path clip-path="url(#p6fd4666979)" style="fill:none;stroke:#ff7f0e;stroke-linecap:square;stroke-opacity:0.9;"/>
   </g>
   <g id="line2d_35">
    <path clip-path="url(#p6fd4666979)" style="fill:none;stroke:#ff7f0e;stroke-linecap:square;stroke-opacity:0.9;"/>
   </g>
   <g id="line2d_36">
    <path clip-path="url(#p6fd4666979)" d="M 49.88 206.682238 
L 51.86006 206.457526 
L 53.84012 205.795874 
L 55.820181 204.75346 
L 57.800241 203.392704 
L 59.780301 201.794752 
L 61.760361 200.046992 
L 63.740421 198.211844 
L 65.72048 196.351728 
L 67.700541 194.504096 
L 69.680601 192.681432 
L 71.660661 190.89622 
L 73.640721 189.142218 
L 75.620781 187.413184 
L 77.600841 185.696634 
L 79.580902 184.005052 
L 81.560962 182.34468 
L 83.541022 180.759212 
L 85.521082 179.298584 
L 87.501142 178.050184 
L 89.481203 177.082674 
L 91.461263 176.452232 
L 93.441322 176.177584 
L 95.421382 176.190068 
L 97.401442 176.421022 
L 99.381502 176.751848 
L 101.361563 177.095158 
L 103.341623 177.388532 
L 105.321683 177.582034 
L 107.301743 177.650696 
L 107.301743 177.650696 
L 108.44492 177.60076 
L 109.588097 177.450952 
L 110.731273 177.19503 
L 111.87445 176.845478 
L 113.017627 176.396054 
L 114.160804 175.853 
L 115.303981 175.216316 
L 116.447157 174.486002 
L 117.590334 173.6683 
L 118.733511 172.775694 
L 119.876688 171.801942 
L 121.019865 170.76577 
L 122.163041 169.667178 
L 123.306218 168.51865 
L 124.449395 167.33267 
L 125.592572 166.121722 
L 126.735748 164.89829 
L 127.878925 163.674858 
L 129.022102 162.470152 
L 130.165279 161.302898 
L 131.308456 160.18558 
L 132.451632 159.130682 
L 133.594809 158.163172 
L 134.737986 157.301776 
L 135.881163 156.558978 
L 137.02434 155.965988 
L 138.167516 155.547774 
L 139.310693 155.304336 
L 140.45387 155.235674 
L 140.45387 155.235674 
L 142.740224 155.41045 
L 145.026578 155.735034 
L 147.31293 156.03465 
L 149.599285 156.309298 
L 151.885639 156.833626 
L 154.171993 158.119478 
L 156.458347 159.992078 
L 158.744699 162.195504 
L 161.031053 164.6174 
L 163.317407 167.182862 
L 165.603761 169.823228 
L 167.890115 172.48232 
L 170.176467 175.122686 
L 172.462821 177.706874 
L 174.749175 180.209916 
L 177.035529 182.62557 
L 179.321881 184.960078 
L 181.608235 187.232166 
L 183.894589 189.46056 
L 186.180943 191.670228 
L 188.467297 193.879896 
L 190.753649 196.102048 
L 193.040003 198.299232 
L 195.326357 200.433996 
L 197.612711 202.418952 
L 199.899065 204.154228 
L 202.185417 205.508742 
L 204.471771 206.382622 
L 206.758125 206.682238 
" style="fill:none;stroke:#ff7f0e;stroke-linecap:square;stroke-opacity:0.9;"/>
   </g>
   <g id="line2d_37">
    <path clip-path="url(#p6fd4666979)" d="M 49.88 142.171168 
L 51.86006 142.077538 
L 53.84012 141.790406 
L 55.820181 141.347224 
L 57.800241 140.791686 
L 59.780301 140.167486 
L 61.760361 139.537044 
L 63.740421 138.969022 
L 65.72048 138.52584 
L 67.700541 138.257434 
L 69.680601 138.232466 
L 71.660661 138.49463 
L 73.640721 139.093862 
L 75.620781 140.036404 
L 77.600841 141.297288 
L 79.580902 142.807852 
L 81.560962 144.468224 
L 83.541022 146.14108 
L 85.521082 147.689096 
L 87.501142 148.968706 
L 89.481203 149.861312 
L 91.461263 150.310736 
L 93.441322 150.316978 
L 95.421382 149.942458 
L 97.401442 149.3245 
L 99.381502 148.600428 
L 101.361563 147.895082 
L 103.341623 147.314576 
L 105.321683 146.940056 
L 107.301743 146.808974 
L 107.301743 146.808974 
L 108.44492 146.815216 
L 109.588097 146.8277 
L 110.731273 146.852668 
L 111.87445 146.89012 
L 113.017627 146.940056 
L 114.160804 147.008718 
L 115.303981 147.089864 
L 116.447157 147.195978 
L 117.590334 147.320818 
L 118.733511 147.476868 
L 119.876688 147.651644 
L 121.019865 147.851388 
L 122.163041 148.082342 
L 123.306218 148.332022 
L 124.449395 148.612912 
L 125.592572 148.912528 
L 126.735748 149.237112 
L 127.878925 149.57418 
L 129.022102 149.923732 
L 130.165279 150.285768 
L 131.308456 150.654046 
L 132.451632 151.016082 
L 133.594809 151.371876 
L 134.737986 151.702702 
L 135.881163 152.00856 
L 137.02434 152.251998 
L 138.167516 152.433016 
L 139.310693 152.520404 
L 140.45387 152.545372 
L 140.45387 152.545372 
L 142.740224 152.557856 
L 145.026578 152.776326 
L 147.31293 153.325622 
L 149.599285 154.155808 
L 151.885639 154.923574 
L 154.171993 155.06714 
L 156.458347 154.686378 
L 158.744699 153.968548 
L 161.031053 152.982312 
L 163.317407 151.740154 
L 165.603761 150.279526 
L 167.890115 148.625396 
L 170.176467 146.833942 
L 172.462821 144.980068 
L 174.749175 143.163646 
L 177.035529 141.497032 
L 179.321881 140.08634 
L 181.608235 139.012716 
L 183.894589 138.332338 
L 186.180943 138.032722 
L 188.467297 138.082658 
L 190.753649 138.419726 
L 193.040003 138.975264 
L 195.326357 139.668126 
L 197.612711 140.404682 
L 199.899065 141.097544 
L 202.185417 141.671808 
L 204.471771 142.040086 
L 206.758125 142.171168 
" style="fill:none;stroke:#ff7f0e;stroke-linecap:square;stroke-opacity:0.9;"/>
   </g>
   <g id="line2d_38">
    <path clip-path="url(#p6fd4666979)" d="M 49.88 59.133842 
L 51.86006 59.601992 
L 53.84012 60.96899 
L 55.820181 63.159932 
L 57.800241 66.062462 
L 59.780301 69.52053 
L 61.760361 73.365602 
L 63.740421 77.41666 
L 65.72048 81.511412 
L 67.700541 85.50005 
L 69.680601 89.232766 
L 71.660661 92.578478 
L 73.640721 95.42483 
L 75.620781 97.70316 
L 77.600841 99.376016 
L 79.580902 100.474608 
L 81.560962 101.055114 
L 83.541022 101.204922 
L 85.521082 101.04263 
L 87.501142 100.661868 
L 89.481203 100.156266 
L 91.461263 99.594486 
L 93.441322 99.038948 
L 95.421382 98.533346 
L 97.401442 98.096406 
L 99.381502 97.740612 
L 101.361563 97.478448 
L 103.341623 97.291188 
L 105.321683 97.178832 
L 107.301743 97.147622 
L 107.301743 97.147622 
L 108.44492 97.11017 
L 109.588097 96.997814 
L 110.731273 96.823038 
L 111.87445 96.585842 
L 113.017627 96.292468 
L 114.160804 95.961642 
L 115.303981 95.593364 
L 116.447157 95.200118 
L 117.590334 94.794388 
L 118.733511 94.382416 
L 119.876688 93.970444 
L 121.019865 93.558472 
L 122.163041 93.158984 
L 123.306218 92.77198 
L 124.449395 92.403702 
L 125.592572 92.05415 
L 126.735748 91.723324 
L 127.878925 91.411224 
L 129.022102 91.124092 
L 130.165279 90.855686 
L 131.308456 90.612248 
L 132.451632 90.381294 
L 133.594809 90.18155 
L 134.737986 90.000532 
L 135.881163 89.844482 
L 137.02434 89.719642 
L 138.167516 89.61977 
L 139.310693 89.563592 
L 140.45387 89.538624 
L 140.45387 89.538624 
L 142.740224 89.632254 
L 145.026578 89.925628 
L 147.31293 90.437472 
L 149.599285 91.18027 
L 151.885639 92.135296 
L 154.171993 93.290066 
L 156.458347 94.594644 
L 158.744699 95.992852 
L 161.031053 97.403544 
L 163.317407 98.7643 
L 165.603761 99.98149 
L 167.890115 100.973968 
L 170.176467 101.641862 
L 172.462821 101.891542 
L 174.749175 101.623136 
L 177.035529 100.73053 
L 179.321881 99.145062 
L 181.608235 96.816796 
L 183.894589 93.7707 
L 186.180943 90.081678 
L 188.467297 85.893296 
L 190.753649 81.38033 
L 193.040003 76.742524 
L 195.326357 72.20459 
L 197.612711 67.997482 
L 199.899065 64.364638 
L 202.185417 61.543254 
L 204.471771 59.7518 
L 206.758125 59.133842 
" style="fill:none;stroke:#ff7f0e;stroke-linecap:square;stroke-opacity:0.9;"/>
   </g>
   <g id="matplotlib.axis_1">
    <g id="xtick_1">
     <g id="line2d_39">
      <defs>
       <path d="M 0 0 
L 0 3.5 
" id="m99c3502c1b" style="stroke:#ffffff;stroke-width:0.8;"/>
      </defs>
      <g>
       <use style="fill:#ffffff;stroke:#ffffff;stroke-width:0.8;" x="49.88" xlink:href="#m99c3502c1b" y="260.12"/>
      </g>
     </g>
     <g id="text_1">
      <!-- $\mathrm{\mathsf{\Gamma}}$ -->
      <defs>
       <path d="M 12.203125 0 
L 12.203125 72.90625 
L 55.171875 72.90625 
L 55.171875 68.84375 
L 17.09375 68.84375 
L 17.09375 0 
z
" id="DejaVuSans-ExtraLight-393"/>
      </defs>
      <g style="fill:#ffffff;" transform="translate(44.84 280.797188)scale(0.18 -0.18)">
       <use transform="translate(0 0.09375)" xlink:href="#DejaVuSans-ExtraLight-393"/>
      </g>
     </g>
    </g>
    <g id="xtick_2">
     <g id="line2d_40">
      <g>
       <use style="fill:#ffffff;stroke:#ffffff;stroke-width:0.8;" x="107.301743" xlink:href="#m99c3502c1b" y="260.12"/>
      </g>
     </g>
     <g id="text_2">
      <!-- $\mathrm{\mathsf{K}}$ -->
      <defs>
       <path d="M 17.28125 72.90625 
L 22.125 72.90625 
L 22.125 41.5 
L 55.515625 72.90625 
L 62.015625 72.90625 
L 25.78125 38.765625 
L 64.40625 0 
L 58.015625 0 
L 22.125 35.984375 
L 22.125 0 
L 17.28125 0 
z
" id="DejaVuSans-ExtraLight-4b"/>
      </defs>
      <g style="fill:#ffffff;" transform="translate(101.361743 280.797188)scale(0.18 -0.18)">
       <use transform="translate(0 0.09375)" xlink:href="#DejaVuSans-ExtraLight-4b"/>
      </g>
     </g>
    </g>
    <g id="xtick_3">
     <g id="line2d_41">
      <g>
       <use style="fill:#ffffff;stroke:#ffffff;stroke-width:0.8;" x="140.45387" xlink:href="#m99c3502c1b" y="260.12"/>
      </g>
     </g>
     <g id="text_3">
      <!-- $\mathrm{\mathsf{M}}$ -->
      <defs>
       <path d="M 16.0625 72.90625 
L 22.859375 72.90625 
L 43.109375 18.84375 
L 63.484375 72.90625 
L 70.21875 72.90625 
L 70.21875 0 
L 65.234375 0 
L 65.234375 64.015625 
L 46.484375 14.015625 
L 39.75 14.015625 
L 21.046875 64.015625 
L 21.046875 0 
L 16.0625 0 
z
" id="DejaVuSans-ExtraLight-4d"/>
      </defs>
      <g style="fill:#ffffff;" transform="translate(132.62387 280.797188)scale(0.18 -0.18)">
       <use transform="translate(0 0.09375)" xlink:href="#DejaVuSans-ExtraLight-4d"/>
      </g>
     </g>
    </g>
    <g id="xtick_4">
     <g id="line2d_42">
      <g>
       <use style="fill:#ffffff;stroke:#ffffff;stroke-width:0.8;" x="206.758125" xlink:href="#m99c3502c1b" y="260.12"/>
      </g>
     </g>
     <g id="text_4">
      <!-- $\mathrm{\mathsf{\Gamma}}$ -->
      <g style="fill:#ffffff;" transform="translate(201.718125 280.797188)scale(0.18 -0.18)">
       <use transform="translate(0 0.09375)" xlink:href="#DejaVuSans-ExtraLight-393"/>
      </g>
     </g>
    </g>
   </g>
   <g id="matplotlib.axis_2">
    <g id="ytick_1">
     <g id="line2d_43">
      <defs>
       <path d="M 0 0 
L -3.5 0 
" id="m12dd4c5825" style="stroke:#ffffff;stroke-width:0.8;"/>
      </defs>
      <g>
       <use style="fill:#ffffff;stroke:#ffffff;stroke-width:0.8;" x="49.88" xlink:href="#m12dd4c5825" y="260.12"/>
      </g>
     </g>
     <g id="text_5">
      <!-- -2 -->
      <defs>
       <path d="M 4.890625 29.390625 
L 31.203125 29.390625 
L 31.203125 25.390625 
L 4.890625 25.390625 
z
" id="DejaVuSans-ExtraLight-2d"/>
       <path d="M 12.015625 3.953125 
L 53.609375 3.953125 
L 53.609375 0 
L 6.9375 0 
L 6.9375 5.125 
L 25.09375 24.03125 
Q 31.84375 30.859375 37.3125 36.671875 
Q 42.390625 42.09375 44.09375 45.0625 
Q 45.796875 48.046875 45.796875 52.9375 
Q 45.796875 61.375 40.625 66.5 
Q 36.859375 70.21875 28.515625 70.21875 
Q 23.640625 70.21875 17.28125 67.390625 
Q 14.5 66.109375 7.8125 61.765625 
L 7.8125 66.9375 
Q 10.640625 68.953125 16.109375 71.390625 
Q 22.3125 74.171875 28.421875 74.21875 
Q 37.84375 74.21875 44.1875 69.390625 
Q 50.390625 64.546875 50.390625 53.421875 
Q 50.390625 48.921875 48.734375 44.921875 
Q 46.78125 40.234375 42.578125 35.40625 
Q 41.359375 33.984375 34.8125 27.25 
z
" id="DejaVuSans-ExtraLight-32"/>
      </defs>
      <g style="fill:#ffffff;" transform="translate(24.933438 266.958594)scale(0.18 -0.18)">
       <use xlink:href="#DejaVuSans-ExtraLight-2d"/>
       <use x="36.083984" xlink:href="#DejaVuSans-ExtraLight-32"/>
      </g>
     </g>
    </g>
    <g id="ytick_2">
     <g id="line2d_44">
      <g>
       <use style="fill:#ffffff;stroke:#ffffff;stroke-width:0.8;" x="49.88" xlink:href="#m12dd4c5825" y="197.7"/>
      </g>
     </g>
     <g id="text_6">
      <!-- -1 -->
      <defs>
       <path d="M 14.84375 4 
L 30.953125 4 
L 30.953125 68.40625 
L 10.984375 60.40625 
L 10.984375 64.890625 
L 30.859375 72.90625 
L 35.84375 72.90625 
L 35.84375 4 
L 51.953125 4 
L 51.953125 0 
L 14.84375 0 
z
" id="DejaVuSans-ExtraLight-31"/>
      </defs>
      <g style="fill:#ffffff;" transform="translate(24.933438 204.538594)scale(0.18 -0.18)">
       <use xlink:href="#DejaVuSans-ExtraLight-2d"/>
       <use x="36.083984" xlink:href="#DejaVuSans-ExtraLight-31"/>
      </g>
     </g>
    </g>
    <g id="ytick_3">
     <g id="line2d_45">
      <g>
       <use style="fill:#ffffff;stroke:#ffffff;stroke-width:0.8;" x="49.88" xlink:href="#m12dd4c5825" y="135.28"/>
      </g>
     </g>
     <g id="text_7">
      <!-- 0 -->
      <defs>
       <path d="M 31.5 70.21875 
Q 22.5625 70.21875 18.21875 61.53125 
Q 13.875 52.78125 13.875 36.375 
Q 13.875 19.96875 18.21875 11.234375 
Q 22.5625 2.546875 31.5 2.546875 
Q 40.71875 2.546875 45.0625 11.234375 
Q 49.421875 19.96875 49.421875 36.375 
Q 49.421875 52.78125 45.0625 61.53125 
Q 40.71875 70.21875 31.5 70.21875 
z
M 31.5 74.21875 
Q 42.046875 74.21875 48.1875 65.625 
Q 54.34375 56.984375 54.34375 36.375 
Q 54.34375 15.765625 48.1875 7.125 
Q 42.046875 -1.46875 31.5 -1.46875 
Q 21.234375 -1.46875 15.09375 7.125 
Q 8.9375 15.765625 8.9375 36.375 
Q 8.9375 56.984375 15.09375 65.625 
Q 21.234375 74.21875 31.5 74.21875 
z
" id="DejaVuSans-ExtraLight-30"/>
      </defs>
      <g style="fill:#ffffff;" transform="translate(31.4275 142.118594)scale(0.18 -0.18)">
       <use xlink:href="#DejaVuSans-ExtraLight-30"/>
      </g>
     </g>
    </g>
    <g id="ytick_4">
     <g id="line2d_46">
      <g>
       <use style="fill:#ffffff;stroke:#ffffff;stroke-width:0.8;" x="49.88" xlink:href="#m12dd4c5825" y="72.86"/>
      </g>
     </g>
     <g id="text_8">
      <!-- 1 -->
      <g style="fill:#ffffff;" transform="translate(31.4275 79.698594)scale(0.18 -0.18)">
       <use xlink:href="#DejaVuSans-ExtraLight-31"/>
      </g>
     </g>
    </g>
    <g id="ytick_5">
     <g id="line2d_47">
      <g>
       <use style="fill:#ffffff;stroke:#ffffff;stroke-width:0.8;" x="49.88" xlink:href="#m12dd4c5825" y="10.44"/>
      </g>
     </g>
     <g id="text_9">
      <!-- 2 -->
      <g style="fill:#ffffff;" transform="translate(31.4275 17.278594)scale(0.18 -0.18)">
       <use xlink:href="#DejaVuSans-ExtraLight-32"/>
      </g>
     </g>
    </g>
    <g id="ytick_6">
     <g id="line2d_48">
      <defs>
       <path d="M 0 0 
L -2 0 
" id="m21b3c51c12" style="stroke:#ffffff;stroke-width:0.6;"/>
      </defs>
      <g>
       <use style="fill:#ffffff;stroke:#ffffff;stroke-width:0.6;" x="49.88" xlink:href="#m21b3c51c12" y="228.91"/>
      </g>
     </g>
    </g>
    <g id="ytick_7">
     <g id="line2d_49">
      <g>
       <use style="fill:#ffffff;stroke:#ffffff;stroke-width:0.6;" x="49.88" xlink:href="#m21b3c51c12" y="166.49"/>
      </g>
     </g>
    </g>
    <g id="ytick_8">
     <g id="line2d_50">
      <g>
       <use style="fill:#ffffff;stroke:#ffffff;stroke-width:0.6;" x="49.88" xlink:href="#m21b3c51c12" y="104.07"/>
      </g>
     </g>
    </g>
    <g id="ytick_9">
     <g id="line2d_51">
      <g>
       <use style="fill:#ffffff;stroke:#ffffff;stroke-width:0.6;" x="49.88" xlink:href="#m21b3c51c12" y="41.65"/>
      </g>
     </g>
    </g>
    <g id="text_10">
     <!-- Energy [eV] -->
     <defs>
      <path d="M 12.15625 72.90625 
L 53.375 72.90625 
L 53.375 68.84375 
L 17.140625 68.84375 
L 17.140625 40.875 
L 51.859375 40.875 
L 51.859375 36.921875 
L 17.140625 36.921875 
L 17.140625 3.953125 
L 54.25 3.953125 
L 54.25 0 
L 12.15625 0 
z
" id="DejaVuSans-ExtraLight-45"/>
      <path d="M 52.640625 33.015625 
L 52.640625 0 
L 48.140625 0 
L 48.140625 32.71875 
Q 48.140625 43.359375 44.71875 47.703125 
Q 41.3125 52.046875 34.671875 52.046875 
Q 26.90625 52.046875 21.390625 47.359375 
Q 15.828125 42.625 15.828125 30.90625 
L 15.828125 0 
L 11.328125 0 
L 11.328125 54.6875 
L 15.828125 54.6875 
L 15.828125 44.4375 
Q 18.21875 49.421875 22.125 52.046875 
Q 27.875 56 34.859375 56 
Q 42.96875 56 47.796875 50.484375 
Q 52.640625 45.015625 52.640625 33.015625 
z
" id="DejaVuSans-ExtraLight-6e"/>
      <path d="M 53.953125 29.59375 
L 53.953125 26.765625 
L 12.453125 26.765625 
Q 12.453125 13.578125 17.578125 8.296875 
Q 23.25 2.4375 34.421875 2.4375 
Q 37.359375 2.4375 42.1875 3.71875 
Q 47.078125 4.984375 51.859375 7.515625 
L 51.859375 2.78125 
Q 47.015625 0.734375 41.9375 -0.34375 
Q 36.859375 -1.421875 33.890625 -1.421875 
Q 21.234375 -1.421875 14.84375 5.421875 
Q 7.90625 12.703125 7.90625 26.765625 
Q 7.90625 41.359375 14.265625 48.53125 
Q 20.75 56 32.328125 56 
Q 43.0625 56 48.53125 48.921875 
Q 53.953125 41.5 53.953125 29.59375 
z
M 49.421875 30.5625 
Q 49.421875 42.09375 44.234375 47.359375 
Q 39.890625 52.046875 32.421875 52.046875 
Q 24.265625 52.046875 18.75 47.171875 
Q 13.671875 42.625 12.640625 30.5625 
z
" id="DejaVuSans-ExtraLight-65"/>
      <path d="M 41.015625 50.828125 
Q 39.9375 51.375 38.09375 51.765625 
Q 36.421875 52.046875 33.890625 52.046875 
Q 25.59375 52.046875 20.125 45.90625 
Q 15.828125 40.921875 15.828125 28.8125 
L 15.828125 0 
L 11.421875 0 
L 11.421875 54.6875 
L 15.828125 54.6875 
L 15.828125 44.4375 
Q 18.015625 48.828125 21.96875 51.859375 
Q 27.4375 56 34.859375 56 
Q 36.765625 56 38.1875 55.859375 
Q 39.65625 55.859375 41.015625 55.515625 
z
" id="DejaVuSans-ExtraLight-72"/>
      <path d="M 47.65625 27.984375 
Q 47.65625 39.359375 43.03125 45.625 
Q 38.421875 51.90625 30.078125 51.90625 
Q 21.828125 51.90625 17.203125 45.625 
Q 12.59375 39.359375 12.59375 27.984375 
Q 12.59375 16.65625 17.203125 10.375 
Q 21.828125 4.109375 30.078125 4.109375 
Q 38.421875 4.109375 43.03125 10.375 
Q 47.65625 16.65625 47.65625 27.984375 
z
M 52.15625 6.78125 
Q 52.15625 -10.25 45.65625 -15.515625 
Q 39.15625 -20.796875 29.203125 -20.796875 
Q 24.46875 -20.796875 20.265625 -20.125 
Q 16.0625 -19.390625 12.109375 -17.921875 
L 12.109375 -12.796875 
Q 16.0625 -14.9375 19.921875 -15.96875 
Q 23.78125 -17 27.78125 -17 
Q 35.9375 -17 41.796875 -13.53125 
Q 47.65625 -10.0625 47.65625 5.171875 
L 47.65625 13.71875 
Q 45.65625 8.109375 42.140625 4.890625 
Q 36.765625 -0.046875 30.078125 0 
Q 19.671875 0 13.859375 7.34375 
Q 8.0625 14.703125 8.0625 28.03125 
Q 8.0625 41.3125 13.859375 48.65625 
Q 19.671875 56 30.078125 56 
Q 36.71875 56 41.5 51.8125 
Q 45.21875 48.53125 47.65625 43.0625 
L 47.65625 54.6875 
L 52.15625 54.6875 
z
" id="DejaVuSans-ExtraLight-67"/>
      <path d="M 29.78125 -5.078125 
Q 26.859375 -12.359375 23.484375 -15.140625 
Q 18.953125 -18.890625 14.59375 -18.890625 
L 7.90625 -18.890625 
L 7.90625 -15.09375 
L 13.625 -15.09375 
Q 17.1875 -15.09375 19.875 -12.796875 
Q 23.34375 -9.8125 25.59375 -4.046875 
L 27.203125 0 
L 5.375 54.6875 
L 10.15625 54.6875 
L 29.59375 5.953125 
L 49.078125 54.6875 
L 53.8125 54.6875 
z
" id="DejaVuSans-ExtraLight-79"/>
      <path id="DejaVuSans-ExtraLight-20"/>
      <path d="M 11.328125 75.984375 
L 27.984375 75.984375 
L 27.984375 70.90625 
L 16.21875 70.90625 
L 16.21875 -9.078125 
L 27.984375 -9.078125 
L 27.984375 -13.1875 
L 11.328125 -13.1875 
z
" id="DejaVuSans-ExtraLight-5b"/>
      <path d="M 30.859375 0 
L 3.03125 72.90625 
L 8.59375 72.90625 
L 34.1875 4.890625 
L 59.96875 72.90625 
L 65.09375 72.90625 
L 37.3125 0 
z
" id="DejaVuSans-ExtraLight-56"/>
      <path d="M 27.984375 75.984375 
L 27.984375 -13.1875 
L 11.328125 -13.1875 
L 11.328125 -9.078125 
L 23.09375 -9.078125 
L 23.09375 70.90625 
L 11.328125 70.90625 
L 11.328125 75.984375 
z
" id="DejaVuSans-ExtraLight-5d"/>
     </defs>
     <g style="fill:#ffffff;" transform="translate(17.19 188.202812)rotate(-90)scale(0.18 -0.18)">
      <use xlink:href="#DejaVuSans-ExtraLight-45"/>
      <use x="63.183594" xlink:href="#DejaVuSans-ExtraLight-6e"/>
      <use x="126.5625" xlink:href="#DejaVuSans-ExtraLight-65"/>
      <use x="188.085938" xlink:href="#DejaVuSans-ExtraLight-72"/>
      <use x="229.183594" xlink:href="#DejaVuSans-ExtraLight-67"/>
      <use x="289.193359" xlink:href="#DejaVuSans-ExtraLight-79"/>
      <use x="348.373047" xlink:href="#DejaVuSans-ExtraLight-20"/>
      <use x="380.160156" xlink:href="#DejaVuSans-ExtraLight-5b"/>
      <use x="419.173828" xlink:href="#DejaVuSans-ExtraLight-65"/>
      <use x="480.587891" xlink:href="#DejaVuSans-ExtraLight-56"/>
      <use x="548.996094" xlink:href="#DejaVuSans-ExtraLight-5d"/>
     </g>
    </g>
   </g>
   <g id="line2d_52">
    <path clip-path="url(#p6fd4666979)" d="M 49.88 59.146326 
L 51.86006 59.00276 
L 53.84012 58.56582 
L 55.820181 57.841748 
L 57.800241 56.81806 
L 59.780301 55.494756 
L 61.760361 53.878078 
L 63.740421 51.968026 
L 65.72048 49.783326 
L 67.700541 47.348946 
L 69.680601 44.689854 
L 71.660661 42.074456 
L 73.640721 44.558772 
L 75.620781 47.348946 
L 77.600841 50.313896 
L 79.580902 53.347508 
L 81.560962 56.368636 
L 83.541022 59.31486 
L 85.521082 62.130002 
L 87.501142 64.764126 
L 89.481203 67.192264 
L 91.461263 69.389448 
L 93.441322 71.33071 
L 95.421382 73.009808 
L 97.401442 74.4205 
L 99.381502 75.562786 
L 101.361563 76.44915 
L 103.341623 77.07335 
L 105.321683 77.44787 
L 107.301743 77.57271 
L 107.301743 77.57271 
L 108.44492 77.454112 
L 109.588097 77.085834 
L 110.731273 76.474118 
L 111.87445 75.612722 
L 113.017627 74.507888 
L 114.160804 73.153374 
L 115.303981 71.561664 
L 116.447157 69.720274 
L 117.590334 67.641688 
L 118.733511 65.33839 
L 119.876688 62.804138 
L 121.019865 60.0639 
L 122.163041 57.123918 
L 123.306218 53.990434 
L 124.449395 50.694658 
L 125.592572 47.249074 
L 126.735748 43.684892 
L 127.878925 40.045806 
L 129.022102 36.381752 
L 130.165279 32.75515 
L 131.308456 29.265872 
L 132.451632 26.026274 
L 133.594809 23.161196 
L 134.737986 20.77051 
L 135.881163 18.891668 
L 137.02434 17.512186 
L 138.167516 16.58837 
L 139.310693 16.064042 
L 140.45387 15.90175 
L 140.45387 15.90175 
L 142.740224 16.469772 
L 145.026578 17.911674 
L 147.31293 19.790516 
L 149.599285 21.76923 
L 151.885639 23.616862 
L 154.171993 25.227298 
L 156.458347 26.57557 
L 158.744699 27.686646 
L 161.031053 28.597978 
L 163.317407 29.378228 
L 165.603761 30.077332 
L 167.890115 30.807646 
L 170.176467 31.750188 
L 172.462821 33.179606 
L 174.749175 35.22074 
L 177.035529 37.680088 
L 179.321881 40.289244 
L 181.608235 42.885916 
L 183.894589 45.36399 
L 186.180943 47.667288 
L 188.467297 49.7646 
L 190.753649 51.662168 
L 193.040003 53.378718 
L 195.326357 54.939218 
L 197.612711 56.331184 
L 199.899065 57.498438 
L 202.185417 58.391044 
L 204.471771 58.952824 
L 206.758125 59.146326 
" style="fill:none;stroke:#7f7f7f;stroke-linecap:square;stroke-opacity:0.3;"/>
   </g>
   <g id="line2d_53">
    <path clip-path="url(#p6fd4666979)" d="M 49.88 43.166806 
L 51.86006 43.004514 
L 53.84012 42.52388 
L 55.820181 41.768598 
L 57.800241 40.80733 
L 59.780301 39.739948 
L 61.760361 38.741228 
L 63.740421 38.06085 
L 65.72048 37.96722 
L 67.700541 38.628872 
L 69.680601 40.039564 
L 71.660661 41.855986 
L 73.640721 38.90352 
L 75.620781 35.901118 
L 77.600841 32.9112 
L 79.580902 30.002428 
L 81.560962 27.243464 
L 83.541022 24.684244 
L 85.521082 22.368462 
L 87.501142 20.30236 
L 89.481203 18.510906 
L 91.461263 16.975374 
L 93.441322 15.68328 
L 95.421382 14.62214 
L 97.401442 13.773228 
L 99.381502 13.105334 
L 101.361563 12.605974 
L 103.341623 12.262664 
L 105.321683 12.056678 
L 107.301743 11.994258 
L 107.301743 11.994258 
L 108.44492 12.006742 
L 109.588097 12.056678 
L 110.731273 12.137824 
L 111.87445 12.237696 
L 113.017627 12.362536 
L 114.160804 12.493618 
L 115.303981 12.630942 
L 116.447157 12.768266 
L 117.590334 12.886864 
L 118.733511 12.980494 
L 119.876688 13.042914 
L 121.019865 13.055398 
L 122.163041 13.011704 
L 123.306218 12.899348 
L 124.449395 12.705846 
L 125.592572 12.412472 
L 126.735748 12.0005 
L 127.878925 11.463688 
L 129.022102 10.764584 
L 130.165279 9.884462 
L 131.308456 8.779628 
L 132.451632 7.41263 
L 133.594809 5.777226 
L 134.737986 3.904626 
L 135.881163 1.944638 
L 137.02434 0.1407 
L 137.956978 -1 
M 143.854603 -1 
L 145.026578 -0.302482 
L 147.31293 1.320438 
L 149.599285 3.099408 
L 151.885639 5.00946 
L 154.171993 7.019384 
L 156.458347 9.12918 
L 158.744699 11.363816 
L 161.031053 13.77947 
L 163.317407 16.407352 
L 165.603761 19.160074 
L 167.890115 21.856618 
L 170.176467 24.209852 
L 172.462821 25.895192 
L 174.749175 26.787798 
L 177.035529 27.224738 
L 179.321881 27.79276 
L 181.608235 28.847658 
L 183.894589 30.22714 
L 186.180943 31.75643 
L 188.467297 33.385592 
L 190.753649 35.083416 
L 193.040003 36.81245 
L 195.326357 38.485306 
L 197.612711 40.014596 
L 199.899065 41.319174 
L 202.185417 42.317894 
L 204.471771 42.948336 
L 206.758125 43.166806 
" style="fill:none;stroke:#7f7f7f;stroke-linecap:square;stroke-opacity:0.3;"/>
   </g>
   <g id="line2d_54">
    <path clip-path="url(#p6fd4666979)" d="M 49.88 18.685682 
L 51.86006 18.904152 
L 53.84012 19.503384 
L 55.820181 20.352296 
L 57.800241 21.263628 
L 59.780301 22.043878 
L 61.760361 22.505786 
L 63.740421 22.449608 
L 65.72048 21.669358 
L 67.700541 20.033954 
L 69.680601 17.549638 
L 71.660661 14.291314 
L 73.640721 10.327644 
L 75.620781 5.714806 
L 77.600841 0.48401 
L 78.105939 -1 
M 155.836885 -1 
L 156.458347 0.146942 
L 158.744699 4.035708 
L 161.031053 7.487534 
L 163.317407 10.458726 
L 165.603761 13.011704 
L 167.890115 15.296276 
L 170.176467 17.412314 
L 172.462821 19.403512 
L 174.749175 21.213692 
L 177.035529 22.668078 
L 179.321881 23.404634 
L 181.608235 23.279794 
L 183.894589 22.680562 
L 186.180943 22.056362 
L 188.467297 21.731778 
L 190.753649 21.775472 
L 193.040003 21.950248 
L 195.326357 21.912796 
L 197.612711 21.469614 
L 199.899065 20.664396 
L 202.185417 19.728096 
L 204.471771 18.972814 
L 206.758125 18.685682 
" style="fill:none;stroke:#7f7f7f;stroke-linecap:square;stroke-opacity:0.3;"/>
   </g>
   <g id="line2d_55">
    <path clip-path="url(#p6fd4666979)" d="M 49.88 18.685682 
L 51.86006 18.479696 
L 53.84012 17.861738 
L 55.820181 16.83805 
L 57.800241 15.40239 
L 59.780301 13.561 
L 61.760361 11.301396 
L 63.740421 8.636062 
L 65.72048 5.564998 
L 67.700541 2.088204 
L 69.280584 -1 
M 181.72946 -1 
L 183.894589 1.258018 
L 186.180943 3.829722 
L 188.467297 6.307796 
L 190.753649 8.542432 
L 193.040003 10.664712 
L 195.326357 12.743298 
L 197.612711 14.68456 
L 199.899065 16.344932 
L 202.185417 17.6183 
L 204.471771 18.411034 
L 206.758125 18.685682 
" style="fill:none;stroke:#7f7f7f;stroke-linecap:square;stroke-opacity:0.3;"/>
   </g>
   <g id="line2d_56">
    <path clip-path="url(#p6fd4666979)" style="fill:none;stroke:#7f7f7f;stroke-linecap:square;stroke-opacity:0.3;"/>
   </g>
   <g id="line2d_57">
    <path clip-path="url(#p6fd4666979)" style="fill:none;stroke:#7f7f7f;stroke-linecap:square;stroke-opacity:0.3;"/>
   </g>
   <g id="line2d_58">
    <path clip-path="url(#p6fd4666979)" style="fill:none;stroke:#7f7f7f;stroke-linecap:square;stroke-opacity:0.3;"/>
   </g>
   <g id="line2d_59">
    <path clip-path="url(#p6fd4666979)" style="fill:none;stroke:#7f7f7f;stroke-linecap:square;stroke-opacity:0.3;"/>
   </g>
   <g id="line2d_60">
    <path clip-path="url(#p6fd4666979)" style="fill:none;stroke:#7f7f7f;stroke-linecap:square;stroke-opacity:0.3;"/>
   </g>
   <g id="line2d_61">
    <path clip-path="url(#p6fd4666979)" style="fill:none;stroke:#7f7f7f;stroke-linecap:square;stroke-opacity:0.3;"/>
   </g>
   <g id="line2d_62">
    <path clip-path="url(#p6fd4666979)" style="fill:none;stroke:#7f7f7f;stroke-linecap:square;stroke-opacity:0.3;"/>
   </g>
   <g id="line2d_63">
    <path clip-path="url(#p6fd4666979)" style="fill:none;stroke:#7f7f7f;stroke-linecap:square;stroke-opacity:0.3;"/>
   </g>
   <g id="line2d_64">
    <path clip-path="url(#p6fd4666979)" style="fill:none;stroke:#7f7f7f;stroke-linecap:square;stroke-opacity:0.3;"/>
   </g>
   <g id="line2d_65">
    <path clip-path="url(#p6fd4666979)" style="fill:none;stroke:#7f7f7f;stroke-linecap:square;stroke-opacity:0.3;"/>
   </g>
   <g id="line2d_66">
    <path clip-path="url(#p6fd4666979)" style="fill:none;stroke:#7f7f7f;stroke-linecap:square;stroke-opacity:0.3;"/>
   </g>
   <g id="line2d_67">
    <path clip-path="url(#p6fd4666979)" style="fill:none;stroke:#7f7f7f;stroke-linecap:square;stroke-opacity:0.3;"/>
   </g>
   <g id="line2d_68">
    <path clip-path="url(#p6fd4666979)" style="fill:none;stroke:#7f7f7f;stroke-linecap:square;stroke-opacity:0.3;"/>
   </g>
   <g id="line2d_69">
    <path clip-path="url(#p6fd4666979)" style="fill:none;stroke:#7f7f7f;stroke-linecap:square;stroke-opacity:0.3;"/>
   </g>
   <g id="line2d_70">
    <path clip-path="url(#p6fd4666979)" style="fill:none;stroke:#7f7f7f;stroke-linecap:square;stroke-opacity:0.3;"/>
   </g>
   <g id="line2d_71">
    <path clip-path="url(#p6fd4666979)" style="fill:none;stroke:#7f7f7f;stroke-linecap:square;stroke-opacity:0.3;"/>
   </g>
   <g id="line2d_72">
    <path clip-path="url(#p6fd4666979)" style="fill:none;stroke:#7f7f7f;stroke-linecap:square;stroke-opacity:0.3;"/>
   </g>
   <g id="line2d_73">
    <path clip-path="url(#p6fd4666979)" style="fill:none;stroke:#7f7f7f;stroke-linecap:square;stroke-opacity:0.3;"/>
   </g>
   <g id="line2d_74">
    <path clip-path="url(#p6fd4666979)" style="fill:none;stroke:#7f7f7f;stroke-linecap:square;stroke-opacity:0.3;"/>
   </g>
   <g id="line2d_75">
    <path clip-path="url(#p6fd4666979)" style="fill:none;stroke:#7f7f7f;stroke-linecap:square;stroke-opacity:0.3;"/>
   </g>
   <g id="line2d_76">
    <path clip-path="url(#p6fd4666979)" style="fill:none;stroke:#7f7f7f;stroke-linecap:square;stroke-opacity:0.3;"/>
   </g>
   <g id="line2d_77">
    <path clip-path="url(#p6fd4666979)" style="fill:none;stroke:#7f7f7f;stroke-linecap:square;stroke-opacity:0.3;"/>
   </g>
   <g id="line2d_78">
    <path clip-path="url(#p6fd4666979)" style="fill:none;stroke:#7f7f7f;stroke-linecap:square;stroke-opacity:0.3;"/>
   </g>
   <g id="line2d_79">
    <path clip-path="url(#p6fd4666979)" style="fill:none;stroke:#7f7f7f;stroke-linecap:square;stroke-opacity:0.3;"/>
   </g>
   <g id="line2d_80">
    <path clip-path="url(#p6fd4666979)" style="fill:none;stroke:#7f7f7f;stroke-linecap:square;stroke-opacity:0.3;"/>
   </g>
   <g id="line2d_81">
    <path clip-path="url(#p6fd4666979)" style="fill:none;stroke:#7f7f7f;stroke-linecap:square;stroke-opacity:0.3;"/>
   </g>
   <g id="line2d_82">
    <path clip-path="url(#p6fd4666979)" style="fill:none;stroke:#7f7f7f;stroke-linecap:square;stroke-opacity:0.3;"/>
   </g>
   <g id="line2d_83">
    <path clip-path="url(#p6fd4666979)" style="fill:none;stroke:#7f7f7f;stroke-linecap:square;stroke-opacity:0.3;"/>
   </g>
   <g id="line2d_84">
    <path clip-path="url(#p6fd4666979)" style="fill:none;stroke:#7f7f7f;stroke-linecap:square;stroke-opacity:0.3;"/>
   </g>
   <g id="line2d_85">
    <path clip-path="url(#p6fd4666979)" style="fill:none;stroke:#7f7f7f;stroke-linecap:square;stroke-opacity:0.3;"/>
   </g>
   <g id="line2d_86">
    <path clip-path="url(#p6fd4666979)" style="fill:none;stroke:#7f7f7f;stroke-linecap:square;stroke-opacity:0.3;"/>
   </g>
   <g id="line2d_87">
    <path clip-path="url(#p6fd4666979)" style="fill:none;stroke:#7f7f7f;stroke-linecap:square;stroke-opacity:0.3;"/>
   </g>
   <g id="line2d_88">
    <path clip-path="url(#p6fd4666979)" style="fill:none;stroke:#7f7f7f;stroke-linecap:square;stroke-opacity:0.3;"/>
   </g>
   <g id="line2d_89">
    <path clip-path="url(#p6fd4666979)" style="fill:none;stroke:#7f7f7f;stroke-linecap:square;stroke-opacity:0.3;"/>
   </g>
   <g id="line2d_90">
    <path clip-path="url(#p6fd4666979)" style="fill:none;stroke:#7f7f7f;stroke-linecap:square;stroke-opacity:0.3;"/>
   </g>
   <g id="line2d_91">
    <path clip-path="url(#p6fd4666979)" style="fill:none;stroke:#7f7f7f;stroke-linecap:square;stroke-opacity:0.3;"/>
   </g>
   <g id="line2d_92">
    <path clip-path="url(#p6fd4666979)" style="fill:none;stroke:#7f7f7f;stroke-linecap:square;stroke-opacity:0.3;"/>
   </g>
   <g id="line2d_93">
    <path clip-path="url(#p6fd4666979)" style="fill:none;stroke:#7f7f7f;stroke-linecap:square;stroke-opacity:0.3;"/>
   </g>
   <g id="line2d_94">
    <path clip-path="url(#p6fd4666979)" style="fill:none;stroke:#7f7f7f;stroke-linecap:square;stroke-opacity:0.3;"/>
   </g>
   <g id="line2d_95">
    <path clip-path="url(#p6fd4666979)" style="fill:none;stroke:#7f7f7f;stroke-linecap:square;stroke-opacity:0.3;"/>
   </g>
   <g id="line2d_96">
    <path clip-path="url(#p6fd4666979)" style="fill:none;stroke:#7f7f7f;stroke-linecap:square;stroke-opacity:0.3;"/>
   </g>
   <g id="line2d_97">
    <path clip-path="url(#p6fd4666979)" style="fill:none;stroke:#7f7f7f;stroke-linecap:square;stroke-opacity:0.3;"/>
   </g>
   <g id="line2d_98">
    <path clip-path="url(#p6fd4666979)" style="fill:none;stroke:#7f7f7f;stroke-linecap:square;stroke-opacity:0.3;"/>
   </g>
   <g id="line2d_99">
    <path clip-path="url(#p6fd4666979)" style="fill:none;stroke:#7f7f7f;stroke-linecap:square;stroke-opacity:0.3;"/>
   </g>
   <g id="line2d_100">
    <path clip-path="url(#p6fd4666979)" style="fill:none;stroke:#7f7f7f;stroke-linecap:square;stroke-opacity:0.3;"/>
   </g>
   <g id="line2d_101">
    <path clip-path="url(#p6fd4666979)" style="fill:none;stroke:#7f7f7f;stroke-linecap:square;stroke-opacity:0.3;"/>
   </g>
   <g id="line2d_102">
    <path clip-path="url(#p6fd4666979)" style="fill:none;stroke:#7f7f7f;stroke-linecap:square;stroke-opacity:0.3;"/>
   </g>
   <g id="line2d_103">
    <path clip-path="url(#p6fd4666979)" style="fill:none;stroke:#7f7f7f;stroke-linecap:square;stroke-opacity:0.3;"/>
   </g>
   <g id="line2d_104">
    <path clip-path="url(#p6fd4666979)" style="fill:none;stroke:#7f7f7f;stroke-linecap:square;stroke-opacity:0.3;"/>
   </g>
   <g id="line2d_105">
    <path clip-path="url(#p6fd4666979)" style="fill:none;stroke:#7f7f7f;stroke-linecap:square;stroke-opacity:0.3;"/>
   </g>
   <g id="line2d_106">
    <path clip-path="url(#p6fd4666979)" style="fill:none;stroke:#7f7f7f;stroke-linecap:square;stroke-opacity:0.3;"/>
   </g>
   <g id="line2d_107">
    <path clip-path="url(#p6fd4666979)" style="fill:none;stroke:#7f7f7f;stroke-linecap:square;stroke-opacity:0.3;"/>
   </g>
   <g id="line2d_108">
    <path clip-path="url(#p6fd4666979)" style="fill:none;stroke:#7f7f7f;stroke-linecap:square;stroke-opacity:0.3;"/>
   </g>
   <g id="line2d_109">
    <path clip-path="url(#p6fd4666979)" style="fill:none;stroke:#7f7f7f;stroke-linecap:square;stroke-opacity:0.3;"/>
   </g>
   <g id="line2d_110">
    <path clip-path="url(#p6fd4666979)" style="fill:none;stroke:#7f7f7f;stroke-linecap:square;stroke-opacity:0.3;"/>
   </g>
   <g id="line2d_111">
    <path clip-path="url(#p6fd4666979)" style="fill:none;stroke:#7f7f7f;stroke-linecap:square;stroke-opacity:0.3;"/>
   </g>
   <g id="line2d_112">
    <path clip-path="url(#p6fd4666979)" style="fill:none;stroke:#7f7f7f;stroke-linecap:square;stroke-opacity:0.3;"/>
   </g>
   <g id="line2d_113">
    <path clip-path="url(#p6fd4666979)" style="fill:none;stroke:#7f7f7f;stroke-linecap:square;stroke-opacity:0.3;"/>
   </g>
   <g id="line2d_114">
    <path clip-path="url(#p6fd4666979)" style="fill:none;stroke:#7f7f7f;stroke-linecap:square;stroke-opacity:0.3;"/>
   </g>
   <g id="line2d_115">
    <path clip-path="url(#p6fd4666979)" style="fill:none;stroke:#7f7f7f;stroke-linecap:square;stroke-opacity:0.3;"/>
   </g>
   <g id="line2d_116">
    <path clip-path="url(#p6fd4666979)" style="fill:none;stroke:#7f7f7f;stroke-linecap:square;stroke-opacity:0.3;"/>
   </g>
   <g id="line2d_117">
    <path clip-path="url(#p6fd4666979)" style="fill:none;stroke:#7f7f7f;stroke-linecap:square;stroke-opacity:0.3;"/>
   </g>
   <g id="line2d_118">
    <path clip-path="url(#p6fd4666979)" style="fill:none;stroke:#7f7f7f;stroke-linecap:square;stroke-opacity:0.3;"/>
   </g>
   <g id="line2d_119">
    <path clip-path="url(#p6fd4666979)" style="fill:none;stroke:#7f7f7f;stroke-linecap:square;stroke-opacity:0.3;"/>
   </g>
   <g id="line2d_120">
    <path clip-path="url(#p6fd4666979)" style="fill:none;stroke:#7f7f7f;stroke-linecap:square;stroke-opacity:0.3;"/>
   </g>
   <g id="line2d_121">
    <path clip-path="url(#p6fd4666979)" style="fill:none;stroke:#7f7f7f;stroke-linecap:square;stroke-opacity:0.3;"/>
   </g>
   <g id="line2d_122">
    <path clip-path="url(#p6fd4666979)" style="fill:none;stroke:#7f7f7f;stroke-linecap:square;stroke-opacity:0.3;"/>
   </g>
   <g id="line2d_123">
    <path clip-path="url(#p6fd4666979)" style="fill:none;stroke:#7f7f7f;stroke-linecap:square;stroke-opacity:0.3;"/>
   </g>
   <g id="line2d_124">
    <path clip-path="url(#p6fd4666979)" style="fill:none;stroke:#7f7f7f;stroke-linecap:square;stroke-opacity:0.3;"/>
   </g>
   <g id="line2d_125">
    <path clip-path="url(#p6fd4666979)" style="fill:none;stroke:#7f7f7f;stroke-linecap:square;stroke-opacity:0.3;"/>
   </g>
   <g id="line2d_126">
    <path clip-path="url(#p6fd4666979)" style="fill:none;stroke:#7f7f7f;stroke-linecap:square;stroke-opacity:0.3;"/>
   </g>
   <g id="line2d_127">
    <path clip-path="url(#p6fd4666979)" style="fill:none;stroke:#7f7f7f;stroke-linecap:square;stroke-opacity:0.3;"/>
   </g>
   <g id="line2d_128">
    <path clip-path="url(#p6fd4666979)" style="fill:none;stroke:#7f7f7f;stroke-linecap:square;stroke-opacity:0.3;"/>
   </g>
   <g id="line2d_129">
    <path clip-path="url(#p6fd4666979)" d="M 49.88 59.133842 
L 51.86006 58.990276 
L 53.84012 58.559578 
L 55.820181 57.829264 
L 57.800241 56.811818 
L 59.780301 55.488514 
L 61.760361 53.871836 
L 63.740421 51.968026 
L 65.72048 49.783326 
L 67.700541 47.348946 
L 69.680601 44.689854 
L 71.660661 42.074456 
L 73.640721 44.565014 
L 75.620781 47.355188 
L 77.600841 50.313896 
L 79.580902 53.347508 
L 81.560962 56.374878 
L 83.541022 59.31486 
L 85.521082 62.130002 
L 87.501142 64.764126 
L 89.481203 67.192264 
L 91.461263 69.383206 
L 93.441322 71.324468 
L 95.421382 73.003566 
L 97.401442 74.414258 
L 99.381502 75.556544 
L 101.361563 76.436666 
L 103.341623 77.067108 
L 105.321683 77.441628 
L 107.301743 77.566468 
L 107.301743 77.566468 
L 108.44492 77.441628 
L 109.588097 77.07335 
L 110.731273 76.461634 
L 111.87445 75.60648 
L 113.017627 74.501646 
L 114.160804 73.147132 
L 115.303981 71.54918 
L 116.447157 69.714032 
L 117.590334 67.635446 
L 118.733511 65.325906 
L 119.876688 62.797896 
L 121.019865 60.057658 
L 122.163041 57.111434 
L 123.306218 53.97795 
L 124.449395 50.682174 
L 125.592572 47.230348 
L 126.735748 43.666166 
L 127.878925 40.020838 
L 129.022102 36.350542 
L 130.165279 32.717698 
L 131.308456 29.222178 
L 132.451632 25.976338 
L 133.594809 23.105018 
L 134.737986 20.701848 
L 135.881163 18.816764 
L 137.02434 17.437282 
L 138.167516 16.513466 
L 139.310693 15.989138 
L 140.45387 15.826846 
L 140.45387 15.826846 
L 142.740224 16.394868 
L 145.026578 17.83677 
L 147.31293 19.728096 
L 149.599285 21.70681 
L 151.885639 23.560684 
L 154.171993 25.177362 
L 156.458347 26.531876 
L 158.744699 27.649194 
L 161.031053 28.566768 
L 163.317407 29.347018 
L 165.603761 30.052364 
L 167.890115 30.78892 
L 170.176467 31.731462 
L 172.462821 33.154638 
L 174.749175 35.202014 
L 177.035529 37.65512 
L 179.321881 40.270518 
L 181.608235 42.86719 
L 183.894589 45.351506 
L 186.180943 47.654804 
L 188.467297 49.758358 
L 190.753649 51.655926 
L 193.040003 53.378718 
L 195.326357 54.932976 
L 197.612711 56.3187 
L 199.899065 57.492196 
L 202.185417 58.384802 
L 204.471771 58.946582 
L 206.758125 59.133842 
" style="fill:none;stroke:#7f7f7f;stroke-linecap:square;stroke-opacity:0.3;"/>
   </g>
   <g id="line2d_130">
    <path clip-path="url(#p6fd4666979)" d="M 49.88 43.173048 
L 51.86006 43.010756 
L 53.84012 42.530122 
L 55.820181 41.77484 
L 57.800241 40.80733 
L 59.780301 39.739948 
L 61.760361 38.74747 
L 63.740421 38.06085 
L 65.72048 37.96722 
L 67.700541 38.628872 
L 69.680601 40.045806 
L 71.660661 41.862228 
L 73.640721 38.909762 
L 75.620781 35.90736 
L 77.600841 32.9112 
L 79.580902 30.00867 
L 81.560962 27.249706 
L 83.541022 24.690486 
L 85.521082 22.368462 
L 87.501142 20.308602 
L 89.481203 18.510906 
L 91.461263 16.975374 
L 93.441322 15.68328 
L 95.421382 14.62214 
L 97.401442 13.766986 
L 99.381502 13.099092 
L 101.361563 12.599732 
L 103.341623 12.256422 
L 105.321683 12.056678 
L 107.301743 11.988016 
L 107.301743 11.988016 
L 108.44492 12.006742 
L 109.588097 12.050436 
L 110.731273 12.131582 
L 111.87445 12.231454 
L 113.017627 12.356294 
L 114.160804 12.493618 
L 115.303981 12.630942 
L 116.447157 12.768266 
L 117.590334 12.886864 
L 118.733511 12.986736 
L 119.876688 13.042914 
L 121.019865 13.06164 
L 122.163041 13.017946 
L 123.306218 12.90559 
L 124.449395 12.712088 
L 125.592572 12.424956 
L 126.735748 12.019226 
L 127.878925 11.482414 
L 129.022102 10.789552 
L 130.165279 9.915672 
L 131.308456 8.81708 
L 132.451632 7.462566 
L 133.594809 5.827162 
L 134.737986 3.967046 
L 135.881163 2.0133 
L 137.02434 0.209362 
L 138.01755 -1 
M 143.728748 -1 
L 145.026578 -0.227578 
L 147.31293 1.382858 
L 149.599285 3.155586 
L 151.885639 5.059396 
L 154.171993 7.063078 
L 156.458347 9.16039 
L 158.744699 11.382542 
L 161.031053 13.77947 
L 163.317407 16.394868 
L 165.603761 19.141348 
L 167.890115 21.83165 
L 170.176467 24.191126 
L 172.462821 25.882708 
L 174.749175 26.79404 
L 177.035529 27.249706 
L 179.321881 27.830212 
L 181.608235 28.88511 
L 183.894589 30.25835 
L 186.180943 31.775156 
L 188.467297 33.391834 
L 190.753649 35.089658 
L 193.040003 36.818692 
L 195.326357 38.491548 
L 197.612711 40.020838 
L 199.899065 41.325416 
L 202.185417 42.324136 
L 204.471771 42.954578 
L 206.758125 43.173048 
" style="fill:none;stroke:#7f7f7f;stroke-linecap:square;stroke-opacity:0.3;"/>
   </g>
   <g id="line2d_131">
    <path clip-path="url(#p6fd4666979)" d="M 49.88 18.685682 
L 51.86006 18.904152 
L 53.84012 19.503384 
L 55.820181 20.352296 
L 57.800241 21.257386 
L 59.780301 22.037636 
L 61.760361 22.499544 
L 63.740421 22.443366 
L 65.72048 21.656874 
L 67.700541 20.02147 
L 69.680601 17.530912 
L 71.660661 14.266346 
L 73.640721 10.296434 
L 75.620781 5.671112 
L 77.600841 0.434074 
L 78.08842 -1 
M 155.836885 -1 
L 156.458347 0.146942 
L 158.744699 4.048192 
L 161.031053 7.512502 
L 163.317407 10.489936 
L 165.603761 13.049156 
L 167.890115 15.333728 
L 170.176467 17.449766 
L 172.462821 19.42848 
L 174.749175 21.226176 
L 177.035529 22.661836 
L 179.321881 23.39215 
L 181.608235 23.261068 
L 183.894589 22.661836 
L 186.180943 22.043878 
L 188.467297 21.725536 
L 190.753649 21.775472 
L 193.040003 21.950248 
L 195.326357 21.906554 
L 197.612711 21.463372 
L 199.899065 20.658154 
L 202.185417 19.721854 
L 204.471771 18.972814 
L 206.758125 18.685682 
" style="fill:none;stroke:#7f7f7f;stroke-linecap:square;stroke-opacity:0.3;"/>
   </g>
   <g id="line2d_132">
    <path clip-path="url(#p6fd4666979)" d="M 49.88 18.685682 
L 51.86006 18.479696 
L 53.84012 17.861738 
L 55.820181 16.83805 
L 57.800241 15.40239 
L 59.780301 13.554758 
L 61.760361 11.295154 
L 63.740421 8.62982 
L 65.72048 5.552514 
L 67.700541 2.07572 
L 69.271662 -1 
M 181.724081 -1 
L 183.894589 1.251776 
L 186.180943 3.82348 
L 188.467297 6.295312 
L 190.753649 8.53619 
L 193.040003 10.652228 
L 195.326357 12.737056 
L 197.612711 14.678318 
L 199.899065 16.344932 
L 202.185417 17.6183 
L 204.471771 18.411034 
L 206.758125 18.685682 
" style="fill:none;stroke:#7f7f7f;stroke-linecap:square;stroke-opacity:0.3;"/>
   </g>
   <g id="line2d_133">
    <path clip-path="url(#p6fd4666979)" style="fill:none;stroke:#7f7f7f;stroke-linecap:square;stroke-opacity:0.3;"/>
   </g>
   <g id="line2d_134">
    <path clip-path="url(#p6fd4666979)" style="fill:none;stroke:#7f7f7f;stroke-linecap:square;stroke-opacity:0.3;"/>
   </g>
   <g id="line2d_135">
    <path clip-path="url(#p6fd4666979)" style="fill:none;stroke:#7f7f7f;stroke-linecap:square;stroke-opacity:0.3;"/>
   </g>
   <g id="line2d_136">
    <path clip-path="url(#p6fd4666979)" style="fill:none;stroke:#7f7f7f;stroke-linecap:square;stroke-opacity:0.3;"/>
   </g>
   <g id="line2d_137">
    <path clip-path="url(#p6fd4666979)" style="fill:none;stroke:#7f7f7f;stroke-linecap:square;stroke-opacity:0.3;"/>
   </g>
   <g id="line2d_138">
    <path clip-path="url(#p6fd4666979)" style="fill:none;stroke:#7f7f7f;stroke-linecap:square;stroke-opacity:0.3;"/>
   </g>
   <g id="line2d_139">
    <path clip-path="url(#p6fd4666979)" style="fill:none;stroke:#7f7f7f;stroke-linecap:square;stroke-opacity:0.3;"/>
   </g>
   <g id="line2d_140">
    <path clip-path="url(#p6fd4666979)" style="fill:none;stroke:#7f7f7f;stroke-linecap:square;stroke-opacity:0.3;"/>
   </g>
   <g id="line2d_141">
    <path clip-path="url(#p6fd4666979)" style="fill:none;stroke:#7f7f7f;stroke-linecap:square;stroke-opacity:0.3;"/>
   </g>
   <g id="line2d_142">
    <path clip-path="url(#p6fd4666979)" style="fill:none;stroke:#7f7f7f;stroke-linecap:square;stroke-opacity:0.3;"/>
   </g>
   <g id="line2d_143">
    <path clip-path="url(#p6fd4666979)" style="fill:none;stroke:#7f7f7f;stroke-linecap:square;stroke-opacity:0.3;"/>
   </g>
   <g id="line2d_144">
    <path clip-path="url(#p6fd4666979)" style="fill:none;stroke:#7f7f7f;stroke-linecap:square;stroke-opacity:0.3;"/>
   </g>
   <g id="line2d_145">
    <path clip-path="url(#p6fd4666979)" style="fill:none;stroke:#7f7f7f;stroke-linecap:square;stroke-opacity:0.3;"/>
   </g>
   <g id="line2d_146">
    <path clip-path="url(#p6fd4666979)" style="fill:none;stroke:#7f7f7f;stroke-linecap:square;stroke-opacity:0.3;"/>
   </g>
   <g id="line2d_147">
    <path clip-path="url(#p6fd4666979)" style="fill:none;stroke:#7f7f7f;stroke-linecap:square;stroke-opacity:0.3;"/>
   </g>
   <g id="line2d_148">
    <path clip-path="url(#p6fd4666979)" style="fill:none;stroke:#7f7f7f;stroke-linecap:square;stroke-opacity:0.3;"/>
   </g>
   <g id="line2d_149">
    <path clip-path="url(#p6fd4666979)" style="fill:none;stroke:#7f7f7f;stroke-linecap:square;stroke-opacity:0.3;"/>
   </g>
   <g id="line2d_150">
    <path clip-path="url(#p6fd4666979)" style="fill:none;stroke:#7f7f7f;stroke-linecap:square;stroke-opacity:0.3;"/>
   </g>
   <g id="line2d_151">
    <path clip-path="url(#p6fd4666979)" style="fill:none;stroke:#7f7f7f;stroke-linecap:square;stroke-opacity:0.3;"/>
   </g>
   <g id="line2d_152">
    <path clip-path="url(#p6fd4666979)" style="fill:none;stroke:#7f7f7f;stroke-linecap:square;stroke-opacity:0.3;"/>
   </g>
   <g id="line2d_153">
    <path clip-path="url(#p6fd4666979)" style="fill:none;stroke:#7f7f7f;stroke-linecap:square;stroke-opacity:0.3;"/>
   </g>
   <g id="line2d_154">
    <path clip-path="url(#p6fd4666979)" style="fill:none;stroke:#7f7f7f;stroke-linecap:square;stroke-opacity:0.3;"/>
   </g>
   <g id="line2d_155">
    <path clip-path="url(#p6fd4666979)" style="fill:none;stroke:#7f7f7f;stroke-linecap:square;stroke-opacity:0.3;"/>
   </g>
   <g id="line2d_156">
    <path clip-path="url(#p6fd4666979)" style="fill:none;stroke:#7f7f7f;stroke-linecap:square;stroke-opacity:0.3;"/>
   </g>
   <g id="line2d_157">
    <path clip-path="url(#p6fd4666979)" style="fill:none;stroke:#7f7f7f;stroke-linecap:square;stroke-opacity:0.3;"/>
   </g>
   <g id="line2d_158">
    <path clip-path="url(#p6fd4666979)" style="fill:none;stroke:#7f7f7f;stroke-linecap:square;stroke-opacity:0.3;"/>
   </g>
   <g id="line2d_159">
    <path clip-path="url(#p6fd4666979)" style="fill:none;stroke:#7f7f7f;stroke-linecap:square;stroke-opacity:0.3;"/>
   </g>
   <g id="line2d_160">
    <path clip-path="url(#p6fd4666979)" style="fill:none;stroke:#7f7f7f;stroke-linecap:square;stroke-opacity:0.3;"/>
   </g>
   <g id="line2d_161">
    <path clip-path="url(#p6fd4666979)" style="fill:none;stroke:#7f7f7f;stroke-linecap:square;stroke-opacity:0.3;"/>
   </g>
   <g id="line2d_162">
    <path clip-path="url(#p6fd4666979)" style="fill:none;stroke:#7f7f7f;stroke-linecap:square;stroke-opacity:0.3;"/>
   </g>
   <g id="line2d_163">
    <path clip-path="url(#p6fd4666979)" style="fill:none;stroke:#7f7f7f;stroke-linecap:square;stroke-opacity:0.3;"/>
   </g>
   <g id="line2d_164">
    <path clip-path="url(#p6fd4666979)" style="fill:none;stroke:#7f7f7f;stroke-linecap:square;stroke-opacity:0.3;"/>
   </g>
   <g id="line2d_165">
    <path clip-path="url(#p6fd4666979)" style="fill:none;stroke:#7f7f7f;stroke-linecap:square;stroke-opacity:0.3;"/>
   </g>
   <g id="line2d_166">
    <path clip-path="url(#p6fd4666979)" style="fill:none;stroke:#7f7f7f;stroke-linecap:square;stroke-opacity:0.3;"/>
   </g>
   <g id="line2d_167">
    <path clip-path="url(#p6fd4666979)" style="fill:none;stroke:#7f7f7f;stroke-linecap:square;stroke-opacity:0.3;"/>
   </g>
   <g id="line2d_168">
    <path clip-path="url(#p6fd4666979)" style="fill:none;stroke:#7f7f7f;stroke-linecap:square;stroke-opacity:0.3;"/>
   </g>
   <g id="line2d_169">
    <path clip-path="url(#p6fd4666979)" style="fill:none;stroke:#7f7f7f;stroke-linecap:square;stroke-opacity:0.3;"/>
   </g>
   <g id="line2d_170">
    <path clip-path="url(#p6fd4666979)" style="fill:none;stroke:#7f7f7f;stroke-linecap:square;stroke-opacity:0.3;"/>
   </g>
   <g id="line2d_171">
    <path clip-path="url(#p6fd4666979)" style="fill:none;stroke:#7f7f7f;stroke-linecap:square;stroke-opacity:0.3;"/>
   </g>
   <g id="line2d_172">
    <path clip-path="url(#p6fd4666979)" style="fill:none;stroke:#7f7f7f;stroke-linecap:square;stroke-opacity:0.3;"/>
   </g>
   <g id="line2d_173">
    <path clip-path="url(#p6fd4666979)" style="fill:none;stroke:#7f7f7f;stroke-linecap:square;stroke-opacity:0.3;"/>
   </g>
   <g id="line2d_174">
    <path clip-path="url(#p6fd4666979)" style="fill:none;stroke:#7f7f7f;stroke-linecap:square;stroke-opacity:0.3;"/>
   </g>
   <g id="line2d_175">
    <path clip-path="url(#p6fd4666979)" style="fill:none;stroke:#7f7f7f;stroke-linecap:square;stroke-opacity:0.3;"/>
   </g>
   <g id="line2d_176">
    <path clip-path="url(#p6fd4666979)" style="fill:none;stroke:#7f7f7f;stroke-linecap:square;stroke-opacity:0.3;"/>
   </g>
   <g id="line2d_177">
    <path clip-path="url(#p6fd4666979)" style="fill:none;stroke:#7f7f7f;stroke-linecap:square;stroke-opacity:0.3;"/>
   </g>
   <g id="line2d_178">
    <path clip-path="url(#p6fd4666979)" style="fill:none;stroke:#7f7f7f;stroke-linecap:square;stroke-opacity:0.3;"/>
   </g>
   <g id="line2d_179">
    <path clip-path="url(#p6fd4666979)" style="fill:none;stroke:#7f7f7f;stroke-linecap:square;stroke-opacity:0.3;"/>
   </g>
   <g id="line2d_180">
    <path clip-path="url(#p6fd4666979)" style="fill:none;stroke:#7f7f7f;stroke-linecap:square;stroke-opacity:0.3;"/>
   </g>
   <g id="line2d_181">
    <path clip-path="url(#p6fd4666979)" style="fill:none;stroke:#7f7f7f;stroke-linecap:square;stroke-opacity:0.3;"/>
   </g>
   <g id="line2d_182">
    <path clip-path="url(#p6fd4666979)" style="fill:none;stroke:#7f7f7f;stroke-linecap:square;stroke-opacity:0.3;"/>
   </g>
   <g id="line2d_183">
    <path clip-path="url(#p6fd4666979)" style="fill:none;stroke:#7f7f7f;stroke-linecap:square;stroke-opacity:0.3;"/>
   </g>
   <g id="line2d_184">
    <path clip-path="url(#p6fd4666979)" style="fill:none;stroke:#7f7f7f;stroke-linecap:square;stroke-opacity:0.3;"/>
   </g>
   <g id="line2d_185">
    <path clip-path="url(#p6fd4666979)" style="fill:none;stroke:#7f7f7f;stroke-linecap:square;stroke-opacity:0.3;"/>
   </g>
   <g id="line2d_186">
    <path clip-path="url(#p6fd4666979)" style="fill:none;stroke:#7f7f7f;stroke-linecap:square;stroke-opacity:0.3;"/>
   </g>
   <g id="line2d_187">
    <path clip-path="url(#p6fd4666979)" style="fill:none;stroke:#7f7f7f;stroke-linecap:square;stroke-opacity:0.3;"/>
   </g>
   <g id="line2d_188">
    <path clip-path="url(#p6fd4666979)" style="fill:none;stroke:#7f7f7f;stroke-linecap:square;stroke-opacity:0.3;"/>
   </g>
   <g id="line2d_189">
    <path clip-path="url(#p6fd4666979)" style="fill:none;stroke:#7f7f7f;stroke-linecap:square;stroke-opacity:0.3;"/>
   </g>
   <g id="line2d_190">
    <path clip-path="url(#p6fd4666979)" style="fill:none;stroke:#7f7f7f;stroke-linecap:square;stroke-opacity:0.3;"/>
   </g>
   <g id="line2d_191">
    <path clip-path="url(#p6fd4666979)" style="fill:none;stroke:#7f7f7f;stroke-linecap:square;stroke-opacity:0.3;"/>
   </g>
   <g id="line2d_192">
    <path clip-path="url(#p6fd4666979)" style="fill:none;stroke:#7f7f7f;stroke-linecap:square;stroke-opacity:0.3;"/>
   </g>
   <g id="line2d_193">
    <path clip-path="url(#p6fd4666979)" style="fill:none;stroke:#7f7f7f;stroke-linecap:square;stroke-opacity:0.3;"/>
   </g>
   <g id="line2d_194">
    <path clip-path="url(#p6fd4666979)" style="fill:none;stroke:#7f7f7f;stroke-linecap:square;stroke-opacity:0.3;"/>
   </g>
   <g id="line2d_195">
    <path clip-path="url(#p6fd4666979)" style="fill:none;stroke:#7f7f7f;stroke-linecap:square;stroke-opacity:0.3;"/>
   </g>
   <g id="line2d_196">
    <path clip-path="url(#p6fd4666979)" style="fill:none;stroke:#7f7f7f;stroke-linecap:square;stroke-opacity:0.3;"/>
   </g>
   <g id="line2d_197">
    <path clip-path="url(#p6fd4666979)" style="fill:none;stroke:#7f7f7f;stroke-linecap:square;stroke-opacity:0.3;"/>
   </g>
   <g id="line2d_198">
    <path clip-path="url(#p6fd4666979)" style="fill:none;stroke:#7f7f7f;stroke-linecap:square;stroke-opacity:0.3;"/>
   </g>
   <g id="line2d_199">
    <path clip-path="url(#p6fd4666979)" style="fill:none;stroke:#7f7f7f;stroke-linecap:square;stroke-opacity:0.3;"/>
   </g>
   <g id="line2d_200">
    <path clip-path="url(#p6fd4666979)" style="fill:none;stroke:#7f7f7f;stroke-linecap:square;stroke-opacity:0.3;"/>
   </g>
   <g id="line2d_201">
    <path clip-path="url(#p6fd4666979)" style="fill:none;stroke:#7f7f7f;stroke-linecap:square;stroke-opacity:0.3;"/>
   </g>
   <g id="line2d_202">
    <path clip-path="url(#p6fd4666979)" style="fill:none;stroke:#7f7f7f;stroke-linecap:square;stroke-opacity:0.3;"/>
   </g>
   <g id="line2d_203">
    <path clip-path="url(#p6fd4666979)" style="fill:none;stroke:#7f7f7f;stroke-linecap:square;stroke-opacity:0.3;"/>
   </g>
   <g id="line2d_204">
    <path clip-path="url(#p6fd4666979)" style="fill:none;stroke:#7f7f7f;stroke-linecap:square;stroke-opacity:0.3;"/>
   </g>
   <g id="line2d_205">
    <path clip-path="url(#p6fd4666979)" style="fill:none;stroke:#7f7f7f;stroke-linecap:square;stroke-opacity:0.3;"/>
   </g>
   <g id="line2d_206">
    <path clip-path="url(#p6fd4666979)" d="M 49.88 260.12 
L 49.88 10.44 
" style="fill:none;stroke:#ffffff;stroke-linecap:square;stroke-opacity:0.5;stroke-width:0.5;"/>
   </g>
   <g id="line2d_207">
    <path clip-path="url(#p6fd4666979)" d="M 107.301743 260.12 
L 107.301743 10.44 
" style="fill:none;stroke:#ffffff;stroke-linecap:square;stroke-opacity:0.5;stroke-width:0.5;"/>
   </g>
   <g id="line2d_208">
    <path clip-path="url(#p6fd4666979)" d="M 140.45387 260.12 
L 140.45387 10.44 
" style="fill:none;stroke:#ffffff;stroke-linecap:square;stroke-opacity:0.5;stroke-width:0.5;"/>
   </g>
   <g id="line2d_209">
    <path clip-path="url(#p6fd4666979)" d="M 206.758125 260.12 
L 206.758125 10.44 
" style="fill:none;stroke:#ffffff;stroke-linecap:square;stroke-opacity:0.5;stroke-width:0.5;"/>
   </g>
   <g id="line2d_210">
    <path clip-path="url(#p6fd4666979)" d="M 49.88 135.28 
L 206.758125 135.28 
" style="fill:none;stroke:#ffffff;stroke-linecap:square;stroke-opacity:0.5;stroke-width:0.5;"/>
   </g>
   <g id="patch_3">
    <path d="M 49.88 260.12 
L 49.88 10.44 
" style="fill:none;stroke:#ffffff;stroke-linecap:square;stroke-linejoin:miter;stroke-width:0.8;"/>
   </g>
   <g id="patch_4">
    <path d="M 206.758125 260.12 
L 206.758125 10.44 
" style="fill:none;stroke:#ffffff;stroke-linecap:square;stroke-linejoin:miter;stroke-width:0.8;"/>
   </g>
   <g id="patch_5">
    <path d="M 49.88 260.12 
L 206.758125 260.12 
" style="fill:none;stroke:#ffffff;stroke-linecap:square;stroke-linejoin:miter;stroke-width:0.8;"/>
   </g>
   <g id="patch_6">
    <path d="M 49.88 10.44 
L 206.758125 10.44 
" style="fill:none;stroke:#ffffff;stroke-linecap:square;stroke-linejoin:miter;stroke-width:0.8;"/>
   </g>
  </g>
 </g>
 <defs>
  <clipPath id="p6fd4666979">
   <rect height="249.68" width="156.878125" x="49.88" y="10.44"/>
  </clipPath>
 </defs>
</svg>
