<?xml version="1.0" encoding="utf-8" standalone="no"?>
<!DOCTYPE svg PUBLIC "-//W3C//DTD SVG 1.1//EN"
  "http://www.w3.org/Graphics/SVG/1.1/DTD/svg11.dtd">
<!-- Created with matplotlib (http://matplotlib.org/) -->
<svg height="288pt" version="1.1" viewBox="0 0 216 288" width="216pt" xmlns="http://www.w3.org/2000/svg" xmlns:xlink="http://www.w3.org/1999/xlink">
 <defs>
  <style type="text/css">
*{stroke-linecap:butt;stroke-linejoin:round;}
  </style>
 </defs>
 <g id="figure_1">
  <g id="patch_1">
   <path d="M 0 288 
L 216 288 
L 216 0 
L 0 0 
z
"/>
  </g>
  <g id="axes_1">
   <g id="patch_2">
    <path d="M 49.88 260.12 
L 206.758125 260.12 
L 206.758125 10.44 
L 49.88 10.44 
z
"/>
   </g>
   <g id="line2d_1">
    <path clip-path="url(#pc67e1b372b)" style="fill:none;stroke:#1f77b4;stroke-linecap:square;stroke-opacity:0.9;stroke-width:2.5;"/>
   </g>
   <g id="line2d_2">
    <path clip-path="url(#pc67e1b372b)" style="fill:none;stroke:#1f77b4;stroke-linecap:square;stroke-opacity:0.9;stroke-width:2.5;"/>
   </g>
   <g id="line2d_3">
    <path clip-path="url(#pc67e1b372b)" style="fill:none;stroke:#1f77b4;stroke-linecap:square;stroke-opacity:0.9;stroke-width:2.5;"/>
   </g>
   <g id="line2d_4">
    <path clip-path="url(#pc67e1b372b)" style="fill:none;stroke:#1f77b4;stroke-linecap:square;stroke-opacity:0.9;stroke-width:2.5;"/>
   </g>
   <g id="line2d_5">
    <path clip-path="url(#pc67e1b372b)" style="fill:none;stroke:#1f77b4;stroke-linecap:square;stroke-opacity:0.9;stroke-width:2.5;"/>
   </g>
   <g id="line2d_6">
    <path clip-path="url(#pc67e1b372b)" style="fill:none;stroke:#1f77b4;stroke-linecap:square;stroke-opacity:0.9;stroke-width:2.5;"/>
   </g>
   <g id="line2d_7">
    <path clip-path="url(#pc67e1b372b)" style="fill:none;stroke:#1f77b4;stroke-linecap:square;stroke-opacity:0.9;stroke-width:2.5;"/>
   </g>
   <g id="line2d_8">
    <path clip-path="url(#pc67e1b372b)" style="fill:none;stroke:#1f77b4;stroke-linecap:square;stroke-opacity:0.9;stroke-width:2.5;"/>
   </g>
   <g id="line2d_9">
    <path clip-path="url(#pc67e1b372b)" style="fill:none;stroke:#1f77b4;stroke-linecap:square;stroke-opacity:0.9;stroke-width:2.5;"/>
   </g>
   <g id="line2d_10">
    <path clip-path="url(#pc67e1b372b)" style="fill:none;stroke:#1f77b4;stroke-linecap:square;stroke-opacity:0.9;stroke-width:2.5;"/>
   </g>
   <g id="line2d_11">
    <path clip-path="url(#pc67e1b372b)" style="fill:none;stroke:#1f77b4;stroke-linecap:square;stroke-opacity:0.9;stroke-width:2.5;"/>
   </g>
   <g id="line2d_12">
    <path clip-path="url(#pc67e1b372b)" style="fill:none;stroke:#1f77b4;stroke-linecap:square;stroke-opacity:0.9;stroke-width:2.5;"/>
   </g>
   <g id="line2d_13">
    <path clip-path="url(#pc67e1b372b)" style="fill:none;stroke:#1f77b4;stroke-linecap:square;stroke-opacity:0.9;stroke-width:2.5;"/>
   </g>
   <g id="line2d_14">
    <path clip-path="url(#pc67e1b372b)" style="fill:none;stroke:#1f77b4;stroke-linecap:square;stroke-opacity:0.9;stroke-width:2.5;"/>
   </g>
   <g id="line2d_15">
    <path clip-path="url(#pc67e1b372b)" style="fill:none;stroke:#1f77b4;stroke-linecap:square;stroke-opacity:0.9;stroke-width:2.5;"/>
   </g>
   <g id="line2d_16">
    <path clip-path="url(#pc67e1b372b)" style="fill:none;stroke:#1f77b4;stroke-linecap:square;stroke-opacity:0.9;stroke-width:2.5;"/>
   </g>
   <g id="line2d_17">
    <path clip-path="url(#pc67e1b372b)" d="M 49.88 217.33109 
L 51.86006 217.106378 
L 53.84012 216.450968 
L 55.820181 215.402312 
L 57.800241 214.047798 
L 59.780301 212.449846 
L 61.760361 210.695844 
L 63.740421 208.860696 
L 65.72048 207.00058 
L 67.700541 205.146706 
L 69.680601 203.324042 
L 71.660661 201.532588 
L 73.640721 199.778586 
L 75.620781 198.04331 
L 77.600841 196.32676 
L 79.580902 194.622694 
L 81.560962 192.962322 
L 83.541022 191.376854 
L 85.521082 189.916226 
L 87.501142 188.667826 
L 89.481203 187.700316 
L 91.461263 187.076116 
L 93.441322 186.801468 
L 95.421382 186.820194 
L 97.401442 187.044906 
L 99.381502 187.375732 
L 101.361563 187.725284 
L 103.341623 188.018658 
L 105.321683 188.21216 
L 107.301743 188.280822 
L 107.301743 188.280822 
L 108.44492 188.224644 
L 109.588097 188.074836 
L 110.731273 187.825156 
L 111.87445 187.469362 
L 113.017627 187.019938 
L 114.160804 186.476884 
L 115.303981 185.833958 
L 116.447157 185.103644 
L 117.590334 184.292184 
L 118.733511 183.393336 
L 119.876688 182.419584 
L 121.019865 181.37717 
L 122.163041 180.278578 
L 123.306218 179.13005 
L 124.449395 177.937828 
L 125.592572 176.72688 
L 126.735748 175.497206 
L 127.878925 174.273774 
L 129.022102 173.069068 
L 130.165279 171.895572 
L 131.308456 170.778254 
L 132.451632 169.723356 
L 133.594809 168.755846 
L 134.737986 167.888208 
L 135.881163 167.151652 
L 137.02434 166.558662 
L 138.167516 166.134206 
L 139.310693 165.89701 
L 140.45387 165.828348 
L 140.45387 165.828348 
L 142.740224 166.003124 
L 145.026578 166.321466 
L 147.31293 166.627324 
L 149.599285 166.901972 
L 151.885639 167.4263 
L 154.171993 168.699668 
L 156.458347 170.572268 
L 158.744699 172.781936 
L 161.031053 175.203832 
L 163.317407 177.769294 
L 165.603761 180.415902 
L 167.890115 183.081236 
L 170.176467 185.727844 
L 172.462821 188.312032 
L 174.749175 190.821316 
L 177.035529 193.243212 
L 179.321881 195.583962 
L 181.608235 197.862292 
L 183.894589 200.090686 
L 186.180943 202.312838 
L 188.467297 204.528748 
L 190.753649 206.744658 
L 193.040003 208.948084 
L 195.326357 211.08909 
L 197.612711 213.074046 
L 199.899065 214.809322 
L 202.185417 216.163836 
L 204.471771 217.031474 
L 206.758125 217.33109 
" style="fill:none;stroke:#1f77b4;stroke-linecap:square;stroke-opacity:0.9;stroke-width:2.5;"/>
   </g>
   <g id="line2d_18">
    <path clip-path="url(#pc67e1b372b)" d="M 49.88 152.720148 
L 51.86006 152.620276 
L 53.84012 152.339386 
L 55.820181 151.896204 
L 57.800241 151.340666 
L 59.780301 150.716466 
L 61.760361 150.092266 
L 63.740421 149.524244 
L 65.72048 149.081062 
L 67.700541 148.812656 
L 69.680601 148.79393 
L 71.660661 149.062336 
L 73.640721 149.661568 
L 75.620781 150.60411 
L 77.600841 151.864994 
L 79.580902 153.3818 
L 81.560962 155.042172 
L 83.541022 156.715028 
L 85.521082 158.263044 
L 87.501142 159.542654 
L 89.481203 160.43526 
L 91.461263 160.884684 
L 93.441322 160.884684 
L 95.421382 160.510164 
L 97.401442 159.892206 
L 99.381502 159.168134 
L 101.361563 158.462788 
L 103.341623 157.882282 
L 105.321683 157.507762 
L 107.301743 157.37668 
L 107.301743 157.37668 
L 108.44492 157.382922 
L 109.588097 157.395406 
L 110.731273 157.420374 
L 111.87445 157.457826 
L 113.017627 157.507762 
L 114.160804 157.576424 
L 115.303981 157.65757 
L 116.447157 157.763684 
L 117.590334 157.888524 
L 118.733511 158.044574 
L 119.876688 158.21935 
L 121.019865 158.419094 
L 122.163041 158.650048 
L 123.306218 158.899728 
L 124.449395 159.180618 
L 125.592572 159.480234 
L 126.735748 159.804818 
L 127.878925 160.141886 
L 129.022102 160.491438 
L 130.165279 160.853474 
L 131.308456 161.221752 
L 132.451632 161.583788 
L 133.594809 161.939582 
L 134.737986 162.270408 
L 135.881163 162.570024 
L 137.02434 162.819704 
L 138.167516 162.99448 
L 139.310693 163.081868 
L 140.45387 163.106836 
L 140.45387 163.106836 
L 142.740224 163.11932 
L 145.026578 163.344032 
L 147.31293 163.893328 
L 149.599285 164.717272 
L 151.885639 165.497522 
L 154.171993 165.64733 
L 156.458347 165.266568 
L 158.744699 164.561222 
L 161.031053 163.568744 
L 163.317407 162.332828 
L 165.603761 160.865958 
L 167.890115 159.211828 
L 170.176467 157.420374 
L 172.462821 155.5665 
L 174.749175 153.750078 
L 177.035529 152.077222 
L 179.321881 150.660288 
L 181.608235 149.586664 
L 183.894589 148.900044 
L 186.180943 148.594186 
L 188.467297 148.644122 
L 190.753649 148.974948 
L 193.040003 149.530486 
L 195.326357 150.217106 
L 197.612711 150.953662 
L 199.899065 151.646524 
L 202.185417 152.214546 
L 204.471771 152.589066 
L 206.758125 152.720148 
" style="fill:none;stroke:#1f77b4;stroke-linecap:square;stroke-opacity:0.9;stroke-width:2.5;"/>
   </g>
   <g id="line2d_19">
    <path clip-path="url(#pc67e1b372b)" d="M 49.88 69.739 
L 51.86006 70.200908 
L 53.84012 71.567906 
L 55.820181 73.76509 
L 57.800241 76.66762 
L 59.780301 80.119446 
L 61.760361 83.964518 
L 63.740421 88.015576 
L 65.72048 92.110328 
L 67.700541 96.098966 
L 69.680601 99.82544 
L 71.660661 103.171152 
L 73.640721 106.017504 
L 75.620781 108.295834 
L 77.600841 109.974932 
L 79.580902 111.067282 
L 81.560962 111.641546 
L 83.541022 111.797596 
L 85.521082 111.635304 
L 87.501142 111.254542 
L 89.481203 110.742698 
L 91.461263 110.180918 
L 93.441322 109.62538 
L 95.421382 109.119778 
L 97.401442 108.682838 
L 99.381502 108.327044 
L 101.361563 108.058638 
L 103.341623 107.871378 
L 105.321683 107.765264 
L 107.301743 107.727812 
L 107.301743 107.727812 
L 108.44492 107.69036 
L 109.588097 107.584246 
L 110.731273 107.403228 
L 111.87445 107.172274 
L 113.017627 106.8789 
L 114.160804 106.548074 
L 115.303981 106.186038 
L 116.447157 105.792792 
L 117.590334 105.387062 
L 118.733511 104.97509 
L 119.876688 104.563118 
L 121.019865 104.157388 
L 122.163041 103.7579 
L 123.306218 103.377138 
L 124.449395 103.00886 
L 125.592572 102.659308 
L 126.735748 102.334724 
L 127.878925 102.028866 
L 129.022102 101.735492 
L 130.165279 101.473328 
L 131.308456 101.223648 
L 132.451632 100.998936 
L 133.594809 100.799192 
L 134.737986 100.618174 
L 135.881163 100.462124 
L 137.02434 100.337284 
L 138.167516 100.243654 
L 139.310693 100.181234 
L 140.45387 100.162508 
L 140.45387 100.162508 
L 142.740224 100.249896 
L 145.026578 100.54327 
L 147.31293 101.055114 
L 149.599285 101.79167 
L 151.885639 102.752938 
L 154.171993 103.907708 
L 156.458347 105.206044 
L 158.744699 106.59801 
L 161.031053 108.008702 
L 163.317407 109.369458 
L 165.603761 110.580406 
L 167.890115 111.566642 
L 170.176467 112.234536 
L 172.462821 112.484216 
L 174.749175 112.21581 
L 177.035529 111.323204 
L 179.321881 109.737736 
L 181.608235 107.40947 
L 183.894589 104.363374 
L 186.180943 100.674352 
L 188.467297 96.492212 
L 190.753649 91.979246 
L 193.040003 87.34144 
L 195.326357 82.803506 
L 197.612711 78.596398 
L 199.899065 74.963554 
L 202.185417 72.148412 
L 204.471771 70.356958 
L 206.758125 69.739 
" style="fill:none;stroke:#1f77b4;stroke-linecap:square;stroke-opacity:0.9;stroke-width:2.5;"/>
   </g>
   <g id="line2d_20">
    <path clip-path="url(#pc67e1b372b)" style="fill:none;stroke:#ff7f0e;stroke-linecap:square;stroke-opacity:0.9;stroke-width:2.5;"/>
   </g>
   <g id="line2d_21">
    <path clip-path="url(#pc67e1b372b)" style="fill:none;stroke:#ff7f0e;stroke-linecap:square;stroke-opacity:0.9;stroke-width:2.5;"/>
   </g>
   <g id="line2d_22">
    <path clip-path="url(#pc67e1b372b)" style="fill:none;stroke:#ff7f0e;stroke-linecap:square;stroke-opacity:0.9;stroke-width:2.5;"/>
   </g>
   <g id="line2d_23">
    <path clip-path="url(#pc67e1b372b)" style="fill:none;stroke:#ff7f0e;stroke-linecap:square;stroke-opacity:0.9;stroke-width:2.5;"/>
   </g>
   <g id="line2d_24">
    <path clip-path="url(#pc67e1b372b)" style="fill:none;stroke:#ff7f0e;stroke-linecap:square;stroke-opacity:0.9;stroke-width:2.5;"/>
   </g>
   <g id="line2d_25">
    <path clip-path="url(#pc67e1b372b)" style="fill:none;stroke:#ff7f0e;stroke-linecap:square;stroke-opacity:0.9;stroke-width:2.5;"/>
   </g>
   <g id="line2d_26">
    <path clip-path="url(#pc67e1b372b)" style="fill:none;stroke:#ff7f0e;stroke-linecap:square;stroke-opacity:0.9;stroke-width:2.5;"/>
   </g>
   <g id="line2d_27">
    <path clip-path="url(#pc67e1b372b)" style="fill:none;stroke:#ff7f0e;stroke-linecap:square;stroke-opacity:0.9;stroke-width:2.5;"/>
   </g>
   <g id="line2d_28">
    <path clip-path="url(#pc67e1b372b)" style="fill:none;stroke:#ff7f0e;stroke-linecap:square;stroke-opacity:0.9;stroke-width:2.5;"/>
   </g>
   <g id="line2d_29">
    <path clip-path="url(#pc67e1b372b)" style="fill:none;stroke:#ff7f0e;stroke-linecap:square;stroke-opacity:0.9;stroke-width:2.5;"/>
   </g>
   <g id="line2d_30">
    <path clip-path="url(#pc67e1b372b)" style="fill:none;stroke:#ff7f0e;stroke-linecap:square;stroke-opacity:0.9;stroke-width:2.5;"/>
   </g>
   <g id="line2d_31">
    <path clip-path="url(#pc67e1b372b)" style="fill:none;stroke:#ff7f0e;stroke-linecap:square;stroke-opacity:0.9;stroke-width:2.5;"/>
   </g>
   <g id="line2d_32">
    <path clip-path="url(#pc67e1b372b)" style="fill:none;stroke:#ff7f0e;stroke-linecap:square;stroke-opacity:0.9;stroke-width:2.5;"/>
   </g>
   <g id="line2d_33">
    <path clip-path="url(#pc67e1b372b)" style="fill:none;stroke:#ff7f0e;stroke-linecap:square;stroke-opacity:0.9;stroke-width:2.5;"/>
   </g>
   <g id="line2d_34">
    <path clip-path="url(#pc67e1b372b)" style="fill:none;stroke:#ff7f0e;stroke-linecap:square;stroke-opacity:0.9;stroke-width:2.5;"/>
   </g>
   <g id="line2d_35">
    <path clip-path="url(#pc67e1b372b)" style="fill:none;stroke:#ff7f0e;stroke-linecap:square;stroke-opacity:0.9;stroke-width:2.5;"/>
   </g>
   <g id="line2d_36">
    <path clip-path="url(#pc67e1b372b)" d="M 49.88 217.274912 
L 51.86006 217.0502 
L 53.84012 216.388548 
L 55.820181 215.346134 
L 57.800241 213.985378 
L 59.780301 212.387426 
L 61.760361 210.639666 
L 63.740421 208.804518 
L 65.72048 206.944402 
L 67.700541 205.09677 
L 69.680601 203.274106 
L 71.660661 201.488894 
L 73.640721 199.734892 
L 75.620781 198.005858 
L 77.600841 196.289308 
L 79.580902 194.597726 
L 81.560962 192.937354 
L 83.541022 191.351886 
L 85.521082 189.891258 
L 87.501142 188.642858 
L 89.481203 187.675348 
L 91.461263 187.044906 
L 93.441322 186.770258 
L 95.421382 186.782742 
L 97.401442 187.013696 
L 99.381502 187.344522 
L 101.361563 187.687832 
L 103.341623 187.981206 
L 105.321683 188.174708 
L 107.301743 188.24337 
L 107.301743 188.24337 
L 108.44492 188.193434 
L 109.588097 188.043626 
L 110.731273 187.787704 
L 111.87445 187.438152 
L 113.017627 186.988728 
L 114.160804 186.445674 
L 115.303981 185.80899 
L 116.447157 185.078676 
L 117.590334 184.260974 
L 118.733511 183.368368 
L 119.876688 182.394616 
L 121.019865 181.358444 
L 122.163041 180.259852 
L 123.306218 179.111324 
L 124.449395 177.925344 
L 125.592572 176.714396 
L 126.735748 175.490964 
L 127.878925 174.267532 
L 129.022102 173.062826 
L 130.165279 171.895572 
L 131.308456 170.778254 
L 132.451632 169.723356 
L 133.594809 168.755846 
L 134.737986 167.89445 
L 135.881163 167.151652 
L 137.02434 166.558662 
L 138.167516 166.140448 
L 139.310693 165.89701 
L 140.45387 165.828348 
L 140.45387 165.828348 
L 142.740224 166.003124 
L 145.026578 166.327708 
L 147.31293 166.627324 
L 149.599285 166.901972 
L 151.885639 167.4263 
L 154.171993 168.712152 
L 156.458347 170.584752 
L 158.744699 172.788178 
L 161.031053 175.210074 
L 163.317407 177.775536 
L 165.603761 180.415902 
L 167.890115 183.074994 
L 170.176467 185.71536 
L 172.462821 188.299548 
L 174.749175 190.80259 
L 177.035529 193.218244 
L 179.321881 195.552752 
L 181.608235 197.82484 
L 183.894589 200.053234 
L 186.180943 202.262902 
L 188.467297 204.47257 
L 190.753649 206.694722 
L 193.040003 208.891906 
L 195.326357 211.02667 
L 197.612711 213.011626 
L 199.899065 214.746902 
L 202.185417 216.101416 
L 204.471771 216.975296 
L 206.758125 217.274912 
" style="fill:none;stroke:#ff7f0e;stroke-linecap:square;stroke-opacity:0.9;stroke-width:2.5;"/>
   </g>
   <g id="line2d_37">
    <path clip-path="url(#pc67e1b372b)" d="M 49.88 152.763842 
L 51.86006 152.670212 
L 53.84012 152.38308 
L 55.820181 151.939898 
L 57.800241 151.38436 
L 59.780301 150.76016 
L 61.760361 150.129718 
L 63.740421 149.561696 
L 65.72048 149.118514 
L 67.700541 148.850108 
L 69.680601 148.82514 
L 71.660661 149.087304 
L 73.640721 149.686536 
L 75.620781 150.629078 
L 77.600841 151.889962 
L 79.580902 153.400526 
L 81.560962 155.060898 
L 83.541022 156.733754 
L 85.521082 158.28177 
L 87.501142 159.56138 
L 89.481203 160.453986 
L 91.461263 160.90341 
L 93.441322 160.909652 
L 95.421382 160.535132 
L 97.401442 159.917174 
L 99.381502 159.193102 
L 101.361563 158.487756 
L 103.341623 157.90725 
L 105.321683 157.53273 
L 107.301743 157.401648 
L 107.301743 157.401648 
L 108.44492 157.40789 
L 109.588097 157.420374 
L 110.731273 157.445342 
L 111.87445 157.482794 
L 113.017627 157.53273 
L 114.160804 157.601392 
L 115.303981 157.682538 
L 116.447157 157.788652 
L 117.590334 157.913492 
L 118.733511 158.069542 
L 119.876688 158.244318 
L 121.019865 158.444062 
L 122.163041 158.675016 
L 123.306218 158.924696 
L 124.449395 159.205586 
L 125.592572 159.505202 
L 126.735748 159.829786 
L 127.878925 160.166854 
L 129.022102 160.516406 
L 130.165279 160.878442 
L 131.308456 161.24672 
L 132.451632 161.608756 
L 133.594809 161.96455 
L 134.737986 162.295376 
L 135.881163 162.601234 
L 137.02434 162.844672 
L 138.167516 163.02569 
L 139.310693 163.113078 
L 140.45387 163.138046 
L 140.45387 163.138046 
L 142.740224 163.15053 
L 145.026578 163.369 
L 147.31293 163.918296 
L 149.599285 164.748482 
L 151.885639 165.516248 
L 154.171993 165.659814 
L 156.458347 165.279052 
L 158.744699 164.561222 
L 161.031053 163.574986 
L 163.317407 162.332828 
L 165.603761 160.8722 
L 167.890115 159.21807 
L 170.176467 157.426616 
L 172.462821 155.572742 
L 174.749175 153.75632 
L 177.035529 152.089706 
L 179.321881 150.679014 
L 181.608235 149.60539 
L 183.894589 148.925012 
L 186.180943 148.625396 
L 188.467297 148.675332 
L 190.753649 149.0124 
L 193.040003 149.567938 
L 195.326357 150.2608 
L 197.612711 150.997356 
L 199.899065 151.690218 
L 202.185417 152.264482 
L 204.471771 152.63276 
L 206.758125 152.763842 
" style="fill:none;stroke:#ff7f0e;stroke-linecap:square;stroke-opacity:0.9;stroke-width:2.5;"/>
   </g>
   <g id="line2d_38">
    <path clip-path="url(#pc67e1b372b)" d="M 49.88 69.726516 
L 51.86006 70.194666 
L 53.84012 71.561664 
L 55.820181 73.752606 
L 57.800241 76.655136 
L 59.780301 80.113204 
L 61.760361 83.958276 
L 63.740421 88.009334 
L 65.72048 92.104086 
L 67.700541 96.092724 
L 69.680601 99.82544 
L 71.660661 103.171152 
L 73.640721 106.017504 
L 75.620781 108.295834 
L 77.600841 109.96869 
L 79.580902 111.067282 
L 81.560962 111.647788 
L 83.541022 111.797596 
L 85.521082 111.635304 
L 87.501142 111.254542 
L 89.481203 110.74894 
L 91.461263 110.18716 
L 93.441322 109.631622 
L 95.421382 109.12602 
L 97.401442 108.68908 
L 99.381502 108.333286 
L 101.361563 108.071122 
L 103.341623 107.883862 
L 105.321683 107.771506 
L 107.301743 107.740296 
L 107.301743 107.740296 
L 108.44492 107.702844 
L 109.588097 107.590488 
L 110.731273 107.415712 
L 111.87445 107.178516 
L 113.017627 106.885142 
L 114.160804 106.554316 
L 115.303981 106.186038 
L 116.447157 105.792792 
L 117.590334 105.387062 
L 118.733511 104.97509 
L 119.876688 104.563118 
L 121.019865 104.151146 
L 122.163041 103.751658 
L 123.306218 103.364654 
L 124.449395 102.996376 
L 125.592572 102.646824 
L 126.735748 102.315998 
L 127.878925 102.003898 
L 129.022102 101.716766 
L 130.165279 101.44836 
L 131.308456 101.204922 
L 132.451632 100.973968 
L 133.594809 100.774224 
L 134.737986 100.593206 
L 135.881163 100.437156 
L 137.02434 100.312316 
L 138.167516 100.212444 
L 139.310693 100.156266 
L 140.45387 100.131298 
L 140.45387 100.131298 
L 142.740224 100.224928 
L 145.026578 100.518302 
L 147.31293 101.030146 
L 149.599285 101.772944 
L 151.885639 102.72797 
L 154.171993 103.88274 
L 156.458347 105.187318 
L 158.744699 106.585526 
L 161.031053 107.996218 
L 163.317407 109.356974 
L 165.603761 110.574164 
L 167.890115 111.566642 
L 170.176467 112.234536 
L 172.462821 112.484216 
L 174.749175 112.21581 
L 177.035529 111.323204 
L 179.321881 109.737736 
L 181.608235 107.40947 
L 183.894589 104.363374 
L 186.180943 100.674352 
L 188.467297 96.48597 
L 190.753649 91.973004 
L 193.040003 87.335198 
L 195.326357 82.797264 
L 197.612711 78.590156 
L 199.899065 74.957312 
L 202.185417 72.135928 
L 204.471771 70.344474 
L 206.758125 69.726516 
" style="fill:none;stroke:#ff7f0e;stroke-linecap:square;stroke-opacity:0.9;stroke-width:2.5;"/>
   </g>
   <g id="matplotlib.axis_1">
    <g id="xtick_1">
     <g id="line2d_39">
      <defs>
       <path d="M 0 0 
L 0 3.5 
" id="m9bdd73526b" style="stroke:#ffffff;stroke-width:0.8;"/>
      </defs>
      <g>
       <use style="fill:#ffffff;stroke:#ffffff;stroke-width:0.8;" x="49.88" xlink:href="#m9bdd73526b" y="260.12"/>
      </g>
     </g>
     <g id="text_1">
      <!-- $\mathrm{\mathsf{\Gamma}}$ -->
      <defs>
       <path d="M 12.203125 0 
L 12.203125 72.90625 
L 55.171875 72.90625 
L 55.171875 68.84375 
L 17.09375 68.84375 
L 17.09375 0 
z
" id="DejaVuSans-ExtraLight-393"/>
      </defs>
      <g style="fill:#ffffff;" transform="translate(44.84 280.797188)scale(0.18 -0.18)">
       <use transform="translate(0 0.09375)" xlink:href="#DejaVuSans-ExtraLight-393"/>
      </g>
     </g>
    </g>
    <g id="xtick_2">
     <g id="line2d_40">
      <g>
       <use style="fill:#ffffff;stroke:#ffffff;stroke-width:0.8;" x="107.301743" xlink:href="#m9bdd73526b" y="260.12"/>
      </g>
     </g>
     <g id="text_2">
      <!-- $\mathrm{\mathsf{M}}$ -->
      <defs>
       <path d="M 16.0625 72.90625 
L 22.859375 72.90625 
L 43.109375 18.84375 
L 63.484375 72.90625 
L 70.21875 72.90625 
L 70.21875 0 
L 65.234375 0 
L 65.234375 64.015625 
L 46.484375 14.015625 
L 39.75 14.015625 
L 21.046875 64.015625 
L 21.046875 0 
L 16.0625 0 
z
" id="DejaVuSans-ExtraLight-4d"/>
      </defs>
      <g style="fill:#ffffff;" transform="translate(99.471743 280.797188)scale(0.18 -0.18)">
       <use transform="translate(0 0.09375)" xlink:href="#DejaVuSans-ExtraLight-4d"/>
      </g>
     </g>
    </g>
    <g id="xtick_3">
     <g id="line2d_41">
      <g>
       <use style="fill:#ffffff;stroke:#ffffff;stroke-width:0.8;" x="140.45387" xlink:href="#m9bdd73526b" y="260.12"/>
      </g>
     </g>
     <g id="text_3">
      <!-- $\mathrm{\mathsf{K}}$ -->
      <defs>
       <path d="M 17.28125 72.90625 
L 22.125 72.90625 
L 22.125 41.5 
L 55.515625 72.90625 
L 62.015625 72.90625 
L 25.78125 38.765625 
L 64.40625 0 
L 58.015625 0 
L 22.125 35.984375 
L 22.125 0 
L 17.28125 0 
z
" id="DejaVuSans-ExtraLight-4b"/>
      </defs>
      <g style="fill:#ffffff;" transform="translate(134.51387 280.797188)scale(0.18 -0.18)">
       <use transform="translate(0 0.09375)" xlink:href="#DejaVuSans-ExtraLight-4b"/>
      </g>
     </g>
    </g>
    <g id="xtick_4">
     <g id="line2d_42">
      <g>
       <use style="fill:#ffffff;stroke:#ffffff;stroke-width:0.8;" x="206.758125" xlink:href="#m9bdd73526b" y="260.12"/>
      </g>
     </g>
     <g id="text_4">
      <!-- $\mathrm{\mathsf{\Gamma}}$ -->
      <g style="fill:#ffffff;" transform="translate(201.718125 280.797188)scale(0.18 -0.18)">
       <use transform="translate(0 0.09375)" xlink:href="#DejaVuSans-ExtraLight-393"/>
      </g>
     </g>
    </g>
   </g>
   <g id="matplotlib.axis_2">
    <g id="ytick_1">
     <g id="line2d_43">
      <defs>
       <path d="M 0 0 
L -3.5 0 
" id="m3648b06d17" style="stroke:#ffffff;stroke-width:0.8;"/>
      </defs>
      <g>
       <use style="fill:#ffffff;stroke:#ffffff;stroke-width:0.8;" x="49.88" xlink:href="#m3648b06d17" y="260.12"/>
      </g>
     </g>
     <g id="text_5">
      <!-- -2 -->
      <defs>
       <path d="M 4.890625 29.390625 
L 31.203125 29.390625 
L 31.203125 25.390625 
L 4.890625 25.390625 
z
" id="DejaVuSans-ExtraLight-2d"/>
       <path d="M 12.015625 3.953125 
L 53.609375 3.953125 
L 53.609375 0 
L 6.9375 0 
L 6.9375 5.125 
L 25.09375 24.03125 
Q 31.84375 30.859375 37.3125 36.671875 
Q 42.390625 42.09375 44.09375 45.0625 
Q 45.796875 48.046875 45.796875 52.9375 
Q 45.796875 61.375 40.625 66.5 
Q 36.859375 70.21875 28.515625 70.21875 
Q 23.640625 70.21875 17.28125 67.390625 
Q 14.5 66.109375 7.8125 61.765625 
L 7.8125 66.9375 
Q 10.640625 68.953125 16.109375 71.390625 
Q 22.3125 74.171875 28.421875 74.21875 
Q 37.84375 74.21875 44.1875 69.390625 
Q 50.390625 64.546875 50.390625 53.421875 
Q 50.390625 48.921875 48.734375 44.921875 
Q 46.78125 40.234375 42.578125 35.40625 
Q 41.359375 33.984375 34.8125 27.25 
z
" id="DejaVuSans-ExtraLight-32"/>
      </defs>
      <g style="fill:#ffffff;" transform="translate(24.933438 266.958594)scale(0.18 -0.18)">
       <use xlink:href="#DejaVuSans-ExtraLight-2d"/>
       <use x="36.083984" xlink:href="#DejaVuSans-ExtraLight-32"/>
      </g>
     </g>
    </g>
    <g id="ytick_2">
     <g id="line2d_44">
      <g>
       <use style="fill:#ffffff;stroke:#ffffff;stroke-width:0.8;" x="49.88" xlink:href="#m3648b06d17" y="197.7"/>
      </g>
     </g>
     <g id="text_6">
      <!-- -1 -->
      <defs>
       <path d="M 14.84375 4 
L 30.953125 4 
L 30.953125 68.40625 
L 10.984375 60.40625 
L 10.984375 64.890625 
L 30.859375 72.90625 
L 35.84375 72.90625 
L 35.84375 4 
L 51.953125 4 
L 51.953125 0 
L 14.84375 0 
z
" id="DejaVuSans-ExtraLight-31"/>
      </defs>
      <g style="fill:#ffffff;" transform="translate(24.933438 204.538594)scale(0.18 -0.18)">
       <use xlink:href="#DejaVuSans-ExtraLight-2d"/>
       <use x="36.083984" xlink:href="#DejaVuSans-ExtraLight-31"/>
      </g>
     </g>
    </g>
    <g id="ytick_3">
     <g id="line2d_45">
      <g>
       <use style="fill:#ffffff;stroke:#ffffff;stroke-width:0.8;" x="49.88" xlink:href="#m3648b06d17" y="135.28"/>
      </g>
     </g>
     <g id="text_7">
      <!-- 0 -->
      <defs>
       <path d="M 31.5 70.21875 
Q 22.5625 70.21875 18.21875 61.53125 
Q 13.875 52.78125 13.875 36.375 
Q 13.875 19.96875 18.21875 11.234375 
Q 22.5625 2.546875 31.5 2.546875 
Q 40.71875 2.546875 45.0625 11.234375 
Q 49.421875 19.96875 49.421875 36.375 
Q 49.421875 52.78125 45.0625 61.53125 
Q 40.71875 70.21875 31.5 70.21875 
z
M 31.5 74.21875 
Q 42.046875 74.21875 48.1875 65.625 
Q 54.34375 56.984375 54.34375 36.375 
Q 54.34375 15.765625 48.1875 7.125 
Q 42.046875 -1.46875 31.5 -1.46875 
Q 21.234375 -1.46875 15.09375 7.125 
Q 8.9375 15.765625 8.9375 36.375 
Q 8.9375 56.984375 15.09375 65.625 
Q 21.234375 74.21875 31.5 74.21875 
z
" id="DejaVuSans-ExtraLight-30"/>
      </defs>
      <g style="fill:#ffffff;" transform="translate(31.4275 142.118594)scale(0.18 -0.18)">
       <use xlink:href="#DejaVuSans-ExtraLight-30"/>
      </g>
     </g>
    </g>
    <g id="ytick_4">
     <g id="line2d_46">
      <g>
       <use style="fill:#ffffff;stroke:#ffffff;stroke-width:0.8;" x="49.88" xlink:href="#m3648b06d17" y="72.86"/>
      </g>
     </g>
     <g id="text_8">
      <!-- 1 -->
      <g style="fill:#ffffff;" transform="translate(31.4275 79.698594)scale(0.18 -0.18)">
       <use xlink:href="#DejaVuSans-ExtraLight-31"/>
      </g>
     </g>
    </g>
    <g id="ytick_5">
     <g id="line2d_47">
      <g>
       <use style="fill:#ffffff;stroke:#ffffff;stroke-width:0.8;" x="49.88" xlink:href="#m3648b06d17" y="10.44"/>
      </g>
     </g>
     <g id="text_9">
      <!-- 2 -->
      <g style="fill:#ffffff;" transform="translate(31.4275 17.278594)scale(0.18 -0.18)">
       <use xlink:href="#DejaVuSans-ExtraLight-32"/>
      </g>
     </g>
    </g>
    <g id="ytick_6">
     <g id="line2d_48">
      <defs>
       <path d="M 0 0 
L -2 0 
" id="mcb07509e63" style="stroke:#ffffff;stroke-width:0.6;"/>
      </defs>
      <g>
       <use style="fill:#ffffff;stroke:#ffffff;stroke-width:0.6;" x="49.88" xlink:href="#mcb07509e63" y="228.91"/>
      </g>
     </g>
    </g>
    <g id="ytick_7">
     <g id="line2d_49">
      <g>
       <use style="fill:#ffffff;stroke:#ffffff;stroke-width:0.6;" x="49.88" xlink:href="#mcb07509e63" y="166.49"/>
      </g>
     </g>
    </g>
    <g id="ytick_8">
     <g id="line2d_50">
      <g>
       <use style="fill:#ffffff;stroke:#ffffff;stroke-width:0.6;" x="49.88" xlink:href="#mcb07509e63" y="104.07"/>
      </g>
     </g>
    </g>
    <g id="ytick_9">
     <g id="line2d_51">
      <g>
       <use style="fill:#ffffff;stroke:#ffffff;stroke-width:0.6;" x="49.88" xlink:href="#mcb07509e63" y="41.65"/>
      </g>
     </g>
    </g>
    <g id="text_10">
     <!-- Energy [eV] -->
     <defs>
      <path d="M 12.15625 72.90625 
L 53.375 72.90625 
L 53.375 68.84375 
L 17.140625 68.84375 
L 17.140625 40.875 
L 51.859375 40.875 
L 51.859375 36.921875 
L 17.140625 36.921875 
L 17.140625 3.953125 
L 54.25 3.953125 
L 54.25 0 
L 12.15625 0 
z
" id="DejaVuSans-ExtraLight-45"/>
      <path d="M 52.640625 33.015625 
L 52.640625 0 
L 48.140625 0 
L 48.140625 32.71875 
Q 48.140625 43.359375 44.71875 47.703125 
Q 41.3125 52.046875 34.671875 52.046875 
Q 26.90625 52.046875 21.390625 47.359375 
Q 15.828125 42.625 15.828125 30.90625 
L 15.828125 0 
L 11.328125 0 
L 11.328125 54.6875 
L 15.828125 54.6875 
L 15.828125 44.4375 
Q 18.21875 49.421875 22.125 52.046875 
Q 27.875 56 34.859375 56 
Q 42.96875 56 47.796875 50.484375 
Q 52.640625 45.015625 52.640625 33.015625 
z
" id="DejaVuSans-ExtraLight-6e"/>
      <path d="M 53.953125 29.59375 
L 53.953125 26.765625 
L 12.453125 26.765625 
Q 12.453125 13.578125 17.578125 8.296875 
Q 23.25 2.4375 34.421875 2.4375 
Q 37.359375 2.4375 42.1875 3.71875 
Q 47.078125 4.984375 51.859375 7.515625 
L 51.859375 2.78125 
Q 47.015625 0.734375 41.9375 -0.34375 
Q 36.859375 -1.421875 33.890625 -1.421875 
Q 21.234375 -1.421875 14.84375 5.421875 
Q 7.90625 12.703125 7.90625 26.765625 
Q 7.90625 41.359375 14.265625 48.53125 
Q 20.75 56 32.328125 56 
Q 43.0625 56 48.53125 48.921875 
Q 53.953125 41.5 53.953125 29.59375 
z
M 49.421875 30.5625 
Q 49.421875 42.09375 44.234375 47.359375 
Q 39.890625 52.046875 32.421875 52.046875 
Q 24.265625 52.046875 18.75 47.171875 
Q 13.671875 42.625 12.640625 30.5625 
z
" id="DejaVuSans-ExtraLight-65"/>
      <path d="M 41.015625 50.828125 
Q 39.9375 51.375 38.09375 51.765625 
Q 36.421875 52.046875 33.890625 52.046875 
Q 25.59375 52.046875 20.125 45.90625 
Q 15.828125 40.921875 15.828125 28.8125 
L 15.828125 0 
L 11.421875 0 
L 11.421875 54.6875 
L 15.828125 54.6875 
L 15.828125 44.4375 
Q 18.015625 48.828125 21.96875 51.859375 
Q 27.4375 56 34.859375 56 
Q 36.765625 56 38.1875 55.859375 
Q 39.65625 55.859375 41.015625 55.515625 
z
" id="DejaVuSans-ExtraLight-72"/>
      <path d="M 47.65625 27.984375 
Q 47.65625 39.359375 43.03125 45.625 
Q 38.421875 51.90625 30.078125 51.90625 
Q 21.828125 51.90625 17.203125 45.625 
Q 12.59375 39.359375 12.59375 27.984375 
Q 12.59375 16.65625 17.203125 10.375 
Q 21.828125 4.109375 30.078125 4.109375 
Q 38.421875 4.109375 43.03125 10.375 
Q 47.65625 16.65625 47.65625 27.984375 
z
M 52.15625 6.78125 
Q 52.15625 -10.25 45.65625 -15.515625 
Q 39.15625 -20.796875 29.203125 -20.796875 
Q 24.46875 -20.796875 20.265625 -20.125 
Q 16.0625 -19.390625 12.109375 -17.921875 
L 12.109375 -12.796875 
Q 16.0625 -14.9375 19.921875 -15.96875 
Q 23.78125 -17 27.78125 -17 
Q 35.9375 -17 41.796875 -13.53125 
Q 47.65625 -10.0625 47.65625 5.171875 
L 47.65625 13.71875 
Q 45.65625 8.109375 42.140625 4.890625 
Q 36.765625 -0.046875 30.078125 0 
Q 19.671875 0 13.859375 7.34375 
Q 8.0625 14.703125 8.0625 28.03125 
Q 8.0625 41.3125 13.859375 48.65625 
Q 19.671875 56 30.078125 56 
Q 36.71875 56 41.5 51.8125 
Q 45.21875 48.53125 47.65625 43.0625 
L 47.65625 54.6875 
L 52.15625 54.6875 
z
" id="DejaVuSans-ExtraLight-67"/>
      <path d="M 29.78125 -5.078125 
Q 26.859375 -12.359375 23.484375 -15.140625 
Q 18.953125 -18.890625 14.59375 -18.890625 
L 7.90625 -18.890625 
L 7.90625 -15.09375 
L 13.625 -15.09375 
Q 17.1875 -15.09375 19.875 -12.796875 
Q 23.34375 -9.8125 25.59375 -4.046875 
L 27.203125 0 
L 5.375 54.6875 
L 10.15625 54.6875 
L 29.59375 5.953125 
L 49.078125 54.6875 
L 53.8125 54.6875 
z
" id="DejaVuSans-ExtraLight-79"/>
      <path id="DejaVuSans-ExtraLight-20"/>
      <path d="M 11.328125 75.984375 
L 27.984375 75.984375 
L 27.984375 70.90625 
L 16.21875 70.90625 
L 16.21875 -9.078125 
L 27.984375 -9.078125 
L 27.984375 -13.1875 
L 11.328125 -13.1875 
z
" id="DejaVuSans-ExtraLight-5b"/>
      <path d="M 30.859375 0 
L 3.03125 72.90625 
L 8.59375 72.90625 
L 34.1875 4.890625 
L 59.96875 72.90625 
L 65.09375 72.90625 
L 37.3125 0 
z
" id="DejaVuSans-ExtraLight-56"/>
      <path d="M 27.984375 75.984375 
L 27.984375 -13.1875 
L 11.328125 -13.1875 
L 11.328125 -9.078125 
L 23.09375 -9.078125 
L 23.09375 70.90625 
L 11.328125 70.90625 
L 11.328125 75.984375 
z
" id="DejaVuSans-ExtraLight-5d"/>
     </defs>
     <g style="fill:#ffffff;" transform="translate(17.19 188.202812)rotate(-90)scale(0.18 -0.18)">
      <use xlink:href="#DejaVuSans-ExtraLight-45"/>
      <use x="63.183594" xlink:href="#DejaVuSans-ExtraLight-6e"/>
      <use x="126.5625" xlink:href="#DejaVuSans-ExtraLight-65"/>
      <use x="188.085938" xlink:href="#DejaVuSans-ExtraLight-72"/>
      <use x="229.183594" xlink:href="#DejaVuSans-ExtraLight-67"/>
      <use x="289.193359" xlink:href="#DejaVuSans-ExtraLight-79"/>
      <use x="348.373047" xlink:href="#DejaVuSans-ExtraLight-20"/>
      <use x="380.160156" xlink:href="#DejaVuSans-ExtraLight-5b"/>
      <use x="419.173828" xlink:href="#DejaVuSans-ExtraLight-65"/>
      <use x="480.587891" xlink:href="#DejaVuSans-ExtraLight-56"/>
      <use x="548.996094" xlink:href="#DejaVuSans-ExtraLight-5d"/>
     </g>
    </g>
   </g>
   <g id="line2d_52">
    <path clip-path="url(#pc67e1b372b)" d="M 49.88 69.739 
L 51.86006 69.595434 
L 53.84012 69.158494 
L 55.820181 68.434422 
L 57.800241 67.410734 
L 59.780301 66.08743 
L 61.760361 64.470752 
L 63.740421 62.5607 
L 65.72048 60.376 
L 67.700541 57.94162 
L 69.680601 55.282528 
L 71.660661 52.66713 
L 73.640721 55.151446 
L 75.620781 57.94162 
L 77.600841 60.90657 
L 79.580902 63.940182 
L 81.560962 66.96131 
L 83.541022 69.907534 
L 85.521082 72.722676 
L 87.501142 75.3568 
L 89.481203 77.784938 
L 91.461263 79.982122 
L 93.441322 81.923384 
L 95.421382 83.602482 
L 97.401442 85.013174 
L 99.381502 86.15546 
L 101.361563 87.041824 
L 103.341623 87.666024 
L 105.321683 88.040544 
L 107.301743 88.165384 
L 107.301743 88.165384 
L 108.44492 88.046786 
L 109.588097 87.678508 
L 110.731273 87.066792 
L 111.87445 86.205396 
L 113.017627 85.100562 
L 114.160804 83.746048 
L 115.303981 82.154338 
L 116.447157 80.312948 
L 117.590334 78.234362 
L 118.733511 75.931064 
L 119.876688 73.396812 
L 121.019865 70.656574 
L 122.163041 67.716592 
L 123.306218 64.583108 
L 124.449395 61.287332 
L 125.592572 57.841748 
L 126.735748 54.277566 
L 127.878925 50.63848 
L 129.022102 46.974426 
L 130.165279 43.347824 
L 131.308456 39.858546 
L 132.451632 36.618948 
L 133.594809 33.75387 
L 134.737986 31.363184 
L 135.881163 29.484342 
L 137.02434 28.10486 
L 138.167516 27.181044 
L 139.310693 26.656716 
L 140.45387 26.494424 
L 140.45387 26.494424 
L 142.740224 27.062446 
L 145.026578 28.504348 
L 147.31293 30.38319 
L 149.599285 32.361904 
L 151.885639 34.209536 
L 154.171993 35.819972 
L 156.458347 37.168244 
L 158.744699 38.27932 
L 161.031053 39.190652 
L 163.317407 39.970902 
L 165.603761 40.670006 
L 167.890115 41.40032 
L 170.176467 42.342862 
L 172.462821 43.77228 
L 174.749175 45.813414 
L 177.035529 48.272762 
L 179.321881 50.881918 
L 181.608235 53.47859 
L 183.894589 55.956664 
L 186.180943 58.259962 
L 188.467297 60.357274 
L 190.753649 62.254842 
L 193.040003 63.971392 
L 195.326357 65.531892 
L 197.612711 66.923858 
L 199.899065 68.091112 
L 202.185417 68.983718 
L 204.471771 69.545498 
L 206.758125 69.739 
" style="fill:none;stroke:#7f7f7f;stroke-linecap:square;stroke-opacity:0.3;stroke-width:2.5;"/>
   </g>
   <g id="line2d_53">
    <path clip-path="url(#pc67e1b372b)" d="M 49.88 53.75948 
L 51.86006 53.597188 
L 53.84012 53.116554 
L 55.820181 52.361272 
L 57.800241 51.400004 
L 59.780301 50.332622 
L 61.760361 49.333902 
L 63.740421 48.653524 
L 65.72048 48.559894 
L 67.700541 49.221546 
L 69.680601 50.632238 
L 71.660661 52.44866 
L 73.640721 49.496194 
L 75.620781 46.493792 
L 77.600841 43.503874 
L 79.580902 40.595102 
L 81.560962 37.836138 
L 83.541022 35.276918 
L 85.521082 32.961136 
L 87.501142 30.895034 
L 89.481203 29.10358 
L 91.461263 27.568048 
L 93.441322 26.275954 
L 95.421382 25.214814 
L 97.401442 24.365902 
L 99.381502 23.698008 
L 101.361563 23.198648 
L 103.341623 22.855338 
L 105.321683 22.649352 
L 107.301743 22.586932 
L 107.301743 22.586932 
L 108.44492 22.599416 
L 109.588097 22.649352 
L 110.731273 22.730498 
L 111.87445 22.83037 
L 113.017627 22.95521 
L 114.160804 23.086292 
L 115.303981 23.223616 
L 116.447157 23.36094 
L 117.590334 23.479538 
L 118.733511 23.573168 
L 119.876688 23.635588 
L 121.019865 23.648072 
L 122.163041 23.604378 
L 123.306218 23.492022 
L 124.449395 23.29852 
L 125.592572 23.005146 
L 126.735748 22.593174 
L 127.878925 22.056362 
L 129.022102 21.357258 
L 130.165279 20.477136 
L 131.308456 19.372302 
L 132.451632 18.005304 
L 133.594809 16.3699 
L 134.737986 14.4973 
L 135.881163 12.537312 
L 137.02434 10.733374 
L 138.167516 9.335166 
L 139.310693 8.517464 
L 140.45387 8.267784 
L 140.45387 8.267784 
L 142.740224 8.929436 
L 145.026578 10.290192 
L 147.31293 11.913112 
L 149.599285 13.692082 
L 151.885639 15.602134 
L 154.171993 17.612058 
L 156.458347 19.721854 
L 158.744699 21.95649 
L 161.031053 24.372144 
L 163.317407 27.000026 
L 165.603761 29.752748 
L 167.890115 32.449292 
L 170.176467 34.802526 
L 172.462821 36.487866 
L 174.749175 37.380472 
L 177.035529 37.817412 
L 179.321881 38.385434 
L 181.608235 39.440332 
L 183.894589 40.819814 
L 186.180943 42.349104 
L 188.467297 43.978266 
L 190.753649 45.67609 
L 193.040003 47.405124 
L 195.326357 49.07798 
L 197.612711 50.60727 
L 199.899065 51.911848 
L 202.185417 52.910568 
L 204.471771 53.54101 
L 206.758125 53.75948 
" style="fill:none;stroke:#7f7f7f;stroke-linecap:square;stroke-opacity:0.3;stroke-width:2.5;"/>
   </g>
   <g id="line2d_54">
    <path clip-path="url(#pc67e1b372b)" d="M 49.88 29.278356 
L 51.86006 29.496826 
L 53.84012 30.096058 
L 55.820181 30.94497 
L 57.800241 31.856302 
L 59.780301 32.636552 
L 61.760361 33.09846 
L 63.740421 33.042282 
L 65.72048 32.262032 
L 67.700541 30.626628 
L 69.680601 28.142312 
L 71.660661 24.883988 
L 73.640721 20.920318 
L 75.620781 16.30748 
L 77.600841 11.076684 
L 79.580902 5.25914 
L 81.527468 -1 
M 150.260324 -1 
L 151.885639 2.119414 
L 154.171993 6.520024 
L 156.458347 10.739616 
L 158.744699 14.628382 
L 161.031053 18.080208 
L 163.317407 21.0514 
L 165.603761 23.604378 
L 167.890115 25.88895 
L 170.176467 28.004988 
L 172.462821 29.996186 
L 174.749175 31.806366 
L 177.035529 33.260752 
L 179.321881 33.997308 
L 181.608235 33.872468 
L 183.894589 33.273236 
L 186.180943 32.649036 
L 188.467297 32.324452 
L 190.753649 32.368146 
L 193.040003 32.542922 
L 195.326357 32.50547 
L 197.612711 32.062288 
L 199.899065 31.25707 
L 202.185417 30.32077 
L 204.471771 29.565488 
L 206.758125 29.278356 
" style="fill:none;stroke:#7f7f7f;stroke-linecap:square;stroke-opacity:0.3;stroke-width:2.5;"/>
   </g>
   <g id="line2d_55">
    <path clip-path="url(#pc67e1b372b)" d="M 49.88 29.278356 
L 51.86006 29.07237 
L 53.84012 28.454412 
L 55.820181 27.430724 
L 57.800241 25.995064 
L 59.780301 24.153674 
L 61.760361 21.89407 
L 63.740421 19.228736 
L 65.72048 16.157672 
L 67.700541 12.680878 
L 69.680601 8.810838 
L 71.660661 4.535068 
L 73.640721 -0.127706 
L 74.084159 -1 
M 169.336878 -1 
L 170.176467 -0.115222 
L 172.462821 1.963364 
L 174.749175 3.82348 
L 177.035529 5.583724 
L 179.321881 7.406388 
L 181.608235 9.466248 
L 183.894589 11.850692 
L 186.180943 14.422396 
L 188.467297 16.90047 
L 190.753649 19.135106 
L 193.040003 21.257386 
L 195.326357 23.335972 
L 197.612711 25.277234 
L 199.899065 26.937606 
L 202.185417 28.210974 
L 204.471771 29.003708 
L 206.758125 29.278356 
" style="fill:none;stroke:#7f7f7f;stroke-linecap:square;stroke-opacity:0.3;stroke-width:2.5;"/>
   </g>
   <g id="line2d_56">
    <path clip-path="url(#pc67e1b372b)" d="M 59.12701 -1 
L 59.780301 -0.240062 
L 61.760361 1.713684 
L 63.740421 3.155586 
L 65.72048 3.929594 
L 67.700541 3.935836 
L 69.680601 3.124376 
L 71.660661 1.501456 
L 73.640721 -0.895472 
L 73.689056 -1 
M 187.713326 -1 
L 188.467297 0.10949 
L 190.753649 1.85725 
L 193.040003 2.007058 
L 195.326357 0.821078 
L 197.299832 -1 
" style="fill:none;stroke:#7f7f7f;stroke-linecap:square;stroke-opacity:0.3;stroke-width:2.5;"/>
   </g>
   <g id="line2d_57">
    <path clip-path="url(#pc67e1b372b)" style="fill:none;stroke:#7f7f7f;stroke-linecap:square;stroke-opacity:0.3;stroke-width:2.5;"/>
   </g>
   <g id="line2d_58">
    <path clip-path="url(#pc67e1b372b)" style="fill:none;stroke:#7f7f7f;stroke-linecap:square;stroke-opacity:0.3;stroke-width:2.5;"/>
   </g>
   <g id="line2d_59">
    <path clip-path="url(#pc67e1b372b)" style="fill:none;stroke:#7f7f7f;stroke-linecap:square;stroke-opacity:0.3;stroke-width:2.5;"/>
   </g>
   <g id="line2d_60">
    <path clip-path="url(#pc67e1b372b)" style="fill:none;stroke:#7f7f7f;stroke-linecap:square;stroke-opacity:0.3;stroke-width:2.5;"/>
   </g>
   <g id="line2d_61">
    <path clip-path="url(#pc67e1b372b)" style="fill:none;stroke:#7f7f7f;stroke-linecap:square;stroke-opacity:0.3;stroke-width:2.5;"/>
   </g>
   <g id="line2d_62">
    <path clip-path="url(#pc67e1b372b)" style="fill:none;stroke:#7f7f7f;stroke-linecap:square;stroke-opacity:0.3;stroke-width:2.5;"/>
   </g>
   <g id="line2d_63">
    <path clip-path="url(#pc67e1b372b)" style="fill:none;stroke:#7f7f7f;stroke-linecap:square;stroke-opacity:0.3;stroke-width:2.5;"/>
   </g>
   <g id="line2d_64">
    <path clip-path="url(#pc67e1b372b)" style="fill:none;stroke:#7f7f7f;stroke-linecap:square;stroke-opacity:0.3;stroke-width:2.5;"/>
   </g>
   <g id="line2d_65">
    <path clip-path="url(#pc67e1b372b)" style="fill:none;stroke:#7f7f7f;stroke-linecap:square;stroke-opacity:0.3;stroke-width:2.5;"/>
   </g>
   <g id="line2d_66">
    <path clip-path="url(#pc67e1b372b)" style="fill:none;stroke:#7f7f7f;stroke-linecap:square;stroke-opacity:0.3;stroke-width:2.5;"/>
   </g>
   <g id="line2d_67">
    <path clip-path="url(#pc67e1b372b)" style="fill:none;stroke:#7f7f7f;stroke-linecap:square;stroke-opacity:0.3;stroke-width:2.5;"/>
   </g>
   <g id="line2d_68">
    <path clip-path="url(#pc67e1b372b)" style="fill:none;stroke:#7f7f7f;stroke-linecap:square;stroke-opacity:0.3;stroke-width:2.5;"/>
   </g>
   <g id="line2d_69">
    <path clip-path="url(#pc67e1b372b)" style="fill:none;stroke:#7f7f7f;stroke-linecap:square;stroke-opacity:0.3;stroke-width:2.5;"/>
   </g>
   <g id="line2d_70">
    <path clip-path="url(#pc67e1b372b)" style="fill:none;stroke:#7f7f7f;stroke-linecap:square;stroke-opacity:0.3;stroke-width:2.5;"/>
   </g>
   <g id="line2d_71">
    <path clip-path="url(#pc67e1b372b)" style="fill:none;stroke:#7f7f7f;stroke-linecap:square;stroke-opacity:0.3;stroke-width:2.5;"/>
   </g>
   <g id="line2d_72">
    <path clip-path="url(#pc67e1b372b)" style="fill:none;stroke:#7f7f7f;stroke-linecap:square;stroke-opacity:0.3;stroke-width:2.5;"/>
   </g>
   <g id="line2d_73">
    <path clip-path="url(#pc67e1b372b)" style="fill:none;stroke:#7f7f7f;stroke-linecap:square;stroke-opacity:0.3;stroke-width:2.5;"/>
   </g>
   <g id="line2d_74">
    <path clip-path="url(#pc67e1b372b)" style="fill:none;stroke:#7f7f7f;stroke-linecap:square;stroke-opacity:0.3;stroke-width:2.5;"/>
   </g>
   <g id="line2d_75">
    <path clip-path="url(#pc67e1b372b)" style="fill:none;stroke:#7f7f7f;stroke-linecap:square;stroke-opacity:0.3;stroke-width:2.5;"/>
   </g>
   <g id="line2d_76">
    <path clip-path="url(#pc67e1b372b)" style="fill:none;stroke:#7f7f7f;stroke-linecap:square;stroke-opacity:0.3;stroke-width:2.5;"/>
   </g>
   <g id="line2d_77">
    <path clip-path="url(#pc67e1b372b)" style="fill:none;stroke:#7f7f7f;stroke-linecap:square;stroke-opacity:0.3;stroke-width:2.5;"/>
   </g>
   <g id="line2d_78">
    <path clip-path="url(#pc67e1b372b)" style="fill:none;stroke:#7f7f7f;stroke-linecap:square;stroke-opacity:0.3;stroke-width:2.5;"/>
   </g>
   <g id="line2d_79">
    <path clip-path="url(#pc67e1b372b)" style="fill:none;stroke:#7f7f7f;stroke-linecap:square;stroke-opacity:0.3;stroke-width:2.5;"/>
   </g>
   <g id="line2d_80">
    <path clip-path="url(#pc67e1b372b)" style="fill:none;stroke:#7f7f7f;stroke-linecap:square;stroke-opacity:0.3;stroke-width:2.5;"/>
   </g>
   <g id="line2d_81">
    <path clip-path="url(#pc67e1b372b)" style="fill:none;stroke:#7f7f7f;stroke-linecap:square;stroke-opacity:0.3;stroke-width:2.5;"/>
   </g>
   <g id="line2d_82">
    <path clip-path="url(#pc67e1b372b)" style="fill:none;stroke:#7f7f7f;stroke-linecap:square;stroke-opacity:0.3;stroke-width:2.5;"/>
   </g>
   <g id="line2d_83">
    <path clip-path="url(#pc67e1b372b)" style="fill:none;stroke:#7f7f7f;stroke-linecap:square;stroke-opacity:0.3;stroke-width:2.5;"/>
   </g>
   <g id="line2d_84">
    <path clip-path="url(#pc67e1b372b)" style="fill:none;stroke:#7f7f7f;stroke-linecap:square;stroke-opacity:0.3;stroke-width:2.5;"/>
   </g>
   <g id="line2d_85">
    <path clip-path="url(#pc67e1b372b)" style="fill:none;stroke:#7f7f7f;stroke-linecap:square;stroke-opacity:0.3;stroke-width:2.5;"/>
   </g>
   <g id="line2d_86">
    <path clip-path="url(#pc67e1b372b)" style="fill:none;stroke:#7f7f7f;stroke-linecap:square;stroke-opacity:0.3;stroke-width:2.5;"/>
   </g>
   <g id="line2d_87">
    <path clip-path="url(#pc67e1b372b)" style="fill:none;stroke:#7f7f7f;stroke-linecap:square;stroke-opacity:0.3;stroke-width:2.5;"/>
   </g>
   <g id="line2d_88">
    <path clip-path="url(#pc67e1b372b)" style="fill:none;stroke:#7f7f7f;stroke-linecap:square;stroke-opacity:0.3;stroke-width:2.5;"/>
   </g>
   <g id="line2d_89">
    <path clip-path="url(#pc67e1b372b)" style="fill:none;stroke:#7f7f7f;stroke-linecap:square;stroke-opacity:0.3;stroke-width:2.5;"/>
   </g>
   <g id="line2d_90">
    <path clip-path="url(#pc67e1b372b)" style="fill:none;stroke:#7f7f7f;stroke-linecap:square;stroke-opacity:0.3;stroke-width:2.5;"/>
   </g>
   <g id="line2d_91">
    <path clip-path="url(#pc67e1b372b)" style="fill:none;stroke:#7f7f7f;stroke-linecap:square;stroke-opacity:0.3;stroke-width:2.5;"/>
   </g>
   <g id="line2d_92">
    <path clip-path="url(#pc67e1b372b)" style="fill:none;stroke:#7f7f7f;stroke-linecap:square;stroke-opacity:0.3;stroke-width:2.5;"/>
   </g>
   <g id="line2d_93">
    <path clip-path="url(#pc67e1b372b)" style="fill:none;stroke:#7f7f7f;stroke-linecap:square;stroke-opacity:0.3;stroke-width:2.5;"/>
   </g>
   <g id="line2d_94">
    <path clip-path="url(#pc67e1b372b)" style="fill:none;stroke:#7f7f7f;stroke-linecap:square;stroke-opacity:0.3;stroke-width:2.5;"/>
   </g>
   <g id="line2d_95">
    <path clip-path="url(#pc67e1b372b)" style="fill:none;stroke:#7f7f7f;stroke-linecap:square;stroke-opacity:0.3;stroke-width:2.5;"/>
   </g>
   <g id="line2d_96">
    <path clip-path="url(#pc67e1b372b)" style="fill:none;stroke:#7f7f7f;stroke-linecap:square;stroke-opacity:0.3;stroke-width:2.5;"/>
   </g>
   <g id="line2d_97">
    <path clip-path="url(#pc67e1b372b)" style="fill:none;stroke:#7f7f7f;stroke-linecap:square;stroke-opacity:0.3;stroke-width:2.5;"/>
   </g>
   <g id="line2d_98">
    <path clip-path="url(#pc67e1b372b)" style="fill:none;stroke:#7f7f7f;stroke-linecap:square;stroke-opacity:0.3;stroke-width:2.5;"/>
   </g>
   <g id="line2d_99">
    <path clip-path="url(#pc67e1b372b)" style="fill:none;stroke:#7f7f7f;stroke-linecap:square;stroke-opacity:0.3;stroke-width:2.5;"/>
   </g>
   <g id="line2d_100">
    <path clip-path="url(#pc67e1b372b)" style="fill:none;stroke:#7f7f7f;stroke-linecap:square;stroke-opacity:0.3;stroke-width:2.5;"/>
   </g>
   <g id="line2d_101">
    <path clip-path="url(#pc67e1b372b)" style="fill:none;stroke:#7f7f7f;stroke-linecap:square;stroke-opacity:0.3;stroke-width:2.5;"/>
   </g>
   <g id="line2d_102">
    <path clip-path="url(#pc67e1b372b)" style="fill:none;stroke:#7f7f7f;stroke-linecap:square;stroke-opacity:0.3;stroke-width:2.5;"/>
   </g>
   <g id="line2d_103">
    <path clip-path="url(#pc67e1b372b)" style="fill:none;stroke:#7f7f7f;stroke-linecap:square;stroke-opacity:0.3;stroke-width:2.5;"/>
   </g>
   <g id="line2d_104">
    <path clip-path="url(#pc67e1b372b)" style="fill:none;stroke:#7f7f7f;stroke-linecap:square;stroke-opacity:0.3;stroke-width:2.5;"/>
   </g>
   <g id="line2d_105">
    <path clip-path="url(#pc67e1b372b)" style="fill:none;stroke:#7f7f7f;stroke-linecap:square;stroke-opacity:0.3;stroke-width:2.5;"/>
   </g>
   <g id="line2d_106">
    <path clip-path="url(#pc67e1b372b)" style="fill:none;stroke:#7f7f7f;stroke-linecap:square;stroke-opacity:0.3;stroke-width:2.5;"/>
   </g>
   <g id="line2d_107">
    <path clip-path="url(#pc67e1b372b)" style="fill:none;stroke:#7f7f7f;stroke-linecap:square;stroke-opacity:0.3;stroke-width:2.5;"/>
   </g>
   <g id="line2d_108">
    <path clip-path="url(#pc67e1b372b)" style="fill:none;stroke:#7f7f7f;stroke-linecap:square;stroke-opacity:0.3;stroke-width:2.5;"/>
   </g>
   <g id="line2d_109">
    <path clip-path="url(#pc67e1b372b)" style="fill:none;stroke:#7f7f7f;stroke-linecap:square;stroke-opacity:0.3;stroke-width:2.5;"/>
   </g>
   <g id="line2d_110">
    <path clip-path="url(#pc67e1b372b)" style="fill:none;stroke:#7f7f7f;stroke-linecap:square;stroke-opacity:0.3;stroke-width:2.5;"/>
   </g>
   <g id="line2d_111">
    <path clip-path="url(#pc67e1b372b)" style="fill:none;stroke:#7f7f7f;stroke-linecap:square;stroke-opacity:0.3;stroke-width:2.5;"/>
   </g>
   <g id="line2d_112">
    <path clip-path="url(#pc67e1b372b)" style="fill:none;stroke:#7f7f7f;stroke-linecap:square;stroke-opacity:0.3;stroke-width:2.5;"/>
   </g>
   <g id="line2d_113">
    <path clip-path="url(#pc67e1b372b)" style="fill:none;stroke:#7f7f7f;stroke-linecap:square;stroke-opacity:0.3;stroke-width:2.5;"/>
   </g>
   <g id="line2d_114">
    <path clip-path="url(#pc67e1b372b)" style="fill:none;stroke:#7f7f7f;stroke-linecap:square;stroke-opacity:0.3;stroke-width:2.5;"/>
   </g>
   <g id="line2d_115">
    <path clip-path="url(#pc67e1b372b)" style="fill:none;stroke:#7f7f7f;stroke-linecap:square;stroke-opacity:0.3;stroke-width:2.5;"/>
   </g>
   <g id="line2d_116">
    <path clip-path="url(#pc67e1b372b)" style="fill:none;stroke:#7f7f7f;stroke-linecap:square;stroke-opacity:0.3;stroke-width:2.5;"/>
   </g>
   <g id="line2d_117">
    <path clip-path="url(#pc67e1b372b)" style="fill:none;stroke:#7f7f7f;stroke-linecap:square;stroke-opacity:0.3;stroke-width:2.5;"/>
   </g>
   <g id="line2d_118">
    <path clip-path="url(#pc67e1b372b)" style="fill:none;stroke:#7f7f7f;stroke-linecap:square;stroke-opacity:0.3;stroke-width:2.5;"/>
   </g>
   <g id="line2d_119">
    <path clip-path="url(#pc67e1b372b)" style="fill:none;stroke:#7f7f7f;stroke-linecap:square;stroke-opacity:0.3;stroke-width:2.5;"/>
   </g>
   <g id="line2d_120">
    <path clip-path="url(#pc67e1b372b)" style="fill:none;stroke:#7f7f7f;stroke-linecap:square;stroke-opacity:0.3;stroke-width:2.5;"/>
   </g>
   <g id="line2d_121">
    <path clip-path="url(#pc67e1b372b)" style="fill:none;stroke:#7f7f7f;stroke-linecap:square;stroke-opacity:0.3;stroke-width:2.5;"/>
   </g>
   <g id="line2d_122">
    <path clip-path="url(#pc67e1b372b)" style="fill:none;stroke:#7f7f7f;stroke-linecap:square;stroke-opacity:0.3;stroke-width:2.5;"/>
   </g>
   <g id="line2d_123">
    <path clip-path="url(#pc67e1b372b)" style="fill:none;stroke:#7f7f7f;stroke-linecap:square;stroke-opacity:0.3;stroke-width:2.5;"/>
   </g>
   <g id="line2d_124">
    <path clip-path="url(#pc67e1b372b)" style="fill:none;stroke:#7f7f7f;stroke-linecap:square;stroke-opacity:0.3;stroke-width:2.5;"/>
   </g>
   <g id="line2d_125">
    <path clip-path="url(#pc67e1b372b)" style="fill:none;stroke:#7f7f7f;stroke-linecap:square;stroke-opacity:0.3;stroke-width:2.5;"/>
   </g>
   <g id="line2d_126">
    <path clip-path="url(#pc67e1b372b)" style="fill:none;stroke:#7f7f7f;stroke-linecap:square;stroke-opacity:0.3;stroke-width:2.5;"/>
   </g>
   <g id="line2d_127">
    <path clip-path="url(#pc67e1b372b)" style="fill:none;stroke:#7f7f7f;stroke-linecap:square;stroke-opacity:0.3;stroke-width:2.5;"/>
   </g>
   <g id="line2d_128">
    <path clip-path="url(#pc67e1b372b)" style="fill:none;stroke:#7f7f7f;stroke-linecap:square;stroke-opacity:0.3;stroke-width:2.5;"/>
   </g>
   <g id="line2d_129">
    <path clip-path="url(#pc67e1b372b)" d="M 49.88 69.726516 
L 51.86006 69.58295 
L 53.84012 69.152252 
L 55.820181 68.421938 
L 57.800241 67.404492 
L 59.780301 66.081188 
L 61.760361 64.46451 
L 63.740421 62.5607 
L 65.72048 60.376 
L 67.700541 57.94162 
L 69.680601 55.282528 
L 71.660661 52.66713 
L 73.640721 55.157688 
L 75.620781 57.947862 
L 77.600841 60.90657 
L 79.580902 63.940182 
L 81.560962 66.967552 
L 83.541022 69.907534 
L 85.521082 72.722676 
L 87.501142 75.3568 
L 89.481203 77.784938 
L 91.461263 79.97588 
L 93.441322 81.917142 
L 95.421382 83.59624 
L 97.401442 85.006932 
L 99.381502 86.149218 
L 101.361563 87.02934 
L 103.341623 87.659782 
L 105.321683 88.034302 
L 107.301743 88.159142 
L 107.301743 88.159142 
L 108.44492 88.034302 
L 109.588097 87.666024 
L 110.731273 87.054308 
L 111.87445 86.199154 
L 113.017627 85.09432 
L 114.160804 83.739806 
L 115.303981 82.141854 
L 116.447157 80.306706 
L 117.590334 78.22812 
L 118.733511 75.91858 
L 119.876688 73.39057 
L 121.019865 70.650332 
L 122.163041 67.704108 
L 123.306218 64.570624 
L 124.449395 61.274848 
L 125.592572 57.823022 
L 126.735748 54.25884 
L 127.878925 50.613512 
L 129.022102 46.943216 
L 130.165279 43.310372 
L 131.308456 39.814852 
L 132.451632 36.569012 
L 133.594809 33.69145 
L 134.737986 31.294522 
L 135.881163 29.409438 
L 137.02434 28.029956 
L 138.167516 27.10614 
L 139.310693 26.581812 
L 140.45387 26.41952 
L 140.45387 26.41952 
L 142.740224 26.987542 
L 145.026578 28.429444 
L 147.31293 30.32077 
L 149.599285 32.299484 
L 151.885639 34.153358 
L 154.171993 35.770036 
L 156.458347 37.12455 
L 158.744699 38.241868 
L 161.031053 39.159442 
L 163.317407 39.939692 
L 165.603761 40.645038 
L 167.890115 41.381594 
L 170.176467 42.324136 
L 172.462821 43.747312 
L 174.749175 45.794688 
L 177.035529 48.247794 
L 179.321881 50.863192 
L 181.608235 53.459864 
L 183.894589 55.94418 
L 186.180943 58.247478 
L 188.467297 60.351032 
L 190.753649 62.2486 
L 193.040003 63.971392 
L 195.326357 65.52565 
L 197.612711 66.911374 
L 199.899065 68.08487 
L 202.185417 68.977476 
L 204.471771 69.539256 
L 206.758125 69.726516 
" style="fill:none;stroke:#7f7f7f;stroke-linecap:square;stroke-opacity:0.3;stroke-width:2.5;"/>
   </g>
   <g id="line2d_130">
    <path clip-path="url(#pc67e1b372b)" d="M 49.88 53.765722 
L 51.86006 53.60343 
L 53.84012 53.122796 
L 55.820181 52.367514 
L 57.800241 51.400004 
L 59.780301 50.332622 
L 61.760361 49.340144 
L 63.740421 48.653524 
L 65.72048 48.559894 
L 67.700541 49.221546 
L 69.680601 50.63848 
L 71.660661 52.454902 
L 73.640721 49.502436 
L 75.620781 46.500034 
L 77.600841 43.503874 
L 79.580902 40.601344 
L 81.560962 37.84238 
L 83.541022 35.28316 
L 85.521082 32.961136 
L 87.501142 30.901276 
L 89.481203 29.10358 
L 91.461263 27.568048 
L 93.441322 26.275954 
L 95.421382 25.214814 
L 97.401442 24.35966 
L 99.381502 23.691766 
L 101.361563 23.192406 
L 103.341623 22.849096 
L 105.321683 22.649352 
L 107.301743 22.58069 
L 107.301743 22.58069 
L 108.44492 22.599416 
L 109.588097 22.64311 
L 110.731273 22.724256 
L 111.87445 22.824128 
L 113.017627 22.948968 
L 114.160804 23.086292 
L 115.303981 23.223616 
L 116.447157 23.36094 
L 117.590334 23.479538 
L 118.733511 23.57941 
L 119.876688 23.635588 
L 121.019865 23.654314 
L 122.163041 23.61062 
L 123.306218 23.498264 
L 124.449395 23.304762 
L 125.592572 23.01763 
L 126.735748 22.6119 
L 127.878925 22.075088 
L 129.022102 21.382226 
L 130.165279 20.508346 
L 131.308456 19.409754 
L 132.451632 18.05524 
L 133.594809 16.419836 
L 134.737986 14.55972 
L 135.881163 12.605974 
L 137.02434 10.802036 
L 138.167516 9.41007 
L 139.310693 8.592368 
L 140.45387 8.342688 
L 140.45387 8.342688 
L 142.740224 9.00434 
L 145.026578 10.365096 
L 147.31293 11.975532 
L 149.599285 13.74826 
L 151.885639 15.65207 
L 154.171993 17.655752 
L 156.458347 19.753064 
L 158.744699 21.975216 
L 161.031053 24.372144 
L 163.317407 26.987542 
L 165.603761 29.734022 
L 167.890115 32.424324 
L 170.176467 34.7838 
L 172.462821 36.475382 
L 174.749175 37.386714 
L 177.035529 37.84238 
L 179.321881 38.422886 
L 181.608235 39.477784 
L 183.894589 40.851024 
L 186.180943 42.36783 
L 188.467297 43.984508 
L 190.753649 45.682332 
L 193.040003 47.411366 
L 195.326357 49.084222 
L 197.612711 50.613512 
L 199.899065 51.91809 
L 202.185417 52.91681 
L 204.471771 53.547252 
L 206.758125 53.765722 
" style="fill:none;stroke:#7f7f7f;stroke-linecap:square;stroke-opacity:0.3;stroke-width:2.5;"/>
   </g>
   <g id="line2d_131">
    <path clip-path="url(#pc67e1b372b)" d="M 49.88 29.278356 
L 51.86006 29.496826 
L 53.84012 30.096058 
L 55.820181 30.94497 
L 57.800241 31.85006 
L 59.780301 32.63031 
L 61.760361 33.092218 
L 63.740421 33.03604 
L 65.72048 32.249548 
L 67.700541 30.614144 
L 69.680601 28.123586 
L 71.660661 24.85902 
L 73.640721 20.889108 
L 75.620781 16.263786 
L 77.600841 11.026748 
L 79.580902 5.202962 
L 81.506221 -1 
M 150.262633 -1 
L 151.885639 2.119414 
L 154.171993 6.520024 
L 156.458347 10.739616 
L 158.744699 14.640866 
L 161.031053 18.105176 
L 163.317407 21.08261 
L 165.603761 23.64183 
L 167.890115 25.926402 
L 170.176467 28.04244 
L 172.462821 30.021154 
L 174.749175 31.81885 
L 177.035529 33.25451 
L 179.321881 33.984824 
L 181.608235 33.853742 
L 183.894589 33.25451 
L 186.180943 32.636552 
L 188.467297 32.31821 
L 190.753649 32.368146 
L 193.040003 32.542922 
L 195.326357 32.499228 
L 197.612711 32.056046 
L 199.899065 31.250828 
L 202.185417 30.314528 
L 204.471771 29.565488 
L 206.758125 29.278356 
" style="fill:none;stroke:#7f7f7f;stroke-linecap:square;stroke-opacity:0.3;stroke-width:2.5;"/>
   </g>
   <g id="line2d_132">
    <path clip-path="url(#pc67e1b372b)" d="M 49.88 29.278356 
L 51.86006 29.07237 
L 53.84012 28.454412 
L 55.820181 27.430724 
L 57.800241 25.995064 
L 59.780301 24.147432 
L 61.760361 21.887828 
L 63.740421 19.222494 
L 65.72048 16.145188 
L 67.700541 12.668394 
L 69.680601 8.792112 
L 71.660661 4.522584 
L 73.640721 -0.14019 
L 74.082772 -1 
M 169.336878 -1 
L 170.176467 -0.115222 
L 172.462821 1.969606 
L 174.749175 3.82348 
L 177.035529 5.583724 
L 179.321881 7.41263 
L 181.608235 9.47249 
L 183.894589 11.84445 
L 186.180943 14.416154 
L 188.467297 16.887986 
L 190.753649 19.128864 
L 193.040003 21.244902 
L 195.326357 23.32973 
L 197.612711 25.270992 
L 199.899065 26.937606 
L 202.185417 28.210974 
L 204.471771 29.003708 
L 206.758125 29.278356 
" style="fill:none;stroke:#7f7f7f;stroke-linecap:square;stroke-opacity:0.3;stroke-width:2.5;"/>
   </g>
   <g id="line2d_133">
    <path clip-path="url(#pc67e1b372b)" d="M 59.132376 -1 
L 59.780301 -0.246304 
L 61.760361 1.707442 
L 63.740421 3.149344 
L 65.72048 3.929594 
L 67.700541 3.935836 
L 69.680601 3.130618 
L 71.660661 1.51394 
L 73.640721 -0.876746 
L 73.697221 -1 
M 187.727425 -1 
L 188.467297 0.090764 
L 190.753649 1.844766 
L 193.040003 2.000816 
L 195.326357 0.814836 
L 197.287266 -1 
" style="fill:none;stroke:#7f7f7f;stroke-linecap:square;stroke-opacity:0.3;stroke-width:2.5;"/>
   </g>
   <g id="line2d_134">
    <path clip-path="url(#pc67e1b372b)" style="fill:none;stroke:#7f7f7f;stroke-linecap:square;stroke-opacity:0.3;stroke-width:2.5;"/>
   </g>
   <g id="line2d_135">
    <path clip-path="url(#pc67e1b372b)" style="fill:none;stroke:#7f7f7f;stroke-linecap:square;stroke-opacity:0.3;stroke-width:2.5;"/>
   </g>
   <g id="line2d_136">
    <path clip-path="url(#pc67e1b372b)" style="fill:none;stroke:#7f7f7f;stroke-linecap:square;stroke-opacity:0.3;stroke-width:2.5;"/>
   </g>
   <g id="line2d_137">
    <path clip-path="url(#pc67e1b372b)" style="fill:none;stroke:#7f7f7f;stroke-linecap:square;stroke-opacity:0.3;stroke-width:2.5;"/>
   </g>
   <g id="line2d_138">
    <path clip-path="url(#pc67e1b372b)" style="fill:none;stroke:#7f7f7f;stroke-linecap:square;stroke-opacity:0.3;stroke-width:2.5;"/>
   </g>
   <g id="line2d_139">
    <path clip-path="url(#pc67e1b372b)" style="fill:none;stroke:#7f7f7f;stroke-linecap:square;stroke-opacity:0.3;stroke-width:2.5;"/>
   </g>
   <g id="line2d_140">
    <path clip-path="url(#pc67e1b372b)" style="fill:none;stroke:#7f7f7f;stroke-linecap:square;stroke-opacity:0.3;stroke-width:2.5;"/>
   </g>
   <g id="line2d_141">
    <path clip-path="url(#pc67e1b372b)" style="fill:none;stroke:#7f7f7f;stroke-linecap:square;stroke-opacity:0.3;stroke-width:2.5;"/>
   </g>
   <g id="line2d_142">
    <path clip-path="url(#pc67e1b372b)" style="fill:none;stroke:#7f7f7f;stroke-linecap:square;stroke-opacity:0.3;stroke-width:2.5;"/>
   </g>
   <g id="line2d_143">
    <path clip-path="url(#pc67e1b372b)" style="fill:none;stroke:#7f7f7f;stroke-linecap:square;stroke-opacity:0.3;stroke-width:2.5;"/>
   </g>
   <g id="line2d_144">
    <path clip-path="url(#pc67e1b372b)" style="fill:none;stroke:#7f7f7f;stroke-linecap:square;stroke-opacity:0.3;stroke-width:2.5;"/>
   </g>
   <g id="line2d_145">
    <path clip-path="url(#pc67e1b372b)" style="fill:none;stroke:#7f7f7f;stroke-linecap:square;stroke-opacity:0.3;stroke-width:2.5;"/>
   </g>
   <g id="line2d_146">
    <path clip-path="url(#pc67e1b372b)" style="fill:none;stroke:#7f7f7f;stroke-linecap:square;stroke-opacity:0.3;stroke-width:2.5;"/>
   </g>
   <g id="line2d_147">
    <path clip-path="url(#pc67e1b372b)" style="fill:none;stroke:#7f7f7f;stroke-linecap:square;stroke-opacity:0.3;stroke-width:2.5;"/>
   </g>
   <g id="line2d_148">
    <path clip-path="url(#pc67e1b372b)" style="fill:none;stroke:#7f7f7f;stroke-linecap:square;stroke-opacity:0.3;stroke-width:2.5;"/>
   </g>
   <g id="line2d_149">
    <path clip-path="url(#pc67e1b372b)" style="fill:none;stroke:#7f7f7f;stroke-linecap:square;stroke-opacity:0.3;stroke-width:2.5;"/>
   </g>
   <g id="line2d_150">
    <path clip-path="url(#pc67e1b372b)" style="fill:none;stroke:#7f7f7f;stroke-linecap:square;stroke-opacity:0.3;stroke-width:2.5;"/>
   </g>
   <g id="line2d_151">
    <path clip-path="url(#pc67e1b372b)" style="fill:none;stroke:#7f7f7f;stroke-linecap:square;stroke-opacity:0.3;stroke-width:2.5;"/>
   </g>
   <g id="line2d_152">
    <path clip-path="url(#pc67e1b372b)" style="fill:none;stroke:#7f7f7f;stroke-linecap:square;stroke-opacity:0.3;stroke-width:2.5;"/>
   </g>
   <g id="line2d_153">
    <path clip-path="url(#pc67e1b372b)" style="fill:none;stroke:#7f7f7f;stroke-linecap:square;stroke-opacity:0.3;stroke-width:2.5;"/>
   </g>
   <g id="line2d_154">
    <path clip-path="url(#pc67e1b372b)" style="fill:none;stroke:#7f7f7f;stroke-linecap:square;stroke-opacity:0.3;stroke-width:2.5;"/>
   </g>
   <g id="line2d_155">
    <path clip-path="url(#pc67e1b372b)" style="fill:none;stroke:#7f7f7f;stroke-linecap:square;stroke-opacity:0.3;stroke-width:2.5;"/>
   </g>
   <g id="line2d_156">
    <path clip-path="url(#pc67e1b372b)" style="fill:none;stroke:#7f7f7f;stroke-linecap:square;stroke-opacity:0.3;stroke-width:2.5;"/>
   </g>
   <g id="line2d_157">
    <path clip-path="url(#pc67e1b372b)" style="fill:none;stroke:#7f7f7f;stroke-linecap:square;stroke-opacity:0.3;stroke-width:2.5;"/>
   </g>
   <g id="line2d_158">
    <path clip-path="url(#pc67e1b372b)" style="fill:none;stroke:#7f7f7f;stroke-linecap:square;stroke-opacity:0.3;stroke-width:2.5;"/>
   </g>
   <g id="line2d_159">
    <path clip-path="url(#pc67e1b372b)" style="fill:none;stroke:#7f7f7f;stroke-linecap:square;stroke-opacity:0.3;stroke-width:2.5;"/>
   </g>
   <g id="line2d_160">
    <path clip-path="url(#pc67e1b372b)" style="fill:none;stroke:#7f7f7f;stroke-linecap:square;stroke-opacity:0.3;stroke-width:2.5;"/>
   </g>
   <g id="line2d_161">
    <path clip-path="url(#pc67e1b372b)" style="fill:none;stroke:#7f7f7f;stroke-linecap:square;stroke-opacity:0.3;stroke-width:2.5;"/>
   </g>
   <g id="line2d_162">
    <path clip-path="url(#pc67e1b372b)" style="fill:none;stroke:#7f7f7f;stroke-linecap:square;stroke-opacity:0.3;stroke-width:2.5;"/>
   </g>
   <g id="line2d_163">
    <path clip-path="url(#pc67e1b372b)" style="fill:none;stroke:#7f7f7f;stroke-linecap:square;stroke-opacity:0.3;stroke-width:2.5;"/>
   </g>
   <g id="line2d_164">
    <path clip-path="url(#pc67e1b372b)" style="fill:none;stroke:#7f7f7f;stroke-linecap:square;stroke-opacity:0.3;stroke-width:2.5;"/>
   </g>
   <g id="line2d_165">
    <path clip-path="url(#pc67e1b372b)" style="fill:none;stroke:#7f7f7f;stroke-linecap:square;stroke-opacity:0.3;stroke-width:2.5;"/>
   </g>
   <g id="line2d_166">
    <path clip-path="url(#pc67e1b372b)" style="fill:none;stroke:#7f7f7f;stroke-linecap:square;stroke-opacity:0.3;stroke-width:2.5;"/>
   </g>
   <g id="line2d_167">
    <path clip-path="url(#pc67e1b372b)" style="fill:none;stroke:#7f7f7f;stroke-linecap:square;stroke-opacity:0.3;stroke-width:2.5;"/>
   </g>
   <g id="line2d_168">
    <path clip-path="url(#pc67e1b372b)" style="fill:none;stroke:#7f7f7f;stroke-linecap:square;stroke-opacity:0.3;stroke-width:2.5;"/>
   </g>
   <g id="line2d_169">
    <path clip-path="url(#pc67e1b372b)" style="fill:none;stroke:#7f7f7f;stroke-linecap:square;stroke-opacity:0.3;stroke-width:2.5;"/>
   </g>
   <g id="line2d_170">
    <path clip-path="url(#pc67e1b372b)" style="fill:none;stroke:#7f7f7f;stroke-linecap:square;stroke-opacity:0.3;stroke-width:2.5;"/>
   </g>
   <g id="line2d_171">
    <path clip-path="url(#pc67e1b372b)" style="fill:none;stroke:#7f7f7f;stroke-linecap:square;stroke-opacity:0.3;stroke-width:2.5;"/>
   </g>
   <g id="line2d_172">
    <path clip-path="url(#pc67e1b372b)" style="fill:none;stroke:#7f7f7f;stroke-linecap:square;stroke-opacity:0.3;stroke-width:2.5;"/>
   </g>
   <g id="line2d_173">
    <path clip-path="url(#pc67e1b372b)" style="fill:none;stroke:#7f7f7f;stroke-linecap:square;stroke-opacity:0.3;stroke-width:2.5;"/>
   </g>
   <g id="line2d_174">
    <path clip-path="url(#pc67e1b372b)" style="fill:none;stroke:#7f7f7f;stroke-linecap:square;stroke-opacity:0.3;stroke-width:2.5;"/>
   </g>
   <g id="line2d_175">
    <path clip-path="url(#pc67e1b372b)" style="fill:none;stroke:#7f7f7f;stroke-linecap:square;stroke-opacity:0.3;stroke-width:2.5;"/>
   </g>
   <g id="line2d_176">
    <path clip-path="url(#pc67e1b372b)" style="fill:none;stroke:#7f7f7f;stroke-linecap:square;stroke-opacity:0.3;stroke-width:2.5;"/>
   </g>
   <g id="line2d_177">
    <path clip-path="url(#pc67e1b372b)" style="fill:none;stroke:#7f7f7f;stroke-linecap:square;stroke-opacity:0.3;stroke-width:2.5;"/>
   </g>
   <g id="line2d_178">
    <path clip-path="url(#pc67e1b372b)" style="fill:none;stroke:#7f7f7f;stroke-linecap:square;stroke-opacity:0.3;stroke-width:2.5;"/>
   </g>
   <g id="line2d_179">
    <path clip-path="url(#pc67e1b372b)" style="fill:none;stroke:#7f7f7f;stroke-linecap:square;stroke-opacity:0.3;stroke-width:2.5;"/>
   </g>
   <g id="line2d_180">
    <path clip-path="url(#pc67e1b372b)" style="fill:none;stroke:#7f7f7f;stroke-linecap:square;stroke-opacity:0.3;stroke-width:2.5;"/>
   </g>
   <g id="line2d_181">
    <path clip-path="url(#pc67e1b372b)" style="fill:none;stroke:#7f7f7f;stroke-linecap:square;stroke-opacity:0.3;stroke-width:2.5;"/>
   </g>
   <g id="line2d_182">
    <path clip-path="url(#pc67e1b372b)" style="fill:none;stroke:#7f7f7f;stroke-linecap:square;stroke-opacity:0.3;stroke-width:2.5;"/>
   </g>
   <g id="line2d_183">
    <path clip-path="url(#pc67e1b372b)" style="fill:none;stroke:#7f7f7f;stroke-linecap:square;stroke-opacity:0.3;stroke-width:2.5;"/>
   </g>
   <g id="line2d_184">
    <path clip-path="url(#pc67e1b372b)" style="fill:none;stroke:#7f7f7f;stroke-linecap:square;stroke-opacity:0.3;stroke-width:2.5;"/>
   </g>
   <g id="line2d_185">
    <path clip-path="url(#pc67e1b372b)" style="fill:none;stroke:#7f7f7f;stroke-linecap:square;stroke-opacity:0.3;stroke-width:2.5;"/>
   </g>
   <g id="line2d_186">
    <path clip-path="url(#pc67e1b372b)" style="fill:none;stroke:#7f7f7f;stroke-linecap:square;stroke-opacity:0.3;stroke-width:2.5;"/>
   </g>
   <g id="line2d_187">
    <path clip-path="url(#pc67e1b372b)" style="fill:none;stroke:#7f7f7f;stroke-linecap:square;stroke-opacity:0.3;stroke-width:2.5;"/>
   </g>
   <g id="line2d_188">
    <path clip-path="url(#pc67e1b372b)" style="fill:none;stroke:#7f7f7f;stroke-linecap:square;stroke-opacity:0.3;stroke-width:2.5;"/>
   </g>
   <g id="line2d_189">
    <path clip-path="url(#pc67e1b372b)" style="fill:none;stroke:#7f7f7f;stroke-linecap:square;stroke-opacity:0.3;stroke-width:2.5;"/>
   </g>
   <g id="line2d_190">
    <path clip-path="url(#pc67e1b372b)" style="fill:none;stroke:#7f7f7f;stroke-linecap:square;stroke-opacity:0.3;stroke-width:2.5;"/>
   </g>
   <g id="line2d_191">
    <path clip-path="url(#pc67e1b372b)" style="fill:none;stroke:#7f7f7f;stroke-linecap:square;stroke-opacity:0.3;stroke-width:2.5;"/>
   </g>
   <g id="line2d_192">
    <path clip-path="url(#pc67e1b372b)" style="fill:none;stroke:#7f7f7f;stroke-linecap:square;stroke-opacity:0.3;stroke-width:2.5;"/>
   </g>
   <g id="line2d_193">
    <path clip-path="url(#pc67e1b372b)" style="fill:none;stroke:#7f7f7f;stroke-linecap:square;stroke-opacity:0.3;stroke-width:2.5;"/>
   </g>
   <g id="line2d_194">
    <path clip-path="url(#pc67e1b372b)" style="fill:none;stroke:#7f7f7f;stroke-linecap:square;stroke-opacity:0.3;stroke-width:2.5;"/>
   </g>
   <g id="line2d_195">
    <path clip-path="url(#pc67e1b372b)" style="fill:none;stroke:#7f7f7f;stroke-linecap:square;stroke-opacity:0.3;stroke-width:2.5;"/>
   </g>
   <g id="line2d_196">
    <path clip-path="url(#pc67e1b372b)" style="fill:none;stroke:#7f7f7f;stroke-linecap:square;stroke-opacity:0.3;stroke-width:2.5;"/>
   </g>
   <g id="line2d_197">
    <path clip-path="url(#pc67e1b372b)" style="fill:none;stroke:#7f7f7f;stroke-linecap:square;stroke-opacity:0.3;stroke-width:2.5;"/>
   </g>
   <g id="line2d_198">
    <path clip-path="url(#pc67e1b372b)" style="fill:none;stroke:#7f7f7f;stroke-linecap:square;stroke-opacity:0.3;stroke-width:2.5;"/>
   </g>
   <g id="line2d_199">
    <path clip-path="url(#pc67e1b372b)" style="fill:none;stroke:#7f7f7f;stroke-linecap:square;stroke-opacity:0.3;stroke-width:2.5;"/>
   </g>
   <g id="line2d_200">
    <path clip-path="url(#pc67e1b372b)" style="fill:none;stroke:#7f7f7f;stroke-linecap:square;stroke-opacity:0.3;stroke-width:2.5;"/>
   </g>
   <g id="line2d_201">
    <path clip-path="url(#pc67e1b372b)" style="fill:none;stroke:#7f7f7f;stroke-linecap:square;stroke-opacity:0.3;stroke-width:2.5;"/>
   </g>
   <g id="line2d_202">
    <path clip-path="url(#pc67e1b372b)" style="fill:none;stroke:#7f7f7f;stroke-linecap:square;stroke-opacity:0.3;stroke-width:2.5;"/>
   </g>
   <g id="line2d_203">
    <path clip-path="url(#pc67e1b372b)" style="fill:none;stroke:#7f7f7f;stroke-linecap:square;stroke-opacity:0.3;stroke-width:2.5;"/>
   </g>
   <g id="line2d_204">
    <path clip-path="url(#pc67e1b372b)" style="fill:none;stroke:#7f7f7f;stroke-linecap:square;stroke-opacity:0.3;stroke-width:2.5;"/>
   </g>
   <g id="line2d_205">
    <path clip-path="url(#pc67e1b372b)" style="fill:none;stroke:#7f7f7f;stroke-linecap:square;stroke-opacity:0.3;stroke-width:2.5;"/>
   </g>
   <g id="line2d_206">
    <path clip-path="url(#pc67e1b372b)" d="M 49.88 260.12 
L 49.88 10.44 
" style="fill:none;stroke:#ffffff;stroke-linecap:square;stroke-opacity:0.5;stroke-width:0.5;"/>
   </g>
   <g id="line2d_207">
    <path clip-path="url(#pc67e1b372b)" d="M 107.301743 260.12 
L 107.301743 10.44 
" style="fill:none;stroke:#ffffff;stroke-linecap:square;stroke-opacity:0.5;stroke-width:0.5;"/>
   </g>
   <g id="line2d_208">
    <path clip-path="url(#pc67e1b372b)" d="M 140.45387 260.12 
L 140.45387 10.44 
" style="fill:none;stroke:#ffffff;stroke-linecap:square;stroke-opacity:0.5;stroke-width:0.5;"/>
   </g>
   <g id="line2d_209">
    <path clip-path="url(#pc67e1b372b)" d="M 206.758125 260.12 
L 206.758125 10.44 
" style="fill:none;stroke:#ffffff;stroke-linecap:square;stroke-opacity:0.5;stroke-width:0.5;"/>
   </g>
   <g id="line2d_210">
    <path clip-path="url(#pc67e1b372b)" d="M 49.88 135.28 
L 206.758125 135.28 
" style="fill:none;stroke:#ffffff;stroke-linecap:square;stroke-opacity:0.5;stroke-width:0.5;"/>
   </g>
   <g id="patch_3">
    <path d="M 49.88 260.12 
L 49.88 10.44 
" style="fill:none;stroke:#ffffff;stroke-linecap:square;stroke-linejoin:miter;stroke-width:0.8;"/>
   </g>
   <g id="patch_4">
    <path d="M 206.758125 260.12 
L 206.758125 10.44 
" style="fill:none;stroke:#ffffff;stroke-linecap:square;stroke-linejoin:miter;stroke-width:0.8;"/>
   </g>
   <g id="patch_5">
    <path d="M 49.88 260.12 
L 206.758125 260.12 
" style="fill:none;stroke:#ffffff;stroke-linecap:square;stroke-linejoin:miter;stroke-width:0.8;"/>
   </g>
   <g id="patch_6">
    <path d="M 49.88 10.44 
L 206.758125 10.44 
" style="fill:none;stroke:#ffffff;stroke-linecap:square;stroke-linejoin:miter;stroke-width:0.8;"/>
   </g>
  </g>
 </g>
 <defs>
  <clipPath id="pc67e1b372b">
   <rect height="249.68" width="156.878125" x="49.88" y="10.44"/>
  </clipPath>
 </defs>
</svg>
