<?xml version="1.0" encoding="utf-8" standalone="no"?>
<!DOCTYPE svg PUBLIC "-//W3C//DTD SVG 1.1//EN"
  "http://www.w3.org/Graphics/SVG/1.1/DTD/svg11.dtd">
<!-- Created with matplotlib (http://matplotlib.org/) -->
<svg height="288pt" version="1.1" viewBox="0 0 216 288" width="216pt" xmlns="http://www.w3.org/2000/svg" xmlns:xlink="http://www.w3.org/1999/xlink">
 <defs>
  <style type="text/css">
*{stroke-linecap:butt;stroke-linejoin:round;}
  </style>
 </defs>
 <g id="figure_1">
  <g id="patch_1">
   <path d="M 0 288 
L 216 288 
L 216 0 
L 0 0 
z
"/>
  </g>
  <g id="axes_1">
   <g id="patch_2">
    <path d="M 49.88 260.12 
L 206.758125 260.12 
L 206.758125 10.44 
L 49.88 10.44 
z
"/>
   </g>
   <g id="line2d_1">
    <path clip-path="url(#p4117d50f22)" style="fill:none;stroke:#1f77b4;stroke-linecap:square;stroke-width:2.5;"/>
   </g>
   <g id="line2d_2">
    <path clip-path="url(#p4117d50f22)" style="fill:none;stroke:#1f77b4;stroke-linecap:square;stroke-width:2.5;"/>
   </g>
   <g id="line2d_3">
    <path clip-path="url(#p4117d50f22)" style="fill:none;stroke:#1f77b4;stroke-linecap:square;stroke-width:2.5;"/>
   </g>
   <g id="line2d_4">
    <path clip-path="url(#p4117d50f22)" style="fill:none;stroke:#1f77b4;stroke-linecap:square;stroke-width:2.5;"/>
   </g>
   <g id="line2d_5">
    <path clip-path="url(#p4117d50f22)" style="fill:none;stroke:#1f77b4;stroke-linecap:square;stroke-width:2.5;"/>
   </g>
   <g id="line2d_6">
    <path clip-path="url(#p4117d50f22)" style="fill:none;stroke:#1f77b4;stroke-linecap:square;stroke-width:2.5;"/>
   </g>
   <g id="line2d_7">
    <path clip-path="url(#p4117d50f22)" style="fill:none;stroke:#1f77b4;stroke-linecap:square;stroke-width:2.5;"/>
   </g>
   <g id="line2d_8">
    <path clip-path="url(#p4117d50f22)" style="fill:none;stroke:#1f77b4;stroke-linecap:square;stroke-width:2.5;"/>
   </g>
   <g id="line2d_9">
    <path clip-path="url(#p4117d50f22)" style="fill:none;stroke:#1f77b4;stroke-linecap:square;stroke-width:2.5;"/>
   </g>
   <g id="line2d_10">
    <path clip-path="url(#p4117d50f22)" style="fill:none;stroke:#1f77b4;stroke-linecap:square;stroke-width:2.5;"/>
   </g>
   <g id="line2d_11">
    <path clip-path="url(#p4117d50f22)" style="fill:none;stroke:#1f77b4;stroke-linecap:square;stroke-width:2.5;"/>
   </g>
   <g id="line2d_12">
    <path clip-path="url(#p4117d50f22)" style="fill:none;stroke:#1f77b4;stroke-linecap:square;stroke-width:2.5;"/>
   </g>
   <g id="line2d_13">
    <path clip-path="url(#p4117d50f22)" style="fill:none;stroke:#1f77b4;stroke-linecap:square;stroke-width:2.5;"/>
   </g>
   <g id="line2d_14">
    <path clip-path="url(#p4117d50f22)" style="fill:none;stroke:#1f77b4;stroke-linecap:square;stroke-width:2.5;"/>
   </g>
   <g id="line2d_15">
    <path clip-path="url(#p4117d50f22)" style="fill:none;stroke:#1f77b4;stroke-linecap:square;stroke-width:2.5;"/>
   </g>
   <g id="line2d_16">
    <path clip-path="url(#p4117d50f22)" style="fill:none;stroke:#1f77b4;stroke-linecap:square;stroke-width:2.5;"/>
   </g>
   <g id="line2d_17">
    <path clip-path="url(#p4117d50f22)" d="M 49.88 208.854454 
L 51.86006 208.611016 
L 53.84012 207.893186 
L 55.820181 206.763384 
L 57.800241 205.277788 
L 59.780301 203.517544 
L 61.760361 201.576282 
L 63.740421 199.528906 
L 65.72048 197.425352 
L 67.700541 195.321798 
L 69.680601 193.243212 
L 71.660661 191.20832 
L 73.640721 189.235848 
L 75.620781 187.325796 
L 77.600841 185.490648 
L 79.580902 183.767856 
L 81.560962 182.18863 
L 83.541022 180.834116 
L 85.521082 179.791702 
L 87.501142 179.123808 
L 89.481203 178.886612 
L 91.461263 179.030178 
L 93.441322 179.479602 
L 95.421382 180.110044 
L 97.401442 180.821632 
L 99.381502 181.508252 
L 101.361563 182.107484 
L 103.341623 182.569392 
L 105.321683 182.856524 
L 107.301743 182.956396 
L 107.301743 182.956396 
L 108.44492 182.90646 
L 109.588097 182.756652 
L 110.731273 182.506972 
L 111.87445 182.163662 
L 113.017627 181.72048 
L 114.160804 181.18991 
L 115.303981 180.56571 
L 116.447157 179.854122 
L 117.590334 179.06763 
L 118.733511 178.206234 
L 119.876688 177.282418 
L 121.019865 176.302424 
L 122.163041 175.284978 
L 123.306218 174.23008 
L 124.449395 173.16894 
L 125.592572 172.1078 
L 126.735748 171.065386 
L 127.878925 170.066666 
L 129.022102 169.117882 
L 130.165279 168.250244 
L 131.308456 167.463752 
L 132.451632 166.783374 
L 133.594809 166.202868 
L 134.737986 165.728476 
L 135.881163 165.360198 
L 137.02434 165.091792 
L 138.167516 164.917016 
L 139.310693 164.817144 
L 140.45387 164.785934 
L 140.45387 164.785934 
L 142.740224 164.885806 
L 145.026578 165.123002 
L 147.31293 165.435102 
L 149.599285 165.778412 
L 151.885639 166.140448 
L 154.171993 166.539936 
L 156.458347 167.014328 
L 158.744699 167.638528 
L 161.031053 168.493682 
L 163.317407 169.660936 
L 165.603761 171.159016 
L 167.890115 172.975438 
L 170.176467 175.047782 
L 172.462821 177.313628 
L 174.749175 179.69183 
L 177.035529 182.132452 
L 179.321881 184.604284 
L 181.608235 187.094842 
L 183.894589 189.591642 
L 186.180943 192.100926 
L 188.467297 194.622694 
L 190.753649 197.144462 
L 193.040003 199.628778 
L 195.326357 202.013222 
L 197.612711 204.210406 
L 199.899065 206.107974 
L 202.185417 207.587328 
L 204.471771 208.52987 
L 206.758125 208.854454 
" style="fill:none;stroke:#1f77b4;stroke-linecap:square;stroke-width:2.5;"/>
   </g>
   <g id="line2d_18">
    <path clip-path="url(#p4117d50f22)" d="M 49.88 163.43142 
L 51.86006 163.33779 
L 53.84012 163.063142 
L 55.820181 162.632444 
L 57.800241 162.070664 
L 59.780301 161.421496 
L 61.760361 160.722392 
L 63.740421 160.004562 
L 65.72048 159.292974 
L 67.700541 158.612596 
L 69.680601 157.963428 
L 71.660661 157.351712 
L 73.640721 156.789932 
L 75.620781 156.28433 
L 77.600841 155.834906 
L 79.580902 155.447902 
L 81.560962 155.09835 
L 83.541022 154.742556 
L 85.521082 154.274406 
L 87.501142 153.581544 
L 89.481203 152.551614 
L 91.461263 151.16589 
L 93.441322 149.455582 
L 95.421382 147.508078 
L 97.401442 145.435734 
L 99.381502 143.325938 
L 101.361563 141.278562 
L 103.341623 139.380994 
L 105.321683 137.770558 
L 107.301743 136.946614 
L 107.301743 136.946614 
L 108.44492 136.915404 
L 109.588097 136.8405 
L 110.731273 136.703176 
L 111.87445 136.5284 
L 113.017627 136.303688 
L 114.160804 136.041524 
L 115.303981 135.74815 
L 116.447157 135.43605 
L 117.590334 135.604584 
L 118.733511 135.804328 
L 119.876688 136.004072 
L 121.019865 136.197574 
L 122.163041 136.37235 
L 123.306218 136.534642 
L 124.449395 136.665724 
L 125.592572 136.759354 
L 126.735748 136.80929 
L 127.878925 136.80929 
L 129.022102 136.74687 
L 130.165279 136.628272 
L 131.308456 136.447254 
L 132.451632 136.203816 
L 133.594809 135.910442 
L 134.737986 135.573374 
L 135.881163 135.211338 
L 137.02434 134.836818 
L 138.167516 134.46854 
L 139.310693 134.118988 
L 140.45387 133.825614 
L 140.45387 133.825614 
L 142.740224 134.443572 
L 145.026578 135.198854 
L 147.31293 136.097702 
L 149.599285 137.140116 
L 151.885639 138.319854 
L 154.171993 139.643158 
L 156.458347 141.078818 
L 158.744699 142.601866 
L 161.031053 144.181092 
L 163.317407 145.772802 
L 165.603761 147.333302 
L 167.890115 148.837624 
L 170.176467 150.254558 
L 172.462821 151.565378 
L 174.749175 152.770084 
L 177.035529 153.868676 
L 179.321881 154.873638 
L 181.608235 155.797454 
L 183.894589 156.665092 
L 186.180943 157.507762 
L 188.467297 158.337948 
L 190.753649 159.180618 
L 193.040003 160.02953 
L 195.326357 160.8722 
L 197.612711 161.677418 
L 199.899065 162.382764 
L 202.185417 162.944544 
L 204.471771 163.30658 
L 206.758125 163.43142 
" style="fill:none;stroke:#1f77b4;stroke-linecap:square;stroke-width:2.5;"/>
   </g>
   <g id="line2d_19">
    <path clip-path="url(#p4117d50f22)" d="M 49.88 63.628082 
L 51.86006 64.196104 
L 53.84012 65.850234 
L 55.820181 68.4906 
L 57.800241 71.961152 
L 59.780301 76.087114 
L 61.760361 80.687468 
L 63.740421 85.599922 
L 65.72048 90.668426 
L 67.700541 95.76814 
L 69.680601 100.786708 
L 71.660661 105.636742 
L 73.640721 110.205886 
L 75.620781 114.425478 
L 77.600841 118.201888 
L 79.580902 121.460212 
L 81.560962 124.150514 
L 83.541022 126.247826 
L 85.521082 127.7896 
L 87.501142 128.85074 
L 89.481203 129.549844 
L 91.461263 130.00551 
L 93.441322 130.342578 
L 95.421382 130.667162 
L 97.401442 131.047924 
L 99.381502 131.547284 
L 101.361563 132.208936 
L 103.341623 133.039122 
L 105.321683 133.981664 
L 107.301743 134.580896 
L 107.301743 134.580896 
L 108.44492 134.59338 
L 109.588097 134.637074 
L 110.731273 134.705736 
L 111.87445 134.805608 
L 113.017627 134.924206 
L 114.160804 135.074014 
L 115.303981 135.236306 
L 116.447157 135.411082 
L 117.590334 135.105224 
L 118.733511 134.768156 
L 119.876688 134.431088 
L 121.019865 134.100262 
L 122.163041 133.794404 
L 123.306218 133.507272 
L 124.449395 133.257592 
L 125.592572 133.039122 
L 126.735748 132.858104 
L 127.878925 132.72078 
L 129.022102 132.62715 
L 130.165279 132.570972 
L 131.308456 132.56473 
L 132.451632 132.59594 
L 133.594809 132.664602 
L 134.737986 132.770716 
L 135.881163 132.914282 
L 137.02434 133.089058 
L 138.167516 133.295044 
L 139.310693 133.538482 
L 140.45387 133.794404 
L 140.45387 133.794404 
L 142.740224 133.357464 
L 145.026578 133.195172 
L 147.31293 133.34498 
L 149.599285 133.800646 
L 151.885639 134.49975 
L 154.171993 135.34242 
L 156.458347 136.191332 
L 158.744699 136.877952 
L 161.031053 137.227504 
L 163.317407 137.077696 
L 165.603761 136.303688 
L 167.890115 134.849302 
L 170.176467 132.714538 
L 172.462821 129.924364 
L 174.749175 126.522474 
L 177.035529 122.565046 
L 179.321881 118.108258 
L 181.608235 113.202046 
L 183.894589 107.921314 
L 186.180943 102.340966 
L 188.467297 96.560874 
L 190.753649 90.705878 
L 193.040003 84.919544 
L 195.326357 79.389132 
L 197.612711 74.314386 
L 199.899065 69.951228 
L 202.185417 66.549338 
L 204.471771 64.377122 
L 206.758125 63.628082 
" style="fill:none;stroke:#1f77b4;stroke-linecap:square;stroke-width:2.5;"/>
   </g>
   <g id="matplotlib.axis_1">
    <g id="xtick_1">
     <g id="line2d_20">
      <defs>
       <path d="M 0 0 
L 0 3.5 
" id="m7f13cf9798" style="stroke:#ffffff;stroke-width:0.8;"/>
      </defs>
      <g>
       <use style="fill:#ffffff;stroke:#ffffff;stroke-width:0.8;" x="49.88" xlink:href="#m7f13cf9798" y="260.12"/>
      </g>
     </g>
     <g id="text_1">
      <!-- $\mathrm{\mathsf{\Gamma}}$ -->
      <defs>
       <path d="M 12.203125 0 
L 12.203125 72.90625 
L 55.171875 72.90625 
L 55.171875 68.84375 
L 17.09375 68.84375 
L 17.09375 0 
z
" id="DejaVuSans-ExtraLight-393"/>
      </defs>
      <g style="fill:#ffffff;" transform="translate(44.84 280.797188)scale(0.18 -0.18)">
       <use transform="translate(0 0.09375)" xlink:href="#DejaVuSans-ExtraLight-393"/>
      </g>
     </g>
    </g>
    <g id="xtick_2">
     <g id="line2d_21">
      <g>
       <use style="fill:#ffffff;stroke:#ffffff;stroke-width:0.8;" x="107.301743" xlink:href="#m7f13cf9798" y="260.12"/>
      </g>
     </g>
     <g id="text_2">
      <!-- $\mathrm{\mathsf{M}}$ -->
      <defs>
       <path d="M 16.0625 72.90625 
L 22.859375 72.90625 
L 43.109375 18.84375 
L 63.484375 72.90625 
L 70.21875 72.90625 
L 70.21875 0 
L 65.234375 0 
L 65.234375 64.015625 
L 46.484375 14.015625 
L 39.75 14.015625 
L 21.046875 64.015625 
L 21.046875 0 
L 16.0625 0 
z
" id="DejaVuSans-ExtraLight-4d"/>
      </defs>
      <g style="fill:#ffffff;" transform="translate(99.471743 280.797188)scale(0.18 -0.18)">
       <use transform="translate(0 0.09375)" xlink:href="#DejaVuSans-ExtraLight-4d"/>
      </g>
     </g>
    </g>
    <g id="xtick_3">
     <g id="line2d_22">
      <g>
       <use style="fill:#ffffff;stroke:#ffffff;stroke-width:0.8;" x="140.45387" xlink:href="#m7f13cf9798" y="260.12"/>
      </g>
     </g>
     <g id="text_3">
      <!-- $\mathrm{\mathsf{K}}$ -->
      <defs>
       <path d="M 17.28125 72.90625 
L 22.125 72.90625 
L 22.125 41.5 
L 55.515625 72.90625 
L 62.015625 72.90625 
L 25.78125 38.765625 
L 64.40625 0 
L 58.015625 0 
L 22.125 35.984375 
L 22.125 0 
L 17.28125 0 
z
" id="DejaVuSans-ExtraLight-4b"/>
      </defs>
      <g style="fill:#ffffff;" transform="translate(134.51387 280.797188)scale(0.18 -0.18)">
       <use transform="translate(0 0.09375)" xlink:href="#DejaVuSans-ExtraLight-4b"/>
      </g>
     </g>
    </g>
    <g id="xtick_4">
     <g id="line2d_23">
      <g>
       <use style="fill:#ffffff;stroke:#ffffff;stroke-width:0.8;" x="206.758125" xlink:href="#m7f13cf9798" y="260.12"/>
      </g>
     </g>
     <g id="text_4">
      <!-- $\mathrm{\mathsf{\Gamma}}$ -->
      <g style="fill:#ffffff;" transform="translate(201.718125 280.797188)scale(0.18 -0.18)">
       <use transform="translate(0 0.09375)" xlink:href="#DejaVuSans-ExtraLight-393"/>
      </g>
     </g>
    </g>
   </g>
   <g id="matplotlib.axis_2">
    <g id="ytick_1">
     <g id="line2d_24">
      <defs>
       <path d="M 0 0 
L -3.5 0 
" id="mf494d9aee2" style="stroke:#ffffff;stroke-width:0.8;"/>
      </defs>
      <g>
       <use style="fill:#ffffff;stroke:#ffffff;stroke-width:0.8;" x="49.88" xlink:href="#mf494d9aee2" y="260.12"/>
      </g>
     </g>
     <g id="text_5">
      <!-- -2 -->
      <defs>
       <path d="M 4.890625 29.390625 
L 31.203125 29.390625 
L 31.203125 25.390625 
L 4.890625 25.390625 
z
" id="DejaVuSans-ExtraLight-2d"/>
       <path d="M 12.015625 3.953125 
L 53.609375 3.953125 
L 53.609375 0 
L 6.9375 0 
L 6.9375 5.125 
L 25.09375 24.03125 
Q 31.84375 30.859375 37.3125 36.671875 
Q 42.390625 42.09375 44.09375 45.0625 
Q 45.796875 48.046875 45.796875 52.9375 
Q 45.796875 61.375 40.625 66.5 
Q 36.859375 70.21875 28.515625 70.21875 
Q 23.640625 70.21875 17.28125 67.390625 
Q 14.5 66.109375 7.8125 61.765625 
L 7.8125 66.9375 
Q 10.640625 68.953125 16.109375 71.390625 
Q 22.3125 74.171875 28.421875 74.21875 
Q 37.84375 74.21875 44.1875 69.390625 
Q 50.390625 64.546875 50.390625 53.421875 
Q 50.390625 48.921875 48.734375 44.921875 
Q 46.78125 40.234375 42.578125 35.40625 
Q 41.359375 33.984375 34.8125 27.25 
z
" id="DejaVuSans-ExtraLight-32"/>
      </defs>
      <g style="fill:#ffffff;" transform="translate(24.933438 266.958594)scale(0.18 -0.18)">
       <use xlink:href="#DejaVuSans-ExtraLight-2d"/>
       <use x="36.083984" xlink:href="#DejaVuSans-ExtraLight-32"/>
      </g>
     </g>
    </g>
    <g id="ytick_2">
     <g id="line2d_25">
      <g>
       <use style="fill:#ffffff;stroke:#ffffff;stroke-width:0.8;" x="49.88" xlink:href="#mf494d9aee2" y="197.7"/>
      </g>
     </g>
     <g id="text_6">
      <!-- -1 -->
      <defs>
       <path d="M 14.84375 4 
L 30.953125 4 
L 30.953125 68.40625 
L 10.984375 60.40625 
L 10.984375 64.890625 
L 30.859375 72.90625 
L 35.84375 72.90625 
L 35.84375 4 
L 51.953125 4 
L 51.953125 0 
L 14.84375 0 
z
" id="DejaVuSans-ExtraLight-31"/>
      </defs>
      <g style="fill:#ffffff;" transform="translate(24.933438 204.538594)scale(0.18 -0.18)">
       <use xlink:href="#DejaVuSans-ExtraLight-2d"/>
       <use x="36.083984" xlink:href="#DejaVuSans-ExtraLight-31"/>
      </g>
     </g>
    </g>
    <g id="ytick_3">
     <g id="line2d_26">
      <g>
       <use style="fill:#ffffff;stroke:#ffffff;stroke-width:0.8;" x="49.88" xlink:href="#mf494d9aee2" y="135.28"/>
      </g>
     </g>
     <g id="text_7">
      <!-- 0 -->
      <defs>
       <path d="M 31.5 70.21875 
Q 22.5625 70.21875 18.21875 61.53125 
Q 13.875 52.78125 13.875 36.375 
Q 13.875 19.96875 18.21875 11.234375 
Q 22.5625 2.546875 31.5 2.546875 
Q 40.71875 2.546875 45.0625 11.234375 
Q 49.421875 19.96875 49.421875 36.375 
Q 49.421875 52.78125 45.0625 61.53125 
Q 40.71875 70.21875 31.5 70.21875 
z
M 31.5 74.21875 
Q 42.046875 74.21875 48.1875 65.625 
Q 54.34375 56.984375 54.34375 36.375 
Q 54.34375 15.765625 48.1875 7.125 
Q 42.046875 -1.46875 31.5 -1.46875 
Q 21.234375 -1.46875 15.09375 7.125 
Q 8.9375 15.765625 8.9375 36.375 
Q 8.9375 56.984375 15.09375 65.625 
Q 21.234375 74.21875 31.5 74.21875 
z
" id="DejaVuSans-ExtraLight-30"/>
      </defs>
      <g style="fill:#ffffff;" transform="translate(31.4275 142.118594)scale(0.18 -0.18)">
       <use xlink:href="#DejaVuSans-ExtraLight-30"/>
      </g>
     </g>
    </g>
    <g id="ytick_4">
     <g id="line2d_27">
      <g>
       <use style="fill:#ffffff;stroke:#ffffff;stroke-width:0.8;" x="49.88" xlink:href="#mf494d9aee2" y="72.86"/>
      </g>
     </g>
     <g id="text_8">
      <!-- 1 -->
      <g style="fill:#ffffff;" transform="translate(31.4275 79.698594)scale(0.18 -0.18)">
       <use xlink:href="#DejaVuSans-ExtraLight-31"/>
      </g>
     </g>
    </g>
    <g id="ytick_5">
     <g id="line2d_28">
      <g>
       <use style="fill:#ffffff;stroke:#ffffff;stroke-width:0.8;" x="49.88" xlink:href="#mf494d9aee2" y="10.44"/>
      </g>
     </g>
     <g id="text_9">
      <!-- 2 -->
      <g style="fill:#ffffff;" transform="translate(31.4275 17.278594)scale(0.18 -0.18)">
       <use xlink:href="#DejaVuSans-ExtraLight-32"/>
      </g>
     </g>
    </g>
    <g id="ytick_6">
     <g id="line2d_29">
      <defs>
       <path d="M 0 0 
L -2 0 
" id="mbca673064d" style="stroke:#ffffff;stroke-width:0.6;"/>
      </defs>
      <g>
       <use style="fill:#ffffff;stroke:#ffffff;stroke-width:0.6;" x="49.88" xlink:href="#mbca673064d" y="228.91"/>
      </g>
     </g>
    </g>
    <g id="ytick_7">
     <g id="line2d_30">
      <g>
       <use style="fill:#ffffff;stroke:#ffffff;stroke-width:0.6;" x="49.88" xlink:href="#mbca673064d" y="166.49"/>
      </g>
     </g>
    </g>
    <g id="ytick_8">
     <g id="line2d_31">
      <g>
       <use style="fill:#ffffff;stroke:#ffffff;stroke-width:0.6;" x="49.88" xlink:href="#mbca673064d" y="104.07"/>
      </g>
     </g>
    </g>
    <g id="ytick_9">
     <g id="line2d_32">
      <g>
       <use style="fill:#ffffff;stroke:#ffffff;stroke-width:0.6;" x="49.88" xlink:href="#mbca673064d" y="41.65"/>
      </g>
     </g>
    </g>
    <g id="text_10">
     <!-- Energy [eV] -->
     <defs>
      <path d="M 12.15625 72.90625 
L 53.375 72.90625 
L 53.375 68.84375 
L 17.140625 68.84375 
L 17.140625 40.875 
L 51.859375 40.875 
L 51.859375 36.921875 
L 17.140625 36.921875 
L 17.140625 3.953125 
L 54.25 3.953125 
L 54.25 0 
L 12.15625 0 
z
" id="DejaVuSans-ExtraLight-45"/>
      <path d="M 52.640625 33.015625 
L 52.640625 0 
L 48.140625 0 
L 48.140625 32.71875 
Q 48.140625 43.359375 44.71875 47.703125 
Q 41.3125 52.046875 34.671875 52.046875 
Q 26.90625 52.046875 21.390625 47.359375 
Q 15.828125 42.625 15.828125 30.90625 
L 15.828125 0 
L 11.328125 0 
L 11.328125 54.6875 
L 15.828125 54.6875 
L 15.828125 44.4375 
Q 18.21875 49.421875 22.125 52.046875 
Q 27.875 56 34.859375 56 
Q 42.96875 56 47.796875 50.484375 
Q 52.640625 45.015625 52.640625 33.015625 
z
" id="DejaVuSans-ExtraLight-6e"/>
      <path d="M 53.953125 29.59375 
L 53.953125 26.765625 
L 12.453125 26.765625 
Q 12.453125 13.578125 17.578125 8.296875 
Q 23.25 2.4375 34.421875 2.4375 
Q 37.359375 2.4375 42.1875 3.71875 
Q 47.078125 4.984375 51.859375 7.515625 
L 51.859375 2.78125 
Q 47.015625 0.734375 41.9375 -0.34375 
Q 36.859375 -1.421875 33.890625 -1.421875 
Q 21.234375 -1.421875 14.84375 5.421875 
Q 7.90625 12.703125 7.90625 26.765625 
Q 7.90625 41.359375 14.265625 48.53125 
Q 20.75 56 32.328125 56 
Q 43.0625 56 48.53125 48.921875 
Q 53.953125 41.5 53.953125 29.59375 
z
M 49.421875 30.5625 
Q 49.421875 42.09375 44.234375 47.359375 
Q 39.890625 52.046875 32.421875 52.046875 
Q 24.265625 52.046875 18.75 47.171875 
Q 13.671875 42.625 12.640625 30.5625 
z
" id="DejaVuSans-ExtraLight-65"/>
      <path d="M 41.015625 50.828125 
Q 39.9375 51.375 38.09375 51.765625 
Q 36.421875 52.046875 33.890625 52.046875 
Q 25.59375 52.046875 20.125 45.90625 
Q 15.828125 40.921875 15.828125 28.8125 
L 15.828125 0 
L 11.421875 0 
L 11.421875 54.6875 
L 15.828125 54.6875 
L 15.828125 44.4375 
Q 18.015625 48.828125 21.96875 51.859375 
Q 27.4375 56 34.859375 56 
Q 36.765625 56 38.1875 55.859375 
Q 39.65625 55.859375 41.015625 55.515625 
z
" id="DejaVuSans-ExtraLight-72"/>
      <path d="M 47.65625 27.984375 
Q 47.65625 39.359375 43.03125 45.625 
Q 38.421875 51.90625 30.078125 51.90625 
Q 21.828125 51.90625 17.203125 45.625 
Q 12.59375 39.359375 12.59375 27.984375 
Q 12.59375 16.65625 17.203125 10.375 
Q 21.828125 4.109375 30.078125 4.109375 
Q 38.421875 4.109375 43.03125 10.375 
Q 47.65625 16.65625 47.65625 27.984375 
z
M 52.15625 6.78125 
Q 52.15625 -10.25 45.65625 -15.515625 
Q 39.15625 -20.796875 29.203125 -20.796875 
Q 24.46875 -20.796875 20.265625 -20.125 
Q 16.0625 -19.390625 12.109375 -17.921875 
L 12.109375 -12.796875 
Q 16.0625 -14.9375 19.921875 -15.96875 
Q 23.78125 -17 27.78125 -17 
Q 35.9375 -17 41.796875 -13.53125 
Q 47.65625 -10.0625 47.65625 5.171875 
L 47.65625 13.71875 
Q 45.65625 8.109375 42.140625 4.890625 
Q 36.765625 -0.046875 30.078125 0 
Q 19.671875 0 13.859375 7.34375 
Q 8.0625 14.703125 8.0625 28.03125 
Q 8.0625 41.3125 13.859375 48.65625 
Q 19.671875 56 30.078125 56 
Q 36.71875 56 41.5 51.8125 
Q 45.21875 48.53125 47.65625 43.0625 
L 47.65625 54.6875 
L 52.15625 54.6875 
z
" id="DejaVuSans-ExtraLight-67"/>
      <path d="M 29.78125 -5.078125 
Q 26.859375 -12.359375 23.484375 -15.140625 
Q 18.953125 -18.890625 14.59375 -18.890625 
L 7.90625 -18.890625 
L 7.90625 -15.09375 
L 13.625 -15.09375 
Q 17.1875 -15.09375 19.875 -12.796875 
Q 23.34375 -9.8125 25.59375 -4.046875 
L 27.203125 0 
L 5.375 54.6875 
L 10.15625 54.6875 
L 29.59375 5.953125 
L 49.078125 54.6875 
L 53.8125 54.6875 
z
" id="DejaVuSans-ExtraLight-79"/>
      <path id="DejaVuSans-ExtraLight-20"/>
      <path d="M 11.328125 75.984375 
L 27.984375 75.984375 
L 27.984375 70.90625 
L 16.21875 70.90625 
L 16.21875 -9.078125 
L 27.984375 -9.078125 
L 27.984375 -13.1875 
L 11.328125 -13.1875 
z
" id="DejaVuSans-ExtraLight-5b"/>
      <path d="M 30.859375 0 
L 3.03125 72.90625 
L 8.59375 72.90625 
L 34.1875 4.890625 
L 59.96875 72.90625 
L 65.09375 72.90625 
L 37.3125 0 
z
" id="DejaVuSans-ExtraLight-56"/>
      <path d="M 27.984375 75.984375 
L 27.984375 -13.1875 
L 11.328125 -13.1875 
L 11.328125 -9.078125 
L 23.09375 -9.078125 
L 23.09375 70.90625 
L 11.328125 70.90625 
L 11.328125 75.984375 
z
" id="DejaVuSans-ExtraLight-5d"/>
     </defs>
     <g style="fill:#ffffff;" transform="translate(17.19 188.202812)rotate(-90)scale(0.18 -0.18)">
      <use xlink:href="#DejaVuSans-ExtraLight-45"/>
      <use x="63.183594" xlink:href="#DejaVuSans-ExtraLight-6e"/>
      <use x="126.5625" xlink:href="#DejaVuSans-ExtraLight-65"/>
      <use x="188.085938" xlink:href="#DejaVuSans-ExtraLight-72"/>
      <use x="229.183594" xlink:href="#DejaVuSans-ExtraLight-67"/>
      <use x="289.193359" xlink:href="#DejaVuSans-ExtraLight-79"/>
      <use x="348.373047" xlink:href="#DejaVuSans-ExtraLight-20"/>
      <use x="380.160156" xlink:href="#DejaVuSans-ExtraLight-5b"/>
      <use x="419.173828" xlink:href="#DejaVuSans-ExtraLight-65"/>
      <use x="480.587891" xlink:href="#DejaVuSans-ExtraLight-56"/>
      <use x="548.996094" xlink:href="#DejaVuSans-ExtraLight-5d"/>
     </g>
    </g>
   </g>
   <g id="line2d_33">
    <path clip-path="url(#p4117d50f22)" d="M 49.88 63.628082 
L 51.86006 63.497 
L 53.84012 63.109996 
L 55.820181 62.454586 
L 57.800241 61.524528 
L 59.780301 60.326064 
L 61.760361 58.84671 
L 63.740421 57.092708 
L 65.72048 55.082784 
L 67.700541 52.829422 
L 69.680601 50.363832 
L 71.660661 50.507398 
L 73.640721 52.960504 
L 75.620781 55.682016 
L 77.600841 58.559578 
L 79.580902 61.505802 
L 81.560962 64.458268 
L 83.541022 67.342072 
L 85.521082 70.11352 
L 87.501142 72.747644 
L 89.481203 75.20075 
L 91.461263 77.454112 
L 93.441322 79.489004 
L 95.421382 81.292942 
L 97.401442 82.859684 
L 99.381502 84.164262 
L 101.361563 85.206676 
L 103.341623 85.961958 
L 105.321683 86.417624 
L 107.301743 86.573674 
L 107.301743 86.573674 
L 108.44492 86.430108 
L 109.588097 86.011894 
L 110.731273 85.319032 
L 111.87445 84.351522 
L 113.017627 83.115606 
L 114.160804 81.617526 
L 115.303981 79.869766 
L 116.447157 77.878568 
L 117.590334 75.650174 
L 118.733511 73.190826 
L 119.876688 70.51925 
L 121.019865 67.635446 
L 122.163041 64.551898 
L 123.306218 61.274848 
L 124.449395 57.81678 
L 125.592572 54.190178 
L 126.735748 50.413768 
L 127.878925 46.512518 
L 129.022102 42.505154 
L 130.165279 38.429128 
L 131.308456 34.340618 
L 132.451632 30.302044 
L 133.594809 26.413278 
L 134.737986 22.805402 
L 135.881163 19.64695 
L 137.02434 17.125182 
L 138.167516 15.471052 
L 139.310693 14.971692 
L 140.45387 14.609656 
L 140.45387 14.609656 
L 142.740224 16.232576 
L 145.026578 18.935362 
L 147.31293 21.83165 
L 149.599285 24.528194 
L 151.885639 26.868944 
L 154.171993 28.828932 
L 156.458347 30.408158 
L 158.744699 31.675284 
L 161.031053 32.674004 
L 163.317407 33.466738 
L 165.603761 34.084696 
L 167.890115 34.540362 
L 170.176467 34.839978 
L 172.462821 35.258192 
L 174.749175 37.854864 
L 177.035529 41.094462 
L 179.321881 44.252914 
L 181.608235 47.249074 
L 183.894589 50.020522 
L 186.180943 52.517322 
L 188.467297 54.72699 
L 190.753649 56.655768 
L 193.040003 58.341108 
L 195.326357 59.81422 
L 197.612711 61.087588 
L 199.899065 62.148728 
L 202.185417 62.953946 
L 204.471771 63.459548 
L 206.758125 63.628082 
" style="fill:none;stroke:#7f7f7f;stroke-linecap:square;stroke-opacity:0.3;stroke-width:2.5;"/>
   </g>
   <g id="line2d_34">
    <path clip-path="url(#p4117d50f22)" d="M 49.88 50.45122 
L 51.86006 50.282686 
L 53.84012 49.789568 
L 55.820181 49.01556 
L 57.800241 48.054292 
L 59.780301 47.036846 
L 61.760361 46.181692 
L 63.740421 45.750994 
L 65.72048 45.969464 
L 67.700541 46.887038 
L 69.680601 48.441296 
L 71.660661 47.73595 
L 73.640721 44.98947 
L 75.620781 42.186812 
L 77.600841 39.390396 
L 79.580902 36.662642 
L 81.560962 34.072212 
L 83.541022 31.650316 
L 85.521082 29.453132 
L 87.501142 27.486902 
L 89.481203 25.76411 
L 91.461263 24.284756 
L 93.441322 23.036356 
L 95.421382 22.006426 
L 97.401442 21.169998 
L 99.381502 20.52083 
L 101.361563 20.033954 
L 103.341623 19.690644 
L 105.321683 19.497142 
L 107.301743 19.42848 
L 107.301743 19.42848 
L 108.44492 19.447206 
L 109.588097 19.503384 
L 110.731273 19.590772 
L 111.87445 19.703128 
L 113.017627 19.846694 
L 114.160804 20.008986 
L 115.303981 20.17752 
L 116.447157 20.346054 
L 117.590334 20.508346 
L 118.733511 20.658154 
L 119.876688 20.782994 
L 121.019865 20.870382 
L 122.163041 20.914076 
L 123.306218 20.914076 
L 124.449395 20.845414 
L 125.592572 20.720574 
L 126.735748 20.52083 
L 127.878925 20.246182 
L 129.022102 19.89663 
L 130.165279 19.472174 
L 131.308456 18.985298 
L 132.451632 18.436002 
L 133.594809 17.843012 
L 134.737986 17.225054 
L 135.881163 16.607096 
L 137.02434 16.001622 
L 138.167516 15.389906 
L 139.310693 14.584688 
L 140.45387 14.534752 
L 140.45387 14.534752 
L 142.740224 14.141506 
L 145.026578 14.21641 
L 147.31293 14.796916 
L 149.599285 15.789394 
L 151.885639 17.093972 
L 154.171993 18.610778 
L 156.458347 20.23994 
L 158.744699 21.937764 
L 161.031053 23.660556 
L 163.317407 25.38959 
L 165.603761 27.124866 
L 167.890115 28.860142 
L 170.176467 30.776436 
L 172.462821 33.841258 
L 174.749175 34.434248 
L 177.035529 35.420484 
L 179.321881 36.856144 
L 181.608235 38.191932 
L 183.894589 39.446574 
L 186.180943 40.663764 
L 188.467297 41.893438 
L 190.753649 43.173048 
L 193.040003 44.527562 
L 195.326357 45.932012 
L 197.612711 47.317736 
L 199.899065 48.566136 
L 202.185417 49.571098 
L 204.471771 50.226508 
L 206.758125 50.45122 
" style="fill:none;stroke:#7f7f7f;stroke-linecap:square;stroke-opacity:0.3;stroke-width:2.5;"/>
   </g>
   <g id="line2d_35">
    <path clip-path="url(#p4117d50f22)" d="M 49.88 30.988664 
L 51.86006 31.125988 
L 53.84012 31.494266 
L 55.820181 31.999868 
L 57.800241 32.492986 
L 59.780301 32.805086 
L 61.760361 32.72394 
L 63.740421 32.024836 
L 65.72048 30.551724 
L 67.700541 28.26091 
L 69.680601 25.23354 
L 71.660661 21.51955 
L 73.640721 17.162634 
L 75.620781 12.175276 
L 77.600841 6.563718 
L 79.580902 0.321718 
L 79.962403 -1 
M 151.867004 -1 
L 151.885639 -0.964134 
L 154.171993 3.517622 
L 156.458347 7.930716 
L 158.744699 12.175276 
L 161.031053 16.220092 
L 163.317407 20.077648 
L 165.603761 23.76667 
L 167.890115 27.32461 
L 170.176467 30.576692 
L 172.462821 32.262032 
L 174.749175 33.884952 
L 177.035529 34.078454 
L 179.321881 33.466738 
L 181.608235 32.711456 
L 183.894589 31.962416 
L 186.180943 31.419362 
L 188.467297 31.269554 
L 190.753649 31.544202 
L 193.040003 32.031078 
L 195.326357 32.405598 
L 197.612711 32.436808 
L 199.899065 32.118466 
L 202.185417 31.612864 
L 204.471771 31.169682 
L 206.758125 30.988664 
" style="fill:none;stroke:#7f7f7f;stroke-linecap:square;stroke-opacity:0.3;stroke-width:2.5;"/>
   </g>
   <g id="line2d_36">
    <path clip-path="url(#p4117d50f22)" d="M 49.88 30.988664 
L 51.86006 30.75771 
L 53.84012 30.077332 
L 55.820181 28.935046 
L 57.800241 27.343336 
L 59.780301 25.29596 
L 61.760361 22.79916 
L 63.740421 19.852936 
L 65.72048 16.457288 
L 67.700541 12.630942 
L 69.680601 8.361414 
L 71.660661 3.661188 
L 73.463834 -1 
M 171.75525 -1 
L 172.462821 -0.35866 
L 174.749175 1.48273 
L 177.035529 3.224248 
L 179.321881 5.015702 
L 181.608235 7.013142 
L 183.894589 9.341408 
L 186.180943 12.050436 
L 188.467297 15.071564 
L 190.753649 18.21129 
L 193.040003 21.263628 
L 195.326357 24.041318 
L 197.612711 26.432004 
L 199.899065 28.367024 
L 202.185417 29.796442 
L 204.471771 30.689048 
L 206.758125 30.988664 
" style="fill:none;stroke:#7f7f7f;stroke-linecap:square;stroke-opacity:0.3;stroke-width:2.5;"/>
   </g>
   <g id="line2d_37">
    <path clip-path="url(#p4117d50f22)" d="M 62.585418 -1 
L 63.740421 -0.071528 
L 65.72048 0.895982 
L 67.700541 1.13942 
L 69.680601 0.60885 
L 71.660661 -0.70197 
L 71.947145 -1 
M 190.648745 -1 
L 190.753649 -0.926682 
L 191.872621 -1 
" style="fill:none;stroke:#7f7f7f;stroke-linecap:square;stroke-opacity:0.3;stroke-width:2.5;"/>
   </g>
   <g id="line2d_38">
    <path clip-path="url(#p4117d50f22)" style="fill:none;stroke:#7f7f7f;stroke-linecap:square;stroke-opacity:0.3;stroke-width:2.5;"/>
   </g>
   <g id="line2d_39">
    <path clip-path="url(#p4117d50f22)" style="fill:none;stroke:#7f7f7f;stroke-linecap:square;stroke-opacity:0.3;stroke-width:2.5;"/>
   </g>
   <g id="line2d_40">
    <path clip-path="url(#p4117d50f22)" style="fill:none;stroke:#7f7f7f;stroke-linecap:square;stroke-opacity:0.3;stroke-width:2.5;"/>
   </g>
   <g id="line2d_41">
    <path clip-path="url(#p4117d50f22)" style="fill:none;stroke:#7f7f7f;stroke-linecap:square;stroke-opacity:0.3;stroke-width:2.5;"/>
   </g>
   <g id="line2d_42">
    <path clip-path="url(#p4117d50f22)" style="fill:none;stroke:#7f7f7f;stroke-linecap:square;stroke-opacity:0.3;stroke-width:2.5;"/>
   </g>
   <g id="line2d_43">
    <path clip-path="url(#p4117d50f22)" style="fill:none;stroke:#7f7f7f;stroke-linecap:square;stroke-opacity:0.3;stroke-width:2.5;"/>
   </g>
   <g id="line2d_44">
    <path clip-path="url(#p4117d50f22)" style="fill:none;stroke:#7f7f7f;stroke-linecap:square;stroke-opacity:0.3;stroke-width:2.5;"/>
   </g>
   <g id="line2d_45">
    <path clip-path="url(#p4117d50f22)" style="fill:none;stroke:#7f7f7f;stroke-linecap:square;stroke-opacity:0.3;stroke-width:2.5;"/>
   </g>
   <g id="line2d_46">
    <path clip-path="url(#p4117d50f22)" style="fill:none;stroke:#7f7f7f;stroke-linecap:square;stroke-opacity:0.3;stroke-width:2.5;"/>
   </g>
   <g id="line2d_47">
    <path clip-path="url(#p4117d50f22)" style="fill:none;stroke:#7f7f7f;stroke-linecap:square;stroke-opacity:0.3;stroke-width:2.5;"/>
   </g>
   <g id="line2d_48">
    <path clip-path="url(#p4117d50f22)" style="fill:none;stroke:#7f7f7f;stroke-linecap:square;stroke-opacity:0.3;stroke-width:2.5;"/>
   </g>
   <g id="line2d_49">
    <path clip-path="url(#p4117d50f22)" style="fill:none;stroke:#7f7f7f;stroke-linecap:square;stroke-opacity:0.3;stroke-width:2.5;"/>
   </g>
   <g id="line2d_50">
    <path clip-path="url(#p4117d50f22)" style="fill:none;stroke:#7f7f7f;stroke-linecap:square;stroke-opacity:0.3;stroke-width:2.5;"/>
   </g>
   <g id="line2d_51">
    <path clip-path="url(#p4117d50f22)" style="fill:none;stroke:#7f7f7f;stroke-linecap:square;stroke-opacity:0.3;stroke-width:2.5;"/>
   </g>
   <g id="line2d_52">
    <path clip-path="url(#p4117d50f22)" style="fill:none;stroke:#7f7f7f;stroke-linecap:square;stroke-opacity:0.3;stroke-width:2.5;"/>
   </g>
   <g id="line2d_53">
    <path clip-path="url(#p4117d50f22)" style="fill:none;stroke:#7f7f7f;stroke-linecap:square;stroke-opacity:0.3;stroke-width:2.5;"/>
   </g>
   <g id="line2d_54">
    <path clip-path="url(#p4117d50f22)" style="fill:none;stroke:#7f7f7f;stroke-linecap:square;stroke-opacity:0.3;stroke-width:2.5;"/>
   </g>
   <g id="line2d_55">
    <path clip-path="url(#p4117d50f22)" style="fill:none;stroke:#7f7f7f;stroke-linecap:square;stroke-opacity:0.3;stroke-width:2.5;"/>
   </g>
   <g id="line2d_56">
    <path clip-path="url(#p4117d50f22)" style="fill:none;stroke:#7f7f7f;stroke-linecap:square;stroke-opacity:0.3;stroke-width:2.5;"/>
   </g>
   <g id="line2d_57">
    <path clip-path="url(#p4117d50f22)" style="fill:none;stroke:#7f7f7f;stroke-linecap:square;stroke-opacity:0.3;stroke-width:2.5;"/>
   </g>
   <g id="line2d_58">
    <path clip-path="url(#p4117d50f22)" style="fill:none;stroke:#7f7f7f;stroke-linecap:square;stroke-opacity:0.3;stroke-width:2.5;"/>
   </g>
   <g id="line2d_59">
    <path clip-path="url(#p4117d50f22)" style="fill:none;stroke:#7f7f7f;stroke-linecap:square;stroke-opacity:0.3;stroke-width:2.5;"/>
   </g>
   <g id="line2d_60">
    <path clip-path="url(#p4117d50f22)" style="fill:none;stroke:#7f7f7f;stroke-linecap:square;stroke-opacity:0.3;stroke-width:2.5;"/>
   </g>
   <g id="line2d_61">
    <path clip-path="url(#p4117d50f22)" style="fill:none;stroke:#7f7f7f;stroke-linecap:square;stroke-opacity:0.3;stroke-width:2.5;"/>
   </g>
   <g id="line2d_62">
    <path clip-path="url(#p4117d50f22)" d="M 49.88 260.12 
L 49.88 10.44 
" style="fill:none;stroke:#ffffff;stroke-linecap:square;stroke-opacity:0.5;stroke-width:0.5;"/>
   </g>
   <g id="line2d_63">
    <path clip-path="url(#p4117d50f22)" d="M 107.301743 260.12 
L 107.301743 10.44 
" style="fill:none;stroke:#ffffff;stroke-linecap:square;stroke-opacity:0.5;stroke-width:0.5;"/>
   </g>
   <g id="line2d_64">
    <path clip-path="url(#p4117d50f22)" d="M 140.45387 260.12 
L 140.45387 10.44 
" style="fill:none;stroke:#ffffff;stroke-linecap:square;stroke-opacity:0.5;stroke-width:0.5;"/>
   </g>
   <g id="line2d_65">
    <path clip-path="url(#p4117d50f22)" d="M 206.758125 260.12 
L 206.758125 10.44 
" style="fill:none;stroke:#ffffff;stroke-linecap:square;stroke-opacity:0.5;stroke-width:0.5;"/>
   </g>
   <g id="line2d_66">
    <path clip-path="url(#p4117d50f22)" d="M 49.88 135.28 
L 206.758125 135.28 
" style="fill:none;stroke:#ffffff;stroke-linecap:square;stroke-opacity:0.5;stroke-width:0.5;"/>
   </g>
   <g id="patch_3">
    <path d="M 49.88 260.12 
L 49.88 10.44 
" style="fill:none;stroke:#ffffff;stroke-linecap:square;stroke-linejoin:miter;stroke-width:0.8;"/>
   </g>
   <g id="patch_4">
    <path d="M 206.758125 260.12 
L 206.758125 10.44 
" style="fill:none;stroke:#ffffff;stroke-linecap:square;stroke-linejoin:miter;stroke-width:0.8;"/>
   </g>
   <g id="patch_5">
    <path d="M 49.88 260.12 
L 206.758125 260.12 
" style="fill:none;stroke:#ffffff;stroke-linecap:square;stroke-linejoin:miter;stroke-width:0.8;"/>
   </g>
   <g id="patch_6">
    <path d="M 49.88 10.44 
L 206.758125 10.44 
" style="fill:none;stroke:#ffffff;stroke-linecap:square;stroke-linejoin:miter;stroke-width:0.8;"/>
   </g>
  </g>
 </g>
 <defs>
  <clipPath id="p4117d50f22">
   <rect height="249.68" width="156.878125" x="49.88" y="10.44"/>
  </clipPath>
 </defs>
</svg>
