<?xml version="1.0" encoding="utf-8" standalone="no"?>
<!DOCTYPE svg PUBLIC "-//W3C//DTD SVG 1.1//EN"
  "http://www.w3.org/Graphics/SVG/1.1/DTD/svg11.dtd">
<!-- Created with matplotlib (http://matplotlib.org/) -->
<svg height="288pt" version="1.1" viewBox="0 0 216 288" width="216pt" xmlns="http://www.w3.org/2000/svg" xmlns:xlink="http://www.w3.org/1999/xlink">
 <defs>
  <style type="text/css">
*{stroke-linecap:butt;stroke-linejoin:round;}
  </style>
 </defs>
 <g id="figure_1">
  <g id="patch_1">
   <path d="M 0 288 
L 216 288 
L 216 0 
L 0 0 
z
"/>
  </g>
  <g id="axes_1">
   <g id="patch_2">
    <path d="M 49.88 260.12 
L 206.758125 260.12 
L 206.758125 10.44 
L 49.88 10.44 
z
"/>
   </g>
   <g id="line2d_1">
    <path clip-path="url(#p9f6798f16d)" style="fill:none;stroke:#1f77b4;stroke-linecap:square;stroke-opacity:0.9;stroke-width:2.5;"/>
   </g>
   <g id="line2d_2">
    <path clip-path="url(#p9f6798f16d)" style="fill:none;stroke:#1f77b4;stroke-linecap:square;stroke-opacity:0.9;stroke-width:2.5;"/>
   </g>
   <g id="line2d_3">
    <path clip-path="url(#p9f6798f16d)" style="fill:none;stroke:#1f77b4;stroke-linecap:square;stroke-opacity:0.9;stroke-width:2.5;"/>
   </g>
   <g id="line2d_4">
    <path clip-path="url(#p9f6798f16d)" style="fill:none;stroke:#1f77b4;stroke-linecap:square;stroke-opacity:0.9;stroke-width:2.5;"/>
   </g>
   <g id="line2d_5">
    <path clip-path="url(#p9f6798f16d)" style="fill:none;stroke:#1f77b4;stroke-linecap:square;stroke-opacity:0.9;stroke-width:2.5;"/>
   </g>
   <g id="line2d_6">
    <path clip-path="url(#p9f6798f16d)" style="fill:none;stroke:#1f77b4;stroke-linecap:square;stroke-opacity:0.9;stroke-width:2.5;"/>
   </g>
   <g id="line2d_7">
    <path clip-path="url(#p9f6798f16d)" style="fill:none;stroke:#1f77b4;stroke-linecap:square;stroke-opacity:0.9;stroke-width:2.5;"/>
   </g>
   <g id="line2d_8">
    <path clip-path="url(#p9f6798f16d)" style="fill:none;stroke:#1f77b4;stroke-linecap:square;stroke-opacity:0.9;stroke-width:2.5;"/>
   </g>
   <g id="line2d_9">
    <path clip-path="url(#p9f6798f16d)" style="fill:none;stroke:#1f77b4;stroke-linecap:square;stroke-opacity:0.9;stroke-width:2.5;"/>
   </g>
   <g id="line2d_10">
    <path clip-path="url(#p9f6798f16d)" style="fill:none;stroke:#1f77b4;stroke-linecap:square;stroke-opacity:0.9;stroke-width:2.5;"/>
   </g>
   <g id="line2d_11">
    <path clip-path="url(#p9f6798f16d)" style="fill:none;stroke:#1f77b4;stroke-linecap:square;stroke-opacity:0.9;stroke-width:2.5;"/>
   </g>
   <g id="line2d_12">
    <path clip-path="url(#p9f6798f16d)" style="fill:none;stroke:#1f77b4;stroke-linecap:square;stroke-opacity:0.9;stroke-width:2.5;"/>
   </g>
   <g id="line2d_13">
    <path clip-path="url(#p9f6798f16d)" style="fill:none;stroke:#1f77b4;stroke-linecap:square;stroke-opacity:0.9;stroke-width:2.5;"/>
   </g>
   <g id="line2d_14">
    <path clip-path="url(#p9f6798f16d)" style="fill:none;stroke:#1f77b4;stroke-linecap:square;stroke-opacity:0.9;stroke-width:2.5;"/>
   </g>
   <g id="line2d_15">
    <path clip-path="url(#p9f6798f16d)" style="fill:none;stroke:#1f77b4;stroke-linecap:square;stroke-opacity:0.9;stroke-width:2.5;"/>
   </g>
   <g id="line2d_16">
    <path clip-path="url(#p9f6798f16d)" style="fill:none;stroke:#1f77b4;stroke-linecap:square;stroke-opacity:0.9;stroke-width:2.5;"/>
   </g>
   <g id="line2d_17">
    <path clip-path="url(#p9f6798f16d)" d="M 49.88 240.52012 
L 51.86006 240.257956 
L 53.84012 239.502674 
L 55.820181 238.30421 
L 57.800241 236.749952 
L 59.780301 234.927288 
L 61.760361 232.93609 
L 63.740421 230.857504 
L 65.72048 228.741466 
L 67.700541 226.644154 
L 69.680601 224.578052 
L 71.660661 222.555644 
L 73.640721 220.564446 
L 75.620781 218.585732 
L 77.600841 216.600776 
L 79.580902 214.597094 
L 81.560962 212.58717 
L 83.541022 210.58973 
L 85.521082 208.673436 
L 87.501142 206.956886 
L 89.481203 205.608614 
L 91.461263 204.765944 
L 93.441322 204.453844 
L 95.421382 204.541232 
L 97.401442 204.865816 
L 99.381502 205.290272 
L 101.361563 205.702244 
L 103.341623 206.039312 
L 105.321683 206.257782 
L 107.301743 206.332686 
L 107.301743 206.332686 
L 108.44492 206.288992 
L 109.588097 206.145426 
L 110.731273 205.914472 
L 111.87445 205.583646 
L 113.017627 205.165432 
L 114.160804 204.647346 
L 115.303981 204.048114 
L 116.447157 203.34901 
L 117.590334 202.56876 
L 118.733511 201.707364 
L 119.876688 200.75858 
L 121.019865 199.741134 
L 122.163041 198.655026 
L 123.306218 197.506498 
L 124.449395 196.308034 
L 125.592572 195.072118 
L 126.735748 193.811234 
L 127.878925 192.544108 
L 129.022102 191.276982 
L 130.165279 190.047308 
L 131.308456 188.86757 
L 132.451632 187.768978 
L 133.594809 186.7765 
L 134.737986 185.927588 
L 135.881163 185.24721 
L 137.02434 184.754092 
L 138.167516 184.441992 
L 139.310693 184.2797 
L 140.45387 184.229764 
L 140.45387 184.229764 
L 142.740224 184.354604 
L 145.026578 184.610526 
L 147.31293 184.93511 
L 149.599284 185.347082 
L 151.885639 185.977524 
L 154.171993 186.99497 
L 156.458347 188.536744 
L 158.744699 190.58412 
L 161.031053 193.030984 
L 163.317407 195.752496 
L 165.603761 198.642542 
L 167.890115 201.607492 
L 170.176467 204.578684 
L 172.462821 207.49994 
L 174.749175 210.346292 
L 177.035529 213.099014 
L 179.321881 215.758106 
L 181.608235 218.342294 
L 183.894589 220.882788 
L 186.180943 223.404556 
L 188.467297 225.920082 
L 190.753649 228.448092 
L 193.040003 230.951134 
L 195.326357 233.379272 
L 197.612711 235.645118 
L 199.899065 237.623832 
L 202.185417 239.17809 
L 204.471771 240.17681 
L 206.758125 240.52012 
" style="fill:none;stroke:#1f77b4;stroke-linecap:square;stroke-opacity:0.9;stroke-width:2.5;"/>
   </g>
   <g id="line2d_18">
    <path clip-path="url(#p9f6798f16d)" d="M 49.88 198.505218 
L 51.86006 198.442798 
L 53.84012 198.255538 
L 55.820181 197.974648 
L 57.800241 197.625096 
L 59.780301 197.250576 
L 61.760361 196.882298 
L 63.740421 196.551472 
L 65.72048 196.270582 
L 67.700541 196.039628 
L 69.680601 195.846126 
L 71.660661 195.677592 
L 73.640721 195.509058 
L 75.620781 195.32804 
L 77.600841 195.122054 
L 79.580902 194.903584 
L 81.560962 194.666388 
L 83.541022 194.404224 
L 85.521082 194.085882 
L 87.501142 193.617732 
L 89.481203 192.856208 
L 91.461263 191.657744 
L 93.441322 189.997372 
L 95.421382 187.987448 
L 97.401442 185.771538 
L 99.381502 183.511934 
L 101.361563 181.333476 
L 103.341623 179.367246 
L 105.321683 177.831714 
L 107.301743 177.182546 
L 107.301743 177.182546 
L 108.44492 177.170062 
L 109.588097 177.126368 
L 110.731273 177.051464 
L 111.87445 176.957834 
L 113.017627 176.839236 
L 114.160804 176.701912 
L 115.303981 176.552104 
L 116.447157 176.396054 
L 117.590334 176.240004 
L 118.733511 176.083954 
L 119.876688 175.934146 
L 121.019865 175.796822 
L 122.163041 175.684466 
L 123.306218 175.584594 
L 124.449395 175.565868 
L 125.592572 175.934146 
L 126.735748 176.308666 
L 127.878925 176.676944 
L 129.022102 177.026496 
L 130.165279 177.35108 
L 131.308456 177.644454 
L 132.451632 177.887892 
L 133.594809 178.06891 
L 134.737986 178.16254 
L 135.881163 178.150056 
L 137.02434 178.0377 
L 138.167516 177.825472 
L 139.310693 177.557066 
L 140.45387 177.282418 
L 140.45387 177.282418 
L 142.740224 177.88165 
L 145.026578 178.586996 
L 147.31293 179.404698 
L 149.599284 180.334756 
L 151.885639 181.395896 
L 154.171993 182.569392 
L 156.458347 183.849002 
L 158.744699 185.203516 
L 161.031053 186.58924 
L 163.317407 187.974964 
L 165.603761 189.30451 
L 167.890115 190.55291 
L 170.176467 191.682712 
L 172.462821 192.662706 
L 174.749175 193.492892 
L 177.035529 194.160786 
L 179.321881 194.685114 
L 181.608235 195.084602 
L 183.894589 195.396702 
L 186.180943 195.658866 
L 188.467297 195.92103 
L 190.753649 196.214404 
L 193.040003 196.557714 
L 195.326357 196.957202 
L 197.612711 197.394142 
L 199.899065 197.818598 
L 202.185417 198.180634 
L 204.471771 198.424072 
L 206.758125 198.505218 
" style="fill:none;stroke:#1f77b4;stroke-linecap:square;stroke-opacity:0.9;stroke-width:2.5;"/>
   </g>
   <g id="line2d_19">
    <path clip-path="url(#p9f6798f16d)" d="M 49.88 89.020538 
L 51.86006 89.61977 
L 53.84012 91.380014 
L 55.820181 94.163946 
L 57.800241 97.803032 
L 59.780301 102.097528 
L 61.760361 106.8789 
L 63.740421 111.96613 
L 65.72048 117.234378 
L 67.700541 122.558804 
L 69.680601 127.845778 
L 71.660661 133.007912 
L 73.640721 137.970302 
L 75.620781 142.670528 
L 77.600841 147.039928 
L 79.580902 151.028566 
L 81.560962 154.592748 
L 83.541022 157.682538 
L 85.521082 160.285452 
L 87.501142 162.40149 
L 89.481203 164.08683 
L 91.461263 165.39765 
L 93.441322 166.446306 
L 95.421382 167.320186 
L 97.401442 168.137888 
L 99.381502 168.961832 
L 101.361563 169.854438 
L 103.341623 170.809464 
L 105.321683 171.70207 
L 107.301743 172.132768 
L 107.301743 172.132768 
L 108.44492 172.145252 
L 109.588097 172.20143 
L 110.731273 172.288818 
L 111.87445 172.413658 
L 113.017627 172.57595 
L 114.160804 172.76321 
L 115.303981 172.98168 
L 116.447157 173.23136 
L 117.590334 173.51225 
L 118.733511 173.811866 
L 119.876688 174.130208 
L 121.019865 174.467276 
L 122.163041 174.82307 
L 123.306218 175.191348 
L 124.449395 175.515932 
L 125.592572 175.472238 
L 126.735748 175.453512 
L 127.878925 175.465996 
L 129.022102 175.50969 
L 130.165279 175.578352 
L 131.308456 175.671982 
L 132.451632 175.796822 
L 133.594809 175.940388 
L 134.737986 176.108922 
L 135.881163 176.302424 
L 137.02434 176.514652 
L 138.167516 176.745606 
L 139.310693 177.001528 
L 140.45387 177.25745 
L 140.45387 177.25745 
L 142.740224 176.783058 
L 145.026578 176.558346 
L 147.31293 176.63325 
L 149.599284 176.932866 
L 151.885639 177.251208 
L 154.171993 177.338596 
L 156.458347 176.970318 
L 158.744699 176.058986 
L 161.031053 174.623326 
L 163.317407 172.682064 
L 165.603761 170.272652 
L 167.890115 167.401332 
L 170.176467 164.080588 
L 172.462821 160.31042 
L 174.749175 156.109554 
L 177.035529 151.484232 
L 179.321881 146.465664 
L 181.608235 141.08506 
L 183.894589 135.398598 
L 186.180943 129.47494 
L 188.467297 123.38899 
L 190.753649 117.27183 
L 193.040003 111.2483 
L 195.326357 105.499418 
L 197.612711 100.23117 
L 199.899065 95.680752 
L 202.185417 92.122812 
L 204.471771 89.819514 
L 206.758125 89.020538 
" style="fill:none;stroke:#1f77b4;stroke-linecap:square;stroke-opacity:0.9;stroke-width:2.5;"/>
   </g>
   <g id="line2d_20">
    <path clip-path="url(#p9f6798f16d)" style="fill:none;stroke:#ff7f0e;stroke-linecap:square;stroke-opacity:0.9;stroke-width:2.5;"/>
   </g>
   <g id="line2d_21">
    <path clip-path="url(#p9f6798f16d)" style="fill:none;stroke:#ff7f0e;stroke-linecap:square;stroke-opacity:0.9;stroke-width:2.5;"/>
   </g>
   <g id="line2d_22">
    <path clip-path="url(#p9f6798f16d)" style="fill:none;stroke:#ff7f0e;stroke-linecap:square;stroke-opacity:0.9;stroke-width:2.5;"/>
   </g>
   <g id="line2d_23">
    <path clip-path="url(#p9f6798f16d)" style="fill:none;stroke:#ff7f0e;stroke-linecap:square;stroke-opacity:0.9;stroke-width:2.5;"/>
   </g>
   <g id="line2d_24">
    <path clip-path="url(#p9f6798f16d)" style="fill:none;stroke:#ff7f0e;stroke-linecap:square;stroke-opacity:0.9;stroke-width:2.5;"/>
   </g>
   <g id="line2d_25">
    <path clip-path="url(#p9f6798f16d)" style="fill:none;stroke:#ff7f0e;stroke-linecap:square;stroke-opacity:0.9;stroke-width:2.5;"/>
   </g>
   <g id="line2d_26">
    <path clip-path="url(#p9f6798f16d)" style="fill:none;stroke:#ff7f0e;stroke-linecap:square;stroke-opacity:0.9;stroke-width:2.5;"/>
   </g>
   <g id="line2d_27">
    <path clip-path="url(#p9f6798f16d)" style="fill:none;stroke:#ff7f0e;stroke-linecap:square;stroke-opacity:0.9;stroke-width:2.5;"/>
   </g>
   <g id="line2d_28">
    <path clip-path="url(#p9f6798f16d)" style="fill:none;stroke:#ff7f0e;stroke-linecap:square;stroke-opacity:0.9;stroke-width:2.5;"/>
   </g>
   <g id="line2d_29">
    <path clip-path="url(#p9f6798f16d)" style="fill:none;stroke:#ff7f0e;stroke-linecap:square;stroke-opacity:0.9;stroke-width:2.5;"/>
   </g>
   <g id="line2d_30">
    <path clip-path="url(#p9f6798f16d)" style="fill:none;stroke:#ff7f0e;stroke-linecap:square;stroke-opacity:0.9;stroke-width:2.5;"/>
   </g>
   <g id="line2d_31">
    <path clip-path="url(#p9f6798f16d)" style="fill:none;stroke:#ff7f0e;stroke-linecap:square;stroke-opacity:0.9;stroke-width:2.5;"/>
   </g>
   <g id="line2d_32">
    <path clip-path="url(#p9f6798f16d)" style="fill:none;stroke:#ff7f0e;stroke-linecap:square;stroke-opacity:0.9;stroke-width:2.5;"/>
   </g>
   <g id="line2d_33">
    <path clip-path="url(#p9f6798f16d)" style="fill:none;stroke:#ff7f0e;stroke-linecap:square;stroke-opacity:0.9;stroke-width:2.5;"/>
   </g>
   <g id="line2d_34">
    <path clip-path="url(#p9f6798f16d)" style="fill:none;stroke:#ff7f0e;stroke-linecap:square;stroke-opacity:0.9;stroke-width:2.5;"/>
   </g>
   <g id="line2d_35">
    <path clip-path="url(#p9f6798f16d)" style="fill:none;stroke:#ff7f0e;stroke-linecap:square;stroke-opacity:0.9;stroke-width:2.5;"/>
   </g>
   <g id="line2d_36">
    <path clip-path="url(#p9f6798f16d)" d="M 49.88 193.442956 
L 51.86006 193.224486 
L 53.84012 192.575318 
L 55.820181 191.532904 
L 57.800241 190.172148 
L 59.780301 188.55547 
L 61.760361 186.764016 
L 63.740421 184.878932 
L 65.72048 182.96888 
L 67.700541 181.108764 
L 69.680601 179.34852 
L 71.660661 177.744326 
L 73.640721 176.339876 
L 75.620781 175.185106 
L 77.600841 174.32371 
L 79.580902 173.799382 
L 81.560962 173.643332 
L 83.541022 173.861802 
L 85.521082 174.41734 
L 87.501142 175.266252 
L 89.481203 176.32115 
L 91.461263 177.50713 
L 93.441322 178.72432 
L 95.421382 179.9103 
L 97.401442 181.008892 
L 99.381502 181.963918 
L 101.361563 182.737926 
L 103.341623 183.31219 
L 105.321683 183.661742 
L 107.301743 183.78034 
L 107.301743 183.78034 
L 108.44492 183.730404 
L 109.588097 183.59308 
L 110.731273 183.362126 
L 111.87445 183.037542 
L 113.017627 182.631812 
L 114.160804 182.138694 
L 115.303981 181.570672 
L 116.447157 180.921504 
L 117.590334 180.216158 
L 118.733511 179.44215 
L 119.876688 178.624448 
L 121.019865 177.769294 
L 122.163041 176.889172 
L 123.306218 175.990324 
L 124.449395 175.091476 
L 125.592572 174.205112 
L 126.735748 173.343716 
L 127.878925 172.526014 
L 129.022102 171.758248 
L 130.165279 171.059144 
L 131.308456 170.428702 
L 132.451632 169.879406 
L 133.594809 169.411256 
L 134.737986 169.024252 
L 135.881163 168.724636 
L 137.02434 168.499924 
L 138.167516 168.350116 
L 139.310693 168.262728 
L 140.45387 168.23776 
L 140.45387 168.23776 
L 142.740224 168.325148 
L 145.026578 168.537376 
L 147.31293 168.805782 
L 149.599284 169.074188 
L 151.885639 169.2989 
L 154.171993 169.461192 
L 156.458347 169.542338 
L 158.744699 169.54858 
L 161.031053 169.498644 
L 163.317407 169.442466 
L 165.603761 169.417498 
L 167.890115 169.492402 
L 170.176467 169.729598 
L 172.462821 170.185264 
L 174.749175 170.89061 
L 177.035529 171.883088 
L 179.321881 173.143972 
L 181.608235 174.673262 
L 183.894589 176.433506 
L 186.180943 178.393494 
L 188.467297 180.509532 
L 190.753649 182.725442 
L 193.040003 184.972562 
L 195.326357 187.163504 
L 197.612711 189.192154 
L 199.899065 190.939914 
L 202.185417 192.288186 
L 204.471771 193.149582 
L 206.758125 193.442956 
" style="fill:none;stroke:#ff7f0e;stroke-linecap:square;stroke-opacity:0.9;stroke-width:2.5;"/>
   </g>
   <g id="line2d_37">
    <path clip-path="url(#p9f6798f16d)" d="M 49.88 145.223506 
L 51.86006 145.104908 
L 53.84012 144.73663 
L 55.820181 144.156124 
L 57.800241 143.382116 
L 59.780301 142.464542 
L 61.760361 141.42837 
L 63.740421 140.323536 
L 65.72048 139.193734 
L 67.700541 138.076416 
L 69.680601 136.990308 
L 71.660661 135.985346 
L 73.640721 135.074014 
L 75.620781 134.275038 
L 77.600841 133.582176 
L 79.580902 132.951734 
L 81.560962 132.296324 
L 83.541022 131.50359 
L 85.521082 130.498628 
L 87.501142 129.22526 
L 89.481203 127.69597 
L 91.461263 125.94821 
L 93.441322 124.050642 
L 95.421382 122.07817 
L 97.401442 120.118182 
L 99.381502 118.23934 
L 101.361563 116.535274 
L 103.341623 115.074646 
L 105.321683 113.976054 
L 107.301743 113.507904 
L 107.301743 113.507904 
L 108.44492 113.445484 
L 109.588097 113.270708 
L 110.731273 112.989818 
L 111.87445 112.596572 
L 113.017627 112.115938 
L 114.160804 111.547916 
L 115.303981 111.391866 
L 116.447157 111.43556 
L 117.590334 111.473012 
L 118.733511 111.49798 
L 119.876688 111.504222 
L 121.019865 111.479254 
L 122.163041 111.429318 
L 123.306218 111.335688 
L 124.449395 111.198364 
L 125.592572 111.011104 
L 126.735748 110.767666 
L 127.878925 110.474292 
L 129.022102 110.12474 
L 130.165279 109.71901 
L 131.308456 109.269586 
L 132.451632 108.776468 
L 133.594809 108.258382 
L 134.737986 107.72157 
L 135.881163 107.178516 
L 137.02434 106.641704 
L 138.167516 106.136102 
L 139.310693 105.674194 
L 140.45387 105.268464 
L 140.45387 105.268464 
L 142.740224 106.104892 
L 145.026578 107.116096 
L 147.31293 108.295834 
L 149.599284 109.637864 
L 151.885639 111.135944 
L 154.171993 112.783832 
L 156.458347 114.544076 
L 158.744699 116.39795 
L 161.031053 118.289276 
L 163.317407 120.180602 
L 165.603761 122.053202 
L 167.890115 123.863382 
L 170.176467 125.611142 
L 172.462821 127.283998 
L 174.749175 128.88195 
L 177.035529 130.417482 
L 179.321881 131.90932 
L 181.608235 133.357464 
L 183.894589 134.793124 
L 186.180943 136.210058 
L 188.467297 137.62075 
L 190.753649 139.012716 
L 193.040003 140.36723 
L 195.326357 141.659324 
L 197.612711 142.826578 
L 199.899065 143.819056 
L 202.185417 144.58058 
L 204.471771 145.061214 
L 206.758125 145.223506 
" style="fill:none;stroke:#ff7f0e;stroke-linecap:square;stroke-opacity:0.9;stroke-width:2.5;"/>
   </g>
   <g id="line2d_38">
    <path clip-path="url(#p9f6798f16d)" d="M 49.88 64.65177 
L 51.86006 65.144888 
L 53.84012 66.58679 
L 55.820181 68.89633 
L 57.800241 71.929942 
L 59.780301 75.519092 
L 61.760361 79.489004 
L 63.740421 83.677386 
L 65.72048 87.915704 
L 67.700541 92.072876 
L 69.680601 96.011578 
L 71.660661 99.60697 
L 73.640721 102.746696 
L 75.620781 105.337126 
L 77.600841 107.303356 
L 79.580902 108.639144 
L 81.560962 109.40691 
L 83.541022 109.712768 
L 85.521082 109.712768 
L 87.501142 109.537992 
L 89.481203 109.31328 
L 91.461263 109.132262 
L 93.441322 109.051116 
L 95.421382 109.09481 
L 97.401442 109.269586 
L 99.381502 109.556718 
L 101.361563 109.943722 
L 103.341623 110.411872 
L 105.321683 110.892506 
L 107.301743 111.148428 
L 107.301743 111.148428 
L 108.44492 111.15467 
L 109.588097 111.173396 
L 110.731273 111.204606 
L 111.87445 111.242058 
L 113.017627 111.285752 
L 114.160804 111.34193 
L 115.303981 110.917474 
L 116.447157 110.237096 
L 117.590334 109.519266 
L 118.733511 108.78271 
L 119.876688 108.052396 
L 121.019865 107.340808 
L 122.163041 106.672914 
L 123.306218 106.048714 
L 124.449395 105.486934 
L 125.592572 105.000058 
L 126.735748 104.588086 
L 127.878925 104.25726 
L 129.022102 104.013822 
L 130.165279 103.845288 
L 131.308456 103.751658 
L 132.451632 103.739174 
L 133.594809 103.78911 
L 134.737986 103.901466 
L 135.881163 104.076242 
L 137.02434 104.300954 
L 138.167516 104.575602 
L 139.310693 104.893944 
L 140.45387 105.243496 
L 140.45387 105.243496 
L 142.740224 104.63178 
L 145.026578 104.332164 
L 147.31293 104.394584 
L 149.599284 104.831524 
L 151.885639 105.618016 
L 154.171993 106.697882 
L 156.458347 108.00246 
L 158.744699 109.43812 
L 161.031053 110.880022 
L 163.317407 112.209568 
L 165.603761 113.289434 
L 167.890115 113.982296 
L 170.176467 114.169556 
L 172.462821 113.751342 
L 174.749175 112.65275 
L 177.035529 110.855054 
L 179.321881 108.364496 
L 181.608235 105.231012 
L 183.894589 101.517022 
L 186.180943 97.322398 
L 188.467297 92.765738 
L 190.753649 87.971882 
L 193.040003 83.115606 
L 195.326357 78.377928 
L 197.612711 73.98356 
L 199.899065 70.17594 
L 202.185417 67.204748 
L 204.471771 65.30718 
L 206.758125 64.65177 
" style="fill:none;stroke:#ff7f0e;stroke-linecap:square;stroke-opacity:0.9;stroke-width:2.5;"/>
   </g>
   <g id="matplotlib.axis_1">
    <g id="xtick_1">
     <g id="line2d_39">
      <defs>
       <path d="M 0 0 
L 0 3.5 
" id="m78b0eeecec" style="stroke:#ffffff;stroke-width:0.8;"/>
      </defs>
      <g>
       <use style="fill:#ffffff;stroke:#ffffff;stroke-width:0.8;" x="49.88" xlink:href="#m78b0eeecec" y="260.12"/>
      </g>
     </g>
     <g id="text_1">
      <!-- $\mathrm{\mathsf{\Gamma}}$ -->
      <defs>
       <path d="M 12.203125 0 
L 12.203125 72.90625 
L 55.171875 72.90625 
L 55.171875 68.84375 
L 17.09375 68.84375 
L 17.09375 0 
z
" id="DejaVuSans-ExtraLight-393"/>
      </defs>
      <g style="fill:#ffffff;" transform="translate(44.84 280.797188)scale(0.18 -0.18)">
       <use transform="translate(0 0.09375)" xlink:href="#DejaVuSans-ExtraLight-393"/>
      </g>
     </g>
    </g>
    <g id="xtick_2">
     <g id="line2d_40">
      <g>
       <use style="fill:#ffffff;stroke:#ffffff;stroke-width:0.8;" x="107.301743" xlink:href="#m78b0eeecec" y="260.12"/>
      </g>
     </g>
     <g id="text_2">
      <!-- $\mathrm{\mathsf{M}}$ -->
      <defs>
       <path d="M 16.0625 72.90625 
L 22.859375 72.90625 
L 43.109375 18.84375 
L 63.484375 72.90625 
L 70.21875 72.90625 
L 70.21875 0 
L 65.234375 0 
L 65.234375 64.015625 
L 46.484375 14.015625 
L 39.75 14.015625 
L 21.046875 64.015625 
L 21.046875 0 
L 16.0625 0 
z
" id="DejaVuSans-ExtraLight-4d"/>
      </defs>
      <g style="fill:#ffffff;" transform="translate(99.471743 280.797188)scale(0.18 -0.18)">
       <use transform="translate(0 0.09375)" xlink:href="#DejaVuSans-ExtraLight-4d"/>
      </g>
     </g>
    </g>
    <g id="xtick_3">
     <g id="line2d_41">
      <g>
       <use style="fill:#ffffff;stroke:#ffffff;stroke-width:0.8;" x="140.45387" xlink:href="#m78b0eeecec" y="260.12"/>
      </g>
     </g>
     <g id="text_3">
      <!-- $\mathrm{\mathsf{K}}$ -->
      <defs>
       <path d="M 17.28125 72.90625 
L 22.125 72.90625 
L 22.125 41.5 
L 55.515625 72.90625 
L 62.015625 72.90625 
L 25.78125 38.765625 
L 64.40625 0 
L 58.015625 0 
L 22.125 35.984375 
L 22.125 0 
L 17.28125 0 
z
" id="DejaVuSans-ExtraLight-4b"/>
      </defs>
      <g style="fill:#ffffff;" transform="translate(134.51387 280.797188)scale(0.18 -0.18)">
       <use transform="translate(0 0.09375)" xlink:href="#DejaVuSans-ExtraLight-4b"/>
      </g>
     </g>
    </g>
    <g id="xtick_4">
     <g id="line2d_42">
      <g>
       <use style="fill:#ffffff;stroke:#ffffff;stroke-width:0.8;" x="206.758125" xlink:href="#m78b0eeecec" y="260.12"/>
      </g>
     </g>
     <g id="text_4">
      <!-- $\mathrm{\mathsf{\Gamma}}$ -->
      <g style="fill:#ffffff;" transform="translate(201.718125 280.797188)scale(0.18 -0.18)">
       <use transform="translate(0 0.09375)" xlink:href="#DejaVuSans-ExtraLight-393"/>
      </g>
     </g>
    </g>
   </g>
   <g id="matplotlib.axis_2">
    <g id="ytick_1">
     <g id="line2d_43">
      <defs>
       <path d="M 0 0 
L -3.5 0 
" id="m7af1d7b7c3" style="stroke:#ffffff;stroke-width:0.8;"/>
      </defs>
      <g>
       <use style="fill:#ffffff;stroke:#ffffff;stroke-width:0.8;" x="49.88" xlink:href="#m7af1d7b7c3" y="260.12"/>
      </g>
     </g>
     <g id="text_5">
      <!-- -2 -->
      <defs>
       <path d="M 4.890625 29.390625 
L 31.203125 29.390625 
L 31.203125 25.390625 
L 4.890625 25.390625 
z
" id="DejaVuSans-ExtraLight-2d"/>
       <path d="M 12.015625 3.953125 
L 53.609375 3.953125 
L 53.609375 0 
L 6.9375 0 
L 6.9375 5.125 
L 25.09375 24.03125 
Q 31.84375 30.859375 37.3125 36.671875 
Q 42.390625 42.09375 44.09375 45.0625 
Q 45.796875 48.046875 45.796875 52.9375 
Q 45.796875 61.375 40.625 66.5 
Q 36.859375 70.21875 28.515625 70.21875 
Q 23.640625 70.21875 17.28125 67.390625 
Q 14.5 66.109375 7.8125 61.765625 
L 7.8125 66.9375 
Q 10.640625 68.953125 16.109375 71.390625 
Q 22.3125 74.171875 28.421875 74.21875 
Q 37.84375 74.21875 44.1875 69.390625 
Q 50.390625 64.546875 50.390625 53.421875 
Q 50.390625 48.921875 48.734375 44.921875 
Q 46.78125 40.234375 42.578125 35.40625 
Q 41.359375 33.984375 34.8125 27.25 
z
" id="DejaVuSans-ExtraLight-32"/>
      </defs>
      <g style="fill:#ffffff;" transform="translate(24.933438 266.958594)scale(0.18 -0.18)">
       <use xlink:href="#DejaVuSans-ExtraLight-2d"/>
       <use x="36.083984" xlink:href="#DejaVuSans-ExtraLight-32"/>
      </g>
     </g>
    </g>
    <g id="ytick_2">
     <g id="line2d_44">
      <g>
       <use style="fill:#ffffff;stroke:#ffffff;stroke-width:0.8;" x="49.88" xlink:href="#m7af1d7b7c3" y="197.7"/>
      </g>
     </g>
     <g id="text_6">
      <!-- -1 -->
      <defs>
       <path d="M 14.84375 4 
L 30.953125 4 
L 30.953125 68.40625 
L 10.984375 60.40625 
L 10.984375 64.890625 
L 30.859375 72.90625 
L 35.84375 72.90625 
L 35.84375 4 
L 51.953125 4 
L 51.953125 0 
L 14.84375 0 
z
" id="DejaVuSans-ExtraLight-31"/>
      </defs>
      <g style="fill:#ffffff;" transform="translate(24.933438 204.538594)scale(0.18 -0.18)">
       <use xlink:href="#DejaVuSans-ExtraLight-2d"/>
       <use x="36.083984" xlink:href="#DejaVuSans-ExtraLight-31"/>
      </g>
     </g>
    </g>
    <g id="ytick_3">
     <g id="line2d_45">
      <g>
       <use style="fill:#ffffff;stroke:#ffffff;stroke-width:0.8;" x="49.88" xlink:href="#m7af1d7b7c3" y="135.28"/>
      </g>
     </g>
     <g id="text_7">
      <!-- 0 -->
      <defs>
       <path d="M 31.5 70.21875 
Q 22.5625 70.21875 18.21875 61.53125 
Q 13.875 52.78125 13.875 36.375 
Q 13.875 19.96875 18.21875 11.234375 
Q 22.5625 2.546875 31.5 2.546875 
Q 40.71875 2.546875 45.0625 11.234375 
Q 49.421875 19.96875 49.421875 36.375 
Q 49.421875 52.78125 45.0625 61.53125 
Q 40.71875 70.21875 31.5 70.21875 
z
M 31.5 74.21875 
Q 42.046875 74.21875 48.1875 65.625 
Q 54.34375 56.984375 54.34375 36.375 
Q 54.34375 15.765625 48.1875 7.125 
Q 42.046875 -1.46875 31.5 -1.46875 
Q 21.234375 -1.46875 15.09375 7.125 
Q 8.9375 15.765625 8.9375 36.375 
Q 8.9375 56.984375 15.09375 65.625 
Q 21.234375 74.21875 31.5 74.21875 
z
" id="DejaVuSans-ExtraLight-30"/>
      </defs>
      <g style="fill:#ffffff;" transform="translate(31.4275 142.118594)scale(0.18 -0.18)">
       <use xlink:href="#DejaVuSans-ExtraLight-30"/>
      </g>
     </g>
    </g>
    <g id="ytick_4">
     <g id="line2d_46">
      <g>
       <use style="fill:#ffffff;stroke:#ffffff;stroke-width:0.8;" x="49.88" xlink:href="#m7af1d7b7c3" y="72.86"/>
      </g>
     </g>
     <g id="text_8">
      <!-- 1 -->
      <g style="fill:#ffffff;" transform="translate(31.4275 79.698594)scale(0.18 -0.18)">
       <use xlink:href="#DejaVuSans-ExtraLight-31"/>
      </g>
     </g>
    </g>
    <g id="ytick_5">
     <g id="line2d_47">
      <g>
       <use style="fill:#ffffff;stroke:#ffffff;stroke-width:0.8;" x="49.88" xlink:href="#m7af1d7b7c3" y="10.44"/>
      </g>
     </g>
     <g id="text_9">
      <!-- 2 -->
      <g style="fill:#ffffff;" transform="translate(31.4275 17.278594)scale(0.18 -0.18)">
       <use xlink:href="#DejaVuSans-ExtraLight-32"/>
      </g>
     </g>
    </g>
    <g id="ytick_6">
     <g id="line2d_48">
      <defs>
       <path d="M 0 0 
L -2 0 
" id="m677634b3c4" style="stroke:#ffffff;stroke-width:0.6;"/>
      </defs>
      <g>
       <use style="fill:#ffffff;stroke:#ffffff;stroke-width:0.6;" x="49.88" xlink:href="#m677634b3c4" y="228.91"/>
      </g>
     </g>
    </g>
    <g id="ytick_7">
     <g id="line2d_49">
      <g>
       <use style="fill:#ffffff;stroke:#ffffff;stroke-width:0.6;" x="49.88" xlink:href="#m677634b3c4" y="166.49"/>
      </g>
     </g>
    </g>
    <g id="ytick_8">
     <g id="line2d_50">
      <g>
       <use style="fill:#ffffff;stroke:#ffffff;stroke-width:0.6;" x="49.88" xlink:href="#m677634b3c4" y="104.07"/>
      </g>
     </g>
    </g>
    <g id="ytick_9">
     <g id="line2d_51">
      <g>
       <use style="fill:#ffffff;stroke:#ffffff;stroke-width:0.6;" x="49.88" xlink:href="#m677634b3c4" y="41.65"/>
      </g>
     </g>
    </g>
    <g id="text_10">
     <!-- Energy [eV] -->
     <defs>
      <path d="M 12.15625 72.90625 
L 53.375 72.90625 
L 53.375 68.84375 
L 17.140625 68.84375 
L 17.140625 40.875 
L 51.859375 40.875 
L 51.859375 36.921875 
L 17.140625 36.921875 
L 17.140625 3.953125 
L 54.25 3.953125 
L 54.25 0 
L 12.15625 0 
z
" id="DejaVuSans-ExtraLight-45"/>
      <path d="M 52.640625 33.015625 
L 52.640625 0 
L 48.140625 0 
L 48.140625 32.71875 
Q 48.140625 43.359375 44.71875 47.703125 
Q 41.3125 52.046875 34.671875 52.046875 
Q 26.90625 52.046875 21.390625 47.359375 
Q 15.828125 42.625 15.828125 30.90625 
L 15.828125 0 
L 11.328125 0 
L 11.328125 54.6875 
L 15.828125 54.6875 
L 15.828125 44.4375 
Q 18.21875 49.421875 22.125 52.046875 
Q 27.875 56 34.859375 56 
Q 42.96875 56 47.796875 50.484375 
Q 52.640625 45.015625 52.640625 33.015625 
z
" id="DejaVuSans-ExtraLight-6e"/>
      <path d="M 53.953125 29.59375 
L 53.953125 26.765625 
L 12.453125 26.765625 
Q 12.453125 13.578125 17.578125 8.296875 
Q 23.25 2.4375 34.421875 2.4375 
Q 37.359375 2.4375 42.1875 3.71875 
Q 47.078125 4.984375 51.859375 7.515625 
L 51.859375 2.78125 
Q 47.015625 0.734375 41.9375 -0.34375 
Q 36.859375 -1.421875 33.890625 -1.421875 
Q 21.234375 -1.421875 14.84375 5.421875 
Q 7.90625 12.703125 7.90625 26.765625 
Q 7.90625 41.359375 14.265625 48.53125 
Q 20.75 56 32.328125 56 
Q 43.0625 56 48.53125 48.921875 
Q 53.953125 41.5 53.953125 29.59375 
z
M 49.421875 30.5625 
Q 49.421875 42.09375 44.234375 47.359375 
Q 39.890625 52.046875 32.421875 52.046875 
Q 24.265625 52.046875 18.75 47.171875 
Q 13.671875 42.625 12.640625 30.5625 
z
" id="DejaVuSans-ExtraLight-65"/>
      <path d="M 41.015625 50.828125 
Q 39.9375 51.375 38.09375 51.765625 
Q 36.421875 52.046875 33.890625 52.046875 
Q 25.59375 52.046875 20.125 45.90625 
Q 15.828125 40.921875 15.828125 28.8125 
L 15.828125 0 
L 11.421875 0 
L 11.421875 54.6875 
L 15.828125 54.6875 
L 15.828125 44.4375 
Q 18.015625 48.828125 21.96875 51.859375 
Q 27.4375 56 34.859375 56 
Q 36.765625 56 38.1875 55.859375 
Q 39.65625 55.859375 41.015625 55.515625 
z
" id="DejaVuSans-ExtraLight-72"/>
      <path d="M 47.65625 27.984375 
Q 47.65625 39.359375 43.03125 45.625 
Q 38.421875 51.90625 30.078125 51.90625 
Q 21.828125 51.90625 17.203125 45.625 
Q 12.59375 39.359375 12.59375 27.984375 
Q 12.59375 16.65625 17.203125 10.375 
Q 21.828125 4.109375 30.078125 4.109375 
Q 38.421875 4.109375 43.03125 10.375 
Q 47.65625 16.65625 47.65625 27.984375 
z
M 52.15625 6.78125 
Q 52.15625 -10.25 45.65625 -15.515625 
Q 39.15625 -20.796875 29.203125 -20.796875 
Q 24.46875 -20.796875 20.265625 -20.125 
Q 16.0625 -19.390625 12.109375 -17.921875 
L 12.109375 -12.796875 
Q 16.0625 -14.9375 19.921875 -15.96875 
Q 23.78125 -17 27.78125 -17 
Q 35.9375 -17 41.796875 -13.53125 
Q 47.65625 -10.0625 47.65625 5.171875 
L 47.65625 13.71875 
Q 45.65625 8.109375 42.140625 4.890625 
Q 36.765625 -0.046875 30.078125 0 
Q 19.671875 0 13.859375 7.34375 
Q 8.0625 14.703125 8.0625 28.03125 
Q 8.0625 41.3125 13.859375 48.65625 
Q 19.671875 56 30.078125 56 
Q 36.71875 56 41.5 51.8125 
Q 45.21875 48.53125 47.65625 43.0625 
L 47.65625 54.6875 
L 52.15625 54.6875 
z
" id="DejaVuSans-ExtraLight-67"/>
      <path d="M 29.78125 -5.078125 
Q 26.859375 -12.359375 23.484375 -15.140625 
Q 18.953125 -18.890625 14.59375 -18.890625 
L 7.90625 -18.890625 
L 7.90625 -15.09375 
L 13.625 -15.09375 
Q 17.1875 -15.09375 19.875 -12.796875 
Q 23.34375 -9.8125 25.59375 -4.046875 
L 27.203125 0 
L 5.375 54.6875 
L 10.15625 54.6875 
L 29.59375 5.953125 
L 49.078125 54.6875 
L 53.8125 54.6875 
z
" id="DejaVuSans-ExtraLight-79"/>
      <path id="DejaVuSans-ExtraLight-20"/>
      <path d="M 11.328125 75.984375 
L 27.984375 75.984375 
L 27.984375 70.90625 
L 16.21875 70.90625 
L 16.21875 -9.078125 
L 27.984375 -9.078125 
L 27.984375 -13.1875 
L 11.328125 -13.1875 
z
" id="DejaVuSans-ExtraLight-5b"/>
      <path d="M 30.859375 0 
L 3.03125 72.90625 
L 8.59375 72.90625 
L 34.1875 4.890625 
L 59.96875 72.90625 
L 65.09375 72.90625 
L 37.3125 0 
z
" id="DejaVuSans-ExtraLight-56"/>
      <path d="M 27.984375 75.984375 
L 27.984375 -13.1875 
L 11.328125 -13.1875 
L 11.328125 -9.078125 
L 23.09375 -9.078125 
L 23.09375 70.90625 
L 11.328125 70.90625 
L 11.328125 75.984375 
z
" id="DejaVuSans-ExtraLight-5d"/>
     </defs>
     <g style="fill:#ffffff;" transform="translate(17.19 188.202812)rotate(-90)scale(0.18 -0.18)">
      <use xlink:href="#DejaVuSans-ExtraLight-45"/>
      <use x="63.183594" xlink:href="#DejaVuSans-ExtraLight-6e"/>
      <use x="126.5625" xlink:href="#DejaVuSans-ExtraLight-65"/>
      <use x="188.085938" xlink:href="#DejaVuSans-ExtraLight-72"/>
      <use x="229.183594" xlink:href="#DejaVuSans-ExtraLight-67"/>
      <use x="289.193359" xlink:href="#DejaVuSans-ExtraLight-79"/>
      <use x="348.373047" xlink:href="#DejaVuSans-ExtraLight-20"/>
      <use x="380.160156" xlink:href="#DejaVuSans-ExtraLight-5b"/>
      <use x="419.173828" xlink:href="#DejaVuSans-ExtraLight-65"/>
      <use x="480.587891" xlink:href="#DejaVuSans-ExtraLight-56"/>
      <use x="548.996094" xlink:href="#DejaVuSans-ExtraLight-5d"/>
     </g>
    </g>
   </g>
   <g id="line2d_52">
    <path clip-path="url(#p9f6798f16d)" d="M 49.88 89.020538 
L 51.86006 88.914424 
L 53.84012 88.602324 
L 55.820181 88.065512 
L 57.800241 87.303988 
L 59.780301 86.299026 
L 61.760361 85.044384 
L 63.740421 83.540062 
L 65.72048 81.792302 
L 67.700541 79.807346 
L 69.680601 77.616404 
L 71.660661 75.256928 
L 73.640721 77.098318 
L 75.620781 79.576392 
L 77.600841 82.297904 
L 79.580902 85.162982 
L 81.560962 88.084238 
L 83.541022 91.005494 
L 85.521082 93.858088 
L 87.501142 96.598326 
L 89.481203 99.188756 
L 91.461263 101.598168 
L 93.441322 103.801594 
L 95.421382 105.767824 
L 97.401442 107.478132 
L 99.381502 108.90755 
L 101.361563 110.049836 
L 103.341623 110.87378 
L 105.321683 111.379382 
L 107.301743 111.547916 
L 107.301743 111.547916 
L 108.44492 111.398108 
L 109.588097 110.961168 
L 110.731273 110.230854 
L 111.87445 109.21965 
L 113.017627 107.927556 
L 114.160804 106.360814 
L 115.303981 104.53815 
L 116.447157 102.459564 
L 117.590334 100.143782 
L 118.733511 97.590804 
L 119.876688 94.825598 
L 121.019865 91.848164 
L 122.163041 88.677228 
L 123.306218 85.319032 
L 124.449395 81.792302 
L 125.592572 78.115764 
L 126.735748 74.308144 
L 127.878925 70.39441 
L 129.022102 66.405772 
L 130.165279 62.385924 
L 131.308456 58.397286 
L 132.451632 54.514762 
L 133.594809 50.844466 
L 134.737986 47.51748 
L 135.881163 44.696096 
L 137.02434 42.517638 
L 138.167516 41.262996 
L 139.310693 40.794846 
L 140.45387 40.46402 
L 140.45387 40.46402 
L 142.740224 41.862228 
L 145.026578 44.24043 
L 147.31293 46.849586 
L 149.599284 49.333902 
L 151.885639 51.51236 
L 154.171993 53.335024 
L 156.458347 54.801894 
L 158.744699 55.956664 
L 161.031053 56.855512 
L 163.317407 57.579584 
L 165.603761 58.22251 
L 167.890115 58.959066 
L 170.176467 60.12632 
L 172.462821 62.161212 
L 174.749175 64.988838 
L 177.035529 68.153532 
L 179.321881 71.343194 
L 181.608235 74.383048 
L 183.894589 77.179464 
L 186.180943 79.645054 
L 188.467297 81.748608 
L 190.753649 83.490126 
L 193.040003 84.913302 
L 195.326357 86.080556 
L 197.612711 87.06055 
L 199.899065 87.865768 
L 202.185417 88.483726 
L 204.471771 88.883214 
L 206.758125 89.020538 
" style="fill:none;stroke:#7f7f7f;stroke-linecap:square;stroke-opacity:0.3;stroke-width:2.5;"/>
   </g>
   <g id="line2d_53">
    <path clip-path="url(#p9f6798f16d)" d="M 49.88 76.23068 
L 51.86006 76.068388 
L 53.84012 75.593996 
L 55.820181 74.863682 
L 57.800241 73.95235 
L 59.780301 72.98484 
L 61.760361 72.129686 
L 63.740421 71.592874 
L 65.72048 71.561664 
L 67.700541 72.123444 
L 69.680601 73.271972 
L 71.660661 74.957312 
L 73.640721 72.772612 
L 75.620781 70.213392 
L 77.600841 67.635446 
L 79.580902 65.101194 
L 81.560962 62.660572 
L 83.541022 60.363516 
L 85.521082 58.241236 
L 87.501142 56.3187 
L 89.481203 54.614634 
L 91.461263 53.13528 
L 93.441322 51.868154 
L 95.421382 50.807014 
L 97.401442 49.939376 
L 99.381502 49.258998 
L 101.361563 48.740912 
L 103.341623 48.378876 
L 105.321683 48.166648 
L 107.301743 48.097986 
L 107.301743 48.097986 
L 108.44492 48.104228 
L 109.588097 48.129196 
L 110.731273 48.17289 
L 111.87445 48.229068 
L 113.017627 48.291488 
L 114.160804 48.353908 
L 115.303981 48.410086 
L 116.447157 48.460022 
L 117.590334 48.48499 
L 118.733511 48.48499 
L 119.876688 48.45378 
L 121.019865 48.378876 
L 122.163041 48.254036 
L 123.306218 48.07926 
L 124.449395 47.848306 
L 125.592572 47.54869 
L 126.735748 47.180412 
L 127.878925 46.749714 
L 129.022102 46.256596 
L 130.165279 45.701058 
L 131.308456 45.089342 
L 132.451632 44.440174 
L 133.594809 43.766038 
L 134.737986 43.091902 
L 135.881163 42.43025 
L 137.02434 41.80605 
L 138.167516 41.094462 
L 139.310693 40.43281 
L 140.45387 40.414084 
L 140.45387 40.414084 
L 142.740224 40.114468 
L 145.026578 40.320454 
L 147.31293 41.019558 
L 149.599284 42.124392 
L 151.885639 43.5226 
L 154.171993 45.101826 
L 156.458347 46.780924 
L 158.744699 48.503716 
L 161.031053 50.23275 
L 163.317407 51.9493 
L 165.603761 53.653366 
L 167.890115 55.338706 
L 170.176467 57.011562 
L 172.462821 58.646966 
L 174.749175 60.232434 
L 177.035529 61.736756 
L 179.321881 63.159932 
L 181.608235 64.483236 
L 183.894589 65.725394 
L 186.180943 66.9301 
L 188.467297 68.122322 
L 190.753649 69.358238 
L 193.040003 70.64409 
L 195.326357 71.967394 
L 197.612711 73.26573 
L 199.899065 74.445468 
L 202.185417 75.394252 
L 204.471771 76.01221 
L 206.758125 76.23068 
" style="fill:none;stroke:#7f7f7f;stroke-linecap:square;stroke-opacity:0.3;stroke-width:2.5;"/>
   </g>
   <g id="line2d_54">
    <path clip-path="url(#p9f6798f16d)" d="M 49.88 60.257402 
L 51.86006 60.326064 
L 53.84012 60.494598 
L 55.820181 60.694342 
L 57.800241 60.806698 
L 59.780301 60.6881 
L 61.760361 60.170014 
L 63.740421 59.06518 
L 65.72048 57.261242 
L 67.700541 54.72699 
L 69.680601 51.487392 
L 71.660661 47.5799 
L 73.640721 43.02324 
L 75.620781 37.84238 
L 77.600841 32.043562 
L 79.580902 25.633028 
L 81.560962 18.629504 
L 83.541022 11.03299 
L 85.521082 2.868454 
L 86.399489 -1 
M 134.355376 -1 
L 134.737986 -0.364902 
L 135.881163 1.008338 
L 137.02434 1.807314 
L 138.167516 2.088204 
L 139.310693 2.038268 
L 140.45387 1.95088 
L 140.45387 1.95088 
L 142.740224 2.768582 
L 145.026578 5.515062 
L 147.31293 9.641024 
L 149.599284 14.422396 
L 151.885639 19.42848 
L 154.171993 24.409596 
L 156.458347 29.25963 
L 158.744699 33.903678 
L 161.031053 38.323014 
L 163.317407 42.49267 
L 165.603761 46.387678 
L 167.890115 49.88944 
L 170.176467 52.679614 
L 172.462821 54.327502 
L 174.749175 54.908008 
L 177.035529 54.85183 
L 179.321881 54.483552 
L 181.608235 54.021644 
L 183.894589 53.722028 
L 186.180943 53.88432 
L 188.467297 54.739474 
L 190.753649 56.200102 
L 193.040003 57.866716 
L 195.326357 59.28365 
L 197.612711 60.182498 
L 199.899065 60.538292 
L 202.185417 60.507082 
L 204.471771 60.338548 
L 206.758125 60.257402 
" style="fill:none;stroke:#7f7f7f;stroke-linecap:square;stroke-opacity:0.3;stroke-width:2.5;"/>
   </g>
   <g id="line2d_55">
    <path clip-path="url(#p9f6798f16d)" d="M 49.88 60.257402 
L 51.86006 60.013964 
L 53.84012 59.296134 
L 55.820181 58.09767 
L 57.800241 56.424814 
L 59.780301 54.29005 
L 61.760361 51.693378 
L 63.740421 48.64104 
L 65.72048 45.133036 
L 67.700541 41.175608 
L 69.680601 36.774998 
L 71.660661 31.937448 
L 73.640721 26.656716 
L 75.620781 20.95777 
L 77.600841 16.001622 
L 79.580902 11.944322 
L 81.560962 7.262822 
L 83.541022 1.988332 
L 84.557041 -1 
M 153.926728 -1 
L 154.171993 -0.471016 
L 156.458347 4.22921 
L 158.744699 8.648546 
L 161.031053 12.755782 
L 163.317407 16.507224 
L 165.603761 19.884146 
L 167.890115 22.886548 
L 170.176467 25.54564 
L 172.462821 27.905116 
L 174.749175 30.064848 
L 177.035529 32.137192 
L 179.321881 34.246988 
L 181.608235 36.525318 
L 183.894589 39.05957 
L 186.180943 41.849744 
L 188.467297 44.827178 
L 190.753649 47.848306 
L 193.040003 50.744594 
L 195.326357 53.391202 
L 197.612711 55.688258 
L 199.899065 57.585826 
L 202.185417 59.021486 
L 204.471771 59.93906 
L 206.758125 60.257402 
" style="fill:none;stroke:#7f7f7f;stroke-linecap:square;stroke-opacity:0.3;stroke-width:2.5;"/>
   </g>
   <g id="line2d_56">
    <path clip-path="url(#p9f6798f16d)" d="M 49.88 9.010582 
L 51.86006 9.772106 
L 53.84012 11.700884 
L 55.820181 14.203926 
L 57.800241 16.856776 
L 59.780301 19.39727 
L 61.760361 21.663116 
L 63.740421 23.498264 
L 65.72048 24.746664 
L 67.700541 25.289718 
L 69.680601 25.033796 
L 71.660661 23.947688 
L 73.640721 22.056362 
L 75.620781 19.391028 
L 77.600841 14.84061 
L 79.580902 8.330204 
L 81.560962 1.445278 
L 82.231966 -1 
M 179.604258 -1 
L 181.608235 6.763462 
L 183.894589 14.010424 
L 186.180943 19.309882 
L 188.467297 22.418398 
L 190.753649 23.410876 
L 193.040003 22.711772 
L 195.326357 20.870382 
L 197.612711 18.311162 
L 199.899065 15.383664 
L 202.185417 12.424956 
L 204.471771 10.009302 
L 206.758125 9.010582 
" style="fill:none;stroke:#7f7f7f;stroke-linecap:square;stroke-opacity:0.3;stroke-width:2.5;"/>
   </g>
   <g id="line2d_57">
    <path clip-path="url(#p9f6798f16d)" d="M 49.88 9.010582 
L 51.86006 8.81708 
L 53.84012 8.22409 
L 55.820181 7.250338 
L 57.800241 5.902066 
L 59.780301 4.204242 
L 61.760361 2.163108 
L 63.740421 -0.196368 
L 64.337434 -1 
M 191.38892 -1 
L 193.040003 0.902224 
L 195.326357 3.16807 
L 197.612711 5.128058 
L 199.899065 6.750978 
L 202.185417 7.980652 
L 204.471771 8.748418 
L 206.758125 9.010582 
" style="fill:none;stroke:#7f7f7f;stroke-linecap:square;stroke-opacity:0.3;stroke-width:2.5;"/>
   </g>
   <g id="line2d_58">
    <path clip-path="url(#p9f6798f16d)" style="fill:none;stroke:#7f7f7f;stroke-linecap:square;stroke-opacity:0.3;stroke-width:2.5;"/>
   </g>
   <g id="line2d_59">
    <path clip-path="url(#p9f6798f16d)" style="fill:none;stroke:#7f7f7f;stroke-linecap:square;stroke-opacity:0.3;stroke-width:2.5;"/>
   </g>
   <g id="line2d_60">
    <path clip-path="url(#p9f6798f16d)" style="fill:none;stroke:#7f7f7f;stroke-linecap:square;stroke-opacity:0.3;stroke-width:2.5;"/>
   </g>
   <g id="line2d_61">
    <path clip-path="url(#p9f6798f16d)" style="fill:none;stroke:#7f7f7f;stroke-linecap:square;stroke-opacity:0.3;stroke-width:2.5;"/>
   </g>
   <g id="line2d_62">
    <path clip-path="url(#p9f6798f16d)" style="fill:none;stroke:#7f7f7f;stroke-linecap:square;stroke-opacity:0.3;stroke-width:2.5;"/>
   </g>
   <g id="line2d_63">
    <path clip-path="url(#p9f6798f16d)" style="fill:none;stroke:#7f7f7f;stroke-linecap:square;stroke-opacity:0.3;stroke-width:2.5;"/>
   </g>
   <g id="line2d_64">
    <path clip-path="url(#p9f6798f16d)" style="fill:none;stroke:#7f7f7f;stroke-linecap:square;stroke-opacity:0.3;stroke-width:2.5;"/>
   </g>
   <g id="line2d_65">
    <path clip-path="url(#p9f6798f16d)" style="fill:none;stroke:#7f7f7f;stroke-linecap:square;stroke-opacity:0.3;stroke-width:2.5;"/>
   </g>
   <g id="line2d_66">
    <path clip-path="url(#p9f6798f16d)" style="fill:none;stroke:#7f7f7f;stroke-linecap:square;stroke-opacity:0.3;stroke-width:2.5;"/>
   </g>
   <g id="line2d_67">
    <path clip-path="url(#p9f6798f16d)" style="fill:none;stroke:#7f7f7f;stroke-linecap:square;stroke-opacity:0.3;stroke-width:2.5;"/>
   </g>
   <g id="line2d_68">
    <path clip-path="url(#p9f6798f16d)" style="fill:none;stroke:#7f7f7f;stroke-linecap:square;stroke-opacity:0.3;stroke-width:2.5;"/>
   </g>
   <g id="line2d_69">
    <path clip-path="url(#p9f6798f16d)" style="fill:none;stroke:#7f7f7f;stroke-linecap:square;stroke-opacity:0.3;stroke-width:2.5;"/>
   </g>
   <g id="line2d_70">
    <path clip-path="url(#p9f6798f16d)" style="fill:none;stroke:#7f7f7f;stroke-linecap:square;stroke-opacity:0.3;stroke-width:2.5;"/>
   </g>
   <g id="line2d_71">
    <path clip-path="url(#p9f6798f16d)" style="fill:none;stroke:#7f7f7f;stroke-linecap:square;stroke-opacity:0.3;stroke-width:2.5;"/>
   </g>
   <g id="line2d_72">
    <path clip-path="url(#p9f6798f16d)" style="fill:none;stroke:#7f7f7f;stroke-linecap:square;stroke-opacity:0.3;stroke-width:2.5;"/>
   </g>
   <g id="line2d_73">
    <path clip-path="url(#p9f6798f16d)" style="fill:none;stroke:#7f7f7f;stroke-linecap:square;stroke-opacity:0.3;stroke-width:2.5;"/>
   </g>
   <g id="line2d_74">
    <path clip-path="url(#p9f6798f16d)" style="fill:none;stroke:#7f7f7f;stroke-linecap:square;stroke-opacity:0.3;stroke-width:2.5;"/>
   </g>
   <g id="line2d_75">
    <path clip-path="url(#p9f6798f16d)" style="fill:none;stroke:#7f7f7f;stroke-linecap:square;stroke-opacity:0.3;stroke-width:2.5;"/>
   </g>
   <g id="line2d_76">
    <path clip-path="url(#p9f6798f16d)" style="fill:none;stroke:#7f7f7f;stroke-linecap:square;stroke-opacity:0.3;stroke-width:2.5;"/>
   </g>
   <g id="line2d_77">
    <path clip-path="url(#p9f6798f16d)" style="fill:none;stroke:#7f7f7f;stroke-linecap:square;stroke-opacity:0.3;stroke-width:2.5;"/>
   </g>
   <g id="line2d_78">
    <path clip-path="url(#p9f6798f16d)" style="fill:none;stroke:#7f7f7f;stroke-linecap:square;stroke-opacity:0.3;stroke-width:2.5;"/>
   </g>
   <g id="line2d_79">
    <path clip-path="url(#p9f6798f16d)" style="fill:none;stroke:#7f7f7f;stroke-linecap:square;stroke-opacity:0.3;stroke-width:2.5;"/>
   </g>
   <g id="line2d_80">
    <path clip-path="url(#p9f6798f16d)" style="fill:none;stroke:#7f7f7f;stroke-linecap:square;stroke-opacity:0.3;stroke-width:2.5;"/>
   </g>
   <g id="line2d_81">
    <path clip-path="url(#p9f6798f16d)" style="fill:none;stroke:#7f7f7f;stroke-linecap:square;stroke-opacity:0.3;stroke-width:2.5;"/>
   </g>
   <g id="line2d_82">
    <path clip-path="url(#p9f6798f16d)" style="fill:none;stroke:#7f7f7f;stroke-linecap:square;stroke-opacity:0.3;stroke-width:2.5;"/>
   </g>
   <g id="line2d_83">
    <path clip-path="url(#p9f6798f16d)" style="fill:none;stroke:#7f7f7f;stroke-linecap:square;stroke-opacity:0.3;stroke-width:2.5;"/>
   </g>
   <g id="line2d_84">
    <path clip-path="url(#p9f6798f16d)" style="fill:none;stroke:#7f7f7f;stroke-linecap:square;stroke-opacity:0.3;stroke-width:2.5;"/>
   </g>
   <g id="line2d_85">
    <path clip-path="url(#p9f6798f16d)" style="fill:none;stroke:#7f7f7f;stroke-linecap:square;stroke-opacity:0.3;stroke-width:2.5;"/>
   </g>
   <g id="line2d_86">
    <path clip-path="url(#p9f6798f16d)" style="fill:none;stroke:#7f7f7f;stroke-linecap:square;stroke-opacity:0.3;stroke-width:2.5;"/>
   </g>
   <g id="line2d_87">
    <path clip-path="url(#p9f6798f16d)" style="fill:none;stroke:#7f7f7f;stroke-linecap:square;stroke-opacity:0.3;stroke-width:2.5;"/>
   </g>
   <g id="line2d_88">
    <path clip-path="url(#p9f6798f16d)" style="fill:none;stroke:#7f7f7f;stroke-linecap:square;stroke-opacity:0.3;stroke-width:2.5;"/>
   </g>
   <g id="line2d_89">
    <path clip-path="url(#p9f6798f16d)" style="fill:none;stroke:#7f7f7f;stroke-linecap:square;stroke-opacity:0.3;stroke-width:2.5;"/>
   </g>
   <g id="line2d_90">
    <path clip-path="url(#p9f6798f16d)" style="fill:none;stroke:#7f7f7f;stroke-linecap:square;stroke-opacity:0.3;stroke-width:2.5;"/>
   </g>
   <g id="line2d_91">
    <path clip-path="url(#p9f6798f16d)" style="fill:none;stroke:#7f7f7f;stroke-linecap:square;stroke-opacity:0.3;stroke-width:2.5;"/>
   </g>
   <g id="line2d_92">
    <path clip-path="url(#p9f6798f16d)" style="fill:none;stroke:#7f7f7f;stroke-linecap:square;stroke-opacity:0.3;stroke-width:2.5;"/>
   </g>
   <g id="line2d_93">
    <path clip-path="url(#p9f6798f16d)" style="fill:none;stroke:#7f7f7f;stroke-linecap:square;stroke-opacity:0.3;stroke-width:2.5;"/>
   </g>
   <g id="line2d_94">
    <path clip-path="url(#p9f6798f16d)" style="fill:none;stroke:#7f7f7f;stroke-linecap:square;stroke-opacity:0.3;stroke-width:2.5;"/>
   </g>
   <g id="line2d_95">
    <path clip-path="url(#p9f6798f16d)" style="fill:none;stroke:#7f7f7f;stroke-linecap:square;stroke-opacity:0.3;stroke-width:2.5;"/>
   </g>
   <g id="line2d_96">
    <path clip-path="url(#p9f6798f16d)" style="fill:none;stroke:#7f7f7f;stroke-linecap:square;stroke-opacity:0.3;stroke-width:2.5;"/>
   </g>
   <g id="line2d_97">
    <path clip-path="url(#p9f6798f16d)" style="fill:none;stroke:#7f7f7f;stroke-linecap:square;stroke-opacity:0.3;stroke-width:2.5;"/>
   </g>
   <g id="line2d_98">
    <path clip-path="url(#p9f6798f16d)" style="fill:none;stroke:#7f7f7f;stroke-linecap:square;stroke-opacity:0.3;stroke-width:2.5;"/>
   </g>
   <g id="line2d_99">
    <path clip-path="url(#p9f6798f16d)" style="fill:none;stroke:#7f7f7f;stroke-linecap:square;stroke-opacity:0.3;stroke-width:2.5;"/>
   </g>
   <g id="line2d_100">
    <path clip-path="url(#p9f6798f16d)" style="fill:none;stroke:#7f7f7f;stroke-linecap:square;stroke-opacity:0.3;stroke-width:2.5;"/>
   </g>
   <g id="line2d_101">
    <path clip-path="url(#p9f6798f16d)" style="fill:none;stroke:#7f7f7f;stroke-linecap:square;stroke-opacity:0.3;stroke-width:2.5;"/>
   </g>
   <g id="line2d_102">
    <path clip-path="url(#p9f6798f16d)" style="fill:none;stroke:#7f7f7f;stroke-linecap:square;stroke-opacity:0.3;stroke-width:2.5;"/>
   </g>
   <g id="line2d_103">
    <path clip-path="url(#p9f6798f16d)" style="fill:none;stroke:#7f7f7f;stroke-linecap:square;stroke-opacity:0.3;stroke-width:2.5;"/>
   </g>
   <g id="line2d_104">
    <path clip-path="url(#p9f6798f16d)" style="fill:none;stroke:#7f7f7f;stroke-linecap:square;stroke-opacity:0.3;stroke-width:2.5;"/>
   </g>
   <g id="line2d_105">
    <path clip-path="url(#p9f6798f16d)" style="fill:none;stroke:#7f7f7f;stroke-linecap:square;stroke-opacity:0.3;stroke-width:2.5;"/>
   </g>
   <g id="line2d_106">
    <path clip-path="url(#p9f6798f16d)" style="fill:none;stroke:#7f7f7f;stroke-linecap:square;stroke-opacity:0.3;stroke-width:2.5;"/>
   </g>
   <g id="line2d_107">
    <path clip-path="url(#p9f6798f16d)" style="fill:none;stroke:#7f7f7f;stroke-linecap:square;stroke-opacity:0.3;stroke-width:2.5;"/>
   </g>
   <g id="line2d_108">
    <path clip-path="url(#p9f6798f16d)" style="fill:none;stroke:#7f7f7f;stroke-linecap:square;stroke-opacity:0.3;stroke-width:2.5;"/>
   </g>
   <g id="line2d_109">
    <path clip-path="url(#p9f6798f16d)" style="fill:none;stroke:#7f7f7f;stroke-linecap:square;stroke-opacity:0.3;stroke-width:2.5;"/>
   </g>
   <g id="line2d_110">
    <path clip-path="url(#p9f6798f16d)" style="fill:none;stroke:#7f7f7f;stroke-linecap:square;stroke-opacity:0.3;stroke-width:2.5;"/>
   </g>
   <g id="line2d_111">
    <path clip-path="url(#p9f6798f16d)" style="fill:none;stroke:#7f7f7f;stroke-linecap:square;stroke-opacity:0.3;stroke-width:2.5;"/>
   </g>
   <g id="line2d_112">
    <path clip-path="url(#p9f6798f16d)" style="fill:none;stroke:#7f7f7f;stroke-linecap:square;stroke-opacity:0.3;stroke-width:2.5;"/>
   </g>
   <g id="line2d_113">
    <path clip-path="url(#p9f6798f16d)" style="fill:none;stroke:#7f7f7f;stroke-linecap:square;stroke-opacity:0.3;stroke-width:2.5;"/>
   </g>
   <g id="line2d_114">
    <path clip-path="url(#p9f6798f16d)" style="fill:none;stroke:#7f7f7f;stroke-linecap:square;stroke-opacity:0.3;stroke-width:2.5;"/>
   </g>
   <g id="line2d_115">
    <path clip-path="url(#p9f6798f16d)" style="fill:none;stroke:#7f7f7f;stroke-linecap:square;stroke-opacity:0.3;stroke-width:2.5;"/>
   </g>
   <g id="line2d_116">
    <path clip-path="url(#p9f6798f16d)" style="fill:none;stroke:#7f7f7f;stroke-linecap:square;stroke-opacity:0.3;stroke-width:2.5;"/>
   </g>
   <g id="line2d_117">
    <path clip-path="url(#p9f6798f16d)" style="fill:none;stroke:#7f7f7f;stroke-linecap:square;stroke-opacity:0.3;stroke-width:2.5;"/>
   </g>
   <g id="line2d_118">
    <path clip-path="url(#p9f6798f16d)" style="fill:none;stroke:#7f7f7f;stroke-linecap:square;stroke-opacity:0.3;stroke-width:2.5;"/>
   </g>
   <g id="line2d_119">
    <path clip-path="url(#p9f6798f16d)" style="fill:none;stroke:#7f7f7f;stroke-linecap:square;stroke-opacity:0.3;stroke-width:2.5;"/>
   </g>
   <g id="line2d_120">
    <path clip-path="url(#p9f6798f16d)" style="fill:none;stroke:#7f7f7f;stroke-linecap:square;stroke-opacity:0.3;stroke-width:2.5;"/>
   </g>
   <g id="line2d_121">
    <path clip-path="url(#p9f6798f16d)" style="fill:none;stroke:#7f7f7f;stroke-linecap:square;stroke-opacity:0.3;stroke-width:2.5;"/>
   </g>
   <g id="line2d_122">
    <path clip-path="url(#p9f6798f16d)" style="fill:none;stroke:#7f7f7f;stroke-linecap:square;stroke-opacity:0.3;stroke-width:2.5;"/>
   </g>
   <g id="line2d_123">
    <path clip-path="url(#p9f6798f16d)" style="fill:none;stroke:#7f7f7f;stroke-linecap:square;stroke-opacity:0.3;stroke-width:2.5;"/>
   </g>
   <g id="line2d_124">
    <path clip-path="url(#p9f6798f16d)" style="fill:none;stroke:#7f7f7f;stroke-linecap:square;stroke-opacity:0.3;stroke-width:2.5;"/>
   </g>
   <g id="line2d_125">
    <path clip-path="url(#p9f6798f16d)" style="fill:none;stroke:#7f7f7f;stroke-linecap:square;stroke-opacity:0.3;stroke-width:2.5;"/>
   </g>
   <g id="line2d_126">
    <path clip-path="url(#p9f6798f16d)" style="fill:none;stroke:#7f7f7f;stroke-linecap:square;stroke-opacity:0.3;stroke-width:2.5;"/>
   </g>
   <g id="line2d_127">
    <path clip-path="url(#p9f6798f16d)" style="fill:none;stroke:#7f7f7f;stroke-linecap:square;stroke-opacity:0.3;stroke-width:2.5;"/>
   </g>
   <g id="line2d_128">
    <path clip-path="url(#p9f6798f16d)" style="fill:none;stroke:#7f7f7f;stroke-linecap:square;stroke-opacity:0.3;stroke-width:2.5;"/>
   </g>
   <g id="line2d_129">
    <path clip-path="url(#p9f6798f16d)" d="M 49.88 64.65177 
L 51.86006 64.514446 
L 53.84012 64.102474 
L 55.820181 63.409612 
L 57.800241 62.442102 
L 59.780301 61.181218 
L 61.760361 59.645686 
L 63.740421 57.829264 
L 65.72048 55.744436 
L 67.700541 53.422412 
L 69.680601 50.894402 
L 71.660661 49.458742 
L 73.640721 52.392482 
L 75.620781 55.482272 
L 77.600841 58.615756 
L 79.580902 61.71803 
L 81.560962 64.701706 
L 83.541022 67.52309 
L 85.521082 70.132246 
L 87.501142 72.497964 
L 89.481203 74.601518 
L 91.461263 76.424182 
L 93.441322 77.984682 
L 95.421382 79.295502 
L 97.401442 80.38161 
L 99.381502 81.267974 
L 101.361563 81.967078 
L 103.341623 82.47268 
L 105.321683 82.791022 
L 107.301743 82.897136 
L 107.301743 82.897136 
L 108.44492 82.778538 
L 109.588097 82.44147 
L 110.731273 81.873448 
L 111.87445 81.074472 
L 113.017627 80.057026 
L 114.160804 78.814868 
L 115.303981 77.35424 
L 116.447157 75.6689 
L 117.590334 73.771332 
L 118.733511 71.649052 
L 119.876688 69.308302 
L 121.019865 66.749082 
L 122.163041 63.977634 
L 123.306218 60.993958 
L 124.449395 57.810538 
L 125.592572 54.427374 
L 126.735748 50.863192 
L 127.878925 47.130476 
L 129.022102 43.260436 
L 130.165279 39.290524 
L 131.308456 35.258192 
L 132.451632 31.232102 
L 133.594809 27.305884 
L 134.737986 23.591894 
L 135.881163 20.264908 
L 137.02434 17.537154 
L 138.167516 15.851814 
L 139.310693 15.271308 
L 140.45387 14.796916 
L 140.45387 14.796916 
L 142.740224 16.763146 
L 145.026578 19.821726 
L 147.31293 22.98642 
L 149.599284 25.895192 
L 151.885639 28.423202 
L 154.171993 30.551724 
L 156.458347 32.336936 
L 158.744699 33.841258 
L 161.031053 35.114626 
L 163.317407 36.213218 
L 165.603761 37.130792 
L 167.890115 37.854864 
L 170.176467 38.34174 
L 172.462821 38.578936 
L 174.749175 38.772438 
L 177.035529 40.982106 
L 179.321881 44.05317 
L 181.608235 47.068056 
L 183.894589 49.901924 
L 186.180943 52.517322 
L 188.467297 54.870556 
L 190.753649 56.97411 
L 193.040003 58.84671 
L 195.326357 60.488356 
L 197.612711 61.90529 
L 199.899065 63.066302 
L 202.185417 63.93394 
L 204.471771 64.470752 
L 206.758125 64.65177 
" style="fill:none;stroke:#7f7f7f;stroke-linecap:square;stroke-opacity:0.3;stroke-width:2.5;"/>
   </g>
   <g id="line2d_130">
    <path clip-path="url(#p9f6798f16d)" d="M 49.88 47.192896 
L 51.86006 47.005636 
L 53.84012 46.468824 
L 55.820181 45.626154 
L 57.800241 44.58374 
L 59.780301 43.516358 
L 61.760361 42.698656 
L 63.740421 42.480186 
L 65.72048 43.135596 
L 67.700541 44.639918 
L 69.680601 46.818376 
L 71.660661 48.191616 
L 73.640721 45.376474 
L 75.620781 42.511396 
L 77.600841 39.65256 
L 79.580902 36.87487 
L 81.560962 34.234504 
L 83.541022 31.781398 
L 85.521082 29.546762 
L 87.501142 27.561806 
L 89.481203 25.832772 
L 91.461263 24.347176 
L 93.441322 23.098776 
L 95.421382 22.068846 
L 97.401442 21.244902 
L 99.381502 20.595734 
L 101.361563 20.108858 
L 103.341623 19.778032 
L 105.321683 19.578288 
L 107.301743 19.515868 
L 107.301743 19.515868 
L 108.44492 19.534594 
L 109.588097 19.597014 
L 110.731273 19.696886 
L 111.87445 19.83421 
L 113.017627 19.996502 
L 114.160804 20.183762 
L 115.303981 20.383506 
L 116.447157 20.58325 
L 117.590334 20.789236 
L 118.733511 20.976496 
L 119.876688 21.14503 
L 121.019865 21.276112 
L 122.163041 21.369742 
L 123.306218 21.407194 
L 124.449395 21.388468 
L 125.592572 21.294838 
L 126.735748 21.132546 
L 127.878925 20.889108 
L 129.022102 20.564524 
L 130.165279 20.152552 
L 131.308456 19.665676 
L 132.451632 19.110138 
L 133.594809 18.49218 
L 134.737986 17.83677 
L 135.881163 17.162634 
L 137.02434 16.488498 
L 138.167516 15.639586 
L 139.310693 14.734496 
L 140.45387 14.74698 
L 140.45387 14.74698 
L 142.740224 14.116538 
L 145.026578 13.985456 
L 147.31293 14.391186 
L 149.599284 15.24634 
L 151.885639 16.438562 
L 154.171993 17.849254 
L 156.458347 19.36606 
L 158.744699 20.932802 
L 161.031053 22.493302 
L 163.317407 24.035076 
L 165.603761 25.558124 
L 167.890115 27.817728 
L 170.176467 30.994906 
L 172.462821 34.165842 
L 174.749175 37.080856 
L 177.035529 37.611426 
L 179.321881 36.87487 
L 181.608235 35.776278 
L 183.894589 36.007232 
L 186.180943 37.074614 
L 188.467297 38.198174 
L 190.753649 39.440332 
L 193.040003 40.819814 
L 195.326357 42.292926 
L 197.612711 43.778522 
L 199.899065 45.139278 
L 202.185417 46.231628 
L 204.471771 46.943216 
L 206.758125 47.192896 
" style="fill:none;stroke:#7f7f7f;stroke-linecap:square;stroke-opacity:0.3;stroke-width:2.5;"/>
   </g>
   <g id="line2d_131">
    <path clip-path="url(#p9f6798f16d)" d="M 49.88 26.862702 
L 51.86006 27.068688 
L 53.84012 27.630468 
L 55.820181 28.410718 
L 57.800241 29.222178 
L 59.780301 29.865104 
L 61.760361 30.089816 
L 63.740421 29.63415 
L 65.72048 28.310846 
L 67.700541 26.151114 
L 69.680601 23.26731 
L 71.660661 19.734338 
L 73.640721 15.570924 
L 75.620781 10.795794 
L 77.600841 5.390222 
L 79.580902 -0.652034 
L 79.684351 -1 
M 149.465861 -1 
L 149.599284 -0.801842 
L 151.885639 3.018262 
L 154.171993 6.94448 
L 156.458347 10.81452 
L 158.744699 14.522268 
L 161.031053 18.042756 
L 163.317407 21.39471 
L 165.603761 24.634308 
L 167.890115 27.062446 
L 170.176467 28.535558 
L 172.462821 29.964976 
L 174.749175 31.338216 
L 177.035529 32.624068 
L 179.321881 33.822532 
L 181.608235 34.93985 
L 183.894589 34.4717 
L 186.180943 33.12967 
L 188.467297 31.968658 
L 190.753649 31.138472 
L 193.040003 30.614144 
L 195.326357 30.170962 
L 197.612711 29.565488 
L 199.899065 28.741544 
L 202.185417 27.842696 
L 204.471771 27.13735 
L 206.758125 26.862702 
" style="fill:none;stroke:#7f7f7f;stroke-linecap:square;stroke-opacity:0.3;stroke-width:2.5;"/>
   </g>
   <g id="line2d_132">
    <path clip-path="url(#p9f6798f16d)" d="M 49.88 26.862702 
L 51.86006 26.650474 
L 53.84012 26.007548 
L 55.820181 24.933924 
L 57.800241 23.429602 
L 59.780301 21.500824 
L 61.760361 19.153832 
L 63.740421 16.376142 
L 65.72048 13.18648 
L 67.700541 9.591088 
L 69.680601 5.589966 
L 71.660661 2.525144 
L 73.640721 0.022102 
L 74.303762 -1 
M 171.769847 -1 
L 172.462821 -0.42108 
L 174.749175 1.176872 
L 177.035529 2.568838 
L 179.321881 3.892142 
L 181.608235 5.315318 
L 183.894589 7.013142 
L 186.180943 9.12918 
L 188.467297 11.6884 
L 190.753649 14.534752 
L 193.040003 17.424798 
L 195.326357 20.121342 
L 197.612711 22.462092 
L 199.899065 24.347176 
L 202.185417 25.7329 
L 204.471771 26.581812 
L 206.758125 26.862702 
" style="fill:none;stroke:#7f7f7f;stroke-linecap:square;stroke-opacity:0.3;stroke-width:2.5;"/>
   </g>
   <g id="line2d_133">
    <path clip-path="url(#p9f6798f16d)" d="M 56.307462 -1 
L 57.800241 0.802352 
L 59.780301 2.943358 
L 61.760361 4.647424 
L 63.740421 5.746016 
L 65.72048 6.095568 
L 67.700541 5.646144 
L 69.680601 4.428954 
L 71.660661 1.20184 
L 72.574873 -1 
M 186.686101 -1 
L 188.467297 2.26298 
L 190.753649 4.547552 
L 193.040003 5.00946 
L 195.326357 4.016982 
L 197.612711 2.04451 
L 199.899065 -0.508468 
L 200.305478 -1 
" style="fill:none;stroke:#7f7f7f;stroke-linecap:square;stroke-opacity:0.3;stroke-width:2.5;"/>
   </g>
   <g id="line2d_134">
    <path clip-path="url(#p9f6798f16d)" style="fill:none;stroke:#7f7f7f;stroke-linecap:square;stroke-opacity:0.3;stroke-width:2.5;"/>
   </g>
   <g id="line2d_135">
    <path clip-path="url(#p9f6798f16d)" style="fill:none;stroke:#7f7f7f;stroke-linecap:square;stroke-opacity:0.3;stroke-width:2.5;"/>
   </g>
   <g id="line2d_136">
    <path clip-path="url(#p9f6798f16d)" style="fill:none;stroke:#7f7f7f;stroke-linecap:square;stroke-opacity:0.3;stroke-width:2.5;"/>
   </g>
   <g id="line2d_137">
    <path clip-path="url(#p9f6798f16d)" style="fill:none;stroke:#7f7f7f;stroke-linecap:square;stroke-opacity:0.3;stroke-width:2.5;"/>
   </g>
   <g id="line2d_138">
    <path clip-path="url(#p9f6798f16d)" style="fill:none;stroke:#7f7f7f;stroke-linecap:square;stroke-opacity:0.3;stroke-width:2.5;"/>
   </g>
   <g id="line2d_139">
    <path clip-path="url(#p9f6798f16d)" style="fill:none;stroke:#7f7f7f;stroke-linecap:square;stroke-opacity:0.3;stroke-width:2.5;"/>
   </g>
   <g id="line2d_140">
    <path clip-path="url(#p9f6798f16d)" style="fill:none;stroke:#7f7f7f;stroke-linecap:square;stroke-opacity:0.3;stroke-width:2.5;"/>
   </g>
   <g id="line2d_141">
    <path clip-path="url(#p9f6798f16d)" style="fill:none;stroke:#7f7f7f;stroke-linecap:square;stroke-opacity:0.3;stroke-width:2.5;"/>
   </g>
   <g id="line2d_142">
    <path clip-path="url(#p9f6798f16d)" style="fill:none;stroke:#7f7f7f;stroke-linecap:square;stroke-opacity:0.3;stroke-width:2.5;"/>
   </g>
   <g id="line2d_143">
    <path clip-path="url(#p9f6798f16d)" style="fill:none;stroke:#7f7f7f;stroke-linecap:square;stroke-opacity:0.3;stroke-width:2.5;"/>
   </g>
   <g id="line2d_144">
    <path clip-path="url(#p9f6798f16d)" style="fill:none;stroke:#7f7f7f;stroke-linecap:square;stroke-opacity:0.3;stroke-width:2.5;"/>
   </g>
   <g id="line2d_145">
    <path clip-path="url(#p9f6798f16d)" style="fill:none;stroke:#7f7f7f;stroke-linecap:square;stroke-opacity:0.3;stroke-width:2.5;"/>
   </g>
   <g id="line2d_146">
    <path clip-path="url(#p9f6798f16d)" style="fill:none;stroke:#7f7f7f;stroke-linecap:square;stroke-opacity:0.3;stroke-width:2.5;"/>
   </g>
   <g id="line2d_147">
    <path clip-path="url(#p9f6798f16d)" style="fill:none;stroke:#7f7f7f;stroke-linecap:square;stroke-opacity:0.3;stroke-width:2.5;"/>
   </g>
   <g id="line2d_148">
    <path clip-path="url(#p9f6798f16d)" style="fill:none;stroke:#7f7f7f;stroke-linecap:square;stroke-opacity:0.3;stroke-width:2.5;"/>
   </g>
   <g id="line2d_149">
    <path clip-path="url(#p9f6798f16d)" style="fill:none;stroke:#7f7f7f;stroke-linecap:square;stroke-opacity:0.3;stroke-width:2.5;"/>
   </g>
   <g id="line2d_150">
    <path clip-path="url(#p9f6798f16d)" style="fill:none;stroke:#7f7f7f;stroke-linecap:square;stroke-opacity:0.3;stroke-width:2.5;"/>
   </g>
   <g id="line2d_151">
    <path clip-path="url(#p9f6798f16d)" style="fill:none;stroke:#7f7f7f;stroke-linecap:square;stroke-opacity:0.3;stroke-width:2.5;"/>
   </g>
   <g id="line2d_152">
    <path clip-path="url(#p9f6798f16d)" style="fill:none;stroke:#7f7f7f;stroke-linecap:square;stroke-opacity:0.3;stroke-width:2.5;"/>
   </g>
   <g id="line2d_153">
    <path clip-path="url(#p9f6798f16d)" style="fill:none;stroke:#7f7f7f;stroke-linecap:square;stroke-opacity:0.3;stroke-width:2.5;"/>
   </g>
   <g id="line2d_154">
    <path clip-path="url(#p9f6798f16d)" style="fill:none;stroke:#7f7f7f;stroke-linecap:square;stroke-opacity:0.3;stroke-width:2.5;"/>
   </g>
   <g id="line2d_155">
    <path clip-path="url(#p9f6798f16d)" style="fill:none;stroke:#7f7f7f;stroke-linecap:square;stroke-opacity:0.3;stroke-width:2.5;"/>
   </g>
   <g id="line2d_156">
    <path clip-path="url(#p9f6798f16d)" style="fill:none;stroke:#7f7f7f;stroke-linecap:square;stroke-opacity:0.3;stroke-width:2.5;"/>
   </g>
   <g id="line2d_157">
    <path clip-path="url(#p9f6798f16d)" style="fill:none;stroke:#7f7f7f;stroke-linecap:square;stroke-opacity:0.3;stroke-width:2.5;"/>
   </g>
   <g id="line2d_158">
    <path clip-path="url(#p9f6798f16d)" style="fill:none;stroke:#7f7f7f;stroke-linecap:square;stroke-opacity:0.3;stroke-width:2.5;"/>
   </g>
   <g id="line2d_159">
    <path clip-path="url(#p9f6798f16d)" style="fill:none;stroke:#7f7f7f;stroke-linecap:square;stroke-opacity:0.3;stroke-width:2.5;"/>
   </g>
   <g id="line2d_160">
    <path clip-path="url(#p9f6798f16d)" style="fill:none;stroke:#7f7f7f;stroke-linecap:square;stroke-opacity:0.3;stroke-width:2.5;"/>
   </g>
   <g id="line2d_161">
    <path clip-path="url(#p9f6798f16d)" style="fill:none;stroke:#7f7f7f;stroke-linecap:square;stroke-opacity:0.3;stroke-width:2.5;"/>
   </g>
   <g id="line2d_162">
    <path clip-path="url(#p9f6798f16d)" style="fill:none;stroke:#7f7f7f;stroke-linecap:square;stroke-opacity:0.3;stroke-width:2.5;"/>
   </g>
   <g id="line2d_163">
    <path clip-path="url(#p9f6798f16d)" style="fill:none;stroke:#7f7f7f;stroke-linecap:square;stroke-opacity:0.3;stroke-width:2.5;"/>
   </g>
   <g id="line2d_164">
    <path clip-path="url(#p9f6798f16d)" style="fill:none;stroke:#7f7f7f;stroke-linecap:square;stroke-opacity:0.3;stroke-width:2.5;"/>
   </g>
   <g id="line2d_165">
    <path clip-path="url(#p9f6798f16d)" style="fill:none;stroke:#7f7f7f;stroke-linecap:square;stroke-opacity:0.3;stroke-width:2.5;"/>
   </g>
   <g id="line2d_166">
    <path clip-path="url(#p9f6798f16d)" style="fill:none;stroke:#7f7f7f;stroke-linecap:square;stroke-opacity:0.3;stroke-width:2.5;"/>
   </g>
   <g id="line2d_167">
    <path clip-path="url(#p9f6798f16d)" style="fill:none;stroke:#7f7f7f;stroke-linecap:square;stroke-opacity:0.3;stroke-width:2.5;"/>
   </g>
   <g id="line2d_168">
    <path clip-path="url(#p9f6798f16d)" style="fill:none;stroke:#7f7f7f;stroke-linecap:square;stroke-opacity:0.3;stroke-width:2.5;"/>
   </g>
   <g id="line2d_169">
    <path clip-path="url(#p9f6798f16d)" style="fill:none;stroke:#7f7f7f;stroke-linecap:square;stroke-opacity:0.3;stroke-width:2.5;"/>
   </g>
   <g id="line2d_170">
    <path clip-path="url(#p9f6798f16d)" style="fill:none;stroke:#7f7f7f;stroke-linecap:square;stroke-opacity:0.3;stroke-width:2.5;"/>
   </g>
   <g id="line2d_171">
    <path clip-path="url(#p9f6798f16d)" style="fill:none;stroke:#7f7f7f;stroke-linecap:square;stroke-opacity:0.3;stroke-width:2.5;"/>
   </g>
   <g id="line2d_172">
    <path clip-path="url(#p9f6798f16d)" style="fill:none;stroke:#7f7f7f;stroke-linecap:square;stroke-opacity:0.3;stroke-width:2.5;"/>
   </g>
   <g id="line2d_173">
    <path clip-path="url(#p9f6798f16d)" style="fill:none;stroke:#7f7f7f;stroke-linecap:square;stroke-opacity:0.3;stroke-width:2.5;"/>
   </g>
   <g id="line2d_174">
    <path clip-path="url(#p9f6798f16d)" style="fill:none;stroke:#7f7f7f;stroke-linecap:square;stroke-opacity:0.3;stroke-width:2.5;"/>
   </g>
   <g id="line2d_175">
    <path clip-path="url(#p9f6798f16d)" style="fill:none;stroke:#7f7f7f;stroke-linecap:square;stroke-opacity:0.3;stroke-width:2.5;"/>
   </g>
   <g id="line2d_176">
    <path clip-path="url(#p9f6798f16d)" style="fill:none;stroke:#7f7f7f;stroke-linecap:square;stroke-opacity:0.3;stroke-width:2.5;"/>
   </g>
   <g id="line2d_177">
    <path clip-path="url(#p9f6798f16d)" style="fill:none;stroke:#7f7f7f;stroke-linecap:square;stroke-opacity:0.3;stroke-width:2.5;"/>
   </g>
   <g id="line2d_178">
    <path clip-path="url(#p9f6798f16d)" style="fill:none;stroke:#7f7f7f;stroke-linecap:square;stroke-opacity:0.3;stroke-width:2.5;"/>
   </g>
   <g id="line2d_179">
    <path clip-path="url(#p9f6798f16d)" style="fill:none;stroke:#7f7f7f;stroke-linecap:square;stroke-opacity:0.3;stroke-width:2.5;"/>
   </g>
   <g id="line2d_180">
    <path clip-path="url(#p9f6798f16d)" style="fill:none;stroke:#7f7f7f;stroke-linecap:square;stroke-opacity:0.3;stroke-width:2.5;"/>
   </g>
   <g id="line2d_181">
    <path clip-path="url(#p9f6798f16d)" style="fill:none;stroke:#7f7f7f;stroke-linecap:square;stroke-opacity:0.3;stroke-width:2.5;"/>
   </g>
   <g id="line2d_182">
    <path clip-path="url(#p9f6798f16d)" style="fill:none;stroke:#7f7f7f;stroke-linecap:square;stroke-opacity:0.3;stroke-width:2.5;"/>
   </g>
   <g id="line2d_183">
    <path clip-path="url(#p9f6798f16d)" style="fill:none;stroke:#7f7f7f;stroke-linecap:square;stroke-opacity:0.3;stroke-width:2.5;"/>
   </g>
   <g id="line2d_184">
    <path clip-path="url(#p9f6798f16d)" style="fill:none;stroke:#7f7f7f;stroke-linecap:square;stroke-opacity:0.3;stroke-width:2.5;"/>
   </g>
   <g id="line2d_185">
    <path clip-path="url(#p9f6798f16d)" style="fill:none;stroke:#7f7f7f;stroke-linecap:square;stroke-opacity:0.3;stroke-width:2.5;"/>
   </g>
   <g id="line2d_186">
    <path clip-path="url(#p9f6798f16d)" style="fill:none;stroke:#7f7f7f;stroke-linecap:square;stroke-opacity:0.3;stroke-width:2.5;"/>
   </g>
   <g id="line2d_187">
    <path clip-path="url(#p9f6798f16d)" style="fill:none;stroke:#7f7f7f;stroke-linecap:square;stroke-opacity:0.3;stroke-width:2.5;"/>
   </g>
   <g id="line2d_188">
    <path clip-path="url(#p9f6798f16d)" style="fill:none;stroke:#7f7f7f;stroke-linecap:square;stroke-opacity:0.3;stroke-width:2.5;"/>
   </g>
   <g id="line2d_189">
    <path clip-path="url(#p9f6798f16d)" style="fill:none;stroke:#7f7f7f;stroke-linecap:square;stroke-opacity:0.3;stroke-width:2.5;"/>
   </g>
   <g id="line2d_190">
    <path clip-path="url(#p9f6798f16d)" style="fill:none;stroke:#7f7f7f;stroke-linecap:square;stroke-opacity:0.3;stroke-width:2.5;"/>
   </g>
   <g id="line2d_191">
    <path clip-path="url(#p9f6798f16d)" style="fill:none;stroke:#7f7f7f;stroke-linecap:square;stroke-opacity:0.3;stroke-width:2.5;"/>
   </g>
   <g id="line2d_192">
    <path clip-path="url(#p9f6798f16d)" style="fill:none;stroke:#7f7f7f;stroke-linecap:square;stroke-opacity:0.3;stroke-width:2.5;"/>
   </g>
   <g id="line2d_193">
    <path clip-path="url(#p9f6798f16d)" style="fill:none;stroke:#7f7f7f;stroke-linecap:square;stroke-opacity:0.3;stroke-width:2.5;"/>
   </g>
   <g id="line2d_194">
    <path clip-path="url(#p9f6798f16d)" style="fill:none;stroke:#7f7f7f;stroke-linecap:square;stroke-opacity:0.3;stroke-width:2.5;"/>
   </g>
   <g id="line2d_195">
    <path clip-path="url(#p9f6798f16d)" style="fill:none;stroke:#7f7f7f;stroke-linecap:square;stroke-opacity:0.3;stroke-width:2.5;"/>
   </g>
   <g id="line2d_196">
    <path clip-path="url(#p9f6798f16d)" style="fill:none;stroke:#7f7f7f;stroke-linecap:square;stroke-opacity:0.3;stroke-width:2.5;"/>
   </g>
   <g id="line2d_197">
    <path clip-path="url(#p9f6798f16d)" style="fill:none;stroke:#7f7f7f;stroke-linecap:square;stroke-opacity:0.3;stroke-width:2.5;"/>
   </g>
   <g id="line2d_198">
    <path clip-path="url(#p9f6798f16d)" style="fill:none;stroke:#7f7f7f;stroke-linecap:square;stroke-opacity:0.3;stroke-width:2.5;"/>
   </g>
   <g id="line2d_199">
    <path clip-path="url(#p9f6798f16d)" style="fill:none;stroke:#7f7f7f;stroke-linecap:square;stroke-opacity:0.3;stroke-width:2.5;"/>
   </g>
   <g id="line2d_200">
    <path clip-path="url(#p9f6798f16d)" style="fill:none;stroke:#7f7f7f;stroke-linecap:square;stroke-opacity:0.3;stroke-width:2.5;"/>
   </g>
   <g id="line2d_201">
    <path clip-path="url(#p9f6798f16d)" style="fill:none;stroke:#7f7f7f;stroke-linecap:square;stroke-opacity:0.3;stroke-width:2.5;"/>
   </g>
   <g id="line2d_202">
    <path clip-path="url(#p9f6798f16d)" style="fill:none;stroke:#7f7f7f;stroke-linecap:square;stroke-opacity:0.3;stroke-width:2.5;"/>
   </g>
   <g id="line2d_203">
    <path clip-path="url(#p9f6798f16d)" style="fill:none;stroke:#7f7f7f;stroke-linecap:square;stroke-opacity:0.3;stroke-width:2.5;"/>
   </g>
   <g id="line2d_204">
    <path clip-path="url(#p9f6798f16d)" style="fill:none;stroke:#7f7f7f;stroke-linecap:square;stroke-opacity:0.3;stroke-width:2.5;"/>
   </g>
   <g id="line2d_205">
    <path clip-path="url(#p9f6798f16d)" style="fill:none;stroke:#7f7f7f;stroke-linecap:square;stroke-opacity:0.3;stroke-width:2.5;"/>
   </g>
   <g id="line2d_206">
    <path clip-path="url(#p9f6798f16d)" d="M 49.88 260.12 
L 49.88 10.44 
" style="fill:none;stroke:#ffffff;stroke-linecap:square;stroke-opacity:0.5;stroke-width:0.5;"/>
   </g>
   <g id="line2d_207">
    <path clip-path="url(#p9f6798f16d)" d="M 107.301743 260.12 
L 107.301743 10.44 
" style="fill:none;stroke:#ffffff;stroke-linecap:square;stroke-opacity:0.5;stroke-width:0.5;"/>
   </g>
   <g id="line2d_208">
    <path clip-path="url(#p9f6798f16d)" d="M 140.45387 260.12 
L 140.45387 10.44 
" style="fill:none;stroke:#ffffff;stroke-linecap:square;stroke-opacity:0.5;stroke-width:0.5;"/>
   </g>
   <g id="line2d_209">
    <path clip-path="url(#p9f6798f16d)" d="M 206.758125 260.12 
L 206.758125 10.44 
" style="fill:none;stroke:#ffffff;stroke-linecap:square;stroke-opacity:0.5;stroke-width:0.5;"/>
   </g>
   <g id="line2d_210">
    <path clip-path="url(#p9f6798f16d)" d="M 49.88 135.28 
L 206.758125 135.28 
" style="fill:none;stroke:#ffffff;stroke-linecap:square;stroke-opacity:0.5;stroke-width:0.5;"/>
   </g>
   <g id="patch_3">
    <path d="M 49.88 260.12 
L 49.88 10.44 
" style="fill:none;stroke:#ffffff;stroke-linecap:square;stroke-linejoin:miter;stroke-width:0.8;"/>
   </g>
   <g id="patch_4">
    <path d="M 206.758125 260.12 
L 206.758125 10.44 
" style="fill:none;stroke:#ffffff;stroke-linecap:square;stroke-linejoin:miter;stroke-width:0.8;"/>
   </g>
   <g id="patch_5">
    <path d="M 49.88 260.12 
L 206.758125 260.12 
" style="fill:none;stroke:#ffffff;stroke-linecap:square;stroke-linejoin:miter;stroke-width:0.8;"/>
   </g>
   <g id="patch_6">
    <path d="M 49.88 10.44 
L 206.758125 10.44 
" style="fill:none;stroke:#ffffff;stroke-linecap:square;stroke-linejoin:miter;stroke-width:0.8;"/>
   </g>
  </g>
 </g>
 <defs>
  <clipPath id="p9f6798f16d">
   <rect height="249.68" width="156.878125" x="49.88" y="10.44"/>
  </clipPath>
 </defs>
</svg>
