<?xml version="1.0" encoding="utf-8" standalone="no"?>
<!DOCTYPE svg PUBLIC "-//W3C//DTD SVG 1.1//EN"
  "http://www.w3.org/Graphics/SVG/1.1/DTD/svg11.dtd">
<!-- Created with matplotlib (http://matplotlib.org/) -->
<svg height="288pt" version="1.1" viewBox="0 0 288 288" width="288pt" xmlns="http://www.w3.org/2000/svg" xmlns:xlink="http://www.w3.org/1999/xlink">
 <defs>
  <style type="text/css">
*{stroke-linecap:butt;stroke-linejoin:round;}
  </style>
 </defs>
 <g id="figure_1">
  <g id="patch_1">
   <path d="M 0 288 
L 288 288 
L 288 0 
L 0 0 
z
"/>
  </g>
  <g id="axes_1">
   <g id="patch_2">
    <path d="M 95.36 238.3 
L 280.878926 238.3 
L 280.878926 2.775861 
L 95.36 2.775861 
z
"/>
   </g>
   <g id="patch_3">
    <path clip-path="url(#p30560ad4fe)" d="M 224.684964 238.3 
L 224.684964 2.775861 
L 280.878926 2.775861 
L 280.878926 238.3 
z
" style="fill:#333333;opacity:0.5;"/>
   </g>
   <g id="matplotlib.axis_1">
    <g id="xtick_1">
     <g id="line2d_1">
      <defs>
       <path d="M 0 0 
L 0 3.5 
" id="mebc3df7ec3" style="stroke:#ffffff;stroke-width:0.8;"/>
      </defs>
      <g>
       <use style="fill:#ffffff;stroke:#ffffff;stroke-width:0.8;" x="126.319769" xlink:href="#mebc3df7ec3" y="238.3"/>
      </g>
     </g>
     <g id="text_1">
      <!-- 4.0 -->
      <defs>
       <path d="M 40.234375 70.21875 
L 9.96875 23.25 
L 40.234375 23.25 
z
M 36.421875 72.90625 
L 45.21875 72.90625 
L 45.21875 23.25 
L 55.609375 23.25 
L 55.609375 19.34375 
L 45.21875 19.34375 
L 45.21875 0 
L 40.234375 0 
L 40.234375 19.34375 
L 4.890625 19.34375 
L 4.890625 24.421875 
z
" id="DejaVuSans-ExtraLight-34"/>
       <path d="M 13.375 6.15625 
L 18.359375 6.15625 
L 18.359375 0 
L 13.375 0 
z
" id="DejaVuSans-ExtraLight-2e"/>
       <path d="M 31.5 70.21875 
Q 22.5625 70.21875 18.21875 61.53125 
Q 13.875 52.78125 13.875 36.375 
Q 13.875 19.96875 18.21875 11.234375 
Q 22.5625 2.546875 31.5 2.546875 
Q 40.71875 2.546875 45.0625 11.234375 
Q 49.421875 19.96875 49.421875 36.375 
Q 49.421875 52.78125 45.0625 61.53125 
Q 40.71875 70.21875 31.5 70.21875 
z
M 31.5 74.21875 
Q 42.046875 74.21875 48.1875 65.625 
Q 54.34375 56.984375 54.34375 36.375 
Q 54.34375 15.765625 48.1875 7.125 
Q 42.046875 -1.46875 31.5 -1.46875 
Q 21.234375 -1.46875 15.09375 7.125 
Q 8.9375 15.765625 8.9375 36.375 
Q 8.9375 56.984375 15.09375 65.625 
Q 21.234375 74.21875 31.5 74.21875 
z
" id="DejaVuSans-ExtraLight-30"/>
      </defs>
      <g style="fill:#ffffff;" transform="translate(112.006956 258.977188)scale(0.18 -0.18)">
       <use xlink:href="#DejaVuSans-ExtraLight-34"/>
       <use x="63.623047" xlink:href="#DejaVuSans-ExtraLight-2e"/>
       <use x="95.410156" xlink:href="#DejaVuSans-ExtraLight-30"/>
      </g>
     </g>
    </g>
    <g id="xtick_2">
     <g id="line2d_2">
      <g>
       <use style="fill:#ffffff;stroke:#ffffff;stroke-width:0.8;" x="205.011925" xlink:href="#mebc3df7ec3" y="238.3"/>
      </g>
     </g>
     <g id="text_2">
      <!-- 4.2 -->
      <defs>
       <path d="M 12.015625 3.953125 
L 53.609375 3.953125 
L 53.609375 0 
L 6.9375 0 
L 6.9375 5.125 
L 25.09375 24.03125 
Q 31.84375 30.859375 37.3125 36.671875 
Q 42.390625 42.09375 44.09375 45.0625 
Q 45.796875 48.046875 45.796875 52.9375 
Q 45.796875 61.375 40.625 66.5 
Q 36.859375 70.21875 28.515625 70.21875 
Q 23.640625 70.21875 17.28125 67.390625 
Q 14.5 66.109375 7.8125 61.765625 
L 7.8125 66.9375 
Q 10.640625 68.953125 16.109375 71.390625 
Q 22.3125 74.171875 28.421875 74.21875 
Q 37.84375 74.21875 44.1875 69.390625 
Q 50.390625 64.546875 50.390625 53.421875 
Q 50.390625 48.921875 48.734375 44.921875 
Q 46.78125 40.234375 42.578125 35.40625 
Q 41.359375 33.984375 34.8125 27.25 
z
" id="DejaVuSans-ExtraLight-32"/>
      </defs>
      <g style="fill:#ffffff;" transform="translate(190.699112 258.977188)scale(0.18 -0.18)">
       <use xlink:href="#DejaVuSans-ExtraLight-34"/>
       <use x="63.623047" xlink:href="#DejaVuSans-ExtraLight-2e"/>
       <use x="95.410156" xlink:href="#DejaVuSans-ExtraLight-32"/>
      </g>
     </g>
    </g>
    <g id="text_3">
     <!-- Lattice parameter [$\mathrm{\AA}$] -->
     <defs>
      <path d="M 12.203125 72.90625 
L 17.09375 72.90625 
L 17.09375 4 
L 52.59375 4 
L 52.59375 0 
L 12.203125 0 
z
" id="DejaVuSans-ExtraLight-4c"/>
      <path d="M 33.203125 30.859375 
Q 22.359375 30.859375 17.578125 27 
Q 12.796875 23.140625 12.796875 15.71875 
Q 12.796875 8.5 16.75 5.46875 
Q 20.703125 2.4375 26.125 2.4375 
Q 36.375 2.4375 40.875 11.140625 
Q 45.40625 19.828125 45.40625 27.484375 
L 45.40625 30.859375 
z
M 49.953125 31.203125 
L 49.953125 0 
L 45.515625 0 
L 45.515625 14.84375 
Q 41.75 3.953125 35.546875 0.984375 
Q 30.609375 -1.421875 25.734375 -1.421875 
Q 17.578125 -1.421875 12.890625 2.9375 
Q 8.203125 7.328125 8.203125 15.8125 
Q 8.203125 24.3125 14.3125 29.390625 
Q 20.40625 34.515625 34.28125 34.515625 
L 45.40625 34.515625 
L 45.40625 35.40625 
Q 45.40625 42.671875 41.265625 47.359375 
Q 37.15625 52.046875 27.6875 52.046875 
Q 23 52.046875 18.109375 50.296875 
Q 14.984375 49.171875 10.015625 45.75 
L 10.015625 50.59375 
Q 14.359375 53.265625 18.109375 54.390625 
Q 23.578125 56 28.609375 56 
Q 38.28125 56 44.53125 50.140625 
Q 49.953125 45.125 49.953125 31.203125 
z
" id="DejaVuSans-ExtraLight-61"/>
      <path d="M 16.0625 70.21875 
L 16.0625 54.6875 
L 34.578125 54.6875 
L 34.578125 50.875 
L 16.0625 50.875 
L 16.0625 18.015625 
Q 16.0625 11.765625 17.671875 9.28125 
Q 21 3.8125 27.34375 3.8125 
L 34.578125 3.8125 
L 34.578125 0 
L 27.59375 0 
Q 20.90625 0 16.21875 3.90625 
Q 11.53125 7.8125 11.53125 18.015625 
L 11.53125 50.875 
L 4.984375 50.875 
L 4.984375 54.6875 
L 11.53125 54.6875 
L 11.53125 70.21875 
z
" id="DejaVuSans-ExtraLight-74"/>
      <path d="M 11.234375 54.6875 
L 15.71875 54.6875 
L 15.71875 0 
L 11.234375 0 
z
M 11.234375 75.984375 
L 15.71875 75.984375 
L 15.71875 69.828125 
L 11.234375 69.828125 
z
" id="DejaVuSans-ExtraLight-69"/>
      <path d="M 48.78125 52.046875 
L 48.78125 47.265625 
Q 44.734375 49.75 42.09375 50.640625 
Q 37.546875 52.046875 33.40625 52.046875 
Q 21.578125 52.046875 16.453125 45.984375 
Q 11.328125 39.9375 11.328125 27.296875 
Q 11.328125 14.546875 16.453125 8.484375 
Q 21.578125 2.4375 33.40625 2.4375 
Q 37.3125 2.4375 41.109375 3.515625 
Q 44.96875 4.546875 48.78125 6.640625 
L 48.78125 2.09375 
Q 45.015625 0.34375 41.015625 -0.53125 
Q 36.96875 -1.421875 33.015625 -1.421875 
Q 21 -1.421875 13.921875 5.078125 
Q 6.84375 11.625 6.84375 27.296875 
Q 6.84375 42.96875 13.921875 49.515625 
Q 21 56 33.015625 56 
Q 36.921875 56 41.3125 54.890625 
Q 45.703125 53.8125 48.78125 52.046875 
z
" id="DejaVuSans-ExtraLight-63"/>
      <path d="M 53.953125 29.59375 
L 53.953125 26.765625 
L 12.453125 26.765625 
Q 12.453125 13.578125 17.578125 8.296875 
Q 23.25 2.4375 34.421875 2.4375 
Q 37.359375 2.4375 42.1875 3.71875 
Q 47.078125 4.984375 51.859375 7.515625 
L 51.859375 2.78125 
Q 47.015625 0.734375 41.9375 -0.34375 
Q 36.859375 -1.421875 33.890625 -1.421875 
Q 21.234375 -1.421875 14.84375 5.421875 
Q 7.90625 12.703125 7.90625 26.765625 
Q 7.90625 41.359375 14.265625 48.53125 
Q 20.75 56 32.328125 56 
Q 43.0625 56 48.53125 48.921875 
Q 53.953125 41.5 53.953125 29.59375 
z
M 49.421875 30.5625 
Q 49.421875 42.09375 44.234375 47.359375 
Q 39.890625 52.046875 32.421875 52.046875 
Q 24.265625 52.046875 18.75 47.171875 
Q 13.671875 42.625 12.640625 30.5625 
z
" id="DejaVuSans-ExtraLight-65"/>
      <path id="DejaVuSans-ExtraLight-20"/>
      <path d="M 15.828125 12.40625 
L 15.828125 -20.796875 
L 11.421875 -20.796875 
L 11.421875 54.6875 
L 15.828125 54.6875 
L 15.828125 42.1875 
Q 18.890625 49.3125 22.515625 51.953125 
Q 28.03125 56 32.90625 56 
Q 42.625 56 49.0625 48.09375 
Q 55.515625 40.1875 55.515625 27.296875 
Q 55.515625 14.40625 49.0625 6.484375 
Q 42.625 -1.421875 32.90625 -1.421875 
Q 28.03125 -1.421875 22.515625 2.640625 
Q 18.890625 5.28125 15.828125 12.40625 
z
M 45.125 8.25 
Q 50.78125 13.96875 50.78125 27.296875 
Q 50.78125 40.625 45.125 46.34375 
Q 39.5 52.046875 33.25 52.046875 
Q 27.15625 52.046875 21.484375 46.34375 
Q 15.875 40.625 15.875 27.296875 
Q 15.875 13.96875 21.484375 8.25 
Q 27.15625 2.546875 33.25 2.546875 
Q 39.5 2.546875 45.125 8.25 
z
" id="DejaVuSans-ExtraLight-70"/>
      <path d="M 41.015625 50.828125 
Q 39.9375 51.375 38.09375 51.765625 
Q 36.421875 52.046875 33.890625 52.046875 
Q 25.59375 52.046875 20.125 45.90625 
Q 15.828125 40.921875 15.828125 28.8125 
L 15.828125 0 
L 11.421875 0 
L 11.421875 54.6875 
L 15.828125 54.6875 
L 15.828125 44.4375 
Q 18.015625 48.828125 21.96875 51.859375 
Q 27.4375 56 34.859375 56 
Q 36.765625 56 38.1875 55.859375 
Q 39.65625 55.859375 41.015625 55.515625 
z
" id="DejaVuSans-ExtraLight-72"/>
      <path d="M 50.6875 42.78125 
Q 53.21875 49.359375 58.6875 52.734375 
Q 63.875 56 71 56 
Q 78.125 56 82.421875 50.984375 
Q 86.765625 46 86.765625 33.015625 
L 86.765625 0 
L 82.328125 0 
L 82.328125 32.71875 
Q 82.328125 44.046875 79.203125 48.046875 
Q 76.078125 52.046875 70.90625 52.046875 
Q 63.375 52.046875 57.625 47.40625 
Q 51.3125 42.390625 51.3125 30.90625 
L 51.3125 0 
L 46.828125 0 
L 46.828125 32.71875 
Q 46.828125 43.65625 43.796875 47.84375 
Q 40.765625 52.046875 35.40625 52.046875 
Q 27.875 52.046875 22.125 47.359375 
Q 15.828125 42.328125 15.828125 30.90625 
L 15.828125 0 
L 11.328125 0 
L 11.328125 54.6875 
L 15.828125 54.6875 
L 15.828125 44.4375 
Q 18.21875 49.8125 23.25 52.9375 
Q 28.328125 56 35.6875 56 
Q 40.484375 56 44.921875 52.78125 
Q 48.34375 50.296875 50.6875 42.78125 
z
" id="DejaVuSans-ExtraLight-6d"/>
      <path d="M 11.328125 75.984375 
L 27.984375 75.984375 
L 27.984375 70.90625 
L 16.21875 70.90625 
L 16.21875 -9.078125 
L 27.984375 -9.078125 
L 27.984375 -13.1875 
L 11.328125 -13.1875 
z
" id="DejaVuSans-ExtraLight-5b"/>
      <path d="M 41.359375 80.03125 
Q 41.359375 83.109375 39.203125 85.25 
Q 37.0625 87.40625 33.9375 87.40625 
Q 30.765625 87.40625 28.65625 85.296875 
Q 26.515625 83.15625 26.515625 80.03125 
Q 26.515625 76.859375 28.65625 74.75 
Q 30.765625 72.609375 33.9375 72.609375 
Q 37.0625 72.609375 39.203125 74.75 
Q 41.359375 76.90625 41.359375 80.03125 
z
M 33.9375 67.96875 
L 18.3125 26.953125 
L 49.3125 26.953125 
z
M 29.25 68.84375 
Q 27.15625 69.734375 25.4375 71.484375 
Q 21.921875 75 21.921875 80.03125 
Q 21.921875 85.0625 25.4375 88.53125 
Q 28.90625 92.046875 33.9375 92.046875 
Q 38.96875 92.046875 42.4375 88.53125 
Q 45.953125 85.0625 45.953125 80.03125 
Q 45.953125 75 42.4375 71.484375 
Q 40.765625 69.78125 38.71875 68.890625 
L 65.09375 0 
L 59.515625 0 
L 50.828125 22.90625 
L 16.796875 22.90625 
L 8.15625 0 
L 2.984375 0 
z
" id="DejaVuSans-ExtraLight-c5"/>
      <path d="M 27.984375 75.984375 
L 27.984375 -13.1875 
L 11.328125 -13.1875 
L 11.328125 -9.078125 
L 23.09375 -9.078125 
L 23.09375 70.90625 
L 11.328125 70.90625 
L 11.328125 75.984375 
z
" id="DejaVuSans-ExtraLight-5d"/>
     </defs>
     <g style="fill:#ffffff;" transform="translate(91.099463 283.460625)scale(0.18 -0.18)">
      <use transform="translate(0 0.953125)" xlink:href="#DejaVuSans-ExtraLight-4c"/>
      <use transform="translate(55.712891 0.953125)" xlink:href="#DejaVuSans-ExtraLight-61"/>
      <use transform="translate(116.992188 0.953125)" xlink:href="#DejaVuSans-ExtraLight-74"/>
      <use transform="translate(156.201172 0.953125)" xlink:href="#DejaVuSans-ExtraLight-74"/>
      <use transform="translate(195.410156 0.953125)" xlink:href="#DejaVuSans-ExtraLight-69"/>
      <use transform="translate(223.193359 0.953125)" xlink:href="#DejaVuSans-ExtraLight-63"/>
      <use transform="translate(278.173828 0.953125)" xlink:href="#DejaVuSans-ExtraLight-65"/>
      <use transform="translate(339.697266 0.953125)" xlink:href="#DejaVuSans-ExtraLight-20"/>
      <use transform="translate(371.484375 0.953125)" xlink:href="#DejaVuSans-ExtraLight-70"/>
      <use transform="translate(434.960938 0.953125)" xlink:href="#DejaVuSans-ExtraLight-61"/>
      <use transform="translate(496.240234 0.953125)" xlink:href="#DejaVuSans-ExtraLight-72"/>
      <use transform="translate(537.353516 0.953125)" xlink:href="#DejaVuSans-ExtraLight-61"/>
      <use transform="translate(598.632812 0.953125)" xlink:href="#DejaVuSans-ExtraLight-6d"/>
      <use transform="translate(696.044922 0.953125)" xlink:href="#DejaVuSans-ExtraLight-65"/>
      <use transform="translate(757.568359 0.953125)" xlink:href="#DejaVuSans-ExtraLight-74"/>
      <use transform="translate(796.777344 0.953125)" xlink:href="#DejaVuSans-ExtraLight-65"/>
      <use transform="translate(858.300781 0.953125)" xlink:href="#DejaVuSans-ExtraLight-72"/>
      <use transform="translate(899.414062 0.953125)" xlink:href="#DejaVuSans-ExtraLight-20"/>
      <use transform="translate(931.201172 0.953125)" xlink:href="#DejaVuSans-ExtraLight-5b"/>
      <use transform="translate(970.214844 0.953125)" xlink:href="#DejaVuSans-ExtraLight-c5"/>
      <use transform="translate(1038.623047 0.953125)" xlink:href="#DejaVuSans-ExtraLight-5d"/>
     </g>
    </g>
   </g>
   <g id="matplotlib.axis_2">
    <g id="ytick_1">
     <g id="line2d_3">
      <defs>
       <path d="M 0 0 
L -3.5 0 
" id="m66edb3a531" style="stroke:#ffffff;stroke-width:0.8;"/>
      </defs>
      <g>
       <use style="fill:#ffffff;stroke:#ffffff;stroke-width:0.8;" x="95.36" xlink:href="#m66edb3a531" y="222.779669"/>
      </g>
     </g>
     <g id="text_4">
      <!-- −17.50 -->
      <defs>
       <path d="M 73.1875 33.40625 
L 73.1875 29.390625 
L 10.59375 29.390625 
L 10.59375 33.40625 
z
" id="DejaVuSans-ExtraLight-2212"/>
       <path d="M 14.84375 4 
L 30.953125 4 
L 30.953125 68.40625 
L 10.984375 60.40625 
L 10.984375 64.890625 
L 30.859375 72.90625 
L 35.84375 72.90625 
L 35.84375 4 
L 51.953125 4 
L 51.953125 0 
L 14.84375 0 
z
" id="DejaVuSans-ExtraLight-31"/>
       <path d="M 8.203125 72.90625 
L 52.546875 72.90625 
L 52.546875 68.703125 
L 26.078125 0 
L 20.90625 0 
L 47.40625 68.890625 
L 8.203125 68.890625 
z
" id="DejaVuSans-ExtraLight-37"/>
       <path d="M 12.75 72.90625 
L 47.359375 72.90625 
L 47.359375 68.953125 
L 17.671875 68.953125 
L 17.671875 44.484375 
Q 19.828125 45.265625 21.96875 45.703125 
Q 24.125 46.09375 28.265625 46.09375 
Q 39.453125 46.09375 46 39.9375 
Q 52.484375 33.84375 52.484375 23.390625 
Q 52.484375 11.625 45.796875 5.078125 
Q 39.109375 -1.421875 26.90625 -1.421875 
Q 22.859375 -1.421875 18.609375 -0.734375 
Q 14.40625 -0.046875 9.859375 1.3125 
L 9.859375 6.296875 
Q 13.671875 4.5 17.78125 3.5625 
Q 21.828125 2.6875 26.375 2.6875 
Q 36.140625 2.6875 41.890625 8.25 
Q 47.65625 13.8125 47.65625 23.390625 
Q 47.65625 32.03125 42.046875 37.0625 
Q 36.375 42.140625 26.703125 42.140625 
Q 24.703125 42.140625 20.796875 41.0625 
Q 16.84375 40.046875 12.75 37.84375 
z
" id="DejaVuSans-ExtraLight-35"/>
      </defs>
      <g style="fill:#ffffff;" transform="translate(21.745938 229.618262)scale(0.18 -0.18)">
       <use xlink:href="#DejaVuSans-ExtraLight-2212"/>
       <use x="83.789062" xlink:href="#DejaVuSans-ExtraLight-31"/>
       <use x="147.412109" xlink:href="#DejaVuSans-ExtraLight-37"/>
       <use x="211.035156" xlink:href="#DejaVuSans-ExtraLight-2e"/>
       <use x="242.822266" xlink:href="#DejaVuSans-ExtraLight-35"/>
       <use x="306.445312" xlink:href="#DejaVuSans-ExtraLight-30"/>
      </g>
     </g>
    </g>
    <g id="ytick_2">
     <g id="line2d_4">
      <g>
       <use style="fill:#ffffff;stroke:#ffffff;stroke-width:0.8;" x="95.36" xlink:href="#m66edb3a531" y="150.838971"/>
      </g>
     </g>
     <g id="text_5">
      <!-- −17.45 -->
      <g style="fill:#ffffff;" transform="translate(21.745938 157.677565)scale(0.18 -0.18)">
       <use xlink:href="#DejaVuSans-ExtraLight-2212"/>
       <use x="83.789062" xlink:href="#DejaVuSans-ExtraLight-31"/>
       <use x="147.412109" xlink:href="#DejaVuSans-ExtraLight-37"/>
       <use x="211.035156" xlink:href="#DejaVuSans-ExtraLight-2e"/>
       <use x="242.822266" xlink:href="#DejaVuSans-ExtraLight-34"/>
       <use x="306.445312" xlink:href="#DejaVuSans-ExtraLight-35"/>
      </g>
     </g>
    </g>
    <g id="ytick_3">
     <g id="line2d_5">
      <g>
       <use style="fill:#ffffff;stroke:#ffffff;stroke-width:0.8;" x="95.36" xlink:href="#m66edb3a531" y="78.898274"/>
      </g>
     </g>
     <g id="text_6">
      <!-- −17.40 -->
      <g style="fill:#ffffff;" transform="translate(21.745938 85.736867)scale(0.18 -0.18)">
       <use xlink:href="#DejaVuSans-ExtraLight-2212"/>
       <use x="83.789062" xlink:href="#DejaVuSans-ExtraLight-31"/>
       <use x="147.412109" xlink:href="#DejaVuSans-ExtraLight-37"/>
       <use x="211.035156" xlink:href="#DejaVuSans-ExtraLight-2e"/>
       <use x="242.822266" xlink:href="#DejaVuSans-ExtraLight-34"/>
       <use x="306.445312" xlink:href="#DejaVuSans-ExtraLight-30"/>
      </g>
     </g>
    </g>
    <g id="ytick_4">
     <g id="line2d_6">
      <g>
       <use style="fill:#ffffff;stroke:#ffffff;stroke-width:0.8;" x="95.36" xlink:href="#m66edb3a531" y="6.957576"/>
      </g>
     </g>
     <g id="text_7">
      <!-- −17.35 -->
      <defs>
       <path d="M 40.578125 39.3125 
Q 46.4375 37.890625 49.8125 33.015625 
Q 53.125 28.21875 53.125 21.1875 
Q 53.125 10.40625 46.921875 4.484375 
Q 40.71875 -1.421875 27.09375 -1.421875 
Q 22.515625 -1.421875 17.671875 0 
Q 12.796875 1.46875 7.625 4.5 
L 7.625 9.8125 
Q 11.71875 6.25 16.609375 4.390625 
Q 21.484375 2.59375 26.5625 2.59375 
Q 37.109375 2.59375 42.671875 7.375 
Q 48.1875 12.109375 48.1875 21.1875 
Q 48.1875 28.609375 43.0625 32.765625 
Q 37.890625 36.96875 28.71875 36.96875 
L 20.21875 36.96875 
L 20.21875 41.0625 
L 29.109375 41.0625 
Q 37.546875 41.0625 42 44.4375 
Q 46.484375 47.859375 46.484375 54.296875 
Q 46.484375 61.921875 41.890625 66.015625 
Q 37.25 70.125 28.65625 70.125 
Q 24.65625 70.125 20.015625 68.703125 
Q 15.375 67.28125 9.8125 64.3125 
L 9.8125 69.390625 
Q 15.4375 71.78125 20.3125 72.90625 
Q 25.25 74.125 29.59375 74.21875 
Q 40.765625 74.21875 46.09375 69.140625 
Q 51.46875 64.015625 51.46875 55.328125 
Q 51.46875 49.515625 48.640625 45.125 
Q 45.90625 40.875 40.578125 39.3125 
z
" id="DejaVuSans-ExtraLight-33"/>
      </defs>
      <g style="fill:#ffffff;" transform="translate(21.745938 13.79617)scale(0.18 -0.18)">
       <use xlink:href="#DejaVuSans-ExtraLight-2212"/>
       <use x="83.789062" xlink:href="#DejaVuSans-ExtraLight-31"/>
       <use x="147.412109" xlink:href="#DejaVuSans-ExtraLight-37"/>
       <use x="211.035156" xlink:href="#DejaVuSans-ExtraLight-2e"/>
       <use x="242.822266" xlink:href="#DejaVuSans-ExtraLight-33"/>
       <use x="306.445312" xlink:href="#DejaVuSans-ExtraLight-35"/>
      </g>
     </g>
    </g>
    <g id="text_8">
     <!-- Total energy [eV] -->
     <defs>
      <path d="M 2.203125 72.90625 
L 58.890625 72.90625 
L 58.890625 68.890625 
L 33.015625 68.890625 
L 33.015625 0 
L 28.078125 0 
L 28.078125 68.890625 
L 2.203125 68.890625 
z
" id="DejaVuSans-ExtraLight-54"/>
      <path d="M 43.84375 45.3125 
Q 39.015625 52.046875 30.65625 52.046875 
Q 22.3125 52.046875 17.484375 45.359375 
Q 12.59375 38.71875 12.59375 27.390625 
Q 12.59375 15.765625 17.4375 9.125 
Q 22.265625 2.4375 30.671875 2.4375 
Q 39.015625 2.4375 43.84375 9.125 
Q 48.734375 15.875 48.734375 27.390625 
Q 48.734375 38.578125 43.84375 45.3125 
z
M 30.609375 56 
Q 41.0625 56 47.125 48.1875 
Q 53.21875 40.328125 53.21875 27.34375 
Q 53.21875 13.921875 47.125 6.15625 
Q 41.0625 -1.65625 30.609375 -1.65625 
Q 20.0625 -1.65625 13.96875 6.109375 
Q 7.90625 13.875 7.90625 27.34375 
Q 7.90625 40.484375 14.015625 48.234375 
Q 20.125 56 30.609375 56 
z
" id="DejaVuSans-ExtraLight-6f"/>
      <path d="M 11.328125 75.984375 
L 15.828125 75.984375 
L 15.828125 0 
L 11.328125 0 
z
" id="DejaVuSans-ExtraLight-6c"/>
      <path d="M 52.640625 33.015625 
L 52.640625 0 
L 48.140625 0 
L 48.140625 32.71875 
Q 48.140625 43.359375 44.71875 47.703125 
Q 41.3125 52.046875 34.671875 52.046875 
Q 26.90625 52.046875 21.390625 47.359375 
Q 15.828125 42.625 15.828125 30.90625 
L 15.828125 0 
L 11.328125 0 
L 11.328125 54.6875 
L 15.828125 54.6875 
L 15.828125 44.4375 
Q 18.21875 49.421875 22.125 52.046875 
Q 27.875 56 34.859375 56 
Q 42.96875 56 47.796875 50.484375 
Q 52.640625 45.015625 52.640625 33.015625 
z
" id="DejaVuSans-ExtraLight-6e"/>
      <path d="M 47.65625 27.984375 
Q 47.65625 39.359375 43.03125 45.625 
Q 38.421875 51.90625 30.078125 51.90625 
Q 21.828125 51.90625 17.203125 45.625 
Q 12.59375 39.359375 12.59375 27.984375 
Q 12.59375 16.65625 17.203125 10.375 
Q 21.828125 4.109375 30.078125 4.109375 
Q 38.421875 4.109375 43.03125 10.375 
Q 47.65625 16.65625 47.65625 27.984375 
z
M 52.15625 6.78125 
Q 52.15625 -10.25 45.65625 -15.515625 
Q 39.15625 -20.796875 29.203125 -20.796875 
Q 24.46875 -20.796875 20.265625 -20.125 
Q 16.0625 -19.390625 12.109375 -17.921875 
L 12.109375 -12.796875 
Q 16.0625 -14.9375 19.921875 -15.96875 
Q 23.78125 -17 27.78125 -17 
Q 35.9375 -17 41.796875 -13.53125 
Q 47.65625 -10.0625 47.65625 5.171875 
L 47.65625 13.71875 
Q 45.65625 8.109375 42.140625 4.890625 
Q 36.765625 -0.046875 30.078125 0 
Q 19.671875 0 13.859375 7.34375 
Q 8.0625 14.703125 8.0625 28.03125 
Q 8.0625 41.3125 13.859375 48.65625 
Q 19.671875 56 30.078125 56 
Q 36.71875 56 41.5 51.8125 
Q 45.21875 48.53125 47.65625 43.0625 
L 47.65625 54.6875 
L 52.15625 54.6875 
z
" id="DejaVuSans-ExtraLight-67"/>
      <path d="M 29.78125 -5.078125 
Q 26.859375 -12.359375 23.484375 -15.140625 
Q 18.953125 -18.890625 14.59375 -18.890625 
L 7.90625 -18.890625 
L 7.90625 -15.09375 
L 13.625 -15.09375 
Q 17.1875 -15.09375 19.875 -12.796875 
Q 23.34375 -9.8125 25.59375 -4.046875 
L 27.203125 0 
L 5.375 54.6875 
L 10.15625 54.6875 
L 29.59375 5.953125 
L 49.078125 54.6875 
L 53.8125 54.6875 
z
" id="DejaVuSans-ExtraLight-79"/>
      <path d="M 30.859375 0 
L 3.03125 72.90625 
L 8.59375 72.90625 
L 34.1875 4.890625 
L 59.96875 72.90625 
L 65.09375 72.90625 
L 37.3125 0 
z
" id="DejaVuSans-ExtraLight-56"/>
     </defs>
     <g style="fill:#ffffff;" transform="translate(14.0025 198.695899)rotate(-90)scale(0.18 -0.18)">
      <use xlink:href="#DejaVuSans-ExtraLight-54"/>
      <use x="60.818359" xlink:href="#DejaVuSans-ExtraLight-6f"/>
      <use x="122" xlink:href="#DejaVuSans-ExtraLight-74"/>
      <use x="161.208984" xlink:href="#DejaVuSans-ExtraLight-61"/>
      <use x="222.488281" xlink:href="#DejaVuSans-ExtraLight-6c"/>
      <use x="250.271484" xlink:href="#DejaVuSans-ExtraLight-20"/>
      <use x="282.058594" xlink:href="#DejaVuSans-ExtraLight-65"/>
      <use x="343.582031" xlink:href="#DejaVuSans-ExtraLight-6e"/>
      <use x="406.960938" xlink:href="#DejaVuSans-ExtraLight-65"/>
      <use x="468.484375" xlink:href="#DejaVuSans-ExtraLight-72"/>
      <use x="509.582031" xlink:href="#DejaVuSans-ExtraLight-67"/>
      <use x="569.591797" xlink:href="#DejaVuSans-ExtraLight-79"/>
      <use x="628.771484" xlink:href="#DejaVuSans-ExtraLight-20"/>
      <use x="660.558594" xlink:href="#DejaVuSans-ExtraLight-5b"/>
      <use x="699.572266" xlink:href="#DejaVuSans-ExtraLight-65"/>
      <use x="760.986328" xlink:href="#DejaVuSans-ExtraLight-56"/>
      <use x="829.394531" xlink:href="#DejaVuSans-ExtraLight-5d"/>
     </g>
    </g>
   </g>
   <g id="line2d_7">
    <path clip-path="url(#p30560ad4fe)" d="M 108.639618 13.481504 
L 125.020281 90.099052 
L 141.400944 147.803577 
L 157.781607 187.579891 
L 174.16227 210.411221 
L 190.542933 217.650211 
L 206.923596 210.953553 
L 223.304259 190.942342 
L 239.684921 157.922842 
L 256.065584 113.560769 
L 272.446247 59.437293 
" style="fill:none;stroke:#ff7f0e;stroke-linecap:square;stroke-width:1.5;"/>
    <defs>
     <path d="M 0 3 
C 0.795609 3 1.55874 2.683901 2.12132 2.12132 
C 2.683901 1.55874 3 0.795609 3 0 
C 3 -0.795609 2.683901 -1.55874 2.12132 -2.12132 
C 1.55874 -2.683901 0.795609 -3 0 -3 
C -0.795609 -3 -1.55874 -2.683901 -2.12132 -2.12132 
C -2.683901 -1.55874 -3 -0.795609 -3 0 
C -3 0.795609 -2.683901 1.55874 -2.12132 2.12132 
C -1.55874 2.683901 -0.795609 3 0 3 
z
" id="m3935a2e55a" style="stroke:#ff7f0e;"/>
    </defs>
    <g clip-path="url(#p30560ad4fe)">
     <use style="fill:#ff7f0e;stroke:#ff7f0e;" x="108.639618" xlink:href="#m3935a2e55a" y="13.481504"/>
     <use style="fill:#ff7f0e;stroke:#ff7f0e;" x="125.020281" xlink:href="#m3935a2e55a" y="90.099052"/>
     <use style="fill:#ff7f0e;stroke:#ff7f0e;" x="141.400944" xlink:href="#m3935a2e55a" y="147.803577"/>
     <use style="fill:#ff7f0e;stroke:#ff7f0e;" x="157.781607" xlink:href="#m3935a2e55a" y="187.579891"/>
     <use style="fill:#ff7f0e;stroke:#ff7f0e;" x="174.16227" xlink:href="#m3935a2e55a" y="210.411221"/>
     <use style="fill:#ff7f0e;stroke:#ff7f0e;" x="190.542933" xlink:href="#m3935a2e55a" y="217.650211"/>
     <use style="fill:#ff7f0e;stroke:#ff7f0e;" x="206.923596" xlink:href="#m3935a2e55a" y="210.953553"/>
     <use style="fill:#ff7f0e;stroke:#ff7f0e;" x="223.304259" xlink:href="#m3935a2e55a" y="190.942342"/>
     <use style="fill:#ff7f0e;stroke:#ff7f0e;" x="239.684921" xlink:href="#m3935a2e55a" y="157.922842"/>
     <use style="fill:#ff7f0e;stroke:#ff7f0e;" x="256.065584" xlink:href="#m3935a2e55a" y="113.560769"/>
     <use style="fill:#ff7f0e;stroke:#ff7f0e;" x="272.446247" xlink:href="#m3935a2e55a" y="59.437293"/>
    </g>
   </g>
   <g id="line2d_8">
    <path clip-path="url(#p30560ad4fe)" d="M 103.792678 15.312553 
L 120.122321 93.996338 
L 136.451963 153.631148 
L 152.781606 195.139319 
L 169.111248 219.470209 
L 185.440891 227.594357 
L 201.770533 220.448646 
L 218.100176 198.990189 
L 234.429818 164.067427 
L 250.759461 116.619573 
L 267.089103 57.523326 
" style="fill:none;stroke:#1f77b4;stroke-linecap:square;stroke-width:1.5;"/>
    <defs>
     <path d="M 0 3 
C 0.795609 3 1.55874 2.683901 2.12132 2.12132 
C 2.683901 1.55874 3 0.795609 3 0 
C 3 -0.795609 2.683901 -1.55874 2.12132 -2.12132 
C 1.55874 -2.683901 0.795609 -3 0 -3 
C -0.795609 -3 -1.55874 -2.683901 -2.12132 -2.12132 
C -2.683901 -1.55874 -3 -0.795609 -3 0 
C -3 0.795609 -2.683901 1.55874 -2.12132 2.12132 
C -1.55874 2.683901 -0.795609 3 0 3 
z
" id="mc830ffdcfd" style="stroke:#1f77b4;"/>
    </defs>
    <g clip-path="url(#p30560ad4fe)">
     <use style="fill:#1f77b4;stroke:#1f77b4;" x="103.792678" xlink:href="#mc830ffdcfd" y="15.312553"/>
     <use style="fill:#1f77b4;stroke:#1f77b4;" x="120.122321" xlink:href="#mc830ffdcfd" y="93.996338"/>
     <use style="fill:#1f77b4;stroke:#1f77b4;" x="136.451963" xlink:href="#mc830ffdcfd" y="153.631148"/>
     <use style="fill:#1f77b4;stroke:#1f77b4;" x="152.781606" xlink:href="#mc830ffdcfd" y="195.139319"/>
     <use style="fill:#1f77b4;stroke:#1f77b4;" x="169.111248" xlink:href="#mc830ffdcfd" y="219.470209"/>
     <use style="fill:#1f77b4;stroke:#1f77b4;" x="185.440891" xlink:href="#mc830ffdcfd" y="227.594357"/>
     <use style="fill:#1f77b4;stroke:#1f77b4;" x="201.770533" xlink:href="#mc830ffdcfd" y="220.448646"/>
     <use style="fill:#1f77b4;stroke:#1f77b4;" x="218.100176" xlink:href="#mc830ffdcfd" y="198.990189"/>
     <use style="fill:#1f77b4;stroke:#1f77b4;" x="234.429818" xlink:href="#mc830ffdcfd" y="164.067427"/>
     <use style="fill:#1f77b4;stroke:#1f77b4;" x="250.759461" xlink:href="#mc830ffdcfd" y="116.619573"/>
     <use style="fill:#1f77b4;stroke:#1f77b4;" x="267.089103" xlink:href="#mc830ffdcfd" y="57.523326"/>
    </g>
   </g>
   <g id="patch_4">
    <path d="M 95.36 238.3 
L 95.36 2.775861 
" style="fill:none;stroke:#ffffff;stroke-linecap:square;stroke-linejoin:miter;stroke-width:0.8;"/>
   </g>
   <g id="patch_5">
    <path d="M 280.878926 238.3 
L 280.878926 2.775861 
" style="fill:none;stroke:#ffffff;stroke-linecap:square;stroke-linejoin:miter;stroke-width:0.8;"/>
   </g>
   <g id="patch_6">
    <path d="M 95.36 238.3 
L 280.878926 238.3 
" style="fill:none;stroke:#ffffff;stroke-linecap:square;stroke-linejoin:miter;stroke-width:0.8;"/>
   </g>
   <g id="patch_7">
    <path d="M 95.36 2.775861 
L 280.878926 2.775861 
" style="fill:none;stroke:#ffffff;stroke-linecap:square;stroke-linejoin:miter;stroke-width:0.8;"/>
   </g>
   <g id="legend_1">
    <g id="patch_8">
     <path d="M 141.629353 61.656896 
L 237.425915 61.656896 
Q 241.025915 61.656896 241.025915 58.056896 
L 241.025915 7.015646 
Q 241.025915 3.415646 237.425915 3.415646 
L 141.629353 3.415646 
Q 138.029353 3.415646 138.029353 7.015646 
L 138.029353 58.056896 
Q 138.029353 61.656896 141.629353 61.656896 
z
" style="opacity:0.8;stroke:#cccccc;stroke-linejoin:miter;"/>
    </g>
    <g id="line2d_9">
     <path d="M 145.229353 17.992833 
L 181.229353 17.992833 
" style="fill:none;stroke:#ff7f0e;stroke-linecap:square;stroke-width:1.5;"/>
    </g>
    <g id="line2d_10">
     <g>
      <use style="fill:#ff7f0e;stroke:#ff7f0e;" x="163.229353" xlink:href="#m3935a2e55a" y="17.992833"/>
     </g>
    </g>
    <g id="text_9">
     <!-- FM -->
     <defs>
      <path d="M 12.203125 72.90625 
L 49.171875 72.90625 
L 49.171875 68.84375 
L 17.140625 68.84375 
L 17.140625 40.875 
L 46.046875 40.875 
L 46.046875 36.921875 
L 17.140625 36.921875 
L 17.140625 0 
L 12.203125 0 
z
" id="DejaVuSans-ExtraLight-46"/>
      <path d="M 16.0625 72.90625 
L 22.859375 72.90625 
L 43.109375 18.84375 
L 63.484375 72.90625 
L 70.21875 72.90625 
L 70.21875 0 
L 65.234375 0 
L 65.234375 64.015625 
L 46.484375 14.015625 
L 39.75 14.015625 
L 21.046875 64.015625 
L 21.046875 0 
L 16.0625 0 
z
" id="DejaVuSans-ExtraLight-4d"/>
     </defs>
     <g style="fill:#ffffff;" transform="translate(195.629353 24.292833)scale(0.18 -0.18)">
      <use xlink:href="#DejaVuSans-ExtraLight-46"/>
      <use x="57.519531" xlink:href="#DejaVuSans-ExtraLight-4d"/>
     </g>
    </g>
    <g id="line2d_11">
     <path d="M 145.229353 44.413458 
L 181.229353 44.413458 
" style="fill:none;stroke:#1f77b4;stroke-linecap:square;stroke-width:1.5;"/>
    </g>
    <g id="line2d_12">
     <g>
      <use style="fill:#1f77b4;stroke:#1f77b4;" x="163.229353" xlink:href="#mc830ffdcfd" y="44.413458"/>
     </g>
    </g>
    <g id="text_10">
     <!-- AFM -->
     <defs>
      <path d="M 33.9375 67.96875 
L 18.3125 26.953125 
L 49.3125 26.953125 
z
M 30.8125 72.90625 
L 37.203125 72.90625 
L 65.09375 0 
L 59.515625 0 
L 50.828125 22.90625 
L 16.796875 22.90625 
L 8.15625 0 
L 2.984375 0 
z
" id="DejaVuSans-ExtraLight-41"/>
     </defs>
     <g style="fill:#ffffff;" transform="translate(195.629353 50.713458)scale(0.18 -0.18)">
      <use xlink:href="#DejaVuSans-ExtraLight-41"/>
      <use x="68.408203" xlink:href="#DejaVuSans-ExtraLight-46"/>
      <use x="125.927734" xlink:href="#DejaVuSans-ExtraLight-4d"/>
     </g>
    </g>
   </g>
  </g>
 </g>
 <defs>
  <clipPath id="p30560ad4fe">
   <rect height="235.524139" width="185.518926" x="95.36" y="2.775861"/>
  </clipPath>
 </defs>
</svg>
