<?xml version="1.0" encoding="utf-8" standalone="no"?>
<!DOCTYPE svg PUBLIC "-//W3C//DTD SVG 1.1//EN"
  "http://www.w3.org/Graphics/SVG/1.1/DTD/svg11.dtd">
<!-- Created with matplotlib (http://matplotlib.org/) -->
<svg height="288pt" version="1.1" viewBox="0 0 432 288" width="432pt" xmlns="http://www.w3.org/2000/svg" xmlns:xlink="http://www.w3.org/1999/xlink">
 <defs>
  <style type="text/css">
*{stroke-linecap:butt;stroke-linejoin:round;}
  </style>
 </defs>
 <g id="figure_1">
  <g id="patch_1">
   <path d="M 0 288 
L 432 288 
L 432 0 
L 0 0 
z
"/>
  </g>
  <g id="axes_1">
   <g id="patch_2">
    <path d="M 103.2995 222.76 
L 411.72 222.76 
L 411.72 20.28 
L 103.2995 20.28 
z
"/>
   </g>
   <g id="patch_3">
    <path clip-path="url(#pcd46bd3a8d)" d="M 103.2995 222.76 
L 103.2995 96.462854 
L 411.72 96.462854 
L 411.72 222.76 
z
" style="fill:#333333;opacity:0.9;"/>
   </g>
   <g id="matplotlib.axis_1">
    <g id="xtick_1">
     <g id="line2d_1">
      <defs>
       <path d="M 0 0 
L 0 3.5 
" id="mdc9f2f407b" style="stroke:#ffffff;stroke-width:0.8;"/>
      </defs>
      <g>
       <use style="fill:#ffffff;stroke:#ffffff;stroke-width:0.8;" x="117.318614" xlink:href="#mdc9f2f407b" y="222.76"/>
      </g>
     </g>
     <g id="text_1">
      <!-- −5.0 -->
      <defs>
       <path d="M 73.1875 33.40625 
L 73.1875 29.390625 
L 10.59375 29.390625 
L 10.59375 33.40625 
z
" id="DejaVuSans-ExtraLight-2212"/>
       <path d="M 12.75 72.90625 
L 47.359375 72.90625 
L 47.359375 68.953125 
L 17.671875 68.953125 
L 17.671875 44.484375 
Q 19.828125 45.265625 21.96875 45.703125 
Q 24.125 46.09375 28.265625 46.09375 
Q 39.453125 46.09375 46 39.9375 
Q 52.484375 33.84375 52.484375 23.390625 
Q 52.484375 11.625 45.796875 5.078125 
Q 39.109375 -1.421875 26.90625 -1.421875 
Q 22.859375 -1.421875 18.609375 -0.734375 
Q 14.40625 -0.046875 9.859375 1.3125 
L 9.859375 6.296875 
Q 13.671875 4.5 17.78125 3.5625 
Q 21.828125 2.6875 26.375 2.6875 
Q 36.140625 2.6875 41.890625 8.25 
Q 47.65625 13.8125 47.65625 23.390625 
Q 47.65625 32.03125 42.046875 37.0625 
Q 36.375 42.140625 26.703125 42.140625 
Q 24.703125 42.140625 20.796875 41.0625 
Q 16.84375 40.046875 12.75 37.84375 
z
" id="DejaVuSans-ExtraLight-35"/>
       <path d="M 13.375 6.15625 
L 18.359375 6.15625 
L 18.359375 0 
L 13.375 0 
z
" id="DejaVuSans-ExtraLight-2e"/>
       <path d="M 31.5 70.21875 
Q 22.5625 70.21875 18.21875 61.53125 
Q 13.875 52.78125 13.875 36.375 
Q 13.875 19.96875 18.21875 11.234375 
Q 22.5625 2.546875 31.5 2.546875 
Q 40.71875 2.546875 45.0625 11.234375 
Q 49.421875 19.96875 49.421875 36.375 
Q 49.421875 52.78125 45.0625 61.53125 
Q 40.71875 70.21875 31.5 70.21875 
z
M 31.5 74.21875 
Q 42.046875 74.21875 48.1875 65.625 
Q 54.34375 56.984375 54.34375 36.375 
Q 54.34375 15.765625 48.1875 7.125 
Q 42.046875 -1.46875 31.5 -1.46875 
Q 21.234375 -1.46875 15.09375 7.125 
Q 8.9375 15.765625 8.9375 36.375 
Q 8.9375 56.984375 15.09375 65.625 
Q 21.234375 74.21875 31.5 74.21875 
z
" id="DejaVuSans-ExtraLight-30"/>
      </defs>
      <g style="fill:#ffffff;" transform="translate(95.464082 243.437187)scale(0.18 -0.18)">
       <use xlink:href="#DejaVuSans-ExtraLight-2212"/>
       <use x="83.789062" xlink:href="#DejaVuSans-ExtraLight-35"/>
       <use x="147.412109" xlink:href="#DejaVuSans-ExtraLight-2e"/>
       <use x="179.199219" xlink:href="#DejaVuSans-ExtraLight-30"/>
      </g>
     </g>
    </g>
    <g id="xtick_2">
     <g id="line2d_2">
      <g>
       <use style="fill:#ffffff;stroke:#ffffff;stroke-width:0.8;" x="187.414182" xlink:href="#mdc9f2f407b" y="222.76"/>
      </g>
     </g>
     <g id="text_2">
      <!-- −2.5 -->
      <defs>
       <path d="M 12.015625 3.953125 
L 53.609375 3.953125 
L 53.609375 0 
L 6.9375 0 
L 6.9375 5.125 
L 25.09375 24.03125 
Q 31.84375 30.859375 37.3125 36.671875 
Q 42.390625 42.09375 44.09375 45.0625 
Q 45.796875 48.046875 45.796875 52.9375 
Q 45.796875 61.375 40.625 66.5 
Q 36.859375 70.21875 28.515625 70.21875 
Q 23.640625 70.21875 17.28125 67.390625 
Q 14.5 66.109375 7.8125 61.765625 
L 7.8125 66.9375 
Q 10.640625 68.953125 16.109375 71.390625 
Q 22.3125 74.171875 28.421875 74.21875 
Q 37.84375 74.21875 44.1875 69.390625 
Q 50.390625 64.546875 50.390625 53.421875 
Q 50.390625 48.921875 48.734375 44.921875 
Q 46.78125 40.234375 42.578125 35.40625 
Q 41.359375 33.984375 34.8125 27.25 
z
" id="DejaVuSans-ExtraLight-32"/>
      </defs>
      <g style="fill:#ffffff;" transform="translate(165.559651 243.437187)scale(0.18 -0.18)">
       <use xlink:href="#DejaVuSans-ExtraLight-2212"/>
       <use x="83.789062" xlink:href="#DejaVuSans-ExtraLight-32"/>
       <use x="147.412109" xlink:href="#DejaVuSans-ExtraLight-2e"/>
       <use x="179.199219" xlink:href="#DejaVuSans-ExtraLight-35"/>
      </g>
     </g>
    </g>
    <g id="xtick_3">
     <g id="line2d_3">
      <g>
       <use style="fill:#ffffff;stroke:#ffffff;stroke-width:0.8;" x="257.50975" xlink:href="#mdc9f2f407b" y="222.76"/>
      </g>
     </g>
     <g id="text_3">
      <!-- 0.0 -->
      <g style="fill:#ffffff;" transform="translate(243.196937 243.437187)scale(0.18 -0.18)">
       <use xlink:href="#DejaVuSans-ExtraLight-30"/>
       <use x="63.623047" xlink:href="#DejaVuSans-ExtraLight-2e"/>
       <use x="95.410156" xlink:href="#DejaVuSans-ExtraLight-30"/>
      </g>
     </g>
    </g>
    <g id="xtick_4">
     <g id="line2d_4">
      <g>
       <use style="fill:#ffffff;stroke:#ffffff;stroke-width:0.8;" x="327.605318" xlink:href="#mdc9f2f407b" y="222.76"/>
      </g>
     </g>
     <g id="text_4">
      <!-- 2.5 -->
      <g style="fill:#ffffff;" transform="translate(313.292506 243.437187)scale(0.18 -0.18)">
       <use xlink:href="#DejaVuSans-ExtraLight-32"/>
       <use x="63.623047" xlink:href="#DejaVuSans-ExtraLight-2e"/>
       <use x="95.410156" xlink:href="#DejaVuSans-ExtraLight-35"/>
      </g>
     </g>
    </g>
    <g id="xtick_5">
     <g id="line2d_5">
      <g>
       <use style="fill:#ffffff;stroke:#ffffff;stroke-width:0.8;" x="397.700886" xlink:href="#mdc9f2f407b" y="222.76"/>
      </g>
     </g>
     <g id="text_5">
      <!-- 5.0 -->
      <g style="fill:#ffffff;" transform="translate(383.388074 243.437187)scale(0.18 -0.18)">
       <use xlink:href="#DejaVuSans-ExtraLight-35"/>
       <use x="63.623047" xlink:href="#DejaVuSans-ExtraLight-2e"/>
       <use x="95.410156" xlink:href="#DejaVuSans-ExtraLight-30"/>
      </g>
     </g>
    </g>
    <g id="text_6">
     <!-- strain % -->
     <defs>
      <path d="M 42.28125 53.078125 
L 42.28125 48.140625 
Q 37.546875 50.78125 36.375 51.078125 
Q 32.953125 51.90625 27.875 52.046875 
Q 20.171875 52.046875 15.765625 48.96875 
Q 12.40625 46.4375 12.40625 40.28125 
Q 12.40625 36.140625 15.578125 33.796875 
Q 18.953125 31.25 25.203125 29.890625 
L 28.265625 29.203125 
Q 36.03125 27.484375 40.046875 24.359375 
Q 44.671875 20.796875 44.921875 15.09375 
Q 44.921875 7.328125 40.328125 2.9375 
Q 35.453125 -1.421875 24.609375 -1.421875 
Q 18.5625 -1.421875 15.4375 -0.59375 
Q 11.671875 0.484375 7.515625 2 
L 7.515625 7.625 
Q 13.484375 4.203125 15.234375 3.71875 
Q 20.0625 2.4375 24.8125 2.4375 
Q 32.71875 2.4375 36.46875 5.71875 
Q 40.28125 9.03125 40.28125 14.40625 
Q 40.28125 18.890625 37.75 20.953125 
Q 34.078125 23.875 26.078125 25.734375 
L 22.953125 26.46875 
Q 16.0625 28.078125 12.453125 31 
Q 7.90625 34.671875 7.90625 39.890625 
Q 7.90625 48.484375 13.375 52.234375 
Q 18.84375 56 26.8125 56 
Q 33.59375 56 36.1875 55.28125 
Q 39.3125 54.390625 42.28125 53.078125 
z
" id="DejaVuSans-ExtraLight-73"/>
      <path d="M 16.0625 70.21875 
L 16.0625 54.6875 
L 34.578125 54.6875 
L 34.578125 50.875 
L 16.0625 50.875 
L 16.0625 18.015625 
Q 16.0625 11.765625 17.671875 9.28125 
Q 21 3.8125 27.34375 3.8125 
L 34.578125 3.8125 
L 34.578125 0 
L 27.59375 0 
Q 20.90625 0 16.21875 3.90625 
Q 11.53125 7.8125 11.53125 18.015625 
L 11.53125 50.875 
L 4.984375 50.875 
L 4.984375 54.6875 
L 11.53125 54.6875 
L 11.53125 70.21875 
z
" id="DejaVuSans-ExtraLight-74"/>
      <path d="M 41.015625 50.828125 
Q 39.9375 51.375 38.09375 51.765625 
Q 36.421875 52.046875 33.890625 52.046875 
Q 25.59375 52.046875 20.125 45.90625 
Q 15.828125 40.921875 15.828125 28.8125 
L 15.828125 0 
L 11.421875 0 
L 11.421875 54.6875 
L 15.828125 54.6875 
L 15.828125 44.4375 
Q 18.015625 48.828125 21.96875 51.859375 
Q 27.4375 56 34.859375 56 
Q 36.765625 56 38.1875 55.859375 
Q 39.65625 55.859375 41.015625 55.515625 
z
" id="DejaVuSans-ExtraLight-72"/>
      <path d="M 33.203125 30.859375 
Q 22.359375 30.859375 17.578125 27 
Q 12.796875 23.140625 12.796875 15.71875 
Q 12.796875 8.5 16.75 5.46875 
Q 20.703125 2.4375 26.125 2.4375 
Q 36.375 2.4375 40.875 11.140625 
Q 45.40625 19.828125 45.40625 27.484375 
L 45.40625 30.859375 
z
M 49.953125 31.203125 
L 49.953125 0 
L 45.515625 0 
L 45.515625 14.84375 
Q 41.75 3.953125 35.546875 0.984375 
Q 30.609375 -1.421875 25.734375 -1.421875 
Q 17.578125 -1.421875 12.890625 2.9375 
Q 8.203125 7.328125 8.203125 15.8125 
Q 8.203125 24.3125 14.3125 29.390625 
Q 20.40625 34.515625 34.28125 34.515625 
L 45.40625 34.515625 
L 45.40625 35.40625 
Q 45.40625 42.671875 41.265625 47.359375 
Q 37.15625 52.046875 27.6875 52.046875 
Q 23 52.046875 18.109375 50.296875 
Q 14.984375 49.171875 10.015625 45.75 
L 10.015625 50.59375 
Q 14.359375 53.265625 18.109375 54.390625 
Q 23.578125 56 28.609375 56 
Q 38.28125 56 44.53125 50.140625 
Q 49.953125 45.125 49.953125 31.203125 
z
" id="DejaVuSans-ExtraLight-61"/>
      <path d="M 11.234375 54.6875 
L 15.71875 54.6875 
L 15.71875 0 
L 11.234375 0 
z
M 11.234375 75.984375 
L 15.71875 75.984375 
L 15.71875 69.828125 
L 11.234375 69.828125 
z
" id="DejaVuSans-ExtraLight-69"/>
      <path d="M 52.640625 33.015625 
L 52.640625 0 
L 48.140625 0 
L 48.140625 32.71875 
Q 48.140625 43.359375 44.71875 47.703125 
Q 41.3125 52.046875 34.671875 52.046875 
Q 26.90625 52.046875 21.390625 47.359375 
Q 15.828125 42.625 15.828125 30.90625 
L 15.828125 0 
L 11.328125 0 
L 11.328125 54.6875 
L 15.828125 54.6875 
L 15.828125 44.4375 
Q 18.21875 49.421875 22.125 52.046875 
Q 27.875 56 34.859375 56 
Q 42.96875 56 47.796875 50.484375 
Q 52.640625 45.015625 52.640625 33.015625 
z
" id="DejaVuSans-ExtraLight-6e"/>
      <path id="DejaVuSans-ExtraLight-20"/>
      <path d="M 72.75 34.421875 
Q 67.921875 34.421875 65.1875 30.171875 
Q 62.453125 25.984375 62.453125 18.40625 
Q 62.453125 10.984375 65.1875 6.734375 
Q 67.921875 2.484375 72.75 2.484375 
Q 77.484375 2.484375 80.21875 6.734375 
Q 82.953125 10.984375 82.953125 18.40625 
Q 82.953125 25.875 80.21875 30.171875 
Q 77.484375 34.421875 72.75 34.421875 
z
M 72.65625 38.28125 
Q 79.5 38.28125 83.5 32.90625 
Q 87.546875 27.546875 87.546875 18.40625 
Q 87.546875 9.28125 83.5 3.90625 
Q 79.4375 -1.421875 72.65625 -1.421875 
Q 65.71875 -1.421875 61.71875 3.90625 
Q 57.71875 9.28125 57.71875 18.40625 
Q 57.71875 27.59375 61.765625 32.90625 
Q 65.765625 38.28125 72.65625 38.28125 
z
M 22.40625 70.359375 
Q 17.578125 70.359375 14.84375 66.109375 
Q 12.109375 61.921875 12.109375 54.34375 
Q 12.109375 46.921875 14.84375 42.671875 
Q 17.578125 38.421875 22.40625 38.421875 
Q 27.09375 38.421875 29.890625 42.671875 
Q 32.625 46.921875 32.625 54.34375 
Q 32.625 61.8125 29.890625 66.109375 
Q 27.09375 70.359375 22.40625 70.359375 
z
M 67.625 74.21875 
L 72.703125 74.21875 
L 27.203125 -1.421875 
L 22.125 -1.421875 
z
M 22.3125 74.21875 
Q 29.15625 74.21875 33.15625 68.84375 
Q 37.15625 63.484375 37.15625 54.34375 
Q 37.15625 45.21875 33.15625 39.84375 
Q 29.109375 34.515625 22.3125 34.515625 
Q 15.375 34.515625 11.375 39.84375 
Q 7.375 45.21875 7.375 54.34375 
Q 7.375 63.53125 11.421875 68.84375 
Q 15.4375 74.21875 22.3125 74.21875 
z
" id="DejaVuSans-ExtraLight-25"/>
     </defs>
     <g style="fill:#ffffff;" transform="translate(220.462094 264.857813)scale(0.18 -0.18)">
      <use xlink:href="#DejaVuSans-ExtraLight-73"/>
      <use x="52.099609" xlink:href="#DejaVuSans-ExtraLight-74"/>
      <use x="91.308594" xlink:href="#DejaVuSans-ExtraLight-72"/>
      <use x="132.421875" xlink:href="#DejaVuSans-ExtraLight-61"/>
      <use x="193.701172" xlink:href="#DejaVuSans-ExtraLight-69"/>
      <use x="221.484375" xlink:href="#DejaVuSans-ExtraLight-6e"/>
      <use x="284.863281" xlink:href="#DejaVuSans-ExtraLight-20"/>
      <use x="316.650391" xlink:href="#DejaVuSans-ExtraLight-25"/>
     </g>
    </g>
   </g>
   <g id="matplotlib.axis_2">
    <g id="ytick_1">
     <g id="line2d_6">
      <defs>
       <path d="M 0 0 
L -3.5 0 
" id="m6f507a7c71" style="stroke:#ffffff;stroke-width:0.8;"/>
      </defs>
      <g>
       <use style="fill:#ffffff;stroke:#ffffff;stroke-width:0.8;" x="103.2995" xlink:href="#m6f507a7c71" y="192.559292"/>
      </g>
     </g>
     <g id="text_7">
      <!-- −0.04 -->
      <defs>
       <path d="M 40.234375 70.21875 
L 9.96875 23.25 
L 40.234375 23.25 
z
M 36.421875 72.90625 
L 45.21875 72.90625 
L 45.21875 23.25 
L 55.609375 23.25 
L 55.609375 19.34375 
L 45.21875 19.34375 
L 45.21875 0 
L 40.234375 0 
L 40.234375 19.34375 
L 4.890625 19.34375 
L 4.890625 24.421875 
z
" id="DejaVuSans-ExtraLight-34"/>
      </defs>
      <g style="fill:#ffffff;" transform="translate(41.137938 199.397886)scale(0.18 -0.18)">
       <use xlink:href="#DejaVuSans-ExtraLight-2212"/>
       <use x="83.789062" xlink:href="#DejaVuSans-ExtraLight-30"/>
       <use x="147.412109" xlink:href="#DejaVuSans-ExtraLight-2e"/>
       <use x="179.199219" xlink:href="#DejaVuSans-ExtraLight-30"/>
       <use x="242.822266" xlink:href="#DejaVuSans-ExtraLight-34"/>
      </g>
     </g>
    </g>
    <g id="ytick_2">
     <g id="line2d_7">
      <g>
       <use style="fill:#ffffff;stroke:#ffffff;stroke-width:0.8;" x="103.2995" xlink:href="#m6f507a7c71" y="144.511073"/>
      </g>
     </g>
     <g id="text_8">
      <!-- −0.02 -->
      <g style="fill:#ffffff;" transform="translate(41.137938 151.349667)scale(0.18 -0.18)">
       <use xlink:href="#DejaVuSans-ExtraLight-2212"/>
       <use x="83.789062" xlink:href="#DejaVuSans-ExtraLight-30"/>
       <use x="147.412109" xlink:href="#DejaVuSans-ExtraLight-2e"/>
       <use x="179.199219" xlink:href="#DejaVuSans-ExtraLight-30"/>
       <use x="242.822266" xlink:href="#DejaVuSans-ExtraLight-32"/>
      </g>
     </g>
    </g>
    <g id="ytick_3">
     <g id="line2d_8">
      <g>
       <use style="fill:#ffffff;stroke:#ffffff;stroke-width:0.8;" x="103.2995" xlink:href="#m6f507a7c71" y="96.462854"/>
      </g>
     </g>
     <g id="text_9">
      <!-- 0.00 -->
      <g style="fill:#ffffff;" transform="translate(56.221375 103.301448)scale(0.18 -0.18)">
       <use xlink:href="#DejaVuSans-ExtraLight-30"/>
       <use x="63.623047" xlink:href="#DejaVuSans-ExtraLight-2e"/>
       <use x="95.410156" xlink:href="#DejaVuSans-ExtraLight-30"/>
       <use x="159.033203" xlink:href="#DejaVuSans-ExtraLight-30"/>
      </g>
     </g>
    </g>
    <g id="ytick_4">
     <g id="line2d_9">
      <g>
       <use style="fill:#ffffff;stroke:#ffffff;stroke-width:0.8;" x="103.2995" xlink:href="#m6f507a7c71" y="48.414635"/>
      </g>
     </g>
     <g id="text_10">
      <!-- 0.02 -->
      <g style="fill:#ffffff;" transform="translate(56.221375 55.253228)scale(0.18 -0.18)">
       <use xlink:href="#DejaVuSans-ExtraLight-30"/>
       <use x="63.623047" xlink:href="#DejaVuSans-ExtraLight-2e"/>
       <use x="95.410156" xlink:href="#DejaVuSans-ExtraLight-30"/>
       <use x="159.033203" xlink:href="#DejaVuSans-ExtraLight-32"/>
      </g>
     </g>
    </g>
    <g id="text_11">
     <!-- $\mathrm{E_{AFM}-E_{FM}}$ [eV] -->
     <defs>
      <path d="M 12.15625 72.90625 
L 53.375 72.90625 
L 53.375 68.84375 
L 17.140625 68.84375 
L 17.140625 40.875 
L 51.859375 40.875 
L 51.859375 36.921875 
L 17.140625 36.921875 
L 17.140625 3.953125 
L 54.25 3.953125 
L 54.25 0 
L 12.15625 0 
z
" id="DejaVuSans-ExtraLight-45"/>
      <path d="M 33.9375 67.96875 
L 18.3125 26.953125 
L 49.3125 26.953125 
z
M 30.8125 72.90625 
L 37.203125 72.90625 
L 65.09375 0 
L 59.515625 0 
L 50.828125 22.90625 
L 16.796875 22.90625 
L 8.15625 0 
L 2.984375 0 
z
" id="DejaVuSans-ExtraLight-41"/>
      <path d="M 12.203125 72.90625 
L 49.171875 72.90625 
L 49.171875 68.84375 
L 17.140625 68.84375 
L 17.140625 40.875 
L 46.046875 40.875 
L 46.046875 36.921875 
L 17.140625 36.921875 
L 17.140625 0 
L 12.203125 0 
z
" id="DejaVuSans-ExtraLight-46"/>
      <path d="M 16.0625 72.90625 
L 22.859375 72.90625 
L 43.109375 18.84375 
L 63.484375 72.90625 
L 70.21875 72.90625 
L 70.21875 0 
L 65.234375 0 
L 65.234375 64.015625 
L 46.484375 14.015625 
L 39.75 14.015625 
L 21.046875 64.015625 
L 21.046875 0 
L 16.0625 0 
z
" id="DejaVuSans-ExtraLight-4d"/>
      <path d="M 11.328125 75.984375 
L 27.984375 75.984375 
L 27.984375 70.90625 
L 16.21875 70.90625 
L 16.21875 -9.078125 
L 27.984375 -9.078125 
L 27.984375 -13.1875 
L 11.328125 -13.1875 
z
" id="DejaVuSans-ExtraLight-5b"/>
      <path d="M 53.953125 29.59375 
L 53.953125 26.765625 
L 12.453125 26.765625 
Q 12.453125 13.578125 17.578125 8.296875 
Q 23.25 2.4375 34.421875 2.4375 
Q 37.359375 2.4375 42.1875 3.71875 
Q 47.078125 4.984375 51.859375 7.515625 
L 51.859375 2.78125 
Q 47.015625 0.734375 41.9375 -0.34375 
Q 36.859375 -1.421875 33.890625 -1.421875 
Q 21.234375 -1.421875 14.84375 5.421875 
Q 7.90625 12.703125 7.90625 26.765625 
Q 7.90625 41.359375 14.265625 48.53125 
Q 20.75 56 32.328125 56 
Q 43.0625 56 48.53125 48.921875 
Q 53.953125 41.5 53.953125 29.59375 
z
M 49.421875 30.5625 
Q 49.421875 42.09375 44.234375 47.359375 
Q 39.890625 52.046875 32.421875 52.046875 
Q 24.265625 52.046875 18.75 47.171875 
Q 13.671875 42.625 12.640625 30.5625 
z
" id="DejaVuSans-ExtraLight-65"/>
      <path d="M 30.859375 0 
L 3.03125 72.90625 
L 8.59375 72.90625 
L 34.1875 4.890625 
L 59.96875 72.90625 
L 65.09375 72.90625 
L 37.3125 0 
z
" id="DejaVuSans-ExtraLight-56"/>
      <path d="M 27.984375 75.984375 
L 27.984375 -13.1875 
L 11.328125 -13.1875 
L 11.328125 -9.078125 
L 23.09375 -9.078125 
L 23.09375 70.90625 
L 11.328125 70.90625 
L 11.328125 75.984375 
z
" id="DejaVuSans-ExtraLight-5d"/>
     </defs>
     <g style="fill:#ffffff;" transform="translate(33.3945 188.66)rotate(-90)scale(0.18 -0.18)">
      <use transform="translate(0 0.015625)" xlink:href="#DejaVuSans-ExtraLight-45"/>
      <use transform="translate(64.140625 -16.390625)scale(0.7)" xlink:href="#DejaVuSans-ExtraLight-41"/>
      <use transform="translate(112.026367 -16.390625)scale(0.7)" xlink:href="#DejaVuSans-ExtraLight-46"/>
      <use transform="translate(152.290039 -16.390625)scale(0.7)" xlink:href="#DejaVuSans-ExtraLight-4d"/>
      <use transform="translate(234.902344 0.015625)" xlink:href="#DejaVuSans-ExtraLight-2212"/>
      <use transform="translate(338.173828 0.015625)" xlink:href="#DejaVuSans-ExtraLight-45"/>
      <use transform="translate(402.314453 -16.390625)scale(0.7)" xlink:href="#DejaVuSans-ExtraLight-46"/>
      <use transform="translate(442.578125 -16.390625)scale(0.7)" xlink:href="#DejaVuSans-ExtraLight-4d"/>
      <use transform="translate(505.708008 0.015625)" xlink:href="#DejaVuSans-ExtraLight-20"/>
      <use transform="translate(537.495117 0.015625)" xlink:href="#DejaVuSans-ExtraLight-5b"/>
      <use transform="translate(576.508789 0.015625)" xlink:href="#DejaVuSans-ExtraLight-65"/>
      <use transform="translate(638.032227 0.015625)" xlink:href="#DejaVuSans-ExtraLight-56"/>
      <use transform="translate(706.44043 0.015625)" xlink:href="#DejaVuSans-ExtraLight-5d"/>
     </g>
    </g>
   </g>
   <g id="LineCollection_1">
    <path clip-path="url(#pcd46bd3a8d)" d="M 257.50975 222.76 
L 257.50975 20.28 
" style="fill:none;stroke:#ff0000;stroke-width:1.5;"/>
   </g>
   <g id="line2d_10">
    <path clip-path="url(#pcd46bd3a8d)" d="M 117.318614 213.556364 
L 145.356841 193.592329 
L 173.395068 174.324993 
L 201.433295 155.850453 
L 229.471523 138.024563 
L 257.50975 120.823301 
L 285.547977 104.246665 
L 313.586205 88.150512 
L 341.624432 72.727034 
L 369.662659 57.784037 
L 397.700886 43.297499 
" style="fill:none;stroke:#1f77b4;stroke-linecap:square;stroke-width:1.5;"/>
    <defs>
     <path d="M 0 3 
C 0.795609 3 1.55874 2.683901 2.12132 2.12132 
C 2.683901 1.55874 3 0.795609 3 0 
C 3 -0.795609 2.683901 -1.55874 2.12132 -2.12132 
C 1.55874 -2.683901 0.795609 -3 0 -3 
C -0.795609 -3 -1.55874 -2.683901 -2.12132 -2.12132 
C -2.683901 -1.55874 -3 -0.795609 -3 0 
C -3 0.795609 -2.683901 1.55874 -2.12132 2.12132 
C -1.55874 2.683901 -0.795609 3 0 3 
z
" id="md0721fdbb2" style="stroke:#1f77b4;"/>
    </defs>
    <g clip-path="url(#pcd46bd3a8d)">
     <use style="fill:#1f77b4;stroke:#1f77b4;" x="117.318614" xlink:href="#md0721fdbb2" y="213.556364"/>
     <use style="fill:#1f77b4;stroke:#1f77b4;" x="145.356841" xlink:href="#md0721fdbb2" y="193.592329"/>
     <use style="fill:#1f77b4;stroke:#1f77b4;" x="173.395068" xlink:href="#md0721fdbb2" y="174.324993"/>
     <use style="fill:#1f77b4;stroke:#1f77b4;" x="201.433295" xlink:href="#md0721fdbb2" y="155.850453"/>
     <use style="fill:#1f77b4;stroke:#1f77b4;" x="229.471523" xlink:href="#md0721fdbb2" y="138.024563"/>
     <use style="fill:#1f77b4;stroke:#1f77b4;" x="257.50975" xlink:href="#md0721fdbb2" y="120.823301"/>
     <use style="fill:#1f77b4;stroke:#1f77b4;" x="285.547977" xlink:href="#md0721fdbb2" y="104.246665"/>
     <use style="fill:#1f77b4;stroke:#1f77b4;" x="313.586205" xlink:href="#md0721fdbb2" y="88.150512"/>
     <use style="fill:#1f77b4;stroke:#1f77b4;" x="341.624432" xlink:href="#md0721fdbb2" y="72.727034"/>
     <use style="fill:#1f77b4;stroke:#1f77b4;" x="369.662659" xlink:href="#md0721fdbb2" y="57.784037"/>
     <use style="fill:#1f77b4;stroke:#1f77b4;" x="397.700886" xlink:href="#md0721fdbb2" y="43.297499"/>
    </g>
   </g>
   <g id="line2d_11">
    <path clip-path="url(#pcd46bd3a8d)" d="M 159.375955 206.060841 
L 173.395068 192.006737 
L 187.414182 179.346032 
L 201.433295 167.021663 
L 215.452409 154.985585 
L 229.471523 143.261819 
L 243.490636 131.874391 
L 257.50975 120.823301 
L 271.528864 110.0605 
L 285.547977 99.706109 
L 299.567091 89.640007 
L 313.586205 79.934266 
L 327.605318 70.612912 
L 341.624432 61.627895 
L 355.643545 53.027264 
L 369.662659 44.811018 
L 383.681773 36.955134 
L 397.700886 29.483636 
" style="fill:none;stroke:#ff7f0e;stroke-linecap:square;stroke-width:1.5;"/>
    <defs>
     <path d="M 0 3 
C 0.795609 3 1.55874 2.683901 2.12132 2.12132 
C 2.683901 1.55874 3 0.795609 3 0 
C 3 -0.795609 2.683901 -1.55874 2.12132 -2.12132 
C 1.55874 -2.683901 0.795609 -3 0 -3 
C -0.795609 -3 -1.55874 -2.683901 -2.12132 -2.12132 
C -2.683901 -1.55874 -3 -0.795609 -3 0 
C -3 0.795609 -2.683901 1.55874 -2.12132 2.12132 
C -1.55874 2.683901 -0.795609 3 0 3 
z
" id="m7594e2ff18" style="stroke:#ff7f0e;"/>
    </defs>
    <g clip-path="url(#pcd46bd3a8d)">
     <use style="fill:#ff7f0e;stroke:#ff7f0e;" x="159.375955" xlink:href="#m7594e2ff18" y="206.060841"/>
     <use style="fill:#ff7f0e;stroke:#ff7f0e;" x="173.395068" xlink:href="#m7594e2ff18" y="192.006737"/>
     <use style="fill:#ff7f0e;stroke:#ff7f0e;" x="187.414182" xlink:href="#m7594e2ff18" y="179.346032"/>
     <use style="fill:#ff7f0e;stroke:#ff7f0e;" x="201.433295" xlink:href="#m7594e2ff18" y="167.021663"/>
     <use style="fill:#ff7f0e;stroke:#ff7f0e;" x="215.452409" xlink:href="#m7594e2ff18" y="154.985585"/>
     <use style="fill:#ff7f0e;stroke:#ff7f0e;" x="229.471523" xlink:href="#m7594e2ff18" y="143.261819"/>
     <use style="fill:#ff7f0e;stroke:#ff7f0e;" x="243.490636" xlink:href="#m7594e2ff18" y="131.874391"/>
     <use style="fill:#ff7f0e;stroke:#ff7f0e;" x="257.50975" xlink:href="#m7594e2ff18" y="120.823301"/>
     <use style="fill:#ff7f0e;stroke:#ff7f0e;" x="271.528864" xlink:href="#m7594e2ff18" y="110.0605"/>
     <use style="fill:#ff7f0e;stroke:#ff7f0e;" x="285.547977" xlink:href="#m7594e2ff18" y="99.706109"/>
     <use style="fill:#ff7f0e;stroke:#ff7f0e;" x="299.567091" xlink:href="#m7594e2ff18" y="89.640007"/>
     <use style="fill:#ff7f0e;stroke:#ff7f0e;" x="313.586205" xlink:href="#m7594e2ff18" y="79.934266"/>
     <use style="fill:#ff7f0e;stroke:#ff7f0e;" x="327.605318" xlink:href="#m7594e2ff18" y="70.612912"/>
     <use style="fill:#ff7f0e;stroke:#ff7f0e;" x="341.624432" xlink:href="#m7594e2ff18" y="61.627895"/>
     <use style="fill:#ff7f0e;stroke:#ff7f0e;" x="355.643545" xlink:href="#m7594e2ff18" y="53.027264"/>
     <use style="fill:#ff7f0e;stroke:#ff7f0e;" x="369.662659" xlink:href="#m7594e2ff18" y="44.811018"/>
     <use style="fill:#ff7f0e;stroke:#ff7f0e;" x="383.681773" xlink:href="#m7594e2ff18" y="36.955134"/>
     <use style="fill:#ff7f0e;stroke:#ff7f0e;" x="397.700886" xlink:href="#m7594e2ff18" y="29.483636"/>
    </g>
   </g>
   <g id="patch_4">
    <path d="M 103.2995 222.76 
L 103.2995 20.28 
" style="fill:none;stroke:#ffffff;stroke-linecap:square;stroke-linejoin:miter;stroke-width:0.8;"/>
   </g>
   <g id="patch_5">
    <path d="M 411.72 222.76 
L 411.72 20.28 
" style="fill:none;stroke:#ffffff;stroke-linecap:square;stroke-linejoin:miter;stroke-width:0.8;"/>
   </g>
   <g id="patch_6">
    <path d="M 103.2995 222.76 
L 411.72 222.76 
" style="fill:none;stroke:#ffffff;stroke-linecap:square;stroke-linejoin:miter;stroke-width:0.8;"/>
   </g>
   <g id="patch_7">
    <path d="M 103.2995 20.28 
L 411.72 20.28 
" style="fill:none;stroke:#ffffff;stroke-linecap:square;stroke-linejoin:miter;stroke-width:0.8;"/>
   </g>
   <g id="legend_1">
    <g id="patch_8">
     <path d="M 275.730775 202.512 
L 383.121712 202.512 
Q 385.921712 202.512 385.921712 199.712 
L 385.921712 160.01325 
Q 385.921712 157.21325 383.121712 157.21325 
L 275.730775 157.21325 
Q 272.930775 157.21325 272.930775 160.01325 
L 272.930775 199.712 
Q 272.930775 202.512 275.730775 202.512 
z
" style="opacity:0.8;stroke:#cccccc;stroke-linejoin:miter;"/>
    </g>
    <g id="line2d_12">
     <path d="M 278.530775 168.551063 
L 306.530775 168.551063 
" style="fill:none;stroke:#1f77b4;stroke-linecap:square;stroke-width:1.5;"/>
    </g>
    <g id="line2d_13">
     <g>
      <use style="fill:#1f77b4;stroke:#1f77b4;" x="292.530775" xlink:href="#md0721fdbb2" y="168.551063"/>
     </g>
    </g>
    <g id="text_12">
     <!-- All terms -->
     <defs>
      <path d="M 11.328125 75.984375 
L 15.828125 75.984375 
L 15.828125 0 
L 11.328125 0 
z
" id="DejaVuSans-ExtraLight-6c"/>
      <path d="M 50.6875 42.78125 
Q 53.21875 49.359375 58.6875 52.734375 
Q 63.875 56 71 56 
Q 78.125 56 82.421875 50.984375 
Q 86.765625 46 86.765625 33.015625 
L 86.765625 0 
L 82.328125 0 
L 82.328125 32.71875 
Q 82.328125 44.046875 79.203125 48.046875 
Q 76.078125 52.046875 70.90625 52.046875 
Q 63.375 52.046875 57.625 47.40625 
Q 51.3125 42.390625 51.3125 30.90625 
L 51.3125 0 
L 46.828125 0 
L 46.828125 32.71875 
Q 46.828125 43.65625 43.796875 47.84375 
Q 40.765625 52.046875 35.40625 52.046875 
Q 27.875 52.046875 22.125 47.359375 
Q 15.828125 42.328125 15.828125 30.90625 
L 15.828125 0 
L 11.328125 0 
L 11.328125 54.6875 
L 15.828125 54.6875 
L 15.828125 44.4375 
Q 18.21875 49.8125 23.25 52.9375 
Q 28.328125 56 35.6875 56 
Q 40.484375 56 44.921875 52.78125 
Q 48.34375 50.296875 50.6875 42.78125 
z
" id="DejaVuSans-ExtraLight-6d"/>
     </defs>
     <g style="fill:#ffffff;" transform="translate(317.730775 173.451063)scale(0.14 -0.14)">
      <use xlink:href="#DejaVuSans-ExtraLight-41"/>
      <use x="68.408203" xlink:href="#DejaVuSans-ExtraLight-6c"/>
      <use x="96.191406" xlink:href="#DejaVuSans-ExtraLight-6c"/>
      <use x="123.974609" xlink:href="#DejaVuSans-ExtraLight-20"/>
      <use x="155.761719" xlink:href="#DejaVuSans-ExtraLight-74"/>
      <use x="194.970703" xlink:href="#DejaVuSans-ExtraLight-65"/>
      <use x="256.494141" xlink:href="#DejaVuSans-ExtraLight-72"/>
      <use x="297.591797" xlink:href="#DejaVuSans-ExtraLight-6d"/>
      <use x="395.003906" xlink:href="#DejaVuSans-ExtraLight-73"/>
     </g>
    </g>
    <g id="line2d_14">
     <path d="M 278.530775 189.100437 
L 306.530775 189.100437 
" style="fill:none;stroke:#ff7f0e;stroke-linecap:square;stroke-width:1.5;"/>
    </g>
    <g id="line2d_15">
     <g>
      <use style="fill:#ff7f0e;stroke:#ff7f0e;" x="292.530775" xlink:href="#m7594e2ff18" y="189.100437"/>
     </g>
    </g>
    <g id="text_13">
     <!-- $\mathrm{t_{23}}$ -->
     <defs>
      <path d="M 40.578125 39.3125 
Q 46.4375 37.890625 49.8125 33.015625 
Q 53.125 28.21875 53.125 21.1875 
Q 53.125 10.40625 46.921875 4.484375 
Q 40.71875 -1.421875 27.09375 -1.421875 
Q 22.515625 -1.421875 17.671875 0 
Q 12.796875 1.46875 7.625 4.5 
L 7.625 9.8125 
Q 11.71875 6.25 16.609375 4.390625 
Q 21.484375 2.59375 26.5625 2.59375 
Q 37.109375 2.59375 42.671875 7.375 
Q 48.1875 12.109375 48.1875 21.1875 
Q 48.1875 28.609375 43.0625 32.765625 
Q 37.890625 36.96875 28.71875 36.96875 
L 20.21875 36.96875 
L 20.21875 41.0625 
L 29.109375 41.0625 
Q 37.546875 41.0625 42 44.4375 
Q 46.484375 47.859375 46.484375 54.296875 
Q 46.484375 61.921875 41.890625 66.015625 
Q 37.25 70.125 28.65625 70.125 
Q 24.65625 70.125 20.015625 68.703125 
Q 15.375 67.28125 9.8125 64.3125 
L 9.8125 69.390625 
Q 15.4375 71.78125 20.3125 72.90625 
Q 25.25 74.125 29.59375 74.21875 
Q 40.765625 74.21875 46.09375 69.140625 
Q 51.46875 64.015625 51.46875 55.328125 
Q 51.46875 49.515625 48.640625 45.125 
Q 45.90625 40.875 40.578125 39.3125 
z
" id="DejaVuSans-ExtraLight-33"/>
     </defs>
     <g style="fill:#ffffff;" transform="translate(317.730775 194.000438)scale(0.14 -0.14)">
      <use transform="translate(0 0.78125)" xlink:href="#DejaVuSans-ExtraLight-74"/>
      <use transform="translate(40.166016 -15.625)scale(0.7)" xlink:href="#DejaVuSans-ExtraLight-32"/>
      <use transform="translate(84.702148 -15.625)scale(0.7)" xlink:href="#DejaVuSans-ExtraLight-33"/>
     </g>
    </g>
   </g>
  </g>
 </g>
 <defs>
  <clipPath id="pcd46bd3a8d">
   <rect height="202.48" width="308.4205" x="103.2995" y="20.28"/>
  </clipPath>
 </defs>
</svg>
