<?xml version="1.0" encoding="UTF-8" standalone="no"?>
<svg
   xmlns:dc="http://purl.org/dc/elements/1.1/"
   xmlns:cc="http://creativecommons.org/ns#"
   xmlns:rdf="http://www.w3.org/1999/02/22-rdf-syntax-ns#"
   xmlns:svg="http://www.w3.org/2000/svg"
   xmlns="http://www.w3.org/2000/svg"
   xmlns:sodipodi="http://sodipodi.sourceforge.net/DTD/sodipodi-0.dtd"
   xmlns:inkscape="http://www.inkscape.org/namespaces/inkscape"
   version="1.1"
   id="svg833"
   xml:space="preserve"
   width="300"
   height="70"
   viewBox="0 0 299.99999 70"
   sodipodi:docname="fig_2.svg"
   inkscape:version="1.0.2 (e86c8708, 2021-01-15)"><metadata
     id="metadata839"><rdf:RDF><cc:Work
         rdf:about=""><dc:format>image/svg+xml</dc:format><dc:type
           rdf:resource="http://purl.org/dc/dcmitype/StillImage" /><dc:title></dc:title></cc:Work></rdf:RDF></metadata><defs
     id="defs837"><clipPath
       clipPathUnits="userSpaceOnUse"
       id="clipPath851"><path
         d="M 0,0 H 612 V 792 H 0 Z"
         id="path849" /></clipPath><clipPath
       clipPathUnits="userSpaceOnUse"
       id="clipPath1539"><path
         d="M 326.778,361.417 H 548.277 V 152.504 H 326.778 Z"
         id="path1537" /></clipPath><clipPath
       clipPathUnits="userSpaceOnUse"
       id="clipPath1545"><path
         d="M 0,0 H 612 V 792 H 0 Z"
         id="path1543" /></clipPath><clipPath
       clipPathUnits="userSpaceOnUse"
       id="clipPath1555"><path
         d="M 0,0 H 612 V 792 H 0 Z"
         id="path1553" /></clipPath><clipPath
       clipPathUnits="userSpaceOnUse"
       id="clipPath1591"><path
         d="M 326.778,361.417 H 548.277 V 152.504 H 326.778 Z"
         id="path1589" /></clipPath><clipPath
       clipPathUnits="userSpaceOnUse"
       id="clipPath1597"><path
         d="M 0,0 H 612 V 792 H 0 Z"
         id="path1595" /></clipPath><clipPath
       clipPathUnits="userSpaceOnUse"
       id="clipPath1607"><path
         d="M 0,0 H 612 V 792 H 0 Z"
         id="path1605" /></clipPath><clipPath
       clipPathUnits="userSpaceOnUse"
       id="clipPath1639"><path
         d="M 326.778,361.417 H 548.277 V 152.504 H 326.778 Z"
         id="path1637" /></clipPath><clipPath
       clipPathUnits="userSpaceOnUse"
       id="clipPath1645"><path
         d="M 0,0 H 612 V 792 H 0 Z"
         id="path1643" /></clipPath><clipPath
       clipPathUnits="userSpaceOnUse"
       id="clipPath1655"><path
         d="M 0,0 H 612 V 792 H 0 Z"
         id="path1653" /></clipPath><clipPath
       clipPathUnits="userSpaceOnUse"
       id="clipPath1691"><path
         d="M 326.778,361.417 H 548.277 V 152.504 H 326.778 Z"
         id="path1689" /></clipPath><clipPath
       clipPathUnits="userSpaceOnUse"
       id="clipPath1697"><path
         d="M 0,0 H 612 V 792 H 0 Z"
         id="path1695" /></clipPath><clipPath
       clipPathUnits="userSpaceOnUse"
       id="clipPath1709"><path
         d="M 0,0 H 612 V 792 H 0 Z"
         id="path1707" /></clipPath><clipPath
       clipPathUnits="userSpaceOnUse"
       id="clipPath1749"><path
         d="M 326.778,361.417 H 548.277 V 152.504 H 326.778 Z"
         id="path1747" /></clipPath><clipPath
       clipPathUnits="userSpaceOnUse"
       id="clipPath1755"><path
         d="M 0,0 H 612 V 792 H 0 Z"
         id="path1753" /></clipPath><clipPath
       clipPathUnits="userSpaceOnUse"
       id="clipPath1767"><path
         d="M 0,0 H 612 V 792 H 0 Z"
         id="path1765" /></clipPath><clipPath
       clipPathUnits="userSpaceOnUse"
       id="clipPath1803"><path
         d="M 326.778,361.417 H 548.277 V 152.504 H 326.778 Z"
         id="path1801" /></clipPath><clipPath
       clipPathUnits="userSpaceOnUse"
       id="clipPath1809"><path
         d="M 0,0 H 612 V 792 H 0 Z"
         id="path1807" /></clipPath><clipPath
       clipPathUnits="userSpaceOnUse"
       id="clipPath1821"><path
         d="M 0,0 H 612 V 792 H 0 Z"
         id="path1819" /></clipPath></defs><sodipodi:namedview
     pagecolor="#ffffff"
     bordercolor="#666666"
     borderopacity="1"
     objecttolerance="10"
     gridtolerance="10"
     guidetolerance="10"
     inkscape:pageopacity="0"
     inkscape:pageshadow="2"
     inkscape:window-width="1280"
     inkscape:window-height="755"
     id="namedview835"
     showgrid="false"
     inkscape:zoom="2.1679422"
     inkscape:cx="157.65369"
     inkscape:cy="24.405348"
     inkscape:window-x="0"
     inkscape:window-y="23"
     inkscape:window-maximized="1"
     inkscape:current-layer="g1693" /><g
     id="g841"
     inkscape:groupmode="layer"
     inkscape:label="RevModPhys.84.1419 (dragged)"
     transform="matrix(1.3333333,0,0,-1.3333333,-431.85747,284.3964)"><g
       id="g843" /><g
       id="g1685"
       transform="translate(-0.29453837,-122.7302)"><g
         id="g1687"
         clip-path="url(#clipPath1691)"><g
           id="g1693"
           clip-path="url(#clipPath1697)"><path
             d="m 328.032,309.534 h 93.798 m -69.592,-25.013 v 50.025 m -24.206,-24.111 0.303,-0.319 0.302,-0.223 0.302,-0.154 0.304,-0.113 0.605,-0.184 0.302,-0.114 0.303,-0.154 0.302,-0.222 0.303,-0.32 0.302,-0.452 0.303,-0.623 0.302,-0.832 0.303,-1.077 0.303,-1.344 0.302,-1.616 0.303,-1.864 0.303,-2.052 0.302,-2.139 0.302,-2.082 0.303,-1.847 0.302,-1.412 0.303,-0.771 0.302,0.048 0.303,0.997 0.303,2.003 0.302,2.972 0.303,3.811 0.302,4.427 0.303,4.755 0.303,4.754 0.302,4.428 0.304,3.81 0.301,2.972 0.303,2.003 0.303,0.997 0.302,0.048 0.303,-0.771 0.302,-1.411 0.303,-1.847 0.303,-2.083 0.302,-2.138 0.303,-2.053 0.302,-1.863 0.303,-1.616 0.302,-1.345 0.303,-1.076 0.302,-0.832 0.303,-0.623 0.303,-0.453 0.302,-0.319 0.303,-0.223 0.302,-0.154 0.303,-0.113 0.605,-0.184 0.303,-0.114 0.302,-0.154 0.303,-0.222 0.302,-0.32 0.303,-0.452 0.302,-0.623 0.303,-0.832 0.303,-1.077 0.302,-1.344 0.303,-1.616 0.302,-1.864 0.303,-2.052 0.303,-2.139 0.302,-2.082 0.303,-1.847 0.302,-1.412 0.303,-0.771 0.302,0.048 0.303,0.997 0.303,2.003 0.302,2.972 0.303,3.811 0.302,4.427 0.303,4.755 0.302,4.754 0.303,4.428 0.302,3.81 0.303,2.972 0.303,2.003 0.302,0.997 0.303,0.048 0.303,-0.771 0.302,-1.411 0.303,-1.847 0.302,-2.083 0.303,-2.138 0.302,-2.053 0.303,-1.863 0.302,-1.616 0.302,-1.345 0.303,-1.076 0.303,-0.832 0.303,-0.623 0.303,-0.453 0.302,-0.319 0.302,-0.223 0.303,-0.154 0.302,-0.113 0.303,-0.092 0.302,-0.092 0.303,-0.114 0.303,-0.154 0.302,-0.222 0.303,-0.32 0.302,-0.452 0.303,-0.623 0.302,-0.832 0.303,-1.077 0.302,-1.344 0.304,-1.616 0.302,-1.864 0.303,-2.052 0.302,-2.139 0.303,-2.082 0.302,-1.847 0.303,-1.412 0.302,-0.771 0.303,0.048 0.303,0.997 0.303,2.003 0.302,2.972 0.303,3.811 0.302,4.427 0.303,4.755 0.302,4.754 0.302,4.428 0.303,3.81 0.302,2.972 0.303,2.003 0.303,0.997 0.303,0.048 0.302,-0.771 0.302,-1.411 0.303,-1.847 0.303,-2.083 0.302,-2.138 0.303,-2.053 0.302,-1.863 0.303,-1.616 0.302,-1.345 0.303,-1.076 0.303,-0.832 0.303,-0.623 0.302,-0.453 0.303,-0.319 0.302,-0.223 0.303,-0.154 0.302,-0.113 0.303,-0.092 0.302,-0.092 0.303,-0.114 0.302,-0.154 0.303,-0.222 0.303,-0.32 0.302,-0.452 0.303,-0.623 0.302,-0.832 0.303,-1.077 0.303,-1.344 0.302,-1.616 0.303,-1.864 0.302,-2.052 0.303,-2.139 0.302,-2.082 0.303,-1.847 0.302,-1.412 0.303,-0.771 0.302,0.048 0.303,0.997 0.303,2.003 0.302,2.972 0.303,3.811 0.303,4.427 0.302,4.755 0.303,4.754 0.302,4.428 0.303,3.81 0.302,2.972 0.303,2.003 0.303,0.997 0.302,0.048 0.303,-0.771 0.302,-1.411 0.302,-1.847 0.303,-2.083 0.303,-2.138 0.303,-2.053 0.302,-1.863 0.303,-1.616 0.302,-1.345 0.302,-1.076 0.303,-0.832 0.302,-0.623 0.304,-0.453 0.302,-0.319 0.303,-0.223 0.302,-0.154 0.303,-0.113 0.302,-0.092 0.303,-0.092 0.302,-0.114 0.303,-0.154 0.303,-0.222 0.302,-0.32 0.303,-0.452 0.302,-0.623 0.303,-0.832 0.302,-1.077 0.303,-1.344 0.303,-1.616 0.303,-1.864 0.302,-2.052 0.303,-2.139 0.302,-2.082 0.303,-1.847 0.302,-1.412 0.302,-0.771 0.304,0.048 0.301,0.997 0.303,2.003 0.303,2.972 0.302,3.811 0.303,4.427 0.302,4.755 0.303,4.754 0.303,4.428 0.302,3.81 0.303,2.972 0.302,2.003 0.303,0.997 0.302,0.048 0.303,-0.771 0.303,-1.411 0.302,-1.847 0.303,-2.083 0.303,-2.138 0.302,-2.053 0.302,-1.863 0.303,-1.616 0.303,-1.345 0.302,-1.076 0.303,-0.832 0.302,-0.623 0.303,-0.453 0.303,-0.319 0.302,-0.223 0.303,-0.154 0.302,-0.113 0.605,-0.184 0.303,-0.114 0.303,-0.154 0.302,-0.222 0.303,-0.32 0.302,-0.452 0.303,-0.623 0.303,-0.832 0.302,-1.077 0.302,-1.344 0.303,-1.616 0.303,-1.864 0.302,-2.052 0.303,-2.139 0.303,-2.082 0.302,-1.847 0.303,-1.412 0.302,-0.771 0.303,0.048 0.302,0.997 0.303,2.003 0.303,2.972 0.302,3.811 0.303,4.427 0.302,4.755 0.303,4.754 0.303,4.428 0.302,3.81 0.303,2.972 0.302,2.003 0.303,0.997 0.302,0.048 0.303,-0.771 0.303,-1.411 0.301,-1.847 0.304,-2.083 0.301,-2.138 0.304,-2.053 0.302,-1.863 0.303,-1.616 0.302,-1.345 0.303,-1.076 0.302,-0.832 0.303,-0.623 0.302,-0.453 0.303,-0.319 0.303,-0.223 0.302,-0.154 0.303,-0.113 0.605,-0.184 0.303,-0.114 0.302,-0.154 0.303,-0.222 0.303,-0.32"
             style="fill:none;stroke:#000000;stroke-width:0.651;stroke-linecap:round;stroke-linejoin:round;stroke-miterlimit:10;stroke-dasharray:none;stroke-opacity:1"
             id="path1701" /><path
             style="fill:none;stroke:#000000;stroke-width:0.566929;stroke-linecap:butt;stroke-linejoin:miter;stroke-miterlimit:4;stroke-dasharray:none;stroke-opacity:1"
             d="m 542.31503,310.16875 c -93.798,0 -93.798,0 -93.798,0"
             id="path2048" /><path
             style="fill:none;stroke:#000000;stroke-width:0.566929;stroke-linecap:butt;stroke-linejoin:miter;stroke-miterlimit:4;stroke-dasharray:none;stroke-opacity:1"
             d="m 474.81454,284.521 c 0,50.025 0,50.025 0,50.025"
             id="path2050" /></g></g></g><g
       id="g1703"
       transform="translate(-0.29453837,-122.7302)"><g
         id="g1705"
         clip-path="url(#clipPath1709)"><path
           d="m 338.985,309.534 c 0,1.036 -0.839,1.875 -1.876,1.875 -1.036,0 -1.876,-0.839 -1.876,-1.875 0,-1.036 0.84,-1.876 1.876,-1.876 1.037,0 1.876,0.84 1.876,1.876"
           style="fill:#0000ff;fill-opacity:1;fill-rule:nonzero;stroke:none"
           id="path1711" /><path
           d="m 354.114,309.534 c 0,1.036 -0.84,1.875 -1.876,1.875 -1.036,0 -1.876,-0.839 -1.876,-1.875 0,-1.036 0.84,-1.876 1.876,-1.876 1.036,0 1.876,0.84 1.876,1.876"
           style="fill:#0000ff;fill-opacity:1;fill-rule:nonzero;stroke:none"
           id="path1713" /><path
           d="m 369.242,309.534 c 0,1.036 -0.84,1.875 -1.875,1.875 -1.037,0 -1.876,-0.839 -1.876,-1.875 0,-1.036 0.839,-1.876 1.876,-1.876 1.035,0 1.875,0.84 1.875,1.876"
           style="fill:#0000ff;fill-opacity:1;fill-rule:nonzero;stroke:none"
           id="path1715" /><path
           d="m 384.371,309.534 c 0,1.036 -0.84,1.875 -1.876,1.875 -1.036,0 -1.876,-0.839 -1.876,-1.875 0,-1.036 0.84,-1.876 1.876,-1.876 1.036,0 1.876,0.84 1.876,1.876"
           style="fill:#0000ff;fill-opacity:1;fill-rule:nonzero;stroke:none"
           id="path1717" /><path
           d="m 399.5,309.534 c 0,1.036 -0.841,1.875 -1.877,1.875 -1.035,0 -1.875,-0.839 -1.875,-1.875 0,-1.036 0.84,-1.876 1.875,-1.876 1.036,0 1.877,0.84 1.877,1.876"
           style="fill:#0000ff;fill-opacity:1;fill-rule:nonzero;stroke:none"
           id="path1719" /><path
           d="m 414.628,309.534 c 0,1.036 -0.84,1.875 -1.876,1.875 -1.036,0 -1.875,-0.839 -1.875,-1.875 0,-1.036 0.839,-1.876 1.875,-1.876 1.036,0 1.876,0.84 1.876,1.876"
           style="fill:#0000ff;fill-opacity:1;fill-rule:nonzero;stroke:none"
           id="path1721" /></g></g><g
       id="g1797"
       transform="translate(91.730979,-101.03014)"><g
         id="g1799"
         clip-path="url(#clipPath1803)"><g
           id="g1805"
           clip-path="url(#clipPath1809)"><path
             d="m 357.94273,302.06659 0.605,0.344 0.302,0.17 0.304,0.167 0.302,0.167 0.303,0.165 0.302,0.163 0.303,0.161 0.302,0.159 0.303,0.158 0.302,0.156 0.303,0.155 0.605,0.304 0.303,0.148 0.302,0.148 0.303,0.145 0.303,0.144 0.302,0.14 0.302,0.14 0.303,0.139 0.302,0.134 0.303,0.134 0.302,0.132 0.303,0.13 0.303,0.127 0.302,0.126 0.303,0.123 0.302,0.122 0.303,0.119 0.303,0.117 0.302,0.116 0.304,0.113 0.301,0.111 0.303,0.108 0.303,0.107 0.302,0.104 0.303,0.103 0.302,0.099 0.303,0.098 0.303,0.096 0.302,0.094 0.303,0.09 0.302,0.088 0.303,0.087 0.302,0.084 0.303,0.082 0.302,0.079 0.303,0.078 0.303,0.074 0.302,0.072 0.303,0.07 0.302,0.068 0.303,0.065 0.302,0.063 0.303,0.06 0.303,0.059 0.302,0.055 0.303,0.053 0.302,0.051 0.303,0.049 0.302,0.045 0.303,0.044 0.303,0.041 0.302,0.039 0.303,0.036 0.302,0.033 0.303,0.031 0.303,0.03 0.302,0.025 0.303,0.023 0.302,0.022 0.303,0.019 0.302,0.016 0.303,0.015 0.303,0.011 0.302,0.008 0.303,0.006 0.302,0.004 0.303,0.001 0.302,-0.001 0.303,-0.004 0.302,-0.006 0.303,-0.008 0.303,-0.011 0.302,-0.015 0.303,-0.016 0.303,-0.019 0.302,-0.022 0.303,-0.023 0.302,-0.025 0.303,-0.03 0.302,-0.031 0.303,-0.033 0.302,-0.036 0.302,-0.039 0.303,-0.041 0.303,-0.044 0.303,-0.045 0.303,-0.049 0.302,-0.051 0.302,-0.053 0.303,-0.055 0.302,-0.059 0.303,-0.06 0.302,-0.063 0.303,-0.065 0.303,-0.068 0.302,-0.07 0.303,-0.072 0.302,-0.074 0.303,-0.078 0.302,-0.079 0.303,-0.082 0.302,-0.084 0.304,-0.087 0.302,-0.088 0.303,-0.09 0.302,-0.094 0.303,-0.096 0.302,-0.098 0.303,-0.099 0.302,-0.103 0.303,-0.104 0.303,-0.107 0.303,-0.108 0.302,-0.111 0.303,-0.113 0.302,-0.116 0.303,-0.117 0.302,-0.119 0.302,-0.122 0.303,-0.123 0.302,-0.126 0.303,-0.127 0.303,-0.13 0.303,-0.132 0.302,-0.134 0.302,-0.134 0.303,-0.139 0.605,-0.28 0.303,-0.144 0.302,-0.145 0.303,-0.148 0.302,-0.148 0.606,-0.304 0.303,-0.155 0.302,-0.156 0.303,-0.158 0.302,-0.159 0.303,-0.161 0.302,-0.163 0.303,-0.165 0.302,-0.167 0.303,-0.167 0.302,-0.17 0.303,-0.172 0.303,-0.172 0.302,-0.175 0.303,-0.174 0.302,-0.177 0.303,-0.18 0.303,-0.18 0.302,-0.181 0.605,-0.367 0.303,-0.186 0.302,-0.187 0.303,-0.188 0.302,-0.189 0.303,-0.191 0.605,-0.386 0.303,-0.195 0.302,-0.194 0.303,-0.198 0.303,-0.197 0.302,-0.199 0.303,-0.2 0.302,-0.199 0.303,-0.204 0.302,-0.202 0.303,-0.203 0.303,-0.206 0.302,-0.205 0.303,-0.206 0.302,-0.207 0.302,-0.208 0.303,-0.21 0.303,-0.209 0.303,-0.21 0.302,-0.212 0.303,-0.211 0.302,-0.212 0.302,-0.214 0.303,-0.212 0.302,-0.214 0.304,-0.215 0.302,-0.216 0.303,-0.215 0.302,-0.217 0.303,-0.215 0.302,-0.217 0.303,-0.217 0.605,-0.436 0.303,-0.217 0.302,-0.218 0.303,-0.22 0.302,-0.219 0.303,-0.217 0.302,-0.221 0.303,-0.219 0.303,-0.22 0.303,-0.218 0.302,-0.219 0.303,-0.22 0.302,-0.219 0.605,-0.438 0.302,-0.22 0.304,-0.219 0.301,-0.217 0.303,-0.22 0.303,-0.218 0.302,-0.218 0.303,-0.217 0.302,-0.218 0.303,-0.218 0.303,-0.216 0.302,-0.217 0.303,-0.214 0.302,-0.216 0.303,-0.215 0.302,-0.214 0.303,-0.215 0.303,-0.213 0.302,-0.213 0.303,-0.211 0.303,-0.212 0.302,-0.21 0.302,-0.21 0.606,-0.418 0.302,-0.208 0.303,-0.206 0.302,-0.206 0.303,-0.205 0.303,-0.205 0.302,-0.204 0.303,-0.202 0.302,-0.202 0.303,-0.199 0.302,-0.2 0.303,-0.199 0.303,-0.196 0.302,-0.196 0.303,-0.196 0.302,-0.194 0.303,-0.193 0.303,-0.191 0.302,-0.189 0.302,-0.19 0.303,-0.187 0.303,-0.188 0.302,-0.183 0.303,-0.185 0.303,-0.182 0.302,-0.181 0.303,-0.18 0.302,-0.177 0.303,-0.177 0.302,-0.175 0.303,-0.174 0.303,-0.172 0.302,-0.171 0.303,-0.168 0.302,-0.167 0.303,-0.166 0.303,-0.164 0.302,-0.163 0.303,-0.16 0.302,-0.159 0.303,-0.157 0.302,-0.155 0.303,-0.154 0.303,-0.152 0.301,-0.15 0.304,-0.149 0.301,-0.145 0.304,-0.145 0.302,-0.143 0.303,-0.14 0.302,-0.139 0.303,-0.138 0.302,-0.133 0.303,-0.134 0.302,-0.131 0.303,-0.129 0.303,-0.126 0.302,-0.125 0.303,-0.123 0.302,-0.12 0.303,-0.119 0.303,-0.116 0.302,-0.114 0.303,-0.112 0.303,-0.11"
             style="fill:none;stroke:#01ff00;stroke-width:0.651;stroke-linecap:round;stroke-linejoin:round;stroke-miterlimit:10;stroke-dasharray:none;stroke-opacity:1"
             id="path1811" /><path
             d="m 178.09973,178.218 h 93.798 m -69.592,-25.013 v 50.025 m -24.206,-24.688 0.303,-0.117 0.302,-0.083 0.302,-0.063 0.304,-0.049 0.302,-0.05 0.303,-0.06 0.302,-0.084 0.303,-0.122 0.302,-0.181 0.303,-0.261 0.302,-0.373 0.303,-0.514 0.302,-0.687 0.303,-0.887 0.303,-1.11 0.302,-1.333 0.303,-1.539 0.303,-1.693 0.302,-1.766 0.302,-1.718 0.303,-1.525 0.302,-1.165 0.303,-0.636 0.302,0.039 0.303,0.824 0.303,1.652 0.302,2.454 0.303,3.145 0.302,3.654 0.303,3.924 0.303,3.924 0.302,3.654 0.304,3.144 0.301,2.455 0.303,1.652 0.303,0.823 0.302,0.039 0.303,-0.637 0.302,-1.164 0.303,-1.525 0.303,-1.718 0.302,-1.765 0.303,-1.693 0.302,-1.539 0.303,-1.334 0.302,-1.11 0.303,-0.888 0.302,-0.687 0.303,-0.515 0.303,-0.372 0.302,-0.267 0.303,-0.183 0.302,-0.13 0.303,-0.097 0.302,-0.082 0.303,-0.086 0.303,-0.109 0.302,-0.153 0.303,-0.22 0.302,-0.321 0.303,-0.451 0.302,-0.623 0.303,-0.832 0.303,-1.077 0.302,-1.343 0.303,-1.616 0.302,-1.864 0.303,-2.053 0.303,-2.139 0.302,-2.082 0.303,-1.846 0.302,-1.411 0.303,-0.772 0.302,0.048 0.303,0.997 0.303,2.003 0.302,2.973 0.303,3.81 0.302,4.427 0.303,4.755 0.302,4.754 0.303,4.427 0.302,3.811 0.303,2.973 0.303,2.002 0.302,0.998 0.303,0.047 0.303,-0.771 0.302,-1.411 0.303,-1.847 0.302,-2.083 0.303,-2.138 0.302,-2.052 0.303,-1.864 0.302,-1.617 0.302,-1.343 0.303,-1.077 0.303,-0.833 0.303,-0.622 0.303,-0.452 0.302,-0.319 0.302,-0.221 0.303,-0.152 0.302,-0.11 0.303,-0.087 0.302,-0.081 0.303,-0.097 0.303,-0.13 0.302,-0.185 0.303,-0.263 0.302,-0.374 0.303,-0.514 0.302,-0.688 0.303,-0.888 0.302,-1.11 0.304,-1.333 0.302,-1.539 0.303,-1.693 0.302,-1.766 0.303,-1.718 0.302,-1.525 0.303,-1.165 0.302,-0.636 0.303,0.039 0.303,0.824 0.303,1.652 0.302,2.454 0.303,3.145 0.302,3.654 0.303,3.924 0.302,3.924 0.302,3.654 0.303,3.144 0.302,2.455 0.303,1.652 0.303,0.823 0.303,0.039 0.302,-0.637 0.302,-1.164 0.303,-1.525 0.303,-1.718 0.302,-1.765 0.303,-1.693 0.302,-1.539 0.303,-1.334 0.302,-1.109 0.303,-0.889 0.303,-0.687 0.303,-0.513 0.302,-0.372 0.303,-0.263 0.302,-0.179 0.303,-0.123 0.302,-0.083 0.303,-0.06 0.302,-0.05 0.303,-0.051 0.302,-0.061 0.303,-0.083 0.303,-0.117 0.302,-0.165 0.303,-0.227 0.302,-0.302 0.303,-0.39 0.303,-0.488 0.302,-0.585 0.303,-0.676 0.302,-0.743 0.303,-0.775 0.302,-0.754 0.303,-0.67 0.302,-0.512 0.303,-0.278 0.302,0.017 0.303,0.361 0.303,0.725 0.302,1.078 0.303,1.381 0.303,1.604 0.302,1.723 0.303,1.722 0.302,1.605 0.303,1.381 0.302,1.076 0.303,0.727 0.303,0.361 0.302,0.016 0.303,-0.279 0.302,-0.511 0.302,-0.669 0.303,-0.754 0.303,-0.776 0.303,-0.743 0.302,-0.677 0.303,-0.584 0.302,-0.488 0.302,-0.389 0.303,-0.301 0.302,-0.225 0.304,-0.163 0.302,-0.114 0.303,-0.077 0.302,-0.048 0.303,-0.029 0.302,-0.013 h 0.303 l 0.302,0.013 0.303,0.029 0.303,0.047 0.302,0.07 0.303,0.101 0.302,0.142 0.303,0.187 0.302,0.245 0.303,0.306 0.303,0.367 0.303,0.424 0.302,0.466 0.303,0.485 0.302,0.474 0.303,0.42 0.302,0.32 0.302,0.175 0.304,-0.011 0.301,-0.226 0.303,-0.455 0.303,-0.675 0.302,-0.866 0.303,-1.006 0.302,-1.08 0.303,-1.08 0.303,-1.006 0.302,-0.866 0.303,-0.675 0.302,-0.456 0.303,-0.226 0.302,-0.011 0.303,0.174 0.303,0.322 0.302,0.42 0.303,0.472 0.303,0.486 0.302,0.466 0.302,0.424 0.303,0.367 0.303,0.306 0.302,0.244 0.303,0.19 0.302,0.142 0.303,0.105 0.303,0.074 0.302,0.054 0.303,0.041 0.302,0.036 0.303,0.039 0.302,0.049 0.303,0.073 0.303,0.107 0.302,0.161 0.303,0.235 0.302,0.333 0.303,0.458 0.303,0.613 0.302,0.794 0.302,0.99 0.303,1.193 0.303,1.375 0.302,1.512 0.303,1.577 0.303,1.536 0.302,1.362 0.303,1.041 0.302,0.569 0.303,-0.036 0.302,-0.735 0.303,-1.477 0.303,-2.192 0.302,-2.81 0.303,-3.264 0.302,-3.506 0.303,-3.506 0.303,-3.265 0.302,-2.809 0.303,-2.193 0.302,-1.476 0.303,-0.737 0.302,-0.034 0.303,0.569 0.303,1.04 0.301,1.363 0.304,1.535 0.301,1.577 0.304,1.513 0.302,1.375 0.303,1.191 0.302,0.992 0.303,0.794 0.302,0.614 0.303,0.459 0.302,0.334 0.303,0.237 0.303,0.166 0.302,0.116 0.303,0.089 0.302,0.077 0.303,0.082 0.303,0.107 0.302,0.149 0.303,0.219 0.303,0.315"
             style="fill:none;stroke:#000000;stroke-width:0.651;stroke-linecap:round;stroke-linejoin:round;stroke-miterlimit:10;stroke-dasharray:none;stroke-opacity:1"
             id="path1813" /></g></g></g></g></svg>
