<?xml version="1.0" encoding="UTF-8" standalone="no"?>
<svg
   xmlns:dc="http://purl.org/dc/elements/1.1/"
   xmlns:cc="http://creativecommons.org/ns#"
   xmlns:rdf="http://www.w3.org/1999/02/22-rdf-syntax-ns#"
   xmlns:svg="http://www.w3.org/2000/svg"
   xmlns="http://www.w3.org/2000/svg"
   xmlns:sodipodi="http://sodipodi.sourceforge.net/DTD/sodipodi-0.dtd"
   xmlns:inkscape="http://www.inkscape.org/namespaces/inkscape"
   version="1.1"
   id="svg833"
   xml:space="preserve"
   width="320"
   height="340"
   viewBox="0 0 319.99999 340"
   sodipodi:docname="fig_5.svg"
   inkscape:version="1.0.2 (e86c8708, 2021-01-15)"><metadata
     id="metadata839"><rdf:RDF><cc:Work
         rdf:about=""><dc:format>image/svg+xml</dc:format><dc:type
           rdf:resource="http://purl.org/dc/dcmitype/StillImage" /><dc:title></dc:title></cc:Work></rdf:RDF></metadata><defs
     id="defs837"><clipPath
       clipPathUnits="userSpaceOnUse"
       id="clipPath851"><path
         d="M 0,0 H 612 V 792 H 0 Z"
         id="path849" /></clipPath><clipPath
       clipPathUnits="userSpaceOnUse"
       id="clipPath1539"><path
         d="M 326.778,361.417 H 548.277 V 152.504 H 326.778 Z"
         id="path1537" /></clipPath><clipPath
       clipPathUnits="userSpaceOnUse"
       id="clipPath1545"><path
         d="M 0,0 H 612 V 792 H 0 Z"
         id="path1543" /></clipPath><clipPath
       clipPathUnits="userSpaceOnUse"
       id="clipPath1555"><path
         d="M 0,0 H 612 V 792 H 0 Z"
         id="path1553" /></clipPath><clipPath
       clipPathUnits="userSpaceOnUse"
       id="clipPath1591"><path
         d="M 326.778,361.417 H 548.277 V 152.504 H 326.778 Z"
         id="path1589" /></clipPath><clipPath
       clipPathUnits="userSpaceOnUse"
       id="clipPath1597"><path
         d="M 0,0 H 612 V 792 H 0 Z"
         id="path1595" /></clipPath><clipPath
       clipPathUnits="userSpaceOnUse"
       id="clipPath1607"><path
         d="M 0,0 H 612 V 792 H 0 Z"
         id="path1605" /></clipPath><clipPath
       clipPathUnits="userSpaceOnUse"
       id="clipPath1639"><path
         d="M 326.778,361.417 H 548.277 V 152.504 H 326.778 Z"
         id="path1637" /></clipPath><clipPath
       clipPathUnits="userSpaceOnUse"
       id="clipPath1645"><path
         d="M 0,0 H 612 V 792 H 0 Z"
         id="path1643" /></clipPath><clipPath
       clipPathUnits="userSpaceOnUse"
       id="clipPath1655"><path
         d="M 0,0 H 612 V 792 H 0 Z"
         id="path1653" /></clipPath><clipPath
       clipPathUnits="userSpaceOnUse"
       id="clipPath1691"><path
         d="M 326.778,361.417 H 548.277 V 152.504 H 326.778 Z"
         id="path1689" /></clipPath><clipPath
       clipPathUnits="userSpaceOnUse"
       id="clipPath1697"><path
         d="M 0,0 H 612 V 792 H 0 Z"
         id="path1695" /></clipPath><clipPath
       clipPathUnits="userSpaceOnUse"
       id="clipPath1709"><path
         d="M 0,0 H 612 V 792 H 0 Z"
         id="path1707" /></clipPath><clipPath
       clipPathUnits="userSpaceOnUse"
       id="clipPath1749"><path
         d="M 326.778,361.417 H 548.277 V 152.504 H 326.778 Z"
         id="path1747" /></clipPath><clipPath
       clipPathUnits="userSpaceOnUse"
       id="clipPath1755"><path
         d="M 0,0 H 612 V 792 H 0 Z"
         id="path1753" /></clipPath><clipPath
       clipPathUnits="userSpaceOnUse"
       id="clipPath1767"><path
         d="M 0,0 H 612 V 792 H 0 Z"
         id="path1765" /></clipPath><clipPath
       clipPathUnits="userSpaceOnUse"
       id="clipPath1803"><path
         d="M 326.778,361.417 H 548.277 V 152.504 H 326.778 Z"
         id="path1801" /></clipPath><clipPath
       clipPathUnits="userSpaceOnUse"
       id="clipPath1809"><path
         d="M 0,0 H 612 V 792 H 0 Z"
         id="path1807" /></clipPath><clipPath
       clipPathUnits="userSpaceOnUse"
       id="clipPath1821"><path
         d="M 0,0 H 612 V 792 H 0 Z"
         id="path1819" /></clipPath></defs><sodipodi:namedview
     pagecolor="#ffffff"
     bordercolor="#666666"
     borderopacity="1"
     objecttolerance="10"
     gridtolerance="10"
     guidetolerance="10"
     inkscape:pageopacity="0"
     inkscape:pageshadow="2"
     inkscape:window-width="1280"
     inkscape:window-height="755"
     id="namedview835"
     showgrid="false"
     inkscape:zoom="0.60538277"
     inkscape:cx="205.89598"
     inkscape:cy="170.83465"
     inkscape:window-x="0"
     inkscape:window-y="23"
     inkscape:window-maximized="0"
     inkscape:current-layer="g1817" /><g
     id="g841"
     inkscape:groupmode="layer"
     inkscape:label="RevModPhys.84.1419 (dragged)"
     transform="matrix(1.3333333,0,0,-1.3333333,-431.85747,284.3964)"><g
       id="g843" /><g
       id="g1533"
       transform="translate(3.7166612,-157.33848)"><g
         id="g1535"
         clip-path="url(#clipPath1539)"><g
           id="g1541"
           clip-path="url(#clipPath1545)"><path
             d="m 453.094,309.534 h 93.798 M 477.3,284.521 v 50.025 m -24.206,-25.012 h 13.618 0.301 0.302 l 0.303,-10e-4 0.303,-0.001 0.302,-0.002 0.303,-0.004 0.302,-0.007 0.303,-0.011 0.303,-0.021 0.303,-0.035 0.302,-0.058 0.302,-0.091 0.303,-0.143 0.303,-0.215 0.303,-0.317 0.301,-0.45 0.303,-0.622 0.303,-0.832 0.303,-1.076 0.302,-1.344 0.302,-1.616 0.304,-1.864 0.302,-2.052 0.303,-2.139 0.302,-2.082 0.303,-1.847 0.303,-1.412 0.302,-0.771 0.303,0.048 0.302,0.997 0.302,2.003 0.303,2.972 0.303,3.811 0.303,4.427 0.301,4.755 0.303,4.754 0.303,4.428 0.303,3.81 0.302,2.972 0.302,2.003 0.303,0.997 0.303,0.048 0.302,-0.771 0.303,-1.411 0.302,-1.847 0.303,-2.083 0.302,-2.138 0.304,-2.053 0.302,-1.863 0.303,-1.616 0.302,-1.345 0.303,-1.076 0.303,-0.832 0.301,-0.621 0.303,-0.451 0.303,-0.316 0.303,-0.215 0.302,-0.143 0.302,-0.091 0.303,-0.058 0.303,-0.036 0.302,-0.02 0.303,-0.012 0.302,-0.006 0.303,-0.004 0.302,-0.002 0.303,-10e-4 h 0.303 l 0.302,-0.001 h 59.304"
             style="fill:none;stroke:#000000;stroke-width:0.651;stroke-linecap:round;stroke-linejoin:round;stroke-miterlimit:10;stroke-dasharray:none;stroke-opacity:1"
             id="path1547" /></g></g></g><g
       id="g1549"
       transform="translate(3.7166612,-157.33848)"><g
         id="g1551"
         clip-path="url(#clipPath1555)"><path
           d="m 464.048,309.534 c 0,1.036 -0.84,1.875 -1.875,1.875 -1.037,0 -1.877,-0.839 -1.877,-1.875 0,-1.036 0.84,-1.876 1.877,-1.876 1.035,0 1.875,0.84 1.875,1.876"
           style="fill:#0000ff;fill-opacity:1;fill-rule:nonzero;stroke:none"
           id="path1557" /><path
           d="m 479.176,309.534 c 0,1.036 -0.839,1.875 -1.876,1.875 -1.036,0 -1.875,-0.839 -1.875,-1.875 0,-1.036 0.839,-1.876 1.875,-1.876 1.037,0 1.876,0.84 1.876,1.876"
           style="fill:#0000ff;fill-opacity:1;fill-rule:nonzero;stroke:none"
           id="path1559" /><path
           d="m 494.305,309.534 c 0,1.036 -0.84,1.875 -1.876,1.875 -1.036,0 -1.876,-0.839 -1.876,-1.875 0,-1.036 0.84,-1.876 1.876,-1.876 1.036,0 1.876,0.84 1.876,1.876"
           style="fill:#0000ff;fill-opacity:1;fill-rule:nonzero;stroke:none"
           id="path1561" /><path
           d="m 509.434,309.534 c 0,1.036 -0.841,1.875 -1.876,1.875 -1.036,0 -1.876,-0.839 -1.876,-1.875 0,-1.036 0.84,-1.876 1.876,-1.876 1.035,0 1.876,0.84 1.876,1.876"
           style="fill:#0000ff;fill-opacity:1;fill-rule:nonzero;stroke:none"
           id="path1563" /><path
           d="m 524.562,309.534 c 0,1.036 -0.839,1.875 -1.875,1.875 -1.036,0 -1.877,-0.839 -1.877,-1.875 0,-1.036 0.841,-1.876 1.877,-1.876 1.036,0 1.875,0.84 1.875,1.876"
           style="fill:#0000ff;fill-opacity:1;fill-rule:nonzero;stroke:none"
           id="path1565" /><path
           d="m 539.691,309.534 c 0,1.036 -0.84,1.875 -1.876,1.875 -1.036,0 -1.875,-0.839 -1.875,-1.875 0,-1.036 0.839,-1.876 1.875,-1.876 1.036,0 1.876,0.84 1.876,1.876"
           style="fill:#0000ff;fill-opacity:1;fill-rule:nonzero;stroke:none"
           id="path1567" /><text
           transform="matrix(1,0,0,-1,471.2491,354.1964)"
           style="font-variant:normal;font-weight:normal;font-size:8.7892px;font-family:Helvetica;-inkscape-font-specification:Helvetica;writing-mode:lr-tb;fill:#000000;fill-opacity:1;fill-rule:nonzero;stroke:none"
           id="text1571"><tspan
             x="0 8.2970047 13.1838 18.070595 22.95739 24.908592 29.795387 32.722191 35.165588 37.608986 42.495781 47.382576 51.777176 54.220573 56.171776 61.058571 65.945366"
             y="0"
             sodipodi:role="line"
             id="tspan1569">Wannier functions</tspan></text><text
           transform="matrix(1,0,0,-1,501.0884,271.0892)"
           style="font-variant:normal;font-weight:normal;font-size:8.7892px;font-family:Helvetica;-inkscape-font-specification:Helvetica;writing-mode:lr-tb;fill:#000000;fill-opacity:1;fill-rule:nonzero;stroke:none"
           id="text1575"><tspan
             x="0"
             y="0"
             id="tspan1573">w</tspan></text><text
           transform="matrix(1,0,0,-1,507.4319,268.0537)"
           style="font-variant:normal;font-weight:normal;font-size:6.1524px;font-family:Helvetica;-inkscape-font-specification:Helvetica;writing-mode:lr-tb;fill:#000000;fill-opacity:1;fill-rule:nonzero;stroke:none"
           id="text1579"><tspan
             x="0"
             y="0"
             id="tspan1577">1</tspan></text><text
           transform="matrix(1,0,0,-1,510.9129,271.0899)"
           style="font-variant:normal;font-weight:normal;font-size:8.7892px;font-family:Helvetica;-inkscape-font-specification:Helvetica;writing-mode:lr-tb;fill:#000000;fill-opacity:1;fill-rule:nonzero;stroke:none"
           id="text1583"><tspan
             x="0 2.9268036 7.3214035"
             y="0"
             sodipodi:role="line"
             id="tspan1581">(x)</tspan></text></g></g><g
       id="g1585"
       transform="translate(3.7166612,-157.33848)"><g
         id="g1587"
         clip-path="url(#clipPath1591)"><g
           id="g1593"
           clip-path="url(#clipPath1597)"><path
             d="m 453.094,243.877 h 93.798 M 477.3,218.863 v 50.025 m -24.206,-25.011 h 28.746 l 0.302,-0.001 h 0.303 l 0.604,-0.002 0.303,-0.002 0.303,-0.004 0.303,-0.007 0.302,-0.01 0.302,-0.022 0.303,-0.035 0.303,-0.058 0.302,-0.091 0.303,-0.143 0.302,-0.216 0.303,-0.315 0.302,-0.45 0.303,-0.623 0.303,-0.832 0.302,-1.076 0.302,-1.343 0.303,-1.617 0.303,-1.864 0.302,-2.052 0.302,-2.138 0.304,-2.083 0.303,-1.847 0.302,-1.411 0.302,-0.772 0.303,0.049 0.303,0.997 0.302,2.002 0.303,2.973 0.302,3.81 0.303,4.427 0.302,4.756 0.303,4.754 0.303,4.427 0.302,3.81 0.302,2.973 0.303,2.002 0.303,0.997 0.303,0.048 0.301,-0.771 0.303,-1.411 0.303,-1.847 0.302,-2.082 0.303,-2.139 0.303,-2.052 0.303,-1.864 0.302,-1.617 0.303,-1.342 0.302,-1.077 0.302,-0.832 0.303,-0.623 0.303,-0.45 0.303,-0.315 0.302,-0.216 0.302,-0.143 0.303,-0.091 0.303,-0.058 0.303,-0.035 0.301,-0.021 0.303,-0.011 0.304,-0.007 0.302,-0.004 0.302,-0.002 h 0.303 l 0.302,-10e-4 h 44.478"
             style="fill:none;stroke:#000000;stroke-width:0.651;stroke-linecap:round;stroke-linejoin:round;stroke-miterlimit:10;stroke-dasharray:none;stroke-opacity:1"
             id="path1599" /></g></g></g><g
       id="g1601"
       transform="translate(3.7166612,-157.33848)"><g
         id="g1603"
         clip-path="url(#clipPath1607)"><path
           d="m 464.048,243.877 c 0,1.035 -0.84,1.875 -1.875,1.875 -1.037,0 -1.877,-0.84 -1.877,-1.875 0,-1.037 0.84,-1.877 1.877,-1.877 1.035,0 1.875,0.84 1.875,1.877"
           style="fill:#0000ff;fill-opacity:1;fill-rule:nonzero;stroke:none"
           id="path1609" /><path
           d="m 479.176,243.877 c 0,1.035 -0.839,1.875 -1.876,1.875 -1.036,0 -1.875,-0.84 -1.875,-1.875 0,-1.037 0.839,-1.877 1.875,-1.877 1.037,0 1.876,0.84 1.876,1.877"
           style="fill:#0000ff;fill-opacity:1;fill-rule:nonzero;stroke:none"
           id="path1611" /><path
           d="m 494.305,243.877 c 0,1.035 -0.84,1.875 -1.876,1.875 -1.036,0 -1.876,-0.84 -1.876,-1.875 0,-1.037 0.84,-1.877 1.876,-1.877 1.036,0 1.876,0.84 1.876,1.877"
           style="fill:#0000ff;fill-opacity:1;fill-rule:nonzero;stroke:none"
           id="path1613" /><path
           d="m 509.434,243.877 c 0,1.035 -0.841,1.875 -1.876,1.875 -1.036,0 -1.876,-0.84 -1.876,-1.875 0,-1.037 0.84,-1.877 1.876,-1.877 1.035,0 1.876,0.84 1.876,1.877"
           style="fill:#0000ff;fill-opacity:1;fill-rule:nonzero;stroke:none"
           id="path1615" /><path
           d="m 524.562,243.877 c 0,1.035 -0.839,1.875 -1.875,1.875 -1.036,0 -1.877,-0.84 -1.877,-1.875 0,-1.037 0.841,-1.877 1.877,-1.877 1.036,0 1.875,0.84 1.875,1.877"
           style="fill:#0000ff;fill-opacity:1;fill-rule:nonzero;stroke:none"
           id="path1617" /><path
           d="m 539.691,243.877 c 0,1.035 -0.84,1.875 -1.876,1.875 -1.036,0 -1.875,-0.84 -1.875,-1.875 0,-1.037 0.839,-1.877 1.875,-1.877 1.036,0 1.876,0.84 1.876,1.877"
           style="fill:#0000ff;fill-opacity:1;fill-rule:nonzero;stroke:none"
           id="path1619" /><text
           transform="matrix(1,0,0,-1,516.2159,205.4319)"
           style="font-variant:normal;font-weight:normal;font-size:8.7892px;font-family:Helvetica;-inkscape-font-specification:Helvetica;writing-mode:lr-tb;fill:#000000;fill-opacity:1;fill-rule:nonzero;stroke:none"
           id="text1623"><tspan
             x="0"
             y="0"
             id="tspan1621">w</tspan></text><text
           transform="matrix(1,0,0,-1,522.5618,202.3959)"
           style="font-variant:normal;font-weight:normal;font-size:6.1524px;font-family:Helvetica;-inkscape-font-specification:Helvetica;writing-mode:lr-tb;fill:#000000;fill-opacity:1;fill-rule:nonzero;stroke:none"
           id="text1627"><tspan
             x="0"
             y="0"
             id="tspan1625">2</tspan></text><text
           transform="matrix(1,0,0,-1,526.0428,205.4319)"
           style="font-variant:normal;font-weight:normal;font-size:8.7892px;font-family:Helvetica;-inkscape-font-specification:Helvetica;writing-mode:lr-tb;fill:#000000;fill-opacity:1;fill-rule:nonzero;stroke:none"
           id="text1631"><tspan
             x="0 2.9268036 7.3214035"
             y="0"
             sodipodi:role="line"
             id="tspan1629">(x)</tspan></text></g></g><g
       id="g1633"
       transform="translate(3.7166612,-157.33848)"><g
         id="g1635"
         clip-path="url(#clipPath1639)"><g
           id="g1641"
           clip-path="url(#clipPath1645)"><path
             d="m 453.094,178.218 h 93.798 M 477.3,153.205 v 50.025 m -24.206,-25.012 h 43.874 l 0.303,-10e-4 h 0.604 l 0.606,-0.002 0.303,-0.005 0.302,-0.007 0.302,-0.012 0.303,-0.02 0.303,-0.035 0.303,-0.058 0.301,-0.092 0.303,-0.142 0.304,-0.215 0.302,-0.316 0.302,-0.451 0.303,-0.623 0.302,-0.831 0.302,-1.077 0.303,-1.343 0.302,-1.616 0.304,-1.864 0.301,-2.053 0.304,-2.139 0.303,-2.082 0.302,-1.846 0.302,-1.411 0.303,-0.772 0.303,0.048 0.303,0.997 0.301,2.003 0.304,2.973 0.302,3.81 0.303,4.427 0.302,4.755 0.302,4.754 0.303,4.427 0.303,3.811 0.302,2.973 0.303,2.002 0.303,0.998 0.302,0.047 0.303,-0.771 0.303,-1.411 0.302,-1.847 0.302,-2.083 0.302,-2.138 0.304,-2.052 0.303,-1.864 0.301,-1.617 0.303,-1.343 0.303,-1.077 0.303,-0.832 0.302,-0.622 0.302,-0.449 0.304,-0.316 0.302,-0.216 0.303,-0.144 0.302,-0.091 0.303,-0.057 0.301,-0.035 0.303,-0.021 0.303,-0.013 0.303,-0.005 0.302,-0.004 0.303,-0.002 0.303,-0.001 h 0.303 l 0.301,-0.001 h 29.047"
             style="fill:none;stroke:#000000;stroke-width:0.651;stroke-linecap:round;stroke-linejoin:round;stroke-miterlimit:10;stroke-dasharray:none;stroke-opacity:1"
             id="path1647" /></g></g></g><g
       id="g1649"
       transform="translate(3.7166612,-157.33848)"><g
         id="g1651"
         clip-path="url(#clipPath1655)"><path
           d="m 464.048,178.218 c 0,1.036 -0.84,1.876 -1.875,1.876 -1.037,0 -1.877,-0.84 -1.877,-1.876 0,-1.036 0.84,-1.876 1.877,-1.876 1.035,0 1.875,0.84 1.875,1.876"
           style="fill:#0000ff;fill-opacity:1;fill-rule:nonzero;stroke:none"
           id="path1657" /><path
           d="m 479.176,178.218 c 0,1.036 -0.839,1.876 -1.876,1.876 -1.036,0 -1.875,-0.84 -1.875,-1.876 0,-1.036 0.839,-1.876 1.875,-1.876 1.037,0 1.876,0.84 1.876,1.876"
           style="fill:#0000ff;fill-opacity:1;fill-rule:nonzero;stroke:none"
           id="path1659" /><path
           d="m 494.305,178.218 c 0,1.036 -0.84,1.876 -1.876,1.876 -1.036,0 -1.876,-0.84 -1.876,-1.876 0,-1.036 0.84,-1.876 1.876,-1.876 1.036,0 1.876,0.84 1.876,1.876"
           style="fill:#0000ff;fill-opacity:1;fill-rule:nonzero;stroke:none"
           id="path1661" /><path
           d="m 509.434,178.218 c 0,1.036 -0.841,1.876 -1.876,1.876 -1.036,0 -1.876,-0.84 -1.876,-1.876 0,-1.036 0.84,-1.876 1.876,-1.876 1.035,0 1.876,0.84 1.876,1.876"
           style="fill:#0000ff;fill-opacity:1;fill-rule:nonzero;stroke:none"
           id="path1663" /><path
           d="m 524.562,178.218 c 0,1.036 -0.839,1.876 -1.875,1.876 -1.036,0 -1.877,-0.84 -1.877,-1.876 0,-1.036 0.841,-1.876 1.877,-1.876 1.036,0 1.875,0.84 1.875,1.876"
           style="fill:#0000ff;fill-opacity:1;fill-rule:nonzero;stroke:none"
           id="path1665" /><path
           d="m 539.691,178.218 c 0,1.036 -0.84,1.876 -1.876,1.876 -1.036,0 -1.875,-0.84 -1.875,-1.876 0,-1.036 0.839,-1.876 1.875,-1.876 1.036,0 1.876,0.84 1.876,1.876"
           style="fill:#0000ff;fill-opacity:1;fill-rule:nonzero;stroke:none"
           id="path1667" /><text
           transform="matrix(1,0,0,-1,361.3173,336.7502)"
           style="font-variant:normal;font-weight:normal;font-size:8.7892px;font-family:Symbol;-inkscape-font-specification:Symbol;writing-mode:lr-tb;fill:#000000;fill-opacity:1;fill-rule:nonzero;stroke:none"
           id="text1671"><tspan
             x="0"
             y="0"
             id="tspan1669">ψ</tspan></text><text
           transform="matrix(1,0,0,-1,367.346,333.7902)"
           style="font-variant:normal;font-weight:normal;font-size:7.0313px;font-family:Helvetica;-inkscape-font-specification:Helvetica;writing-mode:lr-tb;fill:#000000;fill-opacity:1;fill-rule:nonzero;stroke:none"
           id="text1675"><tspan
             x="0"
             y="0"
             id="tspan1673">k</tspan></text><text
           transform="matrix(1,0,0,-1,371.6018,331.5744)"
           style="font-variant:normal;font-weight:normal;font-size:5.732px;font-family:Helvetica;-inkscape-font-specification:Helvetica;writing-mode:lr-tb;fill:#000000;fill-opacity:1;fill-rule:nonzero;stroke:none"
           id="text1679"><tspan
             x="0"
             y="0"
             id="tspan1677">0</tspan></text><text
           transform="matrix(1,0,0,-1,372.9133,336.7502)"
           style="font-variant:normal;font-weight:normal;font-size:8.7892px;font-family:Helvetica;-inkscape-font-specification:Helvetica;writing-mode:lr-tb;fill:#000000;fill-opacity:1;fill-rule:nonzero;stroke:none"
           id="text1683"><tspan
             x="0 2.9268036 7.3214035"
             y="0"
             sodipodi:role="line"
             id="tspan1681">(x)</tspan></text></g></g><g
       id="g1685"
       transform="translate(3.7166612,-157.33848)"><g
         id="g1687"
         clip-path="url(#clipPath1691)"><g
           id="g1693"
           clip-path="url(#clipPath1697)"><path
             d="M 328.032,328.774 H 421.83"
             style="fill:none;stroke:#01ff00;stroke-width:0.651;stroke-linecap:round;stroke-linejoin:round;stroke-miterlimit:10;stroke-dasharray:none;stroke-opacity:1"
             id="path1699" /><path
             d="m 328.032,309.534 h 93.798 m -69.592,-25.013 v 50.025 m -24.206,-24.111 0.303,-0.319 0.302,-0.223 0.302,-0.154 0.304,-0.113 0.605,-0.184 0.302,-0.114 0.303,-0.154 0.302,-0.222 0.303,-0.32 0.302,-0.452 0.303,-0.623 0.302,-0.832 0.303,-1.077 0.303,-1.344 0.302,-1.616 0.303,-1.864 0.303,-2.052 0.302,-2.139 0.302,-2.082 0.303,-1.847 0.302,-1.412 0.303,-0.771 0.302,0.048 0.303,0.997 0.303,2.003 0.302,2.972 0.303,3.811 0.302,4.427 0.303,4.755 0.303,4.754 0.302,4.428 0.304,3.81 0.301,2.972 0.303,2.003 0.303,0.997 0.302,0.048 0.303,-0.771 0.302,-1.411 0.303,-1.847 0.303,-2.083 0.302,-2.138 0.303,-2.053 0.302,-1.863 0.303,-1.616 0.302,-1.345 0.303,-1.076 0.302,-0.832 0.303,-0.623 0.303,-0.453 0.302,-0.319 0.303,-0.223 0.302,-0.154 0.303,-0.113 0.605,-0.184 0.303,-0.114 0.302,-0.154 0.303,-0.222 0.302,-0.32 0.303,-0.452 0.302,-0.623 0.303,-0.832 0.303,-1.077 0.302,-1.344 0.303,-1.616 0.302,-1.864 0.303,-2.052 0.303,-2.139 0.302,-2.082 0.303,-1.847 0.302,-1.412 0.303,-0.771 0.302,0.048 0.303,0.997 0.303,2.003 0.302,2.972 0.303,3.811 0.302,4.427 0.303,4.755 0.302,4.754 0.303,4.428 0.302,3.81 0.303,2.972 0.303,2.003 0.302,0.997 0.303,0.048 0.303,-0.771 0.302,-1.411 0.303,-1.847 0.302,-2.083 0.303,-2.138 0.302,-2.053 0.303,-1.863 0.302,-1.616 0.302,-1.345 0.303,-1.076 0.303,-0.832 0.303,-0.623 0.303,-0.453 0.302,-0.319 0.302,-0.223 0.303,-0.154 0.302,-0.113 0.303,-0.092 0.302,-0.092 0.303,-0.114 0.303,-0.154 0.302,-0.222 0.303,-0.32 0.302,-0.452 0.303,-0.623 0.302,-0.832 0.303,-1.077 0.302,-1.344 0.304,-1.616 0.302,-1.864 0.303,-2.052 0.302,-2.139 0.303,-2.082 0.302,-1.847 0.303,-1.412 0.302,-0.771 0.303,0.048 0.303,0.997 0.303,2.003 0.302,2.972 0.303,3.811 0.302,4.427 0.303,4.755 0.302,4.754 0.302,4.428 0.303,3.81 0.302,2.972 0.303,2.003 0.303,0.997 0.303,0.048 0.302,-0.771 0.302,-1.411 0.303,-1.847 0.303,-2.083 0.302,-2.138 0.303,-2.053 0.302,-1.863 0.303,-1.616 0.302,-1.345 0.303,-1.076 0.303,-0.832 0.303,-0.623 0.302,-0.453 0.303,-0.319 0.302,-0.223 0.303,-0.154 0.302,-0.113 0.303,-0.092 0.302,-0.092 0.303,-0.114 0.302,-0.154 0.303,-0.222 0.303,-0.32 0.302,-0.452 0.303,-0.623 0.302,-0.832 0.303,-1.077 0.303,-1.344 0.302,-1.616 0.303,-1.864 0.302,-2.052 0.303,-2.139 0.302,-2.082 0.303,-1.847 0.302,-1.412 0.303,-0.771 0.302,0.048 0.303,0.997 0.303,2.003 0.302,2.972 0.303,3.811 0.303,4.427 0.302,4.755 0.303,4.754 0.302,4.428 0.303,3.81 0.302,2.972 0.303,2.003 0.303,0.997 0.302,0.048 0.303,-0.771 0.302,-1.411 0.302,-1.847 0.303,-2.083 0.303,-2.138 0.303,-2.053 0.302,-1.863 0.303,-1.616 0.302,-1.345 0.302,-1.076 0.303,-0.832 0.302,-0.623 0.304,-0.453 0.302,-0.319 0.303,-0.223 0.302,-0.154 0.303,-0.113 0.302,-0.092 0.303,-0.092 0.302,-0.114 0.303,-0.154 0.303,-0.222 0.302,-0.32 0.303,-0.452 0.302,-0.623 0.303,-0.832 0.302,-1.077 0.303,-1.344 0.303,-1.616 0.303,-1.864 0.302,-2.052 0.303,-2.139 0.302,-2.082 0.303,-1.847 0.302,-1.412 0.302,-0.771 0.304,0.048 0.301,0.997 0.303,2.003 0.303,2.972 0.302,3.811 0.303,4.427 0.302,4.755 0.303,4.754 0.303,4.428 0.302,3.81 0.303,2.972 0.302,2.003 0.303,0.997 0.302,0.048 0.303,-0.771 0.303,-1.411 0.302,-1.847 0.303,-2.083 0.303,-2.138 0.302,-2.053 0.302,-1.863 0.303,-1.616 0.303,-1.345 0.302,-1.076 0.303,-0.832 0.302,-0.623 0.303,-0.453 0.303,-0.319 0.302,-0.223 0.303,-0.154 0.302,-0.113 0.605,-0.184 0.303,-0.114 0.303,-0.154 0.302,-0.222 0.303,-0.32 0.302,-0.452 0.303,-0.623 0.303,-0.832 0.302,-1.077 0.302,-1.344 0.303,-1.616 0.303,-1.864 0.302,-2.052 0.303,-2.139 0.303,-2.082 0.302,-1.847 0.303,-1.412 0.302,-0.771 0.303,0.048 0.302,0.997 0.303,2.003 0.303,2.972 0.302,3.811 0.303,4.427 0.302,4.755 0.303,4.754 0.303,4.428 0.302,3.81 0.303,2.972 0.302,2.003 0.303,0.997 0.302,0.048 0.303,-0.771 0.303,-1.411 0.301,-1.847 0.304,-2.083 0.301,-2.138 0.304,-2.053 0.302,-1.863 0.303,-1.616 0.302,-1.345 0.303,-1.076 0.302,-0.832 0.303,-0.623 0.302,-0.453 0.303,-0.319 0.303,-0.223 0.302,-0.154 0.303,-0.113 0.605,-0.184 0.303,-0.114 0.302,-0.154 0.303,-0.222 0.303,-0.32"
             style="fill:none;stroke:#000000;stroke-width:0.651;stroke-linecap:round;stroke-linejoin:round;stroke-miterlimit:10;stroke-dasharray:none;stroke-opacity:1"
             id="path1701" /></g></g></g><g
       id="g1703"
       transform="translate(3.7166612,-157.33848)"><g
         id="g1705"
         clip-path="url(#clipPath1709)"><path
           d="m 338.985,309.534 c 0,1.036 -0.839,1.875 -1.876,1.875 -1.036,0 -1.876,-0.839 -1.876,-1.875 0,-1.036 0.84,-1.876 1.876,-1.876 1.037,0 1.876,0.84 1.876,1.876"
           style="fill:#0000ff;fill-opacity:1;fill-rule:nonzero;stroke:none"
           id="path1711" /><path
           d="m 354.114,309.534 c 0,1.036 -0.84,1.875 -1.876,1.875 -1.036,0 -1.876,-0.839 -1.876,-1.875 0,-1.036 0.84,-1.876 1.876,-1.876 1.036,0 1.876,0.84 1.876,1.876"
           style="fill:#0000ff;fill-opacity:1;fill-rule:nonzero;stroke:none"
           id="path1713" /><path
           d="m 369.242,309.534 c 0,1.036 -0.84,1.875 -1.875,1.875 -1.037,0 -1.876,-0.839 -1.876,-1.875 0,-1.036 0.839,-1.876 1.876,-1.876 1.035,0 1.875,0.84 1.875,1.876"
           style="fill:#0000ff;fill-opacity:1;fill-rule:nonzero;stroke:none"
           id="path1715" /><path
           d="m 384.371,309.534 c 0,1.036 -0.84,1.875 -1.876,1.875 -1.036,0 -1.876,-0.839 -1.876,-1.875 0,-1.036 0.84,-1.876 1.876,-1.876 1.036,0 1.876,0.84 1.876,1.876"
           style="fill:#0000ff;fill-opacity:1;fill-rule:nonzero;stroke:none"
           id="path1717" /><path
           d="m 399.5,309.534 c 0,1.036 -0.841,1.875 -1.877,1.875 -1.035,0 -1.875,-0.839 -1.875,-1.875 0,-1.036 0.84,-1.876 1.875,-1.876 1.036,0 1.877,0.84 1.877,1.876"
           style="fill:#0000ff;fill-opacity:1;fill-rule:nonzero;stroke:none"
           id="path1719" /><path
           d="m 414.628,309.534 c 0,1.036 -0.84,1.875 -1.876,1.875 -1.036,0 -1.875,-0.839 -1.875,-1.875 0,-1.036 0.839,-1.876 1.875,-1.876 1.036,0 1.876,0.84 1.876,1.876"
           style="fill:#0000ff;fill-opacity:1;fill-rule:nonzero;stroke:none"
           id="path1721" /><text
           transform="matrix(1,0,0,-1,346.7534,354.1964)"
           style="font-variant:normal;font-weight:normal;font-size:8.7892px;font-family:Helvetica;-inkscape-font-specification:Helvetica;writing-mode:lr-tb;fill:#000000;fill-opacity:1;fill-rule:nonzero;stroke:none"
           id="text1725"><tspan
             x="0 5.8623962 7.8135986 12.700394 17.094994 21.981789 24.425186 26.868584 31.755379 36.642174 41.036774 43.480171 45.431374 50.318169 55.204964"
             y="0"
             sodipodi:role="line"
             id="tspan1723">Bloch functions</tspan></text><text
           transform="matrix(1,0,0,-1,361.3171,271.0093)"
           style="font-variant:normal;font-weight:normal;font-size:8.7892px;font-family:Symbol;-inkscape-font-specification:Symbol;writing-mode:lr-tb;fill:#000000;fill-opacity:1;fill-rule:nonzero;stroke:none"
           id="text1729"><tspan
             x="0"
             y="0"
             id="tspan1727">ψ</tspan></text><text
           transform="matrix(1,0,0,-1,367.346,268.0485)"
           style="font-variant:normal;font-weight:normal;font-size:7.0313px;font-family:Helvetica;-inkscape-font-specification:Helvetica;writing-mode:lr-tb;fill:#000000;fill-opacity:1;fill-rule:nonzero;stroke:none"
           id="text1733"><tspan
             x="0"
             y="0"
             id="tspan1731">k</tspan></text><text
           transform="matrix(1,0,0,-1,371.2429,266.1279)"
           style="font-variant:normal;font-weight:normal;font-size:5.2735px;font-family:Helvetica;-inkscape-font-specification:Helvetica;writing-mode:lr-tb;fill:#000000;fill-opacity:1;fill-rule:nonzero;stroke:none"
           id="text1737"><tspan
             x="0"
             y="0"
             id="tspan1735">1</tspan></text><text
           transform="matrix(1,0,0,-1,372.9133,271.0093)"
           style="font-variant:normal;font-weight:normal;font-size:8.7892px;font-family:Helvetica;-inkscape-font-specification:Helvetica;writing-mode:lr-tb;fill:#000000;fill-opacity:1;fill-rule:nonzero;stroke:none"
           id="text1741"><tspan
             x="0 2.9268036 7.3214035"
             y="0"
             sodipodi:role="line"
             id="tspan1739">(x)</tspan></text></g></g><g
       id="g1743"
       transform="translate(3.7166612,-157.33848)"><g
         id="g1745"
         clip-path="url(#clipPath1749)"><g
           id="g1751"
           clip-path="url(#clipPath1755)"><path
             d="m 328.032,261.15 0.303,0.049 0.604,0.094 0.304,0.046 0.302,0.046 0.303,0.045 0.302,0.045 0.303,0.043 0.302,0.044 0.303,0.043 0.302,0.042 0.303,0.043 0.302,0.04 0.303,0.041 0.605,0.079 0.303,0.039 0.303,0.038 0.302,0.038 0.605,0.073 0.302,0.036 0.303,0.036 0.605,0.068 0.303,0.034 0.605,0.065 0.605,0.063 0.605,0.06 0.304,0.029 0.301,0.03 0.303,0.027 0.303,0.029 0.605,0.052 0.302,0.026 0.606,0.05 0.605,0.047 0.605,0.045 0.605,0.042 0.302,0.02 0.303,0.019 0.303,0.019 0.302,0.019 0.605,0.035 0.303,0.016 0.302,0.016 0.606,0.03 0.302,0.014 0.303,0.013 0.302,0.013 0.303,0.012 0.302,0.012 0.303,0.011 0.605,0.02 0.303,0.009 0.302,0.009 0.303,0.007 0.303,0.007 0.302,0.007 0.303,0.006 0.302,0.005 0.303,0.005 0.302,0.004 0.303,0.003 0.303,0.003 0.302,0.002 0.303,0.002 0.302,10e-4 h 0.605 l 0.303,-10e-4 0.302,-0.002 0.303,-0.002 0.303,-0.003 0.302,-0.003 0.303,-0.004 0.303,-0.005 0.302,-0.005 0.303,-0.006 0.302,-0.007 0.303,-0.007 0.302,-0.007 0.303,-0.009 0.302,-0.009 0.605,-0.02 0.303,-0.011 0.303,-0.012 0.303,-0.012 0.302,-0.013 0.302,-0.013 0.303,-0.014 0.605,-0.03 0.302,-0.016 0.303,-0.016 0.605,-0.035 0.303,-0.019 0.302,-0.019 0.303,-0.019 0.302,-0.02 0.605,-0.042 0.606,-0.045 0.605,-0.047 0.605,-0.05 0.303,-0.026 0.605,-0.052 0.303,-0.029 0.303,-0.027 0.302,-0.03 0.303,-0.029 0.605,-0.06 0.604,-0.063 0.605,-0.065 0.303,-0.034 0.606,-0.068 0.302,-0.036 0.302,-0.036 0.606,-0.073 0.302,-0.038 0.303,-0.038 0.302,-0.039 0.303,-0.039 0.302,-0.04 0.303,-0.041 0.303,-0.04 0.303,-0.043 0.302,-0.042 0.605,-0.087 0.303,-0.043 0.302,-0.045 0.303,-0.045 0.302,-0.046 0.303,-0.046 0.302,-0.047 0.303,-0.047 0.303,-0.049 0.302,-0.048 0.303,-0.049 0.302,-0.05 0.303,-0.049 0.303,-0.052 0.302,-0.051 0.303,-0.052 0.302,-0.053 0.605,-0.106 0.303,-0.054 0.605,-0.11 0.302,-0.056 0.303,-0.057 0.303,-0.056 0.302,-0.057 0.606,-0.116 0.302,-0.059 0.908,-0.18 0.302,-0.061 0.908,-0.186 0.303,-0.063 0.604,-0.128 0.303,-0.064 0.303,-0.066 0.303,-0.065 0.302,-0.067 0.303,-0.066 0.302,-0.067 0.605,-0.136 0.302,-0.069 0.304,-0.068 0.605,-0.14 0.907,-0.213 0.605,-0.144 0.606,-0.146 0.302,-0.075 0.303,-0.073 0.302,-0.076 0.303,-0.075 0.302,-0.075 0.303,-0.077 0.303,-0.076 0.605,-0.154 0.605,-0.156 0.303,-0.079 0.302,-0.08 0.302,-0.079 0.304,-0.08 0.301,-0.081 0.303,-0.081 0.303,-0.08 0.605,-0.164 0.302,-0.083 0.606,-0.166 0.302,-0.083 0.303,-0.086 0.302,-0.084 0.605,-0.17 0.303,-0.086 0.303,-0.087 0.302,-0.086 0.908,-0.261 0.302,-0.088 0.606,-0.178 0.302,-0.089 0.303,-0.09 0.302,-0.089 0.303,-0.09 0.303,-0.09 0.302,-0.092 0.303,-0.091 0.302,-0.092 0.605,-0.184 0.303,-0.093 0.303,-0.093 0.302,-0.093 0.303,-0.094 0.302,-0.094 0.303,-0.094 0.303,-0.095 0.302,-0.095 0.908,-0.285 0.605,-0.194 0.303,-0.096 0.302,-0.097 0.303,-0.098 0.302,-0.097 0.303,-0.098 0.302,-0.099 0.303,-0.097 0.303,-0.1 0.302,-0.098 0.303,-0.1 0.302,-0.099 0.908,-0.3 0.605,-0.202 0.303,-0.1 0.302,-0.101 0.303,-0.103 0.303,-0.101 0.301,-0.103 0.304,-0.101 0.301,-0.103 0.304,-0.102 0.302,-0.104 0.303,-0.102 0.302,-0.104 0.303,-0.103 0.605,-0.208 0.302,-0.104 0.303,-0.105 0.303,-0.104 0.302,-0.104 0.303,-0.105 0.302,-0.105 0.303,-0.106 0.303,-0.105 0.302,-0.106 0.303,-0.105 0.303,-0.106"
             style="fill:none;stroke:#01ff00;stroke-width:0.651;stroke-linecap:round;stroke-linejoin:round;stroke-miterlimit:10;stroke-dasharray:none;stroke-opacity:1"
             id="path1757" /><path
             d="m 328.032,243.877 h 93.798 m -69.592,-25.014 v 50.025 m -24.206,-24.268 0.303,-0.265 0.302,-0.185 0.302,-0.128 0.304,-0.096 0.302,-0.081 0.303,-0.084 0.302,-0.104 0.303,-0.146 0.302,-0.212 0.303,-0.304 0.302,-0.433 0.303,-0.595 0.302,-0.795 0.303,-1.027 0.303,-1.285 0.302,-1.544 0.303,-1.781 0.303,-1.96 0.302,-2.043 0.302,-1.989 0.303,-1.765 0.302,-1.348 0.303,-0.737 0.302,0.046 0.303,0.952 0.303,1.913 0.302,2.84 0.303,3.64 0.302,4.23 0.303,4.543 0.303,4.541 0.302,4.229 0.304,3.64 0.301,2.841 0.303,1.914 0.303,0.952 0.302,0.045 0.303,-0.736 0.302,-1.348 0.303,-1.766 0.303,-1.988 0.302,-2.044 0.303,-1.96 0.302,-1.78 0.303,-1.546 0.302,-1.283 0.303,-1.028 0.302,-0.795 0.303,-0.596 0.303,-0.432 0.302,-0.305 0.303,-0.212 0.302,-0.15 0.303,-0.107 0.302,-0.091 0.303,-0.091 0.303,-0.111 0.302,-0.154 0.303,-0.222 0.302,-0.319 0.303,-0.453 0.302,-0.623 0.303,-0.832 0.303,-1.077 0.302,-1.343 0.303,-1.617 0.302,-1.864 0.303,-2.052 0.303,-2.138 0.302,-2.083 0.303,-1.847 0.302,-1.411 0.303,-0.772 0.302,0.049 0.303,0.997 0.303,2.002 0.302,2.973 0.303,3.81 0.302,4.427 0.303,4.756 0.302,4.754 0.303,4.427 0.302,3.81 0.303,2.973 0.303,2.002 0.302,0.997 0.303,0.048 0.303,-0.771 0.302,-1.411 0.303,-1.847 0.302,-2.082 0.303,-2.139 0.302,-2.052 0.303,-1.864 0.302,-1.617 0.302,-1.342 0.303,-1.077 0.303,-0.833 0.303,-0.623 0.303,-0.452 0.302,-0.319 0.302,-0.222 0.303,-0.154 0.302,-0.112 0.303,-0.092 0.302,-0.089 0.303,-0.109 0.303,-0.147 0.302,-0.214 0.303,-0.305 0.302,-0.432 0.303,-0.596 0.302,-0.795 0.303,-1.027 0.302,-1.285 0.304,-1.544 0.302,-1.781 0.303,-1.96 0.302,-2.043 0.303,-1.989 0.302,-1.765 0.303,-1.348 0.302,-0.737 0.303,0.046 0.303,0.952 0.303,1.913 0.302,2.84 0.303,3.64 0.302,4.23 0.303,4.543 0.302,4.541 0.302,4.229 0.303,3.64 0.302,2.841 0.303,1.914 0.303,0.952 0.303,0.045 0.302,-0.736 0.302,-1.348 0.303,-1.766 0.303,-1.988 0.302,-2.044 0.303,-1.96 0.302,-1.78 0.303,-1.546 0.302,-1.283 0.303,-1.028 0.303,-0.795 0.303,-0.595 0.302,-0.433 0.303,-0.304 0.302,-0.211 0.303,-0.146 0.302,-0.105 0.303,-0.084 0.302,-0.081 0.303,-0.095 0.302,-0.13 0.303,-0.184 0.303,-0.265 0.302,-0.372 0.303,-0.515 0.302,-0.687 0.303,-0.889 0.303,-1.109 0.302,-1.334 0.303,-1.539 0.302,-1.693 0.303,-1.765 0.302,-1.718 0.303,-1.526 0.302,-1.164 0.303,-0.636 0.302,0.039 0.303,0.822 0.303,1.654 0.302,2.453 0.303,3.146 0.303,3.653 0.302,3.925 0.303,3.923 0.302,3.654 0.303,3.146 0.302,2.453 0.303,1.652 0.303,0.823 0.302,0.04 0.303,-0.637 0.302,-1.164 0.302,-1.525 0.303,-1.719 0.303,-1.765 0.303,-1.694 0.302,-1.538 0.303,-1.334 0.302,-1.108 0.302,-0.89 0.303,-0.686 0.302,-0.514 0.304,-0.373 0.302,-0.263 0.303,-0.182 0.302,-0.126 0.303,-0.088 0.302,-0.068 0.303,-0.066 0.302,-0.074 0.303,-0.099 0.303,-0.139 0.302,-0.2 0.303,-0.281 0.302,-0.388 0.303,-0.516 0.302,-0.67 0.303,-0.836 0.303,-1.004 0.303,-1.158 0.302,-1.276 0.303,-1.33 0.302,-1.294 0.303,-1.149 0.302,-0.877 0.302,-0.479 0.304,0.03 0.301,0.619 0.303,1.245 0.303,1.848 0.302,2.369 0.303,2.752 0.302,2.956 0.303,2.955 0.303,2.752 0.302,2.368 0.303,1.848 0.302,1.245 0.303,0.62 0.302,0.029 0.303,-0.48 0.303,-0.877 0.302,-1.148 0.303,-1.293 0.303,-1.331 0.302,-1.274 0.302,-1.159 0.303,-1.005 0.303,-0.835 0.302,-0.669 0.303,-0.518 0.302,-0.387 0.303,-0.28 0.303,-0.199 0.302,-0.136 0.303,-0.092 0.302,-0.065 0.303,-0.049 0.302,-0.042 0.303,-0.045 0.303,-0.061 0.302,-0.082 0.303,-0.116 0.302,-0.164 0.303,-0.227 0.303,-0.302 0.302,-0.389 0.302,-0.489 0.303,-0.584 0.303,-0.676 0.302,-0.743 0.303,-0.776 0.303,-0.754 0.302,-0.67 0.303,-0.51 0.302,-0.281 0.303,0.018 0.302,0.361 0.303,0.726 0.303,1.078 0.302,1.38 0.303,1.604 0.302,1.724 0.303,1.722 0.303,1.605 0.302,1.38 0.303,1.077 0.302,0.726 0.303,0.361 0.302,0.018 0.303,-0.28 0.303,-0.511 0.301,-0.669 0.304,-0.755 0.301,-0.776 0.304,-0.743 0.302,-0.676 0.303,-0.585 0.302,-0.487 0.303,-0.39 0.302,-0.302 0.303,-0.224 0.302,-0.164 0.303,-0.115 0.303,-0.078 0.302,-0.053 0.303,-0.035 0.302,-0.023 0.303,-0.017 0.605,-0.028 0.303,-0.018 0.303,-0.023"
             style="fill:none;stroke:#000000;stroke-width:0.651;stroke-linecap:round;stroke-linejoin:round;stroke-miterlimit:10;stroke-dasharray:none;stroke-opacity:1"
             id="path1759" /></g></g></g><g
       id="g1761"
       transform="translate(3.7166612,-157.33848)"><g
         id="g1763"
         clip-path="url(#clipPath1767)"><path
           d="m 338.985,243.877 c 0,1.035 -0.839,1.875 -1.876,1.875 -1.036,0 -1.876,-0.84 -1.876,-1.875 0,-1.037 0.84,-1.877 1.876,-1.877 1.037,0 1.876,0.84 1.876,1.877"
           style="fill:#0000ff;fill-opacity:1;fill-rule:nonzero;stroke:none"
           id="path1769" /><path
           d="m 354.114,243.877 c 0,1.035 -0.84,1.875 -1.876,1.875 -1.036,0 -1.876,-0.84 -1.876,-1.875 0,-1.037 0.84,-1.877 1.876,-1.877 1.036,0 1.876,0.84 1.876,1.877"
           style="fill:#0000ff;fill-opacity:1;fill-rule:nonzero;stroke:none"
           id="path1771" /><path
           d="m 369.242,243.877 c 0,1.035 -0.84,1.875 -1.875,1.875 -1.037,0 -1.876,-0.84 -1.876,-1.875 0,-1.037 0.839,-1.877 1.876,-1.877 1.035,0 1.875,0.84 1.875,1.877"
           style="fill:#0000ff;fill-opacity:1;fill-rule:nonzero;stroke:none"
           id="path1773" /><path
           d="m 384.371,243.877 c 0,1.035 -0.84,1.875 -1.876,1.875 -1.036,0 -1.876,-0.84 -1.876,-1.875 0,-1.037 0.84,-1.877 1.876,-1.877 1.036,0 1.876,0.84 1.876,1.877"
           style="fill:#0000ff;fill-opacity:1;fill-rule:nonzero;stroke:none"
           id="path1775" /><path
           d="m 399.5,243.877 c 0,1.035 -0.841,1.875 -1.877,1.875 -1.035,0 -1.875,-0.84 -1.875,-1.875 0,-1.037 0.84,-1.877 1.875,-1.877 1.036,0 1.877,0.84 1.877,1.877"
           style="fill:#0000ff;fill-opacity:1;fill-rule:nonzero;stroke:none"
           id="path1777" /><path
           d="m 414.628,243.877 c 0,1.035 -0.84,1.875 -1.876,1.875 -1.036,0 -1.875,-0.84 -1.875,-1.875 0,-1.037 0.839,-1.877 1.875,-1.877 1.036,0 1.876,0.84 1.876,1.877"
           style="fill:#0000ff;fill-opacity:1;fill-rule:nonzero;stroke:none"
           id="path1779" /><text
           transform="matrix(1,0,0,-1,361.3173,205.3519)"
           style="font-variant:normal;font-weight:normal;font-size:8.7892px;font-family:Symbol;-inkscape-font-specification:Symbol;writing-mode:lr-tb;fill:#000000;fill-opacity:1;fill-rule:nonzero;stroke:none"
           id="text1783"><tspan
             x="0"
             y="0"
             id="tspan1781">ψ</tspan></text><text
           transform="matrix(1,0,0,-1,367.346,202.3909)"
           style="font-variant:normal;font-weight:normal;font-size:7.0313px;font-family:Helvetica;-inkscape-font-specification:Helvetica;writing-mode:lr-tb;fill:#000000;fill-opacity:1;fill-rule:nonzero;stroke:none"
           id="text1787"><tspan
             x="0"
             y="0"
             id="tspan1785">k</tspan></text><text
           transform="matrix(1,0,0,-1,371.2429,200.4709)"
           style="font-variant:normal;font-weight:normal;font-size:5.2735px;font-family:Helvetica;-inkscape-font-specification:Helvetica;writing-mode:lr-tb;fill:#000000;fill-opacity:1;fill-rule:nonzero;stroke:none"
           id="text1791"><tspan
             x="0"
             y="0"
             id="tspan1789">2</tspan></text><text
           transform="matrix(1,0,0,-1,372.9133,205.3519)"
           style="font-variant:normal;font-weight:normal;font-size:8.7892px;font-family:Helvetica;-inkscape-font-specification:Helvetica;writing-mode:lr-tb;fill:#000000;fill-opacity:1;fill-rule:nonzero;stroke:none"
           id="text1795"><tspan
             x="0 2.9268036 7.3214035"
             y="0"
             sodipodi:role="line"
             id="tspan1793">(x)</tspan></text></g></g><g
       id="g1797"
       transform="translate(3.7166612,-157.33848)"><g
         id="g1799"
         clip-path="url(#clipPath1803)"><g
           id="g1805"
           clip-path="url(#clipPath1809)"><path
             d="m 328.032,189.996 0.605,0.344 0.302,0.17 0.304,0.167 0.302,0.167 0.303,0.165 0.302,0.163 0.303,0.161 0.302,0.159 0.303,0.158 0.302,0.156 0.303,0.155 0.605,0.304 0.303,0.148 0.302,0.148 0.303,0.145 0.303,0.144 0.302,0.14 0.302,0.14 0.303,0.139 0.302,0.134 0.303,0.134 0.302,0.132 0.303,0.13 0.303,0.127 0.302,0.126 0.303,0.123 0.302,0.122 0.303,0.119 0.303,0.117 0.302,0.116 0.304,0.113 0.301,0.111 0.303,0.108 0.303,0.107 0.302,0.104 0.303,0.103 0.302,0.099 0.303,0.098 0.303,0.096 0.302,0.094 0.303,0.09 0.302,0.088 0.303,0.087 0.302,0.084 0.303,0.082 0.302,0.079 0.303,0.078 0.303,0.074 0.302,0.072 0.303,0.07 0.302,0.068 0.303,0.065 0.302,0.063 0.303,0.06 0.303,0.059 0.302,0.055 0.303,0.053 0.302,0.051 0.303,0.049 0.302,0.045 0.303,0.044 0.303,0.041 0.302,0.039 0.303,0.036 0.302,0.033 0.303,0.031 0.303,0.03 0.302,0.025 0.303,0.023 0.302,0.022 0.303,0.019 0.302,0.016 0.303,0.015 0.303,0.011 0.302,0.008 0.303,0.006 0.302,0.004 0.303,0.001 0.302,-0.001 0.303,-0.004 0.302,-0.006 0.303,-0.008 0.303,-0.011 0.302,-0.015 0.303,-0.016 0.303,-0.019 0.302,-0.022 0.303,-0.023 0.302,-0.025 0.303,-0.03 0.302,-0.031 0.303,-0.033 0.302,-0.036 0.302,-0.039 0.303,-0.041 0.303,-0.044 0.303,-0.045 0.303,-0.049 0.302,-0.051 0.302,-0.053 0.303,-0.055 0.302,-0.059 0.303,-0.06 0.302,-0.063 0.303,-0.065 0.303,-0.068 0.302,-0.07 0.303,-0.072 0.302,-0.074 0.303,-0.078 0.302,-0.079 0.303,-0.082 0.302,-0.084 0.304,-0.087 0.302,-0.088 0.303,-0.09 0.302,-0.094 0.303,-0.096 0.302,-0.098 0.303,-0.099 0.302,-0.103 0.303,-0.104 0.303,-0.107 0.303,-0.108 0.302,-0.111 0.303,-0.113 0.302,-0.116 0.303,-0.117 0.302,-0.119 0.302,-0.122 0.303,-0.123 0.302,-0.126 0.303,-0.127 0.303,-0.13 0.303,-0.132 0.302,-0.134 0.302,-0.134 0.303,-0.139 0.605,-0.28 0.303,-0.144 0.302,-0.145 0.303,-0.148 0.302,-0.148 0.606,-0.304 0.303,-0.155 0.302,-0.156 0.303,-0.158 0.302,-0.159 0.303,-0.161 0.302,-0.163 0.303,-0.165 0.302,-0.167 0.303,-0.167 0.302,-0.17 0.303,-0.172 0.303,-0.172 0.302,-0.175 0.303,-0.174 0.302,-0.177 0.303,-0.18 0.303,-0.18 0.302,-0.181 0.605,-0.367 0.303,-0.186 0.302,-0.187 0.303,-0.188 0.302,-0.189 0.303,-0.191 0.605,-0.386 0.303,-0.195 0.302,-0.194 0.303,-0.198 0.303,-0.197 0.302,-0.199 0.303,-0.2 0.302,-0.199 0.303,-0.204 0.302,-0.202 0.303,-0.203 0.303,-0.206 0.302,-0.205 0.303,-0.206 0.302,-0.207 0.302,-0.208 0.303,-0.21 0.303,-0.209 0.303,-0.21 0.302,-0.212 0.303,-0.211 0.302,-0.212 0.302,-0.214 0.303,-0.212 0.302,-0.214 0.304,-0.215 0.302,-0.216 0.303,-0.215 0.302,-0.217 0.303,-0.215 0.302,-0.217 0.303,-0.217 0.605,-0.436 0.303,-0.217 0.302,-0.218 0.303,-0.22 0.302,-0.219 0.303,-0.217 0.302,-0.221 0.303,-0.219 0.303,-0.22 0.303,-0.218 0.302,-0.219 0.303,-0.22 0.302,-0.219 0.605,-0.438 0.302,-0.22 0.304,-0.219 0.301,-0.217 0.303,-0.22 0.303,-0.218 0.302,-0.218 0.303,-0.217 0.302,-0.218 0.303,-0.218 0.303,-0.216 0.302,-0.217 0.303,-0.214 0.302,-0.216 0.303,-0.215 0.302,-0.214 0.303,-0.215 0.303,-0.213 0.302,-0.213 0.303,-0.211 0.303,-0.212 0.302,-0.21 0.302,-0.21 0.606,-0.418 0.302,-0.208 0.303,-0.206 0.302,-0.206 0.303,-0.205 0.303,-0.205 0.302,-0.204 0.303,-0.202 0.302,-0.202 0.303,-0.199 0.302,-0.2 0.303,-0.199 0.303,-0.196 0.302,-0.196 0.303,-0.196 0.302,-0.194 0.303,-0.193 0.303,-0.191 0.302,-0.189 0.302,-0.19 0.303,-0.187 0.303,-0.188 0.302,-0.183 0.303,-0.185 0.303,-0.182 0.302,-0.181 0.303,-0.18 0.302,-0.177 0.303,-0.177 0.302,-0.175 0.303,-0.174 0.303,-0.172 0.302,-0.171 0.303,-0.168 0.302,-0.167 0.303,-0.166 0.303,-0.164 0.302,-0.163 0.303,-0.16 0.302,-0.159 0.303,-0.157 0.302,-0.155 0.303,-0.154 0.303,-0.152 0.301,-0.15 0.304,-0.149 0.301,-0.145 0.304,-0.145 0.302,-0.143 0.303,-0.14 0.302,-0.139 0.303,-0.138 0.302,-0.133 0.303,-0.134 0.302,-0.131 0.303,-0.129 0.303,-0.126 0.302,-0.125 0.303,-0.123 0.302,-0.12 0.303,-0.119 0.303,-0.116 0.302,-0.114 0.303,-0.112 0.303,-0.11"
             style="fill:none;stroke:#01ff00;stroke-width:0.651;stroke-linecap:round;stroke-linejoin:round;stroke-miterlimit:10;stroke-dasharray:none;stroke-opacity:1"
             id="path1811" /><path
             d="m 328.032,178.218 h 93.798 m -69.592,-25.013 v 50.025 m -24.206,-24.688 0.303,-0.117 0.302,-0.083 0.302,-0.063 0.304,-0.049 0.302,-0.05 0.303,-0.06 0.302,-0.084 0.303,-0.122 0.302,-0.181 0.303,-0.261 0.302,-0.373 0.303,-0.514 0.302,-0.687 0.303,-0.887 0.303,-1.11 0.302,-1.333 0.303,-1.539 0.303,-1.693 0.302,-1.766 0.302,-1.718 0.303,-1.525 0.302,-1.165 0.303,-0.636 0.302,0.039 0.303,0.824 0.303,1.652 0.302,2.454 0.303,3.145 0.302,3.654 0.303,3.924 0.303,3.924 0.302,3.654 0.304,3.144 0.301,2.455 0.303,1.652 0.303,0.823 0.302,0.039 0.303,-0.637 0.302,-1.164 0.303,-1.525 0.303,-1.718 0.302,-1.765 0.303,-1.693 0.302,-1.539 0.303,-1.334 0.302,-1.11 0.303,-0.888 0.302,-0.687 0.303,-0.515 0.303,-0.372 0.302,-0.267 0.303,-0.183 0.302,-0.13 0.303,-0.097 0.302,-0.082 0.303,-0.086 0.303,-0.109 0.302,-0.153 0.303,-0.22 0.302,-0.321 0.303,-0.451 0.302,-0.623 0.303,-0.832 0.303,-1.077 0.302,-1.343 0.303,-1.616 0.302,-1.864 0.303,-2.053 0.303,-2.139 0.302,-2.082 0.303,-1.846 0.302,-1.411 0.303,-0.772 0.302,0.048 0.303,0.997 0.303,2.003 0.302,2.973 0.303,3.81 0.302,4.427 0.303,4.755 0.302,4.754 0.303,4.427 0.302,3.811 0.303,2.973 0.303,2.002 0.302,0.998 0.303,0.047 0.303,-0.771 0.302,-1.411 0.303,-1.847 0.302,-2.083 0.303,-2.138 0.302,-2.052 0.303,-1.864 0.302,-1.617 0.302,-1.343 0.303,-1.077 0.303,-0.833 0.303,-0.622 0.303,-0.452 0.302,-0.319 0.302,-0.221 0.303,-0.152 0.302,-0.11 0.303,-0.087 0.302,-0.081 0.303,-0.097 0.303,-0.13 0.302,-0.185 0.303,-0.263 0.302,-0.374 0.303,-0.514 0.302,-0.688 0.303,-0.888 0.302,-1.11 0.304,-1.333 0.302,-1.539 0.303,-1.693 0.302,-1.766 0.303,-1.718 0.302,-1.525 0.303,-1.165 0.302,-0.636 0.303,0.039 0.303,0.824 0.303,1.652 0.302,2.454 0.303,3.145 0.302,3.654 0.303,3.924 0.302,3.924 0.302,3.654 0.303,3.144 0.302,2.455 0.303,1.652 0.303,0.823 0.303,0.039 0.302,-0.637 0.302,-1.164 0.303,-1.525 0.303,-1.718 0.302,-1.765 0.303,-1.693 0.302,-1.539 0.303,-1.334 0.302,-1.109 0.303,-0.889 0.303,-0.687 0.303,-0.513 0.302,-0.372 0.303,-0.263 0.302,-0.179 0.303,-0.123 0.302,-0.083 0.303,-0.06 0.302,-0.05 0.303,-0.051 0.302,-0.061 0.303,-0.083 0.303,-0.117 0.302,-0.165 0.303,-0.227 0.302,-0.302 0.303,-0.39 0.303,-0.488 0.302,-0.585 0.303,-0.676 0.302,-0.743 0.303,-0.775 0.302,-0.754 0.303,-0.67 0.302,-0.512 0.303,-0.278 0.302,0.017 0.303,0.361 0.303,0.725 0.302,1.078 0.303,1.381 0.303,1.604 0.302,1.723 0.303,1.722 0.302,1.605 0.303,1.381 0.302,1.076 0.303,0.727 0.303,0.361 0.302,0.016 0.303,-0.279 0.302,-0.511 0.302,-0.669 0.303,-0.754 0.303,-0.776 0.303,-0.743 0.302,-0.677 0.303,-0.584 0.302,-0.488 0.302,-0.389 0.303,-0.301 0.302,-0.225 0.304,-0.163 0.302,-0.114 0.303,-0.077 0.302,-0.048 0.303,-0.029 0.302,-0.013 h 0.303 l 0.302,0.013 0.303,0.029 0.303,0.047 0.302,0.07 0.303,0.101 0.302,0.142 0.303,0.187 0.302,0.245 0.303,0.306 0.303,0.367 0.303,0.424 0.302,0.466 0.303,0.485 0.302,0.474 0.303,0.42 0.302,0.32 0.302,0.175 0.304,-0.011 0.301,-0.226 0.303,-0.455 0.303,-0.675 0.302,-0.866 0.303,-1.006 0.302,-1.08 0.303,-1.08 0.303,-1.006 0.302,-0.866 0.303,-0.675 0.302,-0.456 0.303,-0.226 0.302,-0.011 0.303,0.174 0.303,0.322 0.302,0.42 0.303,0.472 0.303,0.486 0.302,0.466 0.302,0.424 0.303,0.367 0.303,0.306 0.302,0.244 0.303,0.19 0.302,0.142 0.303,0.105 0.303,0.074 0.302,0.054 0.303,0.041 0.302,0.036 0.303,0.039 0.302,0.049 0.303,0.073 0.303,0.107 0.302,0.161 0.303,0.235 0.302,0.333 0.303,0.458 0.303,0.613 0.302,0.794 0.302,0.99 0.303,1.193 0.303,1.375 0.302,1.512 0.303,1.577 0.303,1.536 0.302,1.362 0.303,1.041 0.302,0.569 0.303,-0.036 0.302,-0.735 0.303,-1.477 0.303,-2.192 0.302,-2.81 0.303,-3.264 0.302,-3.506 0.303,-3.506 0.303,-3.265 0.302,-2.809 0.303,-2.193 0.302,-1.476 0.303,-0.737 0.302,-0.034 0.303,0.569 0.303,1.04 0.301,1.363 0.304,1.535 0.301,1.577 0.304,1.513 0.302,1.375 0.303,1.191 0.302,0.992 0.303,0.794 0.302,0.614 0.303,0.459 0.302,0.334 0.303,0.237 0.303,0.166 0.302,0.116 0.303,0.089 0.302,0.077 0.303,0.082 0.303,0.107 0.302,0.149 0.303,0.219 0.303,0.315"
             style="fill:none;stroke:#000000;stroke-width:0.651;stroke-linecap:round;stroke-linejoin:round;stroke-miterlimit:10;stroke-dasharray:none;stroke-opacity:1"
             id="path1813" /></g></g></g><g
       id="g1815"><g
         id="g1817"
         clip-path="url(#clipPath1821)"><path
           d="m 342.70166,20.879524 c 0,1.036 -0.839,1.876 -1.876,1.876 -1.036,0 -1.876,-0.84 -1.876,-1.876 0,-1.036 0.84,-1.876 1.876,-1.876 1.037,0 1.876,0.84 1.876,1.876"
           style="fill:#0000ff;fill-opacity:1;fill-rule:nonzero;stroke:none"
           id="path1823" /><path
           d="m 357.83066,20.879524 c 0,1.036 -0.84,1.876 -1.876,1.876 -1.036,0 -1.876,-0.84 -1.876,-1.876 0,-1.036 0.84,-1.876 1.876,-1.876 1.036,0 1.876,0.84 1.876,1.876"
           style="fill:#0000ff;fill-opacity:1;fill-rule:nonzero;stroke:none"
           id="path1825" /><path
           d="m 372.95866,20.879524 c 0,1.036 -0.84,1.876 -1.875,1.876 -1.037,0 -1.876,-0.84 -1.876,-1.876 0,-1.036 0.839,-1.876 1.876,-1.876 1.035,0 1.875,0.84 1.875,1.876"
           style="fill:#0000ff;fill-opacity:1;fill-rule:nonzero;stroke:none"
           id="path1827" /><path
           d="m 388.08766,20.879524 c 0,1.036 -0.84,1.876 -1.876,1.876 -1.036,0 -1.876,-0.84 -1.876,-1.876 0,-1.036 0.84,-1.876 1.876,-1.876 1.036,0 1.876,0.84 1.876,1.876"
           style="fill:#0000ff;fill-opacity:1;fill-rule:nonzero;stroke:none"
           id="path1829" /><path
           d="m 403.21666,20.879524 c 0,1.036 -0.841,1.876 -1.877,1.876 -1.035,0 -1.875,-0.84 -1.875,-1.876 0,-1.036 0.84,-1.876 1.875,-1.876 1.036,0 1.877,0.84 1.877,1.876"
           style="fill:#0000ff;fill-opacity:1;fill-rule:nonzero;stroke:none"
           id="path1831" /><path
           d="m 418.34466,20.879524 c 0,1.036 -0.84,1.876 -1.876,1.876 -1.036,0 -1.875,-0.84 -1.875,-1.876 0,-1.036 0.839,-1.876 1.875,-1.876 1.036,0 1.876,0.84 1.876,1.876"
           style="fill:#0000ff;fill-opacity:1;fill-rule:nonzero;stroke:none"
           id="path1833" /><text
           transform="matrix(1,0,0,-1,183.7984,761.0455)"
           style="font-variant:normal;font-weight:normal;font-size:8.2689px;font-family:AdvP6F00;-inkscape-font-specification:AdvP6F00;writing-mode:lr-tb;fill:#000000;fill-opacity:1;fill-rule:nonzero;stroke:none"
           id="text1933"><tspan
             x="0 7.3179765 11.014174 13.767718 17.463917 21.160114 23.913658"
             y="0"
             sodipodi:role="line"
             id="tspan1931">Marzari</tspan></text><text
           transform="matrix(1,0,0,-1,213.0521,761.0455)"
           style="font-variant:normal;font-weight:normal;font-size:8.2689px;font-family:AdvP6F0B;-inkscape-font-specification:AdvP6F0B;writing-mode:lr-tb;fill:#000000;fill-opacity:1;fill-rule:nonzero;stroke:none"
           id="text1937"><tspan
             x="0 3.6961982 9.0139275 13.148377 15.471939"
             y="0"
             sodipodi:role="line"
             id="tspan1935">etal.</tspan></text><text
           transform="matrix(1,0,0,-1,230.5698,761.0455)"
           style="font-variant:normal;font-weight:normal;font-size:8.2689px;font-family:AdvP6F00;-inkscape-font-specification:AdvP6F00;writing-mode:lr-tb;fill:#000000;fill-opacity:1;fill-rule:nonzero;stroke:none"
           id="text1941"><tspan
             x="0 6.4629722 13.780949 17.477146 21.611597 23.935158 30.393169 34.089367 36.41293 38.736488 45.864281 48.187843 52.322292 56.01849 59.714687 62.03825 64.361809 68.058006 71.754204 78.858849 86.115631 89.811829 93.946281 98.080734 100.40429 104.10049 109.8697 112.62325 116.7577 120.89214 124.58834 126.9119 129.23546 133.36992 137.50436 140.6879 145.98247 151.05957 155.19402 158.89023 163.02467 165.77821"
             y="0"
             sodipodi:role="line"
             id="tspan1939">:MaximallylocalizedWannierfunctions:Theory</tspan></text><text
           transform="matrix(1,0,0,-1,403.4824,761.0455)"
           style="font-variant:normal;font-weight:normal;font-size:8.2689px;font-family:AdvP48E673;-inkscape-font-specification:AdvP48E673;writing-mode:lr-tb;fill:#000000;fill-opacity:1;fill-rule:nonzero;stroke:none"
           id="text1945"><tspan
             x="0 3.4580541 6.8582258"
             y="0"
             sodipodi:role="line"
             id="tspan1943">...</tspan></text><text
           transform="matrix(1,0,0,-1,544.1951,761.0455)"
           style="font-variant:normal;font-weight:normal;font-size:7.9702px;font-family:AdvP6F00;-inkscape-font-specification:AdvP6F00;writing-mode:lr-tb;fill:#000000;fill-opacity:1;fill-rule:nonzero;stroke:none"
           id="text1949"><tspan
             x="0 3.9851 7.9702001 11.9553"
             y="0"
             sodipodi:role="line"
             id="tspan1947">1421</tspan></text></g></g></g></svg>
